<?xml version="1.0" encoding="UTF-8"?>
<svg width="750px" height="338px" viewBox="0 0 750 338" version="1.1" xmlns="http://www.w3.org/2000/svg" xmlns:xlink="http://www.w3.org/1999/xlink">
    <!-- Generator: Sketch 53.2 (72643) - https://sketchapp.com -->
    <title>Group</title>
    <desc>Created with Sketch.</desc>
    <g id="Main" stroke="none" stroke-width="1" fill="none" fill-rule="evenodd">
        <g id="CM_Short" transform="translate(-125.000000, -331.000000)">
            <g id="Group" transform="translate(125.000000, 331.159420)">
                <path d="M168.811594,337.623188 C70.9565217,337.623188 5.68434189e-14,264.347826 5.68434189e-14,168.811594 C5.68434189e-14,73.2753623 70.9565217,-1.70530257e-13 168.811594,-1.70530257e-13 C227.710145,-1.70530257e-13 279.652174,29.2173913 307.942029,75.1304348 L243.942029,112.231884 C229.565217,87.1884058 201.73913,72.3478261 168.811594,72.3478261 C111.304348,72.3478261 74.2028986,110.84058 74.2028986,168.811594 C74.2028986,226.782609 111.304348,265.275362 168.811594,265.275362 C201.73913,265.275362 230.028986,250.434783 243.942029,225.391304 L307.942029,262.492754 C280.115942,308.405797 228.173913,337.623188 168.811594,337.623188 Z" id="Path" fill="#EF500B"></path>
                <polygon id="Path" fill="#EF500B" points="749.681159 7.1884058 749.681159 331.826087 675.478261 331.826087 675.478261 143.072464 591.536232 280.811594 583.188406 280.811594 499.246377 143.072464 499.246377 331.826087 425.043478 331.826087 425.043478 7.1884058 499.246377 7.1884058 587.362319 151.42029 675.478261 7.1884058"></polygon>
                <path d="M497.507246,323.014493 L475.710145,335.536232 L438.144928,296.115942 C416.347826,321.15942 384.347826,336.927536 341.217391,336.927536 C277.217391,336.927536 235.478261,301.681159 235.478261,245.565217 C235.478261,205.217391 257.73913,169.507246 299.942029,150.956522 C285.101449,133.797101 273.971014,114.782609 273.971014,87.4202899 C273.971014,34.0869565 317.565217,2.08695652 365.797101,2.08695652 C406.608696,2.08695652 442.318841,24.8115942 456.231884,63.3043478 L435.826087,75.3623188 C426.086957,44.7536232 399.188406,25.7391304 366.26087,25.7391304 C327.768116,25.7391304 299.014493,50.7826087 299.014493,86.4927536 C299.014493,112.927536 314.318841,131.478261 334.26087,151.884058 L435.826087,258.086957 C445.101449,240.927536 452.057971,219.130435 455.304348,193.623188 L477.101449,206.144928 C472.927536,231.652174 465.043478,255.768116 452.985507,276.173913 L497.507246,323.014493 Z M340.289855,313.275362 C373.217391,313.275362 401.043478,301.681159 421.449275,278.492754 L317.101449,169.043478 C276.289855,184.347826 260.521739,215.42029 260.521739,245.101449 C260.521739,287.768116 291.594203,313.275362 340.289855,313.275362 Z" id="&amp;" fill="#2A2A2D" fill-rule="nonzero"></path>
                <path d="M99.8029078,324.121472 C39.3274345,298.722749 5.68434189e-14,239.936181 5.68434189e-14,168.811594 C5.68434189e-14,73.2753623 70.9565217,-4.26325641e-13 168.811594,-4.26325641e-13 C227.710145,-4.26325641e-13 279.652174,29.2173913 307.942029,75.1304348 L243.942029,112.231884 C229.565217,87.1884058 201.73913,72.3478261 168.811594,72.3478261 C111.304348,72.3478261 74.2028986,110.84058 74.2028986,168.811594 C74.2028986,210.419558 93.3155967,241.993356 125.367939,256.502564 L99.8029078,324.121472 L99.8029078,324.121472 Z" id="Path" fill="#EF500B"></path>
                <polygon id="Path" fill="#EF500B" points="499.246377 209.119787 425.043478 177.185884 425.043478 7.1884058 499.246377 7.1884058 587.362319 151.42029 675.478261 7.1884058 749.681159 7.1884058 749.681159 331.826087 675.478261 331.826087 675.478261 143.072464 591.536232 280.811594 583.188406 280.811594 499.246377 143.072464 499.246377 209.119787"></polygon>
            </g>
        </g>
    </g>
</svg>