<?xml version="1.0" encoding="UTF-8"?>
<svg width="800px" height="800px" viewBox="0 0 800 800" version="1.1" xmlns="http://www.w3.org/2000/svg" xmlns:xlink="http://www.w3.org/1999/xlink">
    <!-- Generator: Sketch 53.2 (72643) - https://sketchapp.com -->
    <title>SabbaticalLeave</title>
    <desc>Created with Sketch.</desc>
    <defs>
        <path d="M718.725493,174.386255 C665.930177,-29.2312771 463.804054,58.3217722 339.367705,170.342049 C214.931356,282.362327 -30.9177543,328.432812 241.047943,613.069856 C340.309336,716.956006 479.46509,852.151918 610.979497,842.788857 C695.416012,836.777468 683.508387,762.259984 747.965046,690.693715 C917.201399,502.790484 786.280701,434.928777 718.725493,174.386255 Z" id="path-1"></path>
        <path d="M24.0039047,0.311524202 C13.5587268,65.2022374 5.6938894,123.225988 0.409392425,174.382777 C2.71894464,177.313097 4.60600938,175.980849 6.02234176,174.382777 C16.5637183,122.627674 26.5108974,64.6039228 35.8638791,0.311524202 L24.0039047,0.311524202 Z" id="path-3"></path>
        <path d="M12.2693669,0.311524202 C22.7145447,65.2022374 30.5793822,123.225988 35.8638791,174.382777 C33.5543269,177.313097 31.6672622,175.980849 30.2509298,174.382777 C19.7095533,122.627674 9.76237417,64.6039228 0.409392425,0.311524202 L12.2693669,0.311524202 Z" id="path-5"></path>
        <path d="M0.0680362528,32.4646814 C2.11596413,34.5036446 10.5157546,26.3813468 16.4361639,26.448708 C22.9511783,26.5228345 26.3738974,24.8018272 29.5617133,22.294901 C28.261712,14.4791474 27.7956933,7.04751375 28.1636571,-2.84217094e-14 L6.49843033,1.62634933 C3.91507555,15.0045528 1.77161086,25.2839969 0.0680362528,32.4646814 Z" id="path-7"></path>
        <path d="M3.69300635,0.436493535 L32.7094848,4.20139558 C29.4623045,26.5701245 23.4069007,71.9323103 24.2683274,91.8689339 C24.4669306,96.4653502 24.425275,114.486933 40.4190477,124.102226 C49.0642272,129.299619 74.3804864,138.731061 59.6156739,145.048075 C55.1836407,146.944287 38.6560081,147.570965 35.9769299,145.048075 C33.0585074,142.299794 26.7298184,140.397652 19.5599941,137.991055 C10.0639377,137.570341 4.7749418,134.673195 3.69300635,129.299619 C2.07010317,121.239255 8.25001544,119.17899 6.83371041,101.954521 C4.11977241,68.9488186 -4.97896392,-5.25496443 3.69300635,0.436493535 Z" id="path-9"></path>
        <path d="M3.73770016,0.438986133 L33.1053443,4.22538766 C29.8188657,26.7218533 23.6901777,72.3430799 24.5620296,92.3935516 C24.7630363,97.0162158 24.7630363,114.63262 40.9082105,124.810912 C48.4141107,129.542805 64.1389973,143.572617 55.1415062,147.378974 C50.6550335,149.27696 34.6336924,148.413669 31.9221911,145.876372 C28.9684491,143.112397 27.0533103,141.199393 19.7967147,138.779054 C11.1413647,138.05037 6.33587454,134.774529 5.38024417,128.951531 C3.94679862,120.217035 8.34985946,119.859562 6.91641391,102.536732 C4.16963106,69.342551 -5.03922075,-5.28497292 3.73770016,0.438986133 Z" id="path-11"></path>
        <path d="M32.1360622,96.3231869 C18.6539966,137.553326 -4.08511038,235.847963 0.902818682,261.345691 C47.52641,258.126928 93.0334179,281.830708 122.03184,261.345691 C126.679487,224.383085 110.02123,152.332231 102.258883,134.990592 C91.2230973,110.335858 90.9103993,106.774128 93.551418,85.7350749 C96.1924367,64.6960218 101.594283,65.5887345 95.9827144,43.7995175 C91.7526866,27.3746984 88.2069296,0.783932986 74.7864479,1.3292404 C69.7327714,1.53458379 69.7034074,38.9160495 64.9477065,51.0535779 C62.6003638,57.0444802 37.7877201,-0.767684434 32.1360622,0.317532494 C27.3637307,1.23390342 16.4262965,5.35152929 11.9632625,17.5069081 C8.98790646,25.610494 21.0395723,43.6792232 48.1182599,71.7130958 C40.5270835,78.7508166 35.1996843,86.9541803 32.1360622,96.3231869 Z" id="path-13"></path>
        <linearGradient x1="31.9839146%" y1="0%" x2="72.9251304%" y2="110.138086%" id="linearGradient-15">
            <stop stop-color="#2D2D32" stop-opacity="0" offset="0%"></stop>
            <stop stop-color="#141416" offset="100%"></stop>
        </linearGradient>
        <path d="M24.0039047,0.311524202 C13.5587268,65.2022374 5.6938894,123.225988 0.409392425,174.382777 C2.71894464,177.313097 4.60600938,175.980849 6.02234176,174.382777 C16.5637183,122.627674 26.5108974,64.6039228 35.8638791,0.311524202 L24.0039047,0.311524202 Z" id="path-16"></path>
        <path d="M12.2693669,0.311524202 C22.7145447,65.2022374 30.5793822,123.225988 35.8638791,174.382777 C33.5543269,177.313097 31.6672622,175.980849 30.2509298,174.382777 C19.7095533,122.627674 9.76237417,64.6039228 0.409392425,0.311524202 L12.2693669,0.311524202 Z" id="path-18"></path>
    </defs>
    <g id="SabbaticalLeave" stroke="none" stroke-width="1" fill="none" fill-rule="evenodd">
        <g id="BG" transform="translate(-41.430236, -94.165310)">
            <mask id="mask-2" fill="white">
                <use xlink:href="#path-1"></use>
            </mask>
            <use id="Mask" fill="#8C95D0" opacity="0.4" transform="translate(474.500000, 447.624924) rotate(-255.000000) translate(-474.500000, -447.624924) " xlink:href="#path-1"></use>
            <g id="lamp" mask="url(#mask-2)">
                <g transform="translate(621.430236, 135.165310)">
                    <circle id="Oval" stroke="none" fill="#F4733B" fill-rule="evenodd" cx="38.8164669" cy="127.741464" r="14.1150789"></circle>
                    <path d="M38.3818659,91.3951357 L38.8164669,0" id="Line" stroke="#383A87" stroke-width="4" fill="none" stroke-linecap="round"></path>
                    <path d="M38.8164669,80.4559496 C64.6941115,80.4559496 77.6329338,96.2177877 77.6329338,127.741464 L-9.09494702e-13,127.741464 C-9.09494702e-13,96.2177877 12.9388223,80.4559496 38.8164669,80.4559496 Z" id="Rectangle" stroke="none" fill="#FFFFFF" fill-rule="evenodd"></path>
                </g>
            </g>
            <g id="lamp" mask="url(#mask-2)">
                <g transform="translate(463.430236, 116.165310)">
                    <circle id="Oval" stroke="none" fill="#F4733B" fill-rule="evenodd" cx="38.8164669" cy="146.21706" r="14.1150789"></circle>
                    <path d="M38.3818659,109.870732 L38.3818659,1" id="Line" stroke="#383A87" stroke-width="4" fill="none" stroke-linecap="round"></path>
                    <path d="M38.8164669,98.9315458 C64.6941115,98.9315458 77.6329338,114.693384 77.6329338,146.21706 L-9.09494702e-13,146.21706 C-9.09494702e-13,114.693384 12.9388223,98.9315458 38.8164669,98.9315458 Z" id="Rectangle" stroke="none" fill="#FFFFFF" fill-rule="evenodd"></path>
                </g>
            </g>
        </g>
        <g id="Group-7" transform="translate(265.460316, 237.383130)">
            <rect id="Rectangle" fill="#BDBDD7" x="21.1726183" y="64.2236089" width="101.628568" height="79.7501957"></rect>
            <rect id="Rectangle" fill="#BDBDD7" x="217.372215" y="109.391861" width="83.9847193" height="38.110713"></rect>
            <rect id="Rectangle" fill="#BDBDD7" x="185.613287" y="21.1726183" width="48.6970221" height="38.110713"></rect>
            <rect id="Rectangle" fill="#FFFFFF" x="0" y="140.445035" width="434.038676" height="14.1150789"></rect>
            <rect id="Rectangle" fill="#FFFFFF" x="0" y="53.6372997" width="434.038676" height="14.1150789"></rect>
            <circle id="Oval" fill="#8C95D0" cx="374.04959" cy="26.8186499" r="26.8186499"></circle>
        </g>
        <g id="Table" transform="translate(209.000000, 468.870423)">
            <rect id="Rectangle" fill="#F9F9FD" x="15" y="7" width="530" height="220"></rect>
            <rect id="Rectangle" fill="#BDBDD7" x="0" y="0" width="560" height="18"></rect>
        </g>
        <g id="Chair" transform="translate(598.576177, 538.740064)">
            <g id="Rectangle" transform="translate(0.000000, 7.763293)">
                <mask id="mask-4" fill="white">
                    <use xlink:href="#path-3"></use>
                </mask>
                <use id="Mask" fill="#E38820" xlink:href="#path-3"></use>
                <polygon fill="#E07A07" mask="url(#mask-4)" points="-1.41150789 -15.5265868 113.626385 -15.5265868 103.023535 23.3210221 2.20961635 31.3192097"></polygon>
            </g>
            <g id="Rectangle" transform="translate(66.340871, 7.763293)">
                <mask id="mask-6" fill="white">
                    <use xlink:href="#path-5"></use>
                </mask>
                <use id="Mask" fill="#E38820" xlink:href="#path-5"></use>
                <polygon fill="#E07A07" mask="url(#mask-6)" points="-67.7523786 -15.5265868 47.2855142 -15.5265868 36.682664 23.3210221 -64.1312544 31.3192097"></polygon>
            </g>
            <path d="M7.05685029,-2.66453526e-14 L100.21706,-2.66453526e-14 C96.8215381,9.66184501 89.5108279,14.4927675 78.2849292,14.4927675 C61.4460812,14.4927675 59.8864595,14.4927675 33.6198021,14.4927675 C16.1086972,14.4927675 7.25437992,9.66184501 7.05685029,-2.66453526e-14 Z" id="Rectangle" fill="#E38820"></path>
        </g>
        <g id="Plant" transform="translate(106.500000, 604.954549) scale(-1, 1) translate(-106.500000, -604.954549) translate(24.000000, 491.454549)">
            <ellipse id="Oval" fill="#221603" cx="89.9836279" cy="143.973805" rx="34.9348202" ry="16.2323407"></ellipse>
            <g id="Group-2">
                <path d="M97.5368325,147.811141 C97.5368325,157.11284 77.4252276,151.421244 71.4814687,151.208792 C55.7000652,150.644704 49.0867408,141.640615 35.5661539,130.172882 C30.2557026,125.668726 33.1935753,116.519435 44.3797721,102.725009 C41.3325572,94.3979478 32.2619449,87.4955029 17.1679352,82.0176744 C7.4956652,78.5074714 24.1091684,59.9412793 24.1091684,47.9983115 C24.1091684,36.0665253 21.0228457,40.1625247 4.11152111,30.5219591 C-2.26983911,26.8841648 -0.391286325,13.0571834 4.11152111,7.07412283 C7.77553192,2.20560494 14.4414144,-0.149972439 24.1091684,0.00739069066 C35.4568117,9.54081236 42.2136796,19.7123352 44.3797721,30.5219591 C58.575325,41.3854311 63.3127285,32.8441674 71.4814687,43.0125511 C80.0588426,53.6895987 71.8282481,58.2939182 78.9734034,68.7604087 C92.2101893,88.1501472 110.097615,84.203285 110.097615,102.725009 C110.097615,125.624848 97.5368325,120.365649 97.5368325,147.811141 Z" id="Path-17" fill="#383A87"></path>
                <path d="M99.0437449,158.822073 C100.029427,161.857084 98.6843836,164.435703 95.0086141,166.557931 C75.9914994,109.604152 51.4827819,63.0395693 21.4824615,26.8641824 C45.918474,52.8713524 70.4611732,70.8135812 99.0437449,158.822073 Z" id="Path-18" fill="#6466A1"></path>
            </g>
            <g id="Group-3" transform="translate(86.101981, 37.404959)">
                <path d="M8.85696222,104.720286 C8.85696222,85.27588 7.23860242e-16,89.0018836 0,72.7779532 C0,59.6558013 12.6129286,62.4520488 21.9465596,48.7149317 C26.9848102,41.2996999 21.1811858,38.0376612 27.2293341,30.4732553 C32.9893432,23.2692243 36.32982,29.3204838 46.3395048,21.6240011 C47.8668777,13.9656683 52.6313359,6.75941332 60.6328792,0.00523610894 C67.4498853,-0.106251508 72.150187,1.56261279 74.7337843,5.01182901 C77.9088409,9.25066923 79.2334614,19.04672 74.7337843,21.6240011 C62.8091324,28.4540869 60.6328792,25.5521796 60.6328792,34.0055348 C60.6328792,42.4668117 72.3475289,55.620468 65.5273385,58.1073539 C54.8841265,61.9882506 48.488182,66.8784504 46.3395048,72.7779532 C54.2272077,82.5509392 56.2987846,89.0329701 52.5542356,92.2240458 C43.0204884,100.348631 38.3572468,106.72779 27.2293341,107.127431 C23.0382221,107.277948 8.85696222,111.310294 8.85696222,104.720286 Z" id="Path-17" fill="#5F6BBF"></path>
                <path d="M8.25131308,112.372451 C28.3937082,49.9319409 45.6891688,37.2022385 62.9094464,18.7505991 C41.7679511,44.4164133 24.4964376,77.4531832 11.094906,117.860909 C8.50455823,116.355225 7.55669392,114.525739 8.25131308,112.372451 Z" id="Path-18" fill="#3240AB"></path>
            </g>
            <path d="M91.7579028,136.070173 C91.7579028,136.070173 97.7146195,134.357124 99.632066,136.89452 C102.884423,141.19843 100.373436,145.309094 103.625794,149.619836 C105.794032,152.493664 103.692488,156.430298 97.3211631,161.429737 L86.2549328,163.734915 C86.9205541,159.314325 86.9205541,157.10403 86.2549328,157.10403 C82.6493738,157.10403 79.5401229,154.703535 76.9271799,149.902544 C86.8143285,140.680963 91.7579028,136.070173 91.7579028,136.070173 Z" id="Path-20" fill="#6466A1"></path>
            <path d="M55.0488076,140.445035 C55.0488076,149.361187 70.6896594,156.589156 89.9836279,156.589156 C109.277596,156.589156 124.918448,149.361187 124.918448,140.445035 L124.918448,209.057551 L124.798873,209.057551 C124.878065,209.501156 124.918448,209.949846 124.918448,210.402895 C124.918448,219.319047 109.277596,226.547016 89.9836279,226.547016 C70.6896594,226.547016 55.0488076,219.319047 55.0488076,210.402895 C55.0488076,209.949846 55.0891903,209.501156 55.1683831,209.057551 L55.0488076,209.057551 L55.0488076,140.445035 Z" id="Combined-Shape" fill="#3240AB"></path>
            <path d="M60.5959891,135.824175 C64.9365692,134.423308 76.9673363,133.87275 96.6882903,134.1725 C94.3491855,140.913629 92.0977428,145.428162 89.9339623,147.7161 C87.7786883,149.995044 84.9596112,151.581678 81.4767312,152.476003 C81.7082944,157.339824 81.1378393,161.463899 79.7653657,164.848226 C77.8551923,169.558445 75.6229921,168.883423 73.2056738,173.151626 C68.8559704,180.831796 79.398877,188.436303 69.3090462,188.436303 C59.2192154,188.436303 61.9480264,174.562499 61.9480264,172.049422 C58.1558695,165.950627 52.6998828,163.990283 54.8154925,159.608026 C57.216659,154.634268 62.2841389,153.586169 63.7108175,147.7161 C60.9507605,144.299203 54.0851189,137.925475 60.5959891,135.824175 Z" id="Path-19" fill="#BDBDD7"></path>
            <path d="M60.2348668,170.612667 C66.1895151,158.225108 72.4045862,150.118699 85.8959627,135.839987 C69.3338296,155.702635 61.2823892,168.981082 61.7416415,175.675329 C60.0429182,173.744392 59.5406599,172.056838 60.2348668,170.612667 Z" id="Path-18" fill="#9091BD" transform="translate(72.914369, 155.757658) scale(-1, 1) rotate(131.000000) translate(-72.914369, -155.757658) "></path>
            <path d="M96.2431092,148.567359 C101.17231,146.838467 106.722647,147.225613 112.894121,149.728797 C117.538635,144.720692 121.849425,144.043404 125.826491,147.696932 C131.57477,152.977585 137.835216,162.994641 128.948305,170.08072 C130.352709,172.546275 130.352709,174.533118 128.948305,176.041248 C131.439429,180.404689 131.439429,183.572327 128.948305,185.544162 C124.166071,189.329512 131.346975,194.821967 124.579369,196.68875 C117.811763,198.555534 115.630303,187.74176 114.262212,187.74176 C112.894121,187.74176 110.33657,182.424745 110.143235,180.154566 C109.652525,174.392551 114.262212,173.038473 112.894121,171.677372 C101.194169,169.495433 101.994171,156.39467 93.8892173,156.39467 C88.7857766,152.275479 94.1344591,149.306957 96.2431092,148.567359 Z" id="Path-21" fill="#8C95D0"></path>
            <path d="M106.575306,182.50872 C101.839203,163.564606 126.252883,154.18083 132.040823,150.571606 C111.365009,171.517733 108.69964,166.53008 110.514744,182.72784 C108.247594,182.235284 108.734133,182.775641 106.575306,182.50872 Z" id="Path-18" fill="#5F6BBF" transform="translate(119.005215, 166.649723) rotate(132.000000) translate(-119.005215, -166.649723) "></path>
        </g>
        <path d="M442.929856,371.91456 C442.929856,354.072091 432.491536,353.884695 432.056219,346.655915 C431.572988,338.631493 435.755992,337.60212 441.517276,337.258995 C447.278561,336.915871 450.315156,345.018295 445.916216,345.837105 C441.517276,346.655915 442.094979,347.408535 441.517276,350.215292 C440.939573,353.02205 449.150378,362.121334 442.929856,371.91456 Z" id="Path-9" fill="#FFFFFF" opacity="0.6"></path>
        <g id="Man" transform="translate(286.632934, 291.020429)">
            <g id="Group" transform="translate(16.938095, 0.000000)">
                <g id="Path-91" transform="translate(31.538901, 70.843054) scale(-1, 1) translate(-31.538901, -70.843054) translate(16.538901, 54.343054)">
                    <mask id="mask-8" fill="white">
                        <use xlink:href="#path-7"></use>
                    </mask>
                    <use id="Mask" fill="#EFBC83" xlink:href="#path-7"></use>
                    <path d="M4.41450599,10.5712706 C10.6479582,12.5287663 20.0662589,9.54712584 32.6694081,1.62634933 L28.7601147,-3.65928598 L5.7235387,0.813174663 C5.7235387,4.17228484 5.28719446,7.4249835 4.41450599,10.5712706 Z" fill="#2A2A2D" opacity="0.1" mask="url(#mask-8)"></path>
                </g>
                <path d="M9.32404958,15.9737877 C2.89097448,28.0166035 6.97716352,43.0582692 11.5814557,51.4178943 C15.4526154,58.4464326 19.9469236,61.7965275 29.5136315,60.0562079 C33.9195477,59.2547093 38.1148734,56.7293075 42.0996086,52.4800022 L53.0302893,36.4120007 L53.0302893,22.7865254 L33.9977497,12.204054 C20.5674277,9.06594823 12.342861,10.3225261 9.32404958,15.9737877 Z" id="Path-53" fill="#EFBC83" transform="translate(29.513631, 35.516599) scale(-1, 1) translate(-29.513631, -35.516599) "></path>
                <path d="M0.183867189,3.62327306 C15.1450935,5.02701912 18.4297389,-1.48663805 31.8333675,0.31886579 C42.4464556,1.74847652 48.6440586,8.42056988 52.5638098,19.0668311 C57.5872729,32.7108353 48.7743993,42.6690204 46.4518448,45.1922994 C41.5264857,50.5433278 38.7462538,51.7296605 35.5511763,54.1956996 C37.375258,50.4065256 38.4402838,46.2603848 38.7462538,41.7572772 C43.0601447,40.4420857 45.628675,38.6304878 46.4518448,36.3224835 C47.8830955,32.3095411 46.1380079,29.1839473 44.084686,29.0991872 C41.2773114,28.9833001 39.3949727,33.9147181 36.7304518,35.9211893 C34.4760331,37.6188401 33.2250666,38.6474669 32.5986836,36.825277 C31.5125294,32.5513365 31.2574241,27.5013255 31.8333675,21.6752437 C10.7337006,22.2103027 0.183867189,16.1929791 0.183867189,3.62327306 Z" id="Path-64" fill="#2A2A2D" transform="translate(27.135542, 27.097850) scale(-1, 1) translate(-27.135542, -27.097850) "></path>
            </g>
            <g id="Group-4" transform="translate(0.000000, 243.485111)">
                <g id="Group-2" transform="translate(43.657054, 113.667794) rotate(30.000000) translate(-43.657054, -113.667794) translate(11.657054, 82.167794)">
                    <path d="M7.05489259,26.7176178 C2.4096092,33.8823174 2.4096092,38.4019235 3.34979148,42.3158693 C4.13136752,45.3089085 9.49600138,48.4083475 15.2943644,46.1858005 C22.5945136,43.3876099 24.1014521,43.668151 27.1208137,45.5866583 C36.1424951,51.3190493 48.2809136,53.6464299 52.7284084,51.7610183 C58.3796071,49.3653246 65.4555509,42.3158693 57.4210787,39.3784032 C52.4098012,37.5462409 41.822567,33.1446492 25.6593762,26.1736282 C17.3694271,25.9582704 11.1679325,26.1396003 7.05489259,26.7176178 Z" id="Path-42" fill="#3240AB" transform="translate(31.945590, 39.244585) rotate(22.000000) translate(-31.945590, -39.244585) "></path>
                    <path d="M19.1521676,2.63093733 L15.2401005,22.2291528 C18.7510664,23.8121405 22.8639236,25.1365076 27.578672,26.2022543 C31.4602719,27.0796716 33.1450078,26.6907197 32.6328797,25.0353985 L35.2034857,9.16146071 L19.1521676,2.63093733 Z" id="Path-41" fill="#EFBC83" transform="translate(25.221793, 14.644569) rotate(13.000000) translate(-25.221793, -14.644569) "></path>
                </g>
                <path d="M120.388941,4.24851284 C97.6375375,15.6842065 72.1407978,43.134642 43.8987224,86.5998193 L52.9039773,104.541181 L135.325562,40.6453217 C148.119219,4.94508876 143.140345,-7.18718086 120.388941,4.24851284 Z" id="Path-4" fill="#2A2A2D"></path>
            </g>
            <g id="Group-6" transform="translate(21.878372, 210.314675)">
                <g id="Group-3" transform="translate(61.400593, 138.327773)">
                    <path d="M4.19803794,13.3350093 C-0.447245455,20.4970098 -0.447245455,25.0149132 0.492936829,28.9273846 C1.27451287,31.9192962 6.63914673,35.0175676 12.4375098,32.7958579 C19.737659,29.9987215 21.2445974,30.2791568 24.263959,32.1969414 C33.2856404,37.9271729 41.6772475,38.32919 46.1247424,36.4444887 C51.775941,34.0496976 58.5081519,26.6731837 51.2202007,24.4606796 C45.8483192,22.8298633 36.3757594,18.940045 22.8025216,12.7912247 C14.5125724,12.575948 8.3110779,12.7572096 4.19803794,13.3350093 Z" id="Path-42" fill="#3240AB"></path>
                    <path d="M13.0109599,0.134396503 C7.38172894,7.29765007 4.94513183,11.9914192 5.70116858,14.215704 C6.8352237,17.5521311 13.5342326,21.4856674 20.3841588,18.8306731 C23.9849256,17.4350354 25.5314024,16.5515948 25.0235893,16.1803512 L29.4059549,7.16810757 L13.0109599,0.134396503 Z" id="Path-41" fill="#EFBC83"></path>
                </g>
                <path d="M0.32806531,17.7308157 C5.00000939,35.3871013 13.3192678,45.7602896 25.2858405,48.8503807 C37.2524133,51.9404717 60.3392054,52.6943528 94.5462168,51.1120239 L72.5382726,141.001804 L90.0429002,148.416471 C118.314513,92.2459385 133.694986,59.0572419 136.184321,48.8503807 C139.918324,33.5400888 129.239813,16.0137796 109.482837,9.54244574 C86.4280172,1.99091333 64.3456379,-0.875732354 43.2356996,0.942508695 L0.32806531,17.7308157 Z" id="Path-3" fill="#35353A"></path>
            </g>
            <g id="Group-5" transform="translate(127.741464, 76.221426)">
                <path d="M0.701618667,29.9207497 L12.2128515,18.9812139 C10.4213576,7.63284614 10.4213576,1.57824366 12.2128515,0.817406423 C14.9000923,-0.323849431 15.7719465,4.44886886 17.4370847,7.92181234 C19.102223,11.3947558 21.7501787,16.6184935 25.4057636,15.5678998 C29.0613484,14.5173061 36.0844272,2.66742991 41.7924879,2.66742991 C47.5005487,2.66742991 47.6907714,16.6184935 41.7924879,18.0229157 C37.860299,18.9591971 31.737266,22.9251418 23.423389,29.9207497 L12.2128515,42.7243037 L0.701618667,29.9207497 Z" id="Path-7" fill="#EFBC83"></path>
                <path d="M16.1160989,0.705753944 L39.7796135,0.705753944 C42.4088929,16.2746475 41.751573,25.5257292 37.8076539,28.458999 C31.8917753,32.8589037 24.0039371,32.8589037 18.0880584,28.458999 C14.1441393,25.5257292 13.4868195,16.2746475 16.1160989,0.705753944 Z" id="Rectangle" fill="#352392"></path>
            </g>
            <path d="M64.4469139,100.672408 C64.4469139,100.994159 85.9489759,114.283894 105.135283,132.742392 C111.159922,125.304948 118.791805,115.580207 128.030933,103.568167 L142.93585,116.7074 C130.953627,144.17626 118.353438,159.765257 105.135283,163.474393 C91.9171282,167.183528 75.5111058,156.939528 55.9172158,132.742392 C61.6036812,111.147902 64.4469139,100.457907 64.4469139,100.672408 Z" id="Path-6" fill="#2D3A9E"></path>
            <path d="M32.0428832,73.3235681 C36.8618593,64.9580407 58.8629115,79.854109 68.6224461,88.4458677 C75.7600532,94.7294252 78.6662746,102.44746 81.4732278,121.586226 C83.9157981,138.240506 79.1588511,161.841022 76.9382073,193.054029 C76.4422602,200.024981 89.2930419,213.006822 81.4732278,218.764508 C58.7117711,235.523642 22.9287326,244.723913 13.1295045,232.890446 C3.33027642,221.056979 20.8103863,204.221809 20.9658545,178.750106 C21.1069027,155.640955 16.2454349,130.388624 17.7637716,117.221319 C20.7482612,91.3392582 24.1775863,84.8200453 32.0428832,73.3235681 Z" id="Path-92" fill="#3240AB"></path>
            <path d="M47.3919978,100.922814 C66.9587502,100.922814 68.9574674,117.683836 66.6417123,142.106949 C65.0978755,158.389024 64.199142,171.389759 63.9455117,181.109154 C85.4569475,192.905871 102.37069,199.178825 114.686739,199.928015 C119.189662,204.044438 116.704016,209.089611 108.755029,216.96491 C68.7540651,214.263852 44.6536707,222.201104 36.514496,211.257184 C25.4865681,196.429051 13.2860626,100.922814 47.3919978,100.922814 Z" id="Path-90" fill="#1A2BA2"></path>
            <path d="M116.647894,205.147376 C122.037538,204.743824 128.591034,207.4091 136.308379,213.143205 C144.025725,218.877309 145.854896,224.286252 141.795892,229.370032 L107.482742,213.143205 L116.647894,205.147376 Z" id="Path-5" fill="#EFBC83"></path>
            <path d="M49.3131784,99.0846362 C68.8799308,99.0846362 70.878648,115.845658 68.5628929,140.268771 C67.0190562,156.550847 66.1203226,169.551582 65.8666923,179.270976 C87.3781281,191.067694 104.291871,197.340647 116.60792,198.089837 C121.110843,202.20626 119.387811,208.202122 111.438823,216.07742 C71.4378599,213.376362 47.3677908,206.553873 39.2286162,195.609953 C28.2006883,180.78182 15.2072432,99.0846362 49.3131784,99.0846362 Z" id="Path-90" fill="#3240AB"></path>
        </g>
        <g id="Woman" transform="translate(429.195231, 287.491660)">
            <g id="Path-99" transform="translate(102.390144, 367.093641) scale(-1, 1) translate(-102.390144, -367.093641) translate(69.890144, 293.593641)">
                <mask id="mask-10" fill="white">
                    <use xlink:href="#path-9"></use>
                </mask>
                <use id="Mask" fill="#EFBC83" xlink:href="#path-9"></use>
                <path d="M6.47255005,114.428903 C7.51797088,118.07565 9.64766637,120.862258 12.8616365,122.788727 C23.924009,129.419566 25.2634938,132.778058 38.101645,134.549838 C41.7831739,135.057922 45.1478215,132.564751 48.1955876,127.070326 C61.9250841,129.91946 69.7129585,132.533958 71.5592109,134.913818 C73.4054633,137.293679 70.6528821,141.169788 63.3014673,146.542144 L38.101645,152.148932 L8.39787995,140.708374 L0.551271874,125.678715 L6.47255005,114.428903 Z" fill="#E85720" mask="url(#mask-10)"></path>
            </g>
            <g id="Path-99" transform="translate(144.234550, 377.674785) scale(-1, 1) translate(-144.234550, -377.674785) translate(115.234550, 303.174785)">
                <mask id="mask-12" fill="white">
                    <use xlink:href="#path-11"></use>
                </mask>
                <use id="Mask" fill="#EFBC83" xlink:href="#path-11"></use>
                <path d="M6.55088269,115.08235 C7.6089555,118.749922 9.76442516,121.552443 13.0172917,123.489913 C24.2135441,130.158616 25.5692397,133.536288 38.5627619,135.318185 C42.2888458,135.829171 45.6942132,133.321763 48.7788643,127.795961 L64.0675597,147.378974 L38.5627619,153.017779 L8.49951348,141.511889 L0.557943523,126.396403 L6.55088269,115.08235 Z" fill="#E85720" mask="url(#mask-12)"></path>
            </g>
            <path d="M140.60669,69.462919 C151.565145,71.1326734 161.984618,70.7662025 171.865107,68.3635063 C167.88245,56.5902953 165.619147,40.4922312 165.075197,20.069314 L147.886864,8.89677699 L118.456827,24.7545715 L122.325018,64.4348652 L140.60669,69.462919 Z" id="Path-50" fill="#2A2A2D" transform="translate(145.160967, 39.693313) scale(-1, 1) translate(-145.160967, -39.693313) "></path>
            <path d="M164.546573,54.3980596 C163.685283,60.1388462 165.328384,64.5702501 169.475876,67.6922713 C173.702149,70.8735951 180.432813,72.7455362 189.667867,73.3080945 L187.751667,93.5921868 L120.510991,97.8645469 L121.805067,81.050916 L143.421395,71.8658919 L146.974764,45.8526199 L164.546573,54.3980596 Z" id="Path-51" fill="#F5D7B5" transform="translate(155.089429, 71.858583) scale(-1, 1) translate(-155.089429, -71.858583) "></path>
            <path d="M169.289076,11.8770418 C173.343831,24.076839 173.617011,34.2347699 170.108618,42.3508345 C164.288446,55.8148005 153.924116,56.8656264 147.499241,55.8148005 C143.302237,55.1283559 138.241745,52.6074195 132.317764,48.2519916 L125.988764,30.0869911 L139.678675,18.566411 L163.468904,10.2655119 L169.289076,11.8770418 Z" id="Path-48" fill="#F5D7B5" transform="translate(149.269296, 33.191822) scale(-1, 1) translate(-149.269296, -33.191822) "></path>
            <polygon id="Path-56" fill="#5F6BBF" transform="translate(148.584575, 110.525345) scale(-1, 1) translate(-148.584575, -110.525345) " points="138.313751 95.7339341 158.855398 93.7583421 158.018179 127.292348 153.972275 127.292348"></polygon>
            <path d="M9.50555289,185.842495 C17.1597339,182.469928 21.7945582,177.99893 23.4100258,172.429501 C25.4952124,165.240686 39.2485344,156.72723 48.6593907,152.568094 C53.2139124,150.555219 58.0668207,152.217916 44.6046764,169.448675 C31.1425322,186.679434 33.0903111,182.520939 30.416724,184.364596 C27.2878866,186.522186 24.9787611,190.559008 23.4893475,196.475063 L11.5682937,192.80887 L9.50555289,185.842495 Z" id="Path-59" fill="#EFBC83" transform="translate(31.448563, 174.185544) scale(-1, 1) rotate(52.000000) translate(-31.448563, -174.185544) "></path>
            <path d="M49.3310725,78.0178905 C51.1279163,86.7062893 52.0263381,94.4855148 52.0263381,101.355567 C52.0263381,143.324617 53.0795793,152.287647 60.1493824,174.672749 C61.9654993,180.423115 122.792042,186.810761 132.729866,181.417527 C136.379448,179.436907 136.379448,173.750983 132.729866,164.359756 C106.528577,160.343517 90.1193322,155.637546 83.5021315,150.241845 C79.4589562,135.692901 83.2978923,133.337686 77.9998646,119.732617 C74.1365606,109.811846 70.6373107,99.6301492 67.5021149,89.1875272 L49.3310725,78.0178905 Z" id="Path-52" fill="#2F3179" transform="translate(92.399062, 130.736120) scale(-1, 1) translate(-92.399062, -130.736120) "></path>
            <g id="Path-63" transform="translate(145.285906, 205.489848) scale(-1, 1) translate(-145.285906, -205.489848) translate(83.785906, 70.489848)">
                <mask id="mask-14" fill="white">
                    <use xlink:href="#path-13"></use>
                </mask>
                <use id="Mask" fill="#383A87" xlink:href="#path-13"></use>
                <path d="M18.6435501,130.994718 C39.874698,131.67886 70.4911971,119.92232 83.7319593,79.8907928 C85.0503928,75.3755723 66.3293747,82.4070964 27.568905,100.985365 C23.5546942,107.770575 20.5795759,117.773693 18.6435501,130.994718 Z" fill="#141416" opacity="0.1" mask="url(#mask-14)"></path>
            </g>
            <polygon id="Path-55" fill="#FFFFFF" transform="translate(162.279005, 97.864547) scale(-1, 1) translate(-162.279005, -97.864547) " points="182.13593 120.307498 157.297196 69.1211135 142.422081 72.5826326 173.527395 126.60798"></polygon>
            <path d="M182.560284,17.458433 C177.405722,22.5398761 169.739385,24.5449916 159.561273,23.4737795 C158.720139,28.9005144 157.261918,33.3403187 155.186613,36.7931924 C153.417951,29.7990807 152.358423,28.1270186 149.220227,27.2583591 C146.280962,26.4447638 143.031691,30.2495909 143.978324,35.5516214 C144.615835,39.1222782 145.727003,39.5990068 149.220227,39.5990068 C150.028372,39.5990068 150.598938,39.5990068 150.931927,39.5990068 C151.682635,52.9725316 153.100864,64.4100912 155.186613,73.9116858 C136.570095,71.7784083 126.753124,68.1598838 124.931389,54.9265755 C121.933422,33.1489619 140.937974,-3.18306671 164.649024,0.223493437 C186.589615,3.37569213 188.086945,18.5003238 188.293482,25.0805977 C188.358039,27.1373723 187.790083,29.3151337 186.589615,31.6138818 C184.85418,27.9842795 183.51107,23.2657966 182.560284,17.458433 Z" id="Path-49" fill="#2A2A2D" transform="translate(156.458872, 36.955843) scale(-1, 1) translate(-156.458872, -36.955843) "></path>
            <path d="M161.936645,49.9588246 C163.63837,49.9588246 165.017892,48.6033864 165.017892,46.9313686 C165.017892,45.2593508 163.477268,37.6402103 161.936645,37.6402103 C160.396021,37.6402103 158.855398,45.2593508 158.855398,46.9313686 C158.855398,48.6033864 160.234919,49.9588246 161.936645,49.9588246 Z" id="Oval" fill="#E85720" transform="translate(161.936645, 43.799517) scale(-1, 1) translate(-161.936645, -43.799517) "></path>
            <path d="M166.293106,155.351414 C156.812439,130.756612 147.714228,109.541221 138.998473,91.7052398 C150.685673,96.068421 164.380103,114.017997 180.081765,145.553968 L166.293106,155.351414 Z" id="Path-62" fill="url(#linearGradient-15)" opacity="0.3" transform="translate(159.540119, 123.528327) scale(-1, 1) translate(-159.540119, -123.528327) "></path>
            <path d="M132.943792,78.0178905 C126.937663,83.5610902 123.934599,89.7677162 123.934599,96.6377684 C123.934599,138.606819 140.478919,167.129179 154.780975,184.818402 C166.037652,198.741007 190.110194,165.930313 196.312707,154.348462 C198.408465,150.435088 198.408465,146.606662 196.312707,142.863185 L190.093789,137.487877 C186.831956,136.775216 183.818193,137.235116 181.052499,138.867578 C176.857722,141.343563 172.656855,145.081833 168.449899,150.082388 C167.423708,138.919253 165.144603,128.802663 161.612584,119.732617 C157.74928,109.811846 152.633063,100.937619 146.263932,93.1099353 L132.943792,78.0178905 Z" id="Path-52" fill="#383A87" transform="translate(160.909562, 133.109471) scale(-1, 1) translate(-160.909562, -133.109471) "></path>
            <path d="M131.466536,119.69826 L133.931708,67.7523786 L141.737359,70.632061 C138.691575,96.6597474 137.168682,114.405897 137.168682,123.87051 C135.259359,121.372489 133.358644,119.981739 131.466536,119.69826 Z" id="Path-54" fill="#FFFFFF" transform="translate(136.601948, 95.811445) scale(-1, 1) translate(-136.601948, -95.811445) "></path>
            <path d="M96.9653174,112.236264 L120.091411,112.236264 C122.183772,124.731621 121.302778,132.623426 117.448429,135.911678 C111.666906,140.844057 105.389823,140.844057 99.6082996,135.911678 C95.7539506,132.623426 94.8729565,124.731621 96.9653174,112.236264 Z" id="Rectangle" fill="#E85720"></path>
            <path d="M94.4915728,140.374373 C100.40643,132.981662 105.01458,127.481993 108.316021,123.875366 C114.482733,117.138602 119.68663,115.005856 121.766493,114.388386 C124.075221,113.70297 135.083971,116.65575 133.332848,120.77301 C132.148907,123.556705 130.133657,126.177597 127.236384,130.372001 C125.218587,133.293181 117.525135,137.796245 113.868116,138.08367 C109.327005,138.440581 110.532872,140.444488 108.316021,142.004864 C105.969686,143.656379 105.629569,144.987897 101.001505,146.454637 C98.8997127,146.007634 96.7297353,143.980879 94.4915728,140.374373 Z" id="Path-57" fill="#F5D7B5" transform="translate(114.006137, 130.372001) scale(-1, 1) translate(-114.006137, -130.372001) "></path>
        </g>
        <g id="Chair" transform="translate(288.044442, 552.855142)">
            <g id="Rectangle" transform="translate(0.000000, 7.763293)">
                <mask id="mask-17" fill="white">
                    <use xlink:href="#path-16"></use>
                </mask>
                <use id="Mask" fill="#E38820" xlink:href="#path-16"></use>
                <polygon fill="#E07A07" mask="url(#mask-17)" points="-1.41150789 -15.5265868 113.626385 -15.5265868 103.023535 23.3210221 2.20961635 31.3192097"></polygon>
            </g>
            <g id="Rectangle" transform="translate(66.340871, 7.763293)">
                <mask id="mask-19" fill="white">
                    <use xlink:href="#path-18"></use>
                </mask>
                <use id="Mask" fill="#E38820" xlink:href="#path-18"></use>
                <polygon fill="#E07A07" mask="url(#mask-19)" points="-67.7523786 -15.5265868 47.2855142 -15.5265868 36.682664 23.3210221 -64.1312544 31.3192097"></polygon>
            </g>
            <path d="M7.05685029,-2.66453526e-14 L100.21706,-2.66453526e-14 C96.8215381,9.66184501 89.5108279,14.4927675 78.2849292,14.4927675 C61.4460812,14.4927675 59.8864595,14.4927675 33.6198021,14.4927675 C16.1086972,14.4927675 7.25437992,9.66184501 7.05685029,-2.66453526e-14 Z" id="Rectangle" fill="#E38820"></path>
        </g>
    </g>
</svg>