<?xml version="1.0" encoding="UTF-8"?>
<svg width="1023px" height="920px" viewBox="0 0 1023 920" version="1.1" xmlns="http://www.w3.org/2000/svg" xmlns:xlink="http://www.w3.org/1999/xlink">
    <!-- Generator: Sketch 53.2 (72643) - https://sketchapp.com -->
    <title>Components</title>
    <desc>Created with Sketch.</desc>
    <defs>
        <path d="M0.254770094,26.1904224 C2.67052022,28.6007211 7.40938415,31.1859126 14.3931406,31.2655416 C22.0782974,31.353168 26.115761,29.3187312 29.876131,26.355244 C28.3426403,17.1160869 27.7929213,8.33100557 28.2269741,-2.84217094e-14 L2.67052022,1.92253975 C3.06956872,9.61269874 2.26431868,17.7019929 0.254770094,26.1904224 Z" id="path-1"></path>
        <path d="M77.9607987,3.59839558 C56.6357199,30.6382621 46.2348943,37.0644161 33.9408821,41.6926835 C28.0322931,43.9170615 20.9642542,42.9641258 17.4577261,43.9170615 C12.939361,45.1449746 7.29148203,47.2816798 0.514089176,50.3271772 L4.24604669,62.6359921 L15.6144278,59.5213083 C11.645586,72.4312418 10.0616232,80.7050349 10.8625393,84.3426877 C12.3390859,91.0489627 13.2989691,110.283686 17.4577261,114.910123 C24.1251543,122.327348 24.1251543,105.385479 30.0281687,93.955654 C39.5140762,75.5883833 36.3807439,65.9500354 41.7883022,62.8725805 C77.5282155,42.532907 108.231527,25.8139811 133.898237,12.7158028 L104.23158,2.11930047 C89.5178463,-0.445144931 80.7609191,0.0478867751 77.9607987,3.59839558 Z" id="path-3"></path>
        <path d="M0.897065235,32.9507172 C-0.651761352,23.845491 1.5181636,12.8619186 7.40684009,-2.25099939e-11 L37.3841735,3.10062839 C33.0249575,33.0722666 31.4235658,61.4145279 32.5799984,88.1274123 C32.8466155,94.286105 38.0115075,93.8338844 49.303314,101.505454 C59.2166802,108.240522 88.0500306,120.074057 76.1156739,125.145198 C70.1647744,127.673851 43.7196427,126.442862 41.3313988,123.999118 C37.6029012,120.183975 30.9260442,116.664115 21.3008277,113.43954 L21.3008277,125.145198 L7.40684009,125.145198 C5.78746558,116.664848 4.97777833,110.07489 4.97777833,105.375323 C4.97777833,100.47006 6.36510838,94.3553098 7.40684009,88.1274123 C9.57437317,75.1690147 6.71231991,67.1373782 0.897065235,32.9507172 Z" id="path-5"></path>
        <path d="M4.39440694,0.516630488 L38.9218901,4.97274043 C35.0579835,31.4482009 27.8524967,85.1385453 28.8775313,108.735384 C29.1138545,114.175668 29.0642874,135.505879 48.095705,146.886467 C58.3828351,153.038064 88.5073285,164.201048 70.9382835,171.677818 C65.6644887,173.92216 45.9978171,174.663892 42.8099103,171.677818 C39.3372014,168.424973 31.8065252,166.173613 23.2749597,163.325182 C11.9753484,162.827228 5.68183085,159.398188 4.39440694,153.038064 C2.46327108,143.497877 9.81691384,141.059363 8.13161463,120.672609 C4.90222728,81.6073068 -5.92460222,-6.21973666 4.39440694,0.516630488 Z" id="path-7"></path>
        <path d="M4.39152725,0.520182437 L38.8963842,5.00692912 C35.0350097,31.6644143 27.8342447,85.7238916 28.8586077,109.482964 C29.094776,114.960651 29.094776,135.835443 48.0641875,147.896344 C56.8830772,153.503464 75.3586812,170.128275 64.7872801,174.638669 C59.5159993,176.887713 40.6920827,175.864745 37.5062649,172.858141 C34.0358317,169.582932 31.7856822,167.316093 23.2597074,164.448079 C13.0902974,163.584616 7.44419417,159.702865 6.32139763,152.802827 C4.63720282,142.452769 9.81048073,142.029177 8.12628592,121.50226 C4.89901481,82.1683751 -5.92071978,-6.26249872 4.39152725,0.520182437 Z" id="path-9"></path>
        <path d="M38.0813749,117.097776 C22.1050679,165.900157 -4.81801929,282.788869 1.09269856,312.969456 C37.1790085,342.090083 102.708251,304.3125 155.475395,311.44441 C155.190558,310.614373 138.80528,186.085956 120.801001,138.078163 C117.414541,129.048285 117.929655,117.621896 120.801001,106.320046 C121.679457,102.86237 135.529931,102.852431 147.697556,88.8457065 C156.122765,79.1470514 160.33537,66.1765265 160.33537,49.9341317 C152.143412,49.9341317 146.621446,46.2220809 143.769472,38.7979793 C136.507986,41.4785598 138.80528,45.2162923 132.220163,48.8893234 C125.635045,52.5623545 135.857528,44.6231041 128.832951,37.7100108 C118.111777,27.1589858 106.983409,-0.213389111 91.0800791,0.432068331 C85.0914503,0.675124664 82.5988439,49.147363 76.9633175,63.5140447 C74.181706,70.6052236 44.7786143,2.17539656 38.0813749,3.45992218 C32.426141,4.5445919 19.4652335,9.41845241 14.1765186,23.806263 C10.6507086,33.3981366 24.9319855,54.7853313 57.0203493,87.9678469 C48.0247719,96.2981009 41.7117805,106.008077 38.0813749,117.097776 Z" id="path-11"></path>
        <linearGradient x1="32.370405%" y1="0%" x2="72.4333287%" y2="110.138086%" id="linearGradient-13">
            <stop stop-color="#2D2D32" stop-opacity="0" offset="0%"></stop>
            <stop stop-color="#141416" offset="100%"></stop>
        </linearGradient>
        <path d="M8.19870497,12.5907548 L26.0841171,19.5176568 C25.5949788,18.2419178 25.5949788,16.9941963 26.0841171,15.7744922 C27.2208225,12.9400295 30.4813282,-3.3232517 38.5144117,0.681054186 C62.4065974,12.5907548 79.5239653,20.9377547 93.3060178,30.3180431 C98.0299559,33.533232 94.2967304,41.5001393 86.3762554,40.2877895 C64.5424282,36.9457886 56.2916298,34.8707724 49.146815,34.8707724 C43.5848392,34.8707724 23.1642134,40.3030767 3.25116453,38.6402431 C-0.359311117,28.42118 0.531620166,25.0604354 0.531620166,24.5061575 C0.531620166,24.136639 3.0873151,20.164838 8.19870497,12.5907548 Z" id="path-14"></path>
        <path d="M47.0623047,0.67951177 C48.1961275,15.980546 47.8435285,23.8006026 46.0045076,24.1396814 C21.5452,28.6494906 18.4535441,33.4186793 1.39573224,38.008535 C-1.42572648,38.7677232 0.000666538795,47.6711774 6.94666732,47.6711774 C25.7093179,47.6711774 46.8303771,47.6711839 70.3098448,47.6711969 L70.3098448,0.60818538 L47.0623047,0.67951177 Z" id="path-16"></path>
        <path d="M3.8373411,0.0319629972 C3.16543172,-0.292140927 2.27373675e-13,1.93547198 2.27373675e-13,2.78457124 C2.27373675e-13,4.10771083 0.787857004,4.52709638 0.885540328,5.81244035 C0.938429186,6.51298788 4.38208503,6.14373117 4.72288112,5.52369821 C5.01806122,4.98665778 7.0162465,1.54814998 4.72288112,0.510735559 L3.8373411,0.0319629972 Z" id="path-18"></path>
    </defs>
    <g id="ComPro" stroke="none" stroke-width="1" fill="none" fill-rule="evenodd">
        <g id="Cover" transform="translate(-835.000000, -80.000000)">
            <g id="Components" transform="translate(835.153280, 80.000000)">
                <path d="M271.223937,622.276003 C335.378506,621.010389 568.729088,623.953314 691.399894,609.885067 C772.98957,600.528125 795.96658,674.236089 670.369509,689.734383 C544.772438,705.232677 380.338132,701.177499 266.829576,688.327952 C148.014033,674.877637 207.069369,623.541617 271.223937,622.276003 Z" id="Rectangle" fill="#8C95D0" opacity="0.3" transform="translate(478.516150, 654.413192) rotate(41.000000) translate(-478.516150, -654.413192) "></path>
                <path d="M131.663987,734.474882 C108.916079,746.101256 57.7233,708.727844 8.97594245,703.897733 C-24.9724523,700.53397 45.6854544,632.687782 82.7499258,640.802344 C106.740204,646.05456 148.092027,608.233526 162.140838,637.343905 C172.48969,658.787642 203.023821,698.003128 131.663987,734.474882 Z" id="Path-12" fill="#8C95D0" opacity="0.2"></path>
                <path d="M696.947823,736.505338 C595.022502,655.521495 827.991783,635.953967 875.140838,626.741641 C927.111426,616.58725 1009.41975,657.082033 1017.37613,667.433102 C1049.53921,709.276504 909.089233,712.394414 875.140838,715.758176 C826.39348,720.588288 712.618179,748.956078 696.947823,736.505338 Z" id="Path-12" fill="#8C95D0" opacity="0.2"></path>
                <path d="M513.533531,887.175421 C456.505498,928.835752 366.430414,919.576612 317.683057,914.7465 C283.734662,911.382738 86.2130572,925.264796 118.376132,883.421395 C126.332517,873.070325 311.412374,855.763893 355.556049,844.271246 C399.473903,832.837392 566.341353,848.598055 513.533531,887.175421 Z" id="Path-12" fill="#8C95D0" opacity="0.2"></path>
                <g id="man" transform="translate(511.346720, 0.000000)">
                    <g id="Group-12" transform="translate(62.908028, 401.923048) scale(-1, 1) translate(-62.908028, -401.923048) translate(0.691297, 220.298028)">
                        <path d="M60.5323147,332.481913 C55.0527058,340.951446 55.0527058,346.294162 56.1617514,350.920915 C57.083704,354.459046 63.4118638,358.122954 70.2516537,355.495637 C78.862961,352.187841 80.6405562,352.519474 84.2022164,354.787379 C94.8442552,361.563752 109.162819,364.314995 114.409115,362.086213 C121.075309,359.254216 129.422142,350.920915 119.944622,347.448478 C114.033284,345.282643 101.544508,340.079434 82.4782944,331.838852 C72.6994122,331.584273 65.3840856,331.798627 60.5323147,332.481913 Z" id="Path-42" fill="#3240AB"></path>
                        <path d="M56.4098361,325.100492 L60.1562068,333.550993 C63.7519115,334.763508 68.330539,335.999686 73.8920894,337.259526 C78.4708519,338.296739 81.2857269,338.296739 82.3367144,337.259526 L82.3367144,328.099958 L56.4098361,325.100492 Z" id="Path-41" fill="#EFBC83"></path>
                        <path d="M0.840815374,0.808740247 C-6.39025937,3.99488835 44.7635279,308.694683 55.7374417,326.926008 C65.7720499,328.751523 74.6314531,329.558667 82.3156515,329.347441 C85.7321709,140.841972 85.7321709,42.8186114 82.3156515,35.277359 C74.4862735,17.995644 8.07189012,-2.37740785 0.840815374,0.808740247 Z" id="Path-40" fill="#2A2A2D"></path>
                    </g>
                    <g id="Group-11" transform="translate(118.211789, 400.196574) scale(-1, 1) translate(-118.211789, -400.196574) translate(78.807859, 220.298028)">
                        <path d="M15.4456275,330.611588 C9.96601854,339.07793 9.96601854,344.418633 11.0750642,349.043643 C11.9970168,352.580441 18.3251766,356.242969 25.1649664,353.616642 C33.7762737,350.310092 35.553869,350.6416 39.1155291,352.908651 C49.7575679,359.682471 59.6563667,360.157704 64.9026629,357.929761 C71.5688566,355.098831 79.5102199,346.378908 70.9133014,343.763463 C64.5765921,341.835643 53.4026941,337.237411 37.3916072,329.968769 C27.6127249,329.714286 20.2973984,329.928559 15.4456275,330.611588 Z" id="Path-42" fill="#3240AB"></path>
                        <path d="M11.3059466,319.494225 L15.5647142,330.885231 C20.5770377,331.314681 25.8639746,332.159089 31.425525,333.418454 C36.0042875,334.455276 38.4209917,333.97721 38.6756374,331.984256 L38.1162539,318.6652 L11.3059466,319.494225 Z" id="Path-41" fill="#EFBC83"></path>
                        <path d="M7.28454225,200.624185 C3.92055605,225.222759 0.755722224,302.861029 11.729636,321.085485 C21.7642442,322.910313 30.5696399,322.910313 38.1458231,321.085485 C68.2534281,145.447646 81.5989709,53.8595211 78.1824514,46.3211097 C72.3843977,33.5279394 24.4597695,-29.313507 1.98963921,17.4095367 C-5.88267809,33.778762 13.4219635,155.745342 7.28454225,200.624185 Z" id="Path-40" fill="#35353A"></path>
                    </g>
                    <g id="Group-3">
                        <path d="M112.577246,89.0020816 C126.608007,94.4425987 135.092665,97.2329413 138.03122,97.3731095 C149.963295,176.81343 157.223713,229.06803 159.812477,254.13691 C153.050989,262.86932 130.426953,271.920936 107.969251,273.473414 C85.5115499,275.025891 63.1866325,275.395933 41.1213706,261.598028 C36.706251,242.895903 40.731518,233.499302 41.1213706,224.722398 C41.4926565,216.363492 0.819148503,218.15768 1.25089924,209.883957 C3.26161842,171.352157 14.0572364,141.529392 39.0589537,109.638095 C47.2341534,99.2101021 61.7452103,90.9738378 82.5921243,84.9293017 C92.9017913,83.8908457 102.896832,85.248439 112.577246,89.0020816 Z" id="Path-92" fill="#3240AB"></path>
                        <path d="M134.295246,135.355528 C123.333936,188.494673 125.888639,186.717479 113.140477,193.54578 C106.14352,197.293562 85.2445771,192.489056 75.6173615,203.723882 C67.7041944,212.958436 65.976447,221.622776 68.7149229,234.783254 C72.001014,250.575444 94.4207486,250.828636 111.109138,251.823981 C130.216266,252.963586 145.69462,244.987097 157.544201,227.894512 C146.592093,190.413809 138.842442,159.567482 134.295246,135.355528 Z" id="Path-97" fill="#1A2BA2" opacity="0.4"></path>
                        <path d="M79.5331147,224.756461 C65.7059407,221.842794 58.1967126,220.752445 57.0054304,221.485414 C50.9643557,225.202351 44.267706,223.678961 36.9154815,216.915242 L27.1691853,193.687363 L36.9154815,174.996608 C40.4998205,177.055923 44.1759328,180.062724 47.9438183,184.017012 C54.8378728,191.252125 53.3186648,198.437404 62.0072471,201.329698 C66.2819547,202.752683 69.5876996,204.28335 71.924482,205.9217 L79.5331147,224.756461 Z" id="Path-98" fill="#EFBC83"></path>
                        <path d="M145.947838,101.059171 C180.702999,127.164149 168.287087,215.735986 155.278466,233.264615 C145.677438,246.20164 113.735131,243.025203 59.4515429,223.735304 C58.2489399,212.433022 60.3034782,204.348828 65.6151579,199.482722 C80.143256,198.59709 100.592776,200.01081 126.963717,203.723882 C128.19687,183.532278 130.288314,165.460505 133.238047,149.508565 C137.662648,125.580654 123.450985,84.1615413 145.947838,101.059171 Z" id="Path-90" fill="#3240AB"></path>
                        <path d="M50.7183179,112.581666 C17.0732712,149.64555 0,188.951448 0,210.502688 C2.50486632e-16,217.911747 0.227867749,231.659263 19.1866512,238.786933 C34.1634969,244.417569 49.8257037,231.462817 54.29883,206.797202 C58.7248186,182.391512 64.1058595,153.377805 70.4419526,119.756082 C64.5840082,120.232642 58.0094633,117.84117 50.7183179,112.581666 Z" id="Path-93" fill="#2F3CA1"></path>
                        <g id="Path-91" transform="translate(82.286175, 64.687808)">
                            <mask id="mask-2" fill="white">
                                <use xlink:href="#path-1"></use>
                            </mask>
                            <use id="Mask" fill="#EFBC83" xlink:href="#path-1"></use>
                            <path d="M0.212308412,12.4965084 C7.56533251,14.8105027 18.6752262,11.2858465 33.5419896,1.92253975 L28.9305596,-4.32571443 L1.7564526,0.961269874 C1.7564526,4.93214054 1.24173787,8.77722004 0.212308412,12.4965084 Z" fill="#2A2A2D" opacity="0.1" mask="url(#mask-2)"></path>
                        </g>
                        <path d="M76.2367351,18.8829308 C68.6482345,33.1189818 73.4683318,50.9000327 78.8995873,60.7821111 C83.4660345,69.0906854 88.767552,73.050899 100.052508,70.9936327 C105.249758,70.0461654 110.198593,67.0608378 114.899015,62.03765 L127.792923,43.0433472 L127.792923,26.9364029 L105.342005,14.4266539 C89.4995031,10.7170369 79.7977463,12.2024626 76.2367351,18.8829308 Z" id="Path-53" fill="#EFBC83"></path>
                        <path d="M71.0653327,4.28314284 C88.7137004,5.94253886 92.5882913,-1.75738428 108.399306,0.376937565 C120.918579,2.06690873 128.229315,9.95412241 132.853081,22.5392787 C138.778794,38.6681263 128.383066,50.4398941 125.643364,53.4227121 C119.833376,59.7482688 116.553795,61.1506562 112.784859,64.0658098 C114.936559,59.5865522 116.192871,54.685317 116.553795,49.3621043 C121.642491,47.8073905 124.672348,45.6658647 125.643364,42.9375271 C127.331678,38.1937484 125.27316,34.498922 122.851047,34.3987254 C119.539448,34.2617331 117.319028,40.0912599 114.175941,42.4631492 C111.516613,44.4699759 110.040964,45.685936 109.302078,43.5318892 C108.020843,38.4795796 107.719919,32.5098615 108.399306,25.6227348 C83.5099904,26.2552387 71.0653327,19.1420413 71.0653327,4.28314284 Z" id="Path-64" fill="#2A2A2D"></path>
                        <path d="M52.0025719,116.480121 C50.095851,113.213807 55.649622,109.279717 56.911147,102.857327 C57.8814201,97.9176934 63.1463765,83.3230007 57.7803978,78.8084501 C52.3298359,74.2227373 49.0194011,75.6835284 44.2823914,71.6919173 C38.0890368,66.4731265 44.7563489,64.9980942 49.0142633,66.4731265 C64.07913,71.6919173 67.6154945,70.2686107 74.8446794,74.8491848 C79.0089859,77.487783 81.0394145,80.5096348 81.0394145,85.737025 C81.0394145,96.0736909 78.149121,96.3865222 74.8446794,104.430285 C72.3962317,110.390364 70.4270342,117.254145 68.9370871,125.021629 C58.9185575,121.504833 53.2737191,118.657664 52.0025719,116.480121 Z" id="Path-94" fill="#EFBC83"></path>
                        <path d="M51.17578,93.6757831 C52.6205738,95.105196 54.8724943,97.6537101 57.7939421,97.6537101 C61.7869365,97.6537101 64.7374091,95.4439417 66.5365836,89.0365026 C67.6320758,85.1351024 70.5094201,79.211527 66.5365836,78.2125242 C62.874262,77.291603 58.4119309,75.466952 53.1940585,77.275357 C50.9757912,78.0441619 50.4425322,81.4926094 51.6643041,83.3669438 C50.5168728,83.3669438 49.4352852,86.8153893 51.17578,87.4036356 C49.4352852,88.9401428 49.4352852,91.9538171 51.17578,93.6757831 Z" id="Path-95" fill="#E4B279"></path>
                        <path d="M73.7762594,80.3487896 C75.778288,78.1941867 79.4323587,78.664571 79.7336353,81.3650821 C80.2417042,85.9191896 77.3438885,88.4966787 75.8572966,93.0263157 C74.9480926,95.7966551 71.7631142,94.4523512 71.4420325,91.5743149 C70.9537687,87.1977326 70.3605555,84.0248035 73.7762594,80.3487896 Z" id="Path-96" fill="#E4B279"></path>
                    </g>
                </g>
                <g id="woman" transform="translate(570.611426, 169.593657)">
                    <g id="Path-72" transform="translate(361.846308, 423.936961) scale(-1, 1) rotate(-11.000000) translate(-361.846308, -423.936961) translate(294.831602, 365.126258)">
                        <mask id="mask-4" fill="white">
                            <use xlink:href="#path-3"></use>
                        </mask>
                        <use id="Mask" fill="#EFBC83" xlink:href="#path-3"></use>
                        <path d="M26.2261081,38.8926973 C29.1291999,46.0793323 30.5807458,51.4974684 30.5807458,55.1471054 C30.5807458,62.8725805 25.742917,67.0804629 24.7078955,78.8862085 C24.3969938,82.4324414 26.3546105,87.6910678 30.5807458,94.6620875 L34.6377891,100.449512 L22.8384804,118.79518 L13.1113358,118.79518 L-10.1855636,48.9153582 L26.2261081,38.8926973 Z" fill="#261966" mask="url(#mask-4)"></path>
                    </g>
                    <g id="Path-72" transform="translate(212.897059, 470.941526) scale(-1, 1) translate(-212.897059, -470.941526) translate(173.235294, 407.571853)">
                        <mask id="mask-6" fill="white">
                            <use xlink:href="#path-5"></use>
                        </mask>
                        <use id="Mask" fill="#EFBC83" xlink:href="#path-5"></use>
                        <path d="M2.21557728,97.596087 C9.93128578,96.6445238 15.5563013,96.6394849 19.0906238,97.5809703 C26.5720036,99.5738868 29.3868653,105.33454 40.5500116,109.380251 C43.9032193,110.595509 49.5055769,110.060268 57.3570845,107.774526 L64.0183517,105.346862 L84.1366959,120.074057 L79.9197285,130.259883 L2.21557728,129.709049 L2.21557728,97.596087 Z" fill="#261966" mask="url(#mask-6)"></path>
                    </g>
                    <path d="M229.764706,102.120912 C236.758311,105.824254 241.179935,105.722342 245.115157,109.333567 C272.53287,134.49391 288.530232,157.19367 293.051377,166.601442 C294.787623,170.214289 292.312489,193.398678 285.625975,236.154609 L269.362463,220.949563 C272.505582,191.093753 272.921151,175.082947 270.609172,172.917147 C266.552439,169.116909 256.682895,162.343126 241.000541,152.595798 L229.764706,102.120912 Z" id="Path-70" fill="#EFBC83"></path>
                    <path d="M310.826884,99.4046917 C307.202919,99.6434839 290.392897,101.16128 286.517973,103.994778 C282.823784,106.696116 275.841915,115.899211 273.474885,124.544424 C265.334028,154.277639 271.939646,142.201746 266.434481,179.603922 C263.646026,198.54873 260.088505,199.988027 254.334952,206.798514 C242.530094,220.771936 210.780489,233.849863 211.32552,276.171981 C211.647902,301.205138 213.523673,323.949225 208.031891,331.587877 C197.425186,346.340997 170.223995,346.340997 158.647059,366.700865 C190.655492,376.930418 203.826713,379.455075 225.34944,406.282305 C253.22458,441.027569 302.645463,425.881554 310.826884,421.335054 C323.363863,336.422742 320.081422,320.076044 306.764283,280.38413 C297.937865,254.076875 313.499607,240.845407 319.175716,217.981276 C322.830121,203.260838 361.553492,188.74522 361.553492,174.177672 C361.553492,153.494025 362.604289,135.540663 364.705882,120.317585 C356.826043,115.487212 350.365638,113.054114 345.324665,113.018293 C335.897558,112.951304 320.084421,98.7946893 310.826884,99.4046917 Z" id="Path-67" fill="#383A87" transform="translate(261.676471, 263.964321) scale(-1, 1) translate(-261.676471, -263.964321) "></path>
                    <path d="M174.194865,83.8189224 C170.866373,91.234508 167.961774,98.4183566 165.481071,105.370468 C162.906199,112.586484 163.573546,119.274691 171.014275,120.665114 C185.65779,123.401495 191.450347,116.453923 195.469296,107.456102 C196.227948,105.757594 194.637758,102.412295 195.469296,100.753221 C197.486504,96.7285149 201.016347,91.0837487 206.058824,83.8189224 L178.327836,80.2378593 L174.194865,83.8189224 Z" id="Path-68" fill="#EFBC83" transform="translate(185.088235, 100.753221) scale(-1, 1) translate(-185.088235, -100.753221) "></path>
                    <path d="M137.861096,49.1479576 C138.949536,38.0271703 147.292827,36.4509886 156.756027,32.6452488 C163.064827,30.1080889 171.985558,30.5071386 183.518218,33.8423979 C187.604112,58.6845471 189.647059,71.1056217 189.647059,71.1056217 C189.647059,71.1056217 188.131296,77.3637942 185.099771,89.8801391 C173.384481,101.038692 160.637308,105.961667 146.85825,104.649064 C141.537974,104.142251 137.723296,97.0664944 135.414215,83.4217953 L131.294118,81.5849552 C134.378725,73.1749778 136.567718,62.3626453 137.861096,49.1479576 Z" id="Path-65" fill="#EFBC83"></path>
                    <path d="M180.076921,38.5868234 C189.054218,46.0505008 201.487144,48.8513767 217.375698,46.989451 C209.021217,26.9876833 195.766842,16.1235656 177.612573,14.3970977 C148.552432,11.6334831 140.08503,36.2191338 137.610087,42.4675566 C132.617559,55.0720553 131.363408,86.5314742 136.005885,98.2121863 C140.648363,109.892898 160.404096,113.632234 195.062649,116.425414 C188.71937,100.6786 184.577679,86.8878927 182.637577,75.053293 C177.136561,76.2103262 173.240457,74.5753197 170.949264,70.1482733 C167.413832,63.3171052 172.444049,53.8761977 181.425665,64.117204 C184.566582,56.4436886 180.072547,51.2101406 180.076921,38.5868234 Z" id="Path-66" fill="#2A2A2D" transform="translate(175.245960, 65.303383) scale(-1, 1) rotate(27.000000) translate(-175.245960, -65.303383) "></path>
                    <ellipse id="Oval" fill="#E13969" transform="translate(175.058824, 78.414272) scale(-1, 1) translate(-175.058824, -78.414272) " cx="175.058824" cy="78.4142716" rx="3.64705882" ry="3.64717542"></ellipse>
                    <g id="Group-2" transform="translate(96.424383, 124.714069) scale(-1, 1) rotate(33.000000) translate(-96.424383, -124.714069) translate(27.130266, 54.961839)">
                        <path d="M13.3948443,103.433316 C35.0017905,99.2115485 43.0112534,101.193522 68.6955521,97.664008 C83.0356195,95.6934084 100.566174,63.3265203 109.550445,53.3073797 C113.561535,48.8342646 112.779485,47.8157831 112.779485,38.6995402 C112.779485,29.5832973 113.374749,30.3158353 113.636493,24.2562699 C113.777303,20.9964243 116.995767,17.6197199 123.291886,14.1261567 C121.289323,23.7548135 120.75615,28.2659806 121.692368,27.659658 C125.818076,24.9877269 127.856656,20.7748387 127.428631,18.7821952 C126.071903,12.4660344 123.033232,8.61635092 124.19959,8.61635092 C125.365949,8.61635092 129.705823,10.4187105 134.696472,18.7821952 C136.000914,20.9682205 137.090921,27.9376048 136.144591,38.6995402 C135.808491,42.521764 126.268825,49.9575882 122.380733,62.6228923 C115.40464,85.3472389 110.082583,100.998011 100.001273,109.06234 C87.7915107,118.82928 66.7531589,134.436381 5.4170636,139.083093 C4.33667227,139.164941 1.81782247,137.836302 1.10393658,135.453888 C-1.84334982,125.618061 0.821486077,118.370871 13.3948443,103.433316 Z" id="Path-69" fill="#EFBC83"></path>
                        <g id="Group" transform="translate(122.905970, 17.882388) rotate(39.000000) translate(-122.905970, -17.882388) translate(119.258911, -1.721180)">
                            <polygon id="Rectangle" fill="#141416" points="0 7.03628003 3.57253328 0 7.06298693 7.03628003 7.06298693 35.1814002 0 35.1814002"></polygon>
                            <rect id="Rectangle" fill="#FAAB3F" x="0" y="34.4777722" width="7.06298693" height="4.22176802"></rect>
                        </g>
                        <path d="M13.3948443,103.433316 C35.0017905,99.2115485 43.0112534,101.193522 68.6955521,97.664008 C83.0356195,95.6934084 100.566174,63.3265203 109.550445,53.3073797 C113.561535,48.8342646 112.885706,40.9698399 112.885706,39.4031682 C112.885706,37.8364965 120.288041,28.5691418 121.692368,27.659658 C125.818076,24.9877269 127.856656,20.7748387 127.428631,18.7821952 C126.071903,12.4660344 123.033232,8.61635092 124.19959,8.61635092 C125.365949,8.61635092 129.705823,10.4187105 134.696472,18.7821952 C136.000914,20.9682205 137.090921,27.9376048 136.144591,38.6995402 C135.808491,42.521764 126.268825,49.9575882 122.380733,62.6228923 C115.40464,85.3472389 110.082583,100.998011 100.001273,109.06234 C87.7915107,118.82928 66.7531589,134.436381 5.4170636,139.083093 C4.33667227,139.164941 5.71984854,135.431698 5.4170636,134.410127 C2.49737379,124.559335 0.821486077,118.370871 13.3948443,103.433316 Z" id="Path-69" fill="#EFBC83"></path>
                    </g>
                </g>
                <g id="board" transform="translate(268.817308, 34.648167)">
                    <rect id="Rectangle" fill="#7C7C7E" x="313.647059" y="662.874133" width="25.5294118" height="83.8850347" rx="12.7647059"></rect>
                    <rect id="Rectangle" fill="#7C7C7E" x="31" y="416.689792" width="25.5294118" height="83.8850347" rx="12.7647059"></rect>
                    <path d="M18.2352941,405.213883 L18.2352941,5.68434189e-14 L38.7805397,6.75015599e-14 C43.1710235,6.66950411e-14 47.4141175,1.58400348 50.7305445,4.46109583 L394.579437,302.759546 C404.560818,311.418672 410.294118,323.982551 410.294118,337.1965 L410.294118,723.640207 C410.294118,733.711604 402.129637,741.876084 392.058241,741.876084 L376.989775,741.876084 L33.6875867,439.421444 C23.8639451,430.766661 18.2352941,418.306217 18.2352941,405.213883 Z" id="Path-139" fill="#22247A"></path>
                    <path d="M9.65431582e-15,404.892656 L1.0658141e-14,18.7784466 C9.42475065e-15,8.70704973 8.16448028,0.542569449 18.2358771,0.542569449 C22.6010819,0.542569449 26.8214713,2.10841961 30.130299,4.95564142 L376.205185,302.750529 C386.269969,311.411201 392.058824,324.029474 392.058824,337.307542 L392.058824,723.421752 C392.058824,733.493148 383.894343,741.657629 373.822946,741.657629 C369.457742,741.657629 365.237352,740.091779 361.928525,737.244557 L15.8536381,439.449669 C5.78885495,430.788997 1.08207505e-13,418.170724 1.0658141e-13,404.892656 Z" id="Path-139" fill="#383A87"></path>
                    <polygon id="Path-140" fill="#FFFFFF" points="13.672909 33.7363726 369.264706 343.746283 369.264706 722.140733 13.672909 414.866204"></polygon>
                    <g id="Group-6" transform="translate(196.029412, 348.305253)">
                        <path d="M6.56234098,7.0494263 C5.99491711,6.59181178 5.28792805,6.3422493 4.55896928,6.3422493 C2.79647483,6.3422493 1.36769078,7.77103335 1.36769078,9.5335278 L1.36769078,150.843459 C1.36769078,155.944458 3.67599269,160.771483 7.64662667,163.97371 L106.496483,243.693884 C107.063906,244.151498 107.770895,244.401061 108.499854,244.401061 C110.262349,244.401061 111.691133,242.972277 111.691133,241.209782 L111.691133,99.8998514 C111.691133,94.7988525 109.382831,89.9718272 105.412197,86.7696006 L6.56234098,7.0494263 Z" id="Rectangle" stroke="#5F6BBF" stroke-width="2.73538157"></path>
                        <path d="M14.2748395,37.0507605 C14.1089088,36.9064683 13.8964226,36.8270018 13.6765289,36.8270018 C13.172959,36.8270018 12.764735,37.2352258 12.764735,37.7387957 L12.764735,85.2014741 C12.764735,87.5766128 13.7938162,89.8352472 15.5860842,91.393791 L93.3133958,158.984918 C93.4793265,159.129211 93.6918127,159.208677 93.9117064,159.208677 C94.4152762,159.208677 94.8235003,158.800453 94.8235003,158.296883 L94.8235003,110.834205 C94.8235003,108.459066 93.7944191,106.200432 92.0021511,104.641888 L14.2748395,37.0507605 Z" id="Rectangle" stroke="#8C95D0" stroke-width="1.82358771"></path>
                        <ellipse id="Oval" stroke="#8C95D0" stroke-width="1.82358771" cx="41.0294118" cy="79.7819623" rx="3.64705882" ry="5.0148662"></ellipse>
                        <polyline id="Path-141" stroke="#8C95D0" stroke-width="1.82358771" stroke-linecap="round" stroke-linejoin="round" points="35.2685547 92.1677558 48.0510685 88.444004 53.170841 104.338067"></polyline>
                        <polyline id="Path-142" stroke="#8C95D0" stroke-width="1.82358771" stroke-linecap="round" stroke-linejoin="round" points="54.4832835 96.5860382 64.0283203 96.5860382 67.9620864 111.209601"></polyline>
                    </g>
                    <path id="Path-2" d="M226.084964,338.841906 C237.998068,347.529923 247.357057,361.62029 254.179703,381.088275 C258.700397,393.987786 259.894898,413.927817 257.791626,440.944469 L255.973539,440.802929 C258.058868,414.016767 256.877794,394.300888 252.458739,381.691395 C245.766429,362.595316 236.640276,348.832781 225.097923,340.379236 C223.018048,342.808515 219.436694,343.420554 216.675633,341.678764 C213.639443,339.763411 212.744911,335.727062 214.67764,332.663327 C216.61037,329.599591 220.638475,328.668644 223.674666,330.583997 C226.466335,332.345096 227.447414,335.899316 226.084964,338.841906 Z" fill="#E85720" fill-rule="nonzero"></path>
                    <g id="Group-9" transform="translate(59.264706, 189.653122)">
                        <path d="M6.67678616,2.28068861 C6.09291843,1.76272487 5.33947422,1.47669101 4.55896928,1.47669101 C2.79647483,1.47669101 1.36769078,2.90547506 1.36769078,4.66796951 L1.36769078,127.657364 C1.36769078,132.481355 3.43304733,137.07452 7.04170214,140.275848 L106.382037,228.403157 C106.965905,228.921121 107.719349,229.207154 108.499854,229.207154 C110.262349,229.207154 111.691133,227.77837 111.691133,226.015876 L111.691133,103.026482 C111.691133,98.2024902 109.625776,93.6093253 106.017121,90.4079969 L6.67678616,2.28068861 Z" id="Rectangle" stroke="#5F6BBF" stroke-width="2.73538157"></path>
                        <g id="Group-8" transform="translate(16.411765, 93.002973)" stroke-width="1.82358771">
                            <ellipse id="Oval" stroke="#EC7D50" cx="15.0441176" cy="12.765114" rx="8.66176471" ry="12.765114"></ellipse>
                            <path d="M0,22.3389495 L23.7058824,41.9425173" id="Line" stroke="#EC7D50" stroke-linecap="round"></path>
                            <path d="M1.82352941,33.2804757 L12.9748392,42.8543112" id="Line" stroke="#EC7D50" stroke-linecap="round"></path>
                            <ellipse id="Oval" stroke="#8C95D0" cx="55.1617647" cy="46.5014866" rx="8.66176471" ry="12.765114"></ellipse>
                            <path d="M40.1176471,56.0753221 L63.8235294,75.67889" id="Line" stroke="#8C95D0" stroke-linecap="round"></path>
                            <path d="M41.9411765,67.0168484 L63.8235294,83.8850347" id="Line" stroke="#8C95D0" stroke-linecap="round"></path>
                        </g>
                    </g>
                    <g id="Group-8" transform="translate(46.500000, 203.330030)">
                        <path d="M3.61822427,3.17108751 L40.467951,33.737165 C42.556312,35.4694168 43.7647059,38.041753 43.7647059,40.7550439 L43.7647059,69.296333 L35.537454,54.0415944 L3.98044901,28.2664795 C1.8603186,26.5348004 0.630399816,23.9421895 0.630399816,21.2047335 L0.630399816,4.57466328 C0.630399816,3.5675236 1.44684784,2.75107557 2.45398753,2.75107557 C2.87916347,2.75107557 3.2909756,2.89964159 3.61822427,3.17108751 Z" id="Rectangle" fill="#E66F91"></path>
                        <path d="M6.41974954,18.6073452 L37.7616613,44.9895472" id="Line-2" stroke="#FFFFFF" stroke-width="1.82358771" stroke-linecap="round" stroke-linejoin="round"></path>
                    </g>
                    <g id="Group-7" transform="translate(159.558824, 267.155600)">
                        <path d="M3.61822427,3.17108751 L40.467951,33.737165 C42.556312,35.4694168 43.7647059,38.041753 43.7647059,40.7550439 L43.7647059,69.296333 L35.537454,54.0415944 L3.98044901,28.2664795 C1.8603186,26.5348004 0.630399816,23.9421895 0.630399816,21.2047335 L0.630399816,4.57466328 C0.630399816,3.5675236 1.44684784,2.75107557 2.45398753,2.75107557 C2.87916347,2.75107557 3.2909756,2.89964159 3.61822427,3.17108751 Z" id="Rectangle" fill="#EC7D50"></path>
                        <path d="M6.41974954,18.6073452 L37.7616613,44.9895472" id="Line-2" stroke="#FFD7C6" stroke-width="1.82358771" stroke-linecap="round" stroke-linejoin="round"></path>
                    </g>
                </g>
                <g id="Plant" transform="translate(194.508485, 291.774034) scale(-1, 1) translate(-194.508485, -291.774034) translate(79.170250, 132.210109)">
                    <ellipse id="Oval" fill="#221603" cx="126.735294" cy="202.418236" rx="49.2352941" ry="22.7948464"></ellipse>
                    <g id="Group-2">
                        <path d="M137.316408,207.956087 C137.316408,221.042685 109.002454,213.035156 100.634583,212.736255 C78.4168675,211.942638 69.1063545,199.27475 50.07151,183.14075 C42.5952359,176.803835 46.7312953,163.93166 62.4796883,144.524227 C58.1896924,132.808851 45.4197073,123.097774 24.169733,115.390995 C10.5527091,110.452476 33.9418896,84.3316263 33.9418896,67.529017 C33.9418896,50.742139 29.5968362,56.504817 5.78837035,42.9414667 C-3.19557387,37.8234392 -0.550869156,18.3702037 5.78837035,9.95261179 C10.9467171,3.10307444 20.3312235,-0.210996826 33.9418896,0.0103979923 C49.9175736,13.4230072 59.4301731,27.7333634 62.4796883,42.9414667 C82.4647778,58.225329 89.1342914,46.2085909 100.634583,60.5145306 C112.710167,75.5361117 101.122794,82.0139473 111.182041,96.7392947 C129.817338,124.018796 155,118.465939 155,144.524227 C155,176.742103 137.316408,169.342914 137.316408,207.956087 Z" id="Path-17" fill="#EF500B"></path>
                        <path d="M139.437902,223.447412 C140.825586,227.717381 138.931978,231.345251 133.757077,234.331021 C106.983992,154.202521 72.4796007,88.6906228 30.2439024,37.7953259 C64.6459367,74.3849177 99.198169,99.6279114 139.437902,223.447412 Z" id="Path-18" fill="#F4733B"></path>
                    </g>
                    <g id="Group-3" transform="translate(121.264706, 52.884044)">
                        <path d="M12.4825357,147.444672 C12.4825357,120.067225 1.02017047e-15,125.313385 0,102.470322 C0,83.9945191 17.7759967,87.9315958 30.9303243,68.5899304 C38.030969,58.1493896 29.8516468,53.5564856 38.3755881,42.9059097 C46.4934414,32.7627366 51.2013333,41.2828238 65.3084553,30.4462858 C67.4610543,19.6634622 74.1758304,9.51715774 85.4527838,0.00737236686 C95.0603128,-0.149600611 101.68467,2.20013657 105.325856,7.0565839 C109.800614,13.0248106 111.667464,26.8175106 105.325856,30.4462858 C88.5198803,40.0629494 85.4527838,35.9771052 85.4527838,47.8793089 C85.4527838,59.7926664 101.962794,78.3128272 92.3507767,81.8143272 C77.3507949,87.2785745 68.3366877,94.1639061 65.3084553,102.470322 C76.424968,116.230547 79.3445393,125.357155 74.0671694,129.850144 C60.6308086,141.289444 54.0586818,150.271209 38.3755881,150.833898 C32.4688558,151.045824 12.4825357,156.723309 12.4825357,147.444672 Z" id="Path-17" fill="#5F6BBF"></path>
                        <path d="M11.6289657,158.218812 C40.0165956,70.3034621 64.3919062,52.3802222 88.6612576,26.4005766 C58.8655486,62.5376777 34.5239879,109.052979 15.6365757,165.946482 C11.9858761,163.8265 10.6500061,161.25061 11.6289657,158.218812 Z" id="Path-18" fill="#3240AB"></path>
                    </g>
                    <path d="M129.133669,191.368449 C129.133669,191.368449 137.421123,188.933971 140.088825,192.539959 C144.613761,198.656406 141.120278,204.498224 145.645214,210.624381 C148.661837,214.708485 145.738005,220.302981 136.873715,227.407871 L121.477504,230.683845 C122.403569,224.40158 122.403569,221.260448 121.477504,221.260448 C116.461167,221.260448 112.135332,217.849014 108.5,211.026147 C122.25578,197.921015 129.133669,191.368449 129.133669,191.368449 Z" id="Path-20" fill="#E85720"></path>
                    <path d="M77.5,197.859267 C77.5,210.41704 99.543392,220.597126 126.735294,220.597126 C153.927196,220.597126 175.970588,210.41704 175.970588,197.859267 L175.970588,294.495168 L175.802065,294.495168 C175.913675,295.119954 175.970588,295.751903 175.970588,296.38999 C175.970588,308.947763 153.927196,319.127849 126.735294,319.127849 C99.543392,319.127849 77.5,308.947763 77.5,296.38999 C77.5,295.751903 77.5569132,295.119954 77.6685233,294.495168 L77.5,294.495168 L77.5,197.859267 Z" id="Combined-Shape" fill="#E07A07"></path>
                    <path d="M85.3395945,191.180881 C91.4144975,189.20651 108.25228,188.430557 135.852941,188.853024 C132.579223,198.353919 129.428194,204.716668 126.399853,207.94127 C123.383417,211.153195 119.437949,213.389385 114.563449,214.64984 C114.887536,221.504873 114.089149,227.317312 112.16829,232.087156 C109.494888,238.725703 106.370789,237.774332 102.987607,243.789904 C96.8999353,254.614278 111.655367,265.332012 97.5340421,265.332012 C83.4127169,265.332012 87.2318521,245.778378 87.2318521,242.236467 C81.9245003,233.640872 74.2885187,230.877978 77.2494418,224.701659 C80.6100188,217.691683 87.7022618,216.214499 89.6989842,207.94127 C85.8361185,203.125521 76.22724,194.142438 85.3395945,191.180881 Z" id="Path-19" fill="#F2A183"></path>
                    <path d="M84.8641029,240.335472 C93.2515367,222.884864 102.006221,211.465407 121.010763,191.351287 C97.6808275,219.331577 86.3396419,238.037047 86.9872064,247.467699 C84.5939773,244.747313 83.8862761,242.369904 84.8641029,240.335472 Z" id="Path-18" fill="#EC7D50" transform="translate(102.724708, 219.409493) scale(-1, 1) rotate(131.000000) translate(-102.724708, -219.409493) "></path>
                    <path d="M135.769948,208.747053 C142.677656,206.29924 150.455815,206.847372 159.104424,210.39145 C165.613176,203.300836 171.654252,202.341912 177.227652,207.51468 C185.283204,214.991175 194.056497,229.173603 181.602515,239.206271 C183.570625,242.697073 183.570625,245.5101 181.602515,247.645353 C185.093539,253.823235 185.093539,258.308065 181.602515,261.099845 C174.900765,266.459249 184.963975,274.235619 175.479954,276.878664 C165.995934,279.521708 162.938868,264.211265 161.021646,264.211265 C159.104424,264.211265 155.520311,256.683286 155.249374,253.469104 C154.5617,245.311081 161.021646,243.39394 159.104424,241.466855 C142.708288,238.377606 143.829399,219.829179 132.47124,219.829179 C125.319355,213.997114 132.814918,209.794197 135.769948,208.747053 Z" id="Path-21" fill="#8C95D0"></path>
                    <path d="M150.15055,257.092797 C143.476906,230.404658 177.868625,217.187358 186.022011,212.103345 C156.897017,241.609561 153.141753,234.582915 155.700219,257.401838 C152.506346,256.70774 153.191803,257.469018 150.15055,257.092797 Z" id="Path-18" fill="#5F6BBF" transform="translate(167.659431, 234.752591) rotate(132.000000) translate(-167.659431, -234.752591) "></path>
                </g>
                <g id="woman" transform="translate(2.582014, 175.976214)">
                    <g id="Path-99" transform="translate(84.794118, 347.393459)">
                        <mask id="mask-8" fill="white">
                            <use xlink:href="#path-7"></use>
                        </mask>
                        <use id="Mask" fill="#EFBC83" xlink:href="#path-7"></use>
                        <path d="M7.70186027,135.437195 C8.94583446,139.753458 11.480016,143.051666 15.304405,145.331821 C28.4678176,153.180031 30.0617063,157.155118 45.3381656,159.252184 C49.7189153,159.853548 53.7225993,156.90265 57.3492176,150.399489 C73.6863124,153.771703 82.9533123,156.866202 85.1502173,159.682988 C87.3471224,162.499773 84.0717525,167.087507 75.3241076,173.446188 L45.3381656,180.08234 L9.99286177,166.54138 L0.655973135,148.752388 L7.70186027,135.437195 Z" fill="#E85720" mask="url(#mask-8)"></path>
                    </g>
                    <g id="Path-99" transform="translate(40.117647, 359.246779)">
                        <mask id="mask-10" fill="white">
                            <use xlink:href="#path-9"></use>
                        </mask>
                        <use id="Mask" fill="#EFBC83" xlink:href="#path-9"></use>
                        <path d="M7.69681318,136.368356 C8.93997218,140.714294 11.4724931,144.035178 15.2943759,146.331009 C28.4491624,154.233178 30.0420067,158.235594 45.3084551,160.347078 C49.6863341,160.952577 53.6873944,157.98139 57.3116362,151.433518 L75.2747471,174.638669 L45.3084551,181.320446 L9.98631337,167.686389 L0.65554327,149.775094 L7.69681318,136.368356 Z" fill="#E85720" mask="url(#mask-10)"></path>
                    </g>
                    <path d="M67.1206279,82.6688615 C80.0290339,84.64632 92.3025501,84.2123155 103.941176,81.366848 C99.2498445,67.424057 96.5838084,48.3594245 95.9430683,24.1729503 L75.6962378,10.9415263 L41.0294118,29.7216121 L45.5859097,76.7142327 L67.1206279,82.6688615 Z" id="Path-50" fill="#2A2A2D"></path>
                    <path d="M72.3097093,63.9826202 C71.287737,70.8260534 73.2373759,76.1086077 78.158626,79.8302829 C83.1733551,83.6226512 91.1596955,85.8541405 102.117647,86.5247507 L99.8439599,110.704857 L20.0588235,115.79782 L21.5943225,95.7547545 L47.243406,84.8055408 L51.4596937,53.7958375 L72.3097093,63.9826202 Z" id="Path-51" fill="#F5D7B5"></path>
                    <path d="M91.9041459,14.6558152 C96.6681894,28.9690279 96.9891569,40.8866544 92.8670482,50.4086947 C86.0287672,66.205073 73.8514291,67.4379373 66.3026668,66.205073 C61.3714906,65.399713 55.4257781,62.4420656 48.4655295,57.3321309 L41.0294118,36.0203407 L57.1140669,22.5040082 L85.0658649,12.765114 L91.9041459,14.6558152 Z" id="Path-48" fill="#F5D7B5"></path>
                    <polygon id="Path-56" fill="#5F6BBF" points="57.4411765 113.548664 81.1470588 111.23885 80.1808748 150.445986 75.5117402 150.445986"></polygon>
                    <g id="Path-63" transform="translate(0.000000, 80.237859)">
                        <mask id="mask-12" fill="white">
                            <use xlink:href="#path-11"></use>
                        </mask>
                        <use id="Mask" fill="#383A87" xlink:href="#path-11"></use>
                        <path d="M22.0926887,158.137009 C47.2516922,158.946799 83.5323781,145.031077 99.2227395,97.6474428 C100.785089,92.3029662 78.6006004,100.625885 32.6692735,122.616201 C27.9124161,130.647568 24.3868879,142.487838 22.0926887,158.137009 Z" fill="#141416" opacity="0.1" mask="url(#mask-12)"></path>
                    </g>
                    <polygon id="Path-55" fill="#FFFFFF" points="75.6764706 141.489553 46.8107038 82.061447 35.5588235 84.6621597 72.2209814 150.445986"></polygon>
                    <path d="M90.7395979,20.6756916 C84.6138984,26.6935486 75.5031967,29.0681689 63.4074927,27.7995526 C62.407885,34.226332 60.6749309,39.4843082 58.2086303,43.5734812 C56.1067464,35.2904871 54.8475994,33.3102956 51.118157,32.2815586 C47.6251238,31.3180332 43.7636791,35.8240178 44.8886608,42.1031121 C45.6462806,46.3317734 46.9667972,46.896354 51.118157,46.896354 C52.0785589,46.896354 52.7566223,46.896354 53.1523473,46.896354 C54.0444915,62.7343662 55.7299192,76.2796516 58.2086303,87.5322101 C36.0846953,85.00581 24.4181719,80.7204599 22.2532166,65.0485035 C18.690422,39.257688 41.2754978,-3.76964564 69.4537934,0.264679046 C95.5280684,3.99776827 97.3075014,21.9095832 97.5529508,29.702477 C97.6296702,32.1382763 96.9547093,34.7173578 95.5280684,37.4397217 C93.4656724,33.1412524 91.8695156,27.5532424 90.7395979,20.6756916 Z" id="Path-49" fill="#2A2A2D"></path>
                    <path d="M52.8823529,59.2666006 C54.8965679,59.2666006 56.5294118,57.6613807 56.5294118,55.6812417 C56.5294118,53.7011027 54.7058824,44.6778989 52.8823529,44.6778989 C51.0588235,44.6778989 49.2352941,53.7011027 49.2352941,55.6812417 C49.2352941,57.6613807 50.868138,59.2666006 52.8823529,59.2666006 Z" id="Oval" fill="#E85720"></path>
                    <path d="M64.0166165,184.182359 C52.8651419,154.937753 42.1635246,129.711456 31.9117647,108.503469 C45.658636,113.691537 61.7664791,135.034595 80.2352941,172.532643 L64.0166165,184.182359 Z" id="Path-62" fill="url(#linearGradient-13)" opacity="0.3"></path>
                    <path d="M21.6047352,92.0911794 C14.495696,98.650789 10.9411765,105.995472 10.9411765,114.125228 C10.9411765,163.78979 30.5235429,197.542056 47.451898,218.474803 C60.7756478,234.950278 89.2686497,196.123363 96.6101354,182.417846 C99.0907392,177.78691 99.0907392,173.256497 96.6101354,168.82661 L89.2492322,162.465678 C85.3884267,161.622342 81.8212435,162.16657 78.5476828,164.098363 C73.5826151,167.028348 68.6103401,171.452073 63.6308577,177.369537 C62.4162257,164.159513 59.7186068,152.187929 55.5380009,141.454784 C50.9652752,129.714925 44.9095626,119.213505 37.3708629,109.950525 L21.6047352,92.0911794 Z" id="Path-52" fill="#383A87"></path>
                    <path d="M76.5882353,141.701288 L79.1311926,79.3260654 L94.8235294,80.5386153 C89.3984256,117.635877 85.2373499,140.634402 82.3403023,149.534192 C80.060506,146.563512 78.1431503,143.952543 76.5882353,141.701288 Z" id="Path-54" fill="#FFFFFF"></path>
                    <path d="M90.2647059,122.217951 C107.812536,118.760357 123.615045,113.884932 137.672233,107.591675 C140.087988,141.229759 141.91293,164.734211 143.147059,178.10503 C129.037367,187.691637 114.535626,191.746309 99.6418382,190.269047 C94.372412,161.288964 91.2467012,138.605265 90.2647059,122.217951 Z" id="Path-58" fill="#FFFFFF"></path>
                    <path d="M86.6176471,165.985291 C95.8542963,147.792631 102.512275,138.098289 106.591583,136.902265 C112.143967,135.274346 113.953992,148.9255 113.953992,158.407567 C113.953992,162.418641 114.449134,162.908826 110.030352,163.251808 C104.543322,163.677708 106.000372,166.068958 103.321747,167.930945 C100.486667,169.901689 100.075704,171.490581 94.4836077,173.240833 C91.944009,172.707427 89.3220221,170.288913 86.6176471,165.985291 Z" id="Path-57" fill="#F5D7B5"></path>
                    <path d="M143.147059,119.707872 C149.859872,114.576275 153.75294,109.537316 154.826265,104.590995 C155.645163,100.817175 162.135334,95.7387759 174.296777,89.3557978 L181.441176,108.380525 C173.474433,112.275201 168.444038,114.942955 166.34999,116.383785 C162.674066,118.91304 160.424823,124.188482 159.602262,132.210109 L145.581357,127.890038 L143.147059,119.707872 Z" id="Path-59" fill="#EFBC83"></path>
                    <g id="Group" transform="translate(161.382353, 78.414272)">
                        <path d="M0,6.34243806 L1.06290905,3.8974954 C1.46444715,2.97386263 2.53871039,2.55062127 3.46234316,2.95215937 C3.88576522,3.13623696 4.2236016,3.47407334 4.40767919,3.8974954 L5.47058824,6.34243806 L5.47058824,40.2830525 L0,40.2830525 L0,6.34243806 Z" id="Rectangle" fill="#141416"></path>
                        <rect id="Rectangle" fill="#FAAB3F" x="0" y="40.2830525" width="5.47058824" height="2.57125867"></rect>
                    </g>
                    <path d="M161.470528,94.629301 C160.225179,90.6297893 172.524368,86.0572507 176.087735,89.8833049 C184.559764,98.9798798 183.441982,112.150644 178.617246,112.150644 C165.259275,112.150644 163.644609,101.61149 161.470528,94.629301 Z" id="Path-60" fill="#F2C490"></path>
                    <path d="M159.43933,102.130378 C162.416746,105.304895 163.637758,99.2667651 163.071004,96.90746 C162.410572,94.1581921 159.958481,90.2467549 156.916464,93.0691875 C155.557181,94.330352 154.911975,97.3033197 159.43933,102.130378 Z" id="Path-61" fill="#F2C490"></path>
                </g>
                <g id="man" transform="translate(309.390838, 677.918731) scale(-1, 1) translate(-309.390838, -677.918731) translate(109.258485, 467.750248)">
                    <path d="M129.897077,99.3855302 L129.897077,82.6015466 C118.075734,88.2401229 109.631632,90.224295 104.56477,88.554063 C99.2764983,86.8108459 95.5350825,79.9237518 93.3405224,67.8927805 C90.0742918,67.2812602 88.4411765,66.3801279 88.4411765,65.1893836 C88.4411765,61.9371226 92.2660166,60.3726265 92.2660166,54.5747522 C92.2660166,45.3804929 93.0586592,36.0029161 94.6439446,26.4420218 L136.316081,28.1741314 L146.220889,61.0679269 L165.029412,85.9780861 L129.897077,99.3855302 Z" id="Path-71" fill="#F5D7B5"></path>
                    <path d="M126.349584,34.7872402 C118.86503,30.9082838 107.984383,30.312004 93.7076418,32.998401 C86.8526343,22.4600775 84.9684832,15.2873008 88.0551885,11.4800709 C94.7427184,3.23148171 106.528978,-3.1946439e-14 129.430904,0 C139.042049,1.34068126e-14 140.851101,2.60279244 145.860576,9.30245627 C146.831145,10.6004934 147.290404,14.4393565 147.238354,20.8190458 C159.252169,22.1913015 165.926345,26.6846404 167.260881,34.2990625 C169.288845,45.8699583 165.309647,59.8289618 153.231381,70.2081269 C145.334235,70.2081269 138.102756,70.2081269 131.691751,61.9684414 C134.989801,61.9684414 138.102756,58.6780238 138.102756,54.5855821 C138.102756,51.8576745 135.044499,48.3277428 131.691751,48.3277428 C127.495331,48.3277428 125.740894,53.3443207 122.927016,52.7711829 C120.909588,52.3602681 123.151493,48.8981801 122.029139,46.3596377 C121.270368,44.6434481 120.062653,43.3720787 118.405996,42.5455294 C118.313112,38.6239955 120.960974,36.0378992 126.349584,34.7872402 Z" id="Path-73" fill="#2A2A2D"></path>
                    <polygon id="Path-75" fill="#FFFFFF" points="124.911765 108.503469 128.563937 96.1754706 161.398216 78.4142716 172.323529 90.7418473"></polygon>
                    <g id="Group-5" transform="translate(0.000000, 74.767096)">
                        <path d="M42.5407375,56.9265987 C39.3722025,52.8896886 35.8214948,49.5923236 31.8886144,47.0345037 C28.7520644,44.9945917 31.8886144,35.425347 27.5330413,29.4920933 C25.683254,26.9722739 27.1711099,19.8975668 25.7760654,14.2531955 C24.8739961,10.6034095 21.9246215,11.4142939 21.4663264,14.2531955 C20.4167907,20.7545266 19.4489593,26.6834501 18.5628324,32.0399658 C13.7132689,29.5369303 11.2884871,27.7097343 11.2884871,26.5583779 C11.2884871,23.0272871 14.1563324,17.7089643 19.8920228,10.6034095 C20.2285828,8.29621407 18.8788002,7.89545775 15.842675,9.40114056 C11.2884871,11.6596648 3.63054436,18.2022854 1.92038463,21.2617417 C0.0252419978,24.6521302 -1.14983358,36.975983 1.92038463,43.209346 C2.86762381,45.1324945 17.2375165,48.3292034 21.2868644,55.7571493 C26.4237864,65.1800936 30.8491442,72.2927505 34.5629377,77.0951201 L42.5407375,56.9265987 Z" id="Path-84" fill="#F5D7B5"></path>
                        <g id="Group" transform="translate(17.315682, 23.555010) rotate(16.000000) translate(-17.315682, -23.555010) translate(12.756859, 0.760164)">
                            <polygon id="Rectangle" fill="#141416" points="0.0226837833 8.4154954 4.15134466 0.0479712561 8.18514877 8.4154954 8.18514877 41.885592 0.0226837833 41.885592"></polygon>
                            <rect id="Rectangle" fill="#FAAB3F" x="0.0685712421" y="40.780118" width="8.16246499" height="4.80103844"></rect>
                        </g>
                        <path d="M42.5407375,56.9265987 C39.3722025,52.8896886 35.8214948,49.5923236 31.8886144,47.0345037 C28.7520644,44.9945917 31.8886144,35.425347 27.5330413,29.4920933 C25.683254,26.9722739 27.1711099,19.8975668 25.7760654,14.2531955 C24.8739961,10.6034095 21.9246215,11.4142939 21.4663264,14.2531955 C20.4167907,20.7545266 19.4489593,26.6834501 18.5628324,32.0399658 C17.6792885,42.8994575 18.5872991,50.8051853 21.2868644,55.7571493 C26.4237864,65.1800936 30.8491442,72.2927505 34.5629377,77.0951201 L42.5407375,56.9265987 Z" id="Path-84" fill="#F5D7B5"></path>
                    </g>
                    <g id="Group-4" transform="translate(164.117647, 253.478692)">
                        <g id="Path-83" transform="translate(139.514229, 123.270808)">
                            <mask id="mask-15" fill="white">
                                <use xlink:href="#path-14"></use>
                            </mask>
                            <use id="Mask" fill="#F5D7B5" xlink:href="#path-14"></use>
                            <path d="M26.2684477,19.5176568 C37.1254637,23.0979078 44.7925485,24.7607414 49.2697021,24.5061575 C49.5331245,24.4911786 49.0095051,25.5816583 49.2697021,25.5587637 C49.2697021,28.1675067 49.2697021,32.3408338 49.2697021,38.078745 L94.1662273,43.0546686 L100.512276,31.4387385 L33.4132624,-4.31629146 L23.9790081,17.4944169 L26.2684477,19.5176568 Z" fill="#3240AB" mask="url(#mask-15)"></path>
                        </g>
                        <path d="M80.0676071,6.12614917 C82.526239,20.6034367 80.8360965,38.5389764 74.9971795,59.9327684 C67.3471127,87.9626136 67.3471127,113.346461 69.0658747,121.448767 C93.424675,120.061271 116.574863,122.831365 138.516439,129.759051 L138.516439,161.911051 C101.538859,161.541532 67.6433979,161.356773 36.8300574,161.356773 C15.7486909,161.356773 3.57930864,124.408498 0.321910704,50.511949 L44.4811134,0.622884535 L80.0676071,6.12614917 Z" id="Path-81" fill="#2A2A2D"></path>
                        <path d="M123.643365,136.180524 C122.184936,140.107857 122.184936,144.331194 123.643365,148.850533 C131.132445,152.244068 143.03901,152.951757 159.363062,150.973598 C160.953059,143.303447 160.953059,138.752643 159.363062,137.321186 C149.302183,138.640442 137.395618,138.260221 123.643365,136.180524 Z" id="Path-78" fill="#43444A" transform="translate(141.552551, 144.123412) rotate(-90.000000) translate(-141.552551, -144.123412) "></path>
                        <path d="M197.726637,157.942718 C194.796938,160.588273 194.796938,162.729944 197.726637,164.36773 C199.185808,165.183448 200.947634,163.041777 203.012117,157.942718 L208.297597,166.325476" id="Path-82" stroke="#3240AB" stroke-width="1.82358771" stroke-linecap="round"></path>
                    </g>
                    <g id="Group-3" transform="translate(5.470588, 238.889990)">
                        <g id="Path-80" transform="translate(0.000000, 130.466260)">
                            <mask id="mask-17" fill="white">
                                <use xlink:href="#path-16"></use>
                            </mask>
                            <use id="Mask" fill="#F5D7B5" xlink:href="#path-16"></use>
                            <path d="M40.452906,20.3853531 C40.452906,25.8947781 41.9966099,30.6765282 45.0840176,34.7306034 C51.5654408,29.2271852 60.5055035,27.1860346 71.9042056,28.6071514 L71.9042056,50.4317901 L-0.689867653,50.4317901 L-5.13701449,38.008535 L21.3765657,28.6071514 L40.452906,20.3853531 Z" fill="#3240AB" mask="url(#mask-17)"></path>
                        </g>
                        <path d="M147.754321,3.31205154 C100.343366,1.26271282 66.4103206,4.38512429 45.9551838,12.6792859 C36.6369714,16.4576405 36.6369714,55.2669573 45.9551838,129.107236 C64.1432538,131.521913 75.0105023,130.026886 78.5569293,124.622155 C84.3638153,101.920408 87.2672583,82.428995 87.2672583,66.1479158 C122.720901,70.3171903 154.729427,72.4018276 183.292836,72.4018276 C207.477828,72.4018276 226.880828,55.1084406 241.501837,20.5216666 L154.617004,0.360545666 L147.754321,3.31205154 Z" id="Path-77" fill="#35353A"></path>
                        <path d="M43.3263548,119.724847 C41.7599886,123.627019 41.7599886,127.823298 43.3263548,132.313683 C51.3697006,135.685477 64.1574695,136.388631 81.6896616,134.423146 C83.397334,126.802136 83.397334,122.280487 81.6896616,120.858201 C70.8841791,122.169005 58.0964101,121.79122 43.3263548,119.724847 Z" id="Path-78" fill="#43444A"></path>
                        <path d="M37.8307424,157.414344 C37.8020967,147.104084 35.1339419,142.770782 29.826278,144.414438 C24.7454749,145.987841 26.2993991,150.874165 34.4880503,159.073411 L18.4324638,157.414344" id="Path-79" stroke="#3240AB" stroke-width="1.82358771" stroke-linecap="round"></path>
                    </g>
                    <path d="M127.233664,101.715503 C117.832795,105.250279 104.085805,126.190437 85.9926929,164.535977 L42.2759813,131.78034 C38.8352276,136.953868 34.7726456,142.496471 30.0882353,148.408146 C50.2947623,181.348124 62.6120373,189.867566 87.9890422,204.62745 C98.7244082,210.871401 115.331683,195.613878 129.872317,171.205401 C169.769926,199.850327 150.077509,237.060909 148.077154,242.849475 C163.595264,263.508424 182.540022,266.484098 204.945734,259.431031 C215.24841,256.187864 229.000297,257.546995 246.201395,263.508424 C249.702638,217.535657 242.83671,173.626295 225.60361,131.78034 C213.222238,101.715503 187.877282,80.1755229 166.219228,86.9656304 C149.142247,92.3195068 142.060898,96.1403854 127.233664,101.715503 Z" id="Path-74" fill="#5F6BBF"></path>
                    <polygon id="Path-76" fill="#FFFFFF" points="25.5294118 150.872863 41.9054543 129.474727 51.9705882 136.906204 35.890154 165.034688"></polygon>
                </g>
                <g id="Matt" transform="translate(246.229073, 512.278494) scale(-1, 1) translate(-246.229073, -512.278494) translate(191.729073, 431.278494)">
                    <path d="M0.118877029,118.742559 C3.41130941,127.335812 21.2112734,131.570392 21.2112734,139.712441 C21.2112734,156.511583 64.8674241,165.61982 86.9237212,159.452313 C95.5192548,157.048782 122.938622,145.081218 93.1192587,125.757035 C87.0497238,121.823725 73.5976019,125.60266 62.7335561,123.034809 C50.8107323,120.216703 41.2722865,111.23885 30.6520415,111.23885 C19.4351855,111.23885 -1.7755031,113.798225 0.118877029,118.742559 Z" id="Path-46" fill="#141416" opacity="0.05"></path>
                    <path d="M64.3038124,10.6811657 C63.5069536,8.82060331 61.5046966,7.83761572 59.6605669,7.0088528 C56.3367786,5.51645673 52.6049694,4.28889056 49.4709341,2.4366362 C47.7636758,1.42768489 46.096338,-0.936574137 43.9328424,0.398481954 C41.0440344,2.18167256 42.1825527,8.56875467 42.3681581,11.325586 C42.6361973,15.3125795 43.6679142,19.4517205 46.647451,22.3030596 C50.4155519,25.9094246 57.0652019,21.5490722 60.1484291,19.1583301 C62.8329676,17.0770758 65.6424526,13.8061627 64.3038124,10.6811657" id="Fill-10" fill="#131211"></path>
                    <path d="M53.3134071,15.8105089 C53.5527701,15.611122 53.798987,15.4169407 54.0510037,15.2290073 C52.3295932,16.5148699 45.6996584,5.37679856 45.6790965,3.64270584 C42.60481,7.96466262 46.4620348,17.2384933 49.4546001,20.7634233 C50.4410505,18.8799209 51.6494645,17.1968461 53.3134071,15.8105089" id="Fill-11" fill-opacity="0.7" fill="#C15050"></path>
                    <path d="M86.1880572,10.6811657 C86.984915,8.82060331 88.9866497,7.83761572 90.8312945,7.0088528 C94.1550768,5.51645673 97.886879,4.28889056 101.020909,2.4366362 C102.727646,1.42768489 104.395499,-0.936574137 106.558991,0.398481954 C109.447794,2.18167256 108.309278,8.56875467 108.123673,11.325586 C107.855634,15.3125795 106.823919,19.4517205 103.844387,22.3030596 C100.076293,25.9094246 93.4266548,21.5490722 90.3434335,19.1583301 C87.6583814,17.0770758 84.8494197,13.8061627 86.1880572,10.6811657" id="Fill-12" fill="#131211"></path>
                    <path d="M97.5438586,15.8105089 C97.3039662,15.611122 97.0577473,15.4169407 96.8062558,15.2290073 C98.5276806,16.5148699 105.15767,5.37679856 105.178233,3.64270584 C108.252545,7.96466262 104.39476,17.2384933 101.402697,20.7634233 C100.416239,18.8799209 99.207815,17.1968461 97.5438586,15.8105089" id="Fill-13" fill-opacity="0.7" fill="#C15050"></path>
                    <path d="M29.2693156,129.115507 C29.5724117,135.488583 31.5343166,142.723598 37.2869763,145.411214 C43.3319443,148.234735 50.8934193,147.337141 57.3688863,147.819786 C62.3586688,148.191329 84.9002804,150.948189 85.2336855,143.488905 C86.6654293,144.034593 88.2641321,143.708007 89.0485857,142.25904 C89.8047846,140.863299 89.5237787,139.101698 88.8143285,137.68167 C88.1043646,136.261641 87.0168152,135.075183 86.090574,133.787442 C83.0642374,129.581098 84.1245594,122.400342 84.0480154,117.451428 C83.9488669,111.014792 84.0927088,104.574021 84.4795418,98.1482364 C85.183341,86.45832 84.4410127,75.3574992 84.3208015,63.6412287 C84.2524768,57.0113277 82.6501776,49.4331906 77.7770099,44.6460199 C72.6921887,39.6521489 67.671583,42.9846687 66.9451793,49.9985153 C66.2120984,57.079539 64.5604819,62.3762255 59.9970884,68.331768 C54.6158496,75.3549156 47.7283777,81.0918728 42.2870334,88.0674797 C33.2835402,99.6090882 28.5732223,114.460997 29.2693156,129.115507" id="Fill-14" fill="#131211"></path>
                    <path d="M79.3029399,86.0700227 C78.538042,90.9537866 77.3980363,96.2795624 77.5013047,101.23751 C77.5833126,105.198614 76.5278449,110.190047 77.1327772,114.016693 C75.2714085,102.261658 75.5295804,90.3989539 74.1496265,78.6063121 C75.5802022,77.1911538 78.1958376,78.2585755 79.0680539,80.0843206 C79.9402698,81.9105802 79.6173018,84.0650006 79.3029399,86.0700227" id="Fill-15" fill="#EAE7E4"></path>
                    <path d="M64.9645989,111.831069 C62.2678331,114.412032 60.5217665,118.972213 58.0707283,122.004098 C60.8734739,124.714263 61.689101,128.470403 61.2179074,132.200805 C60.9051633,134.6747 57.5678443,139.829418 59.5596379,141.774663 C60.2890272,142.487079 62.0215864,142.329565 62.9374786,142.978666 C64.4861319,144.075601 64.289758,146.44809 65.5163163,147.443618 C66.9158711,148.579159 71.252204,148.3712 73.053338,148.622398 C71.5607917,142.278604 70.5394391,136.241602 69.4832794,129.871041 C68.9429907,126.613695 68.0998296,123.414516 67.2577072,120.224088 C66.5059789,117.374425 65.305396,114.767211 64.9645989,111.831069" id="Fill-16" fill="#131211"></path>
                    <path d="M57.7052988,121.636668 C60.5476338,124.345991 60.8969325,127.933641 60.8969325,131.830208 C60.8969325,139.090329 57.1953115,139.456451 59.2152396,141.401092 C59.6652252,141.83435 66.8551886,142.267597 69.6965379,139.090329 C71.5258329,137.044765 69.698551,131.995473 69.2790548,129.501167 C68.7311345,126.244833 67.8760635,123.046648 67.0220459,119.857211 C66.2596993,117.008433 65.0421579,114.402028 64.6965469,111.466799 C61.9616886,114.04696 60.1909585,118.605725 57.7052988,121.636668 Z" id="Fill-16" fill="#EAE7E4"></path>
                    <path d="M92.6924559,47.1866666 C84.2275494,52.4486147 71.4090984,51.5435643 61.9560503,48.7758021 C52.7689209,46.0859836 45.4121813,38.4748963 45.282326,28.5905477 C45.1550576,18.8811845 52.4947248,9.98687157 61.6673685,6.74164226 C70.8394945,3.49641295 81.2931007,5.30820798 89.8050863,10.0157779 C97.018002,14.0053399 103.749416,21.3331124 103.749416,29.5580893 C103.749416,36.743002 99.2135336,42.3408136 95.6112559,45.0414987 L92.6924559,47.1866666 Z" id="Fill-18" fill="#131211"></path>
                    <path d="M34.8433777,117.270789 C33.4276018,116.263989 30.7391808,112.613236 27.2353669,112.216651 C24.6165138,111.920232 17.9854253,114.74372 16.5805959,118.955502 C15.1757666,123.167284 22.9313027,124.063548 25.2905379,127.659851 C27.8192307,131.514467 33.7513702,136.46018 36.2248246,134.822023 C37.582014,133.92363 37.4484525,132.963632 36.5946871,132.043163 C34.7741423,130.079531 35.7243692,117.897611 34.8433777,117.270789 Z" id="Fill-20" fill="#131211"></path>
                    <path d="M63.1513918,36.4269186 C72.9046235,36.3908308 65.6564835,26.5513419 59.8814423,25.5874923 C57.866869,25.2516734 55.5800144,25.8666727 54.421918,27.5066714 C52.9452161,29.5967669 53.8325758,32.6702602 55.8152369,34.3157718 C57.7978982,35.9617847 60.5459321,36.4364418 63.1513918,36.4269186" id="Fill-21" fill="#F3B33C"></path>
                    <path d="M84.7826303,36.4269186 C75.0289439,36.3908308 82.2775539,26.5513419 88.0525602,25.5874923 C90.0666066,25.2516734 92.3539615,25.8666727 93.5120508,27.5066714 C94.9887437,29.5967669 94.1008749,32.6702602 92.1182262,34.3157718 C90.135577,35.9617847 87.3875596,36.4364418 84.7826303,36.4269186" id="Fill-22" fill="#F3B33C"></path>
                    <path d="M62.8213119,30.459646 C62.8213119,32.6364346 62.2767347,35.5222178 61.1768862,34.3249103 C59.62585,32.6364346 59.5331039,31.9087372 59.2064894,30.459646 C59.0354792,29.7009244 59.4548398,28.9490439 59.7987903,28.2829518 C60.0354255,27.8251936 60.4747251,27.4391629 61.0089875,27.3414837 C61.5432501,27.2438045 62.1558758,27.4896242 62.364717,27.9592771 C62.4971245,28.2570001 62.8213119,29.404135 62.8213119,30.459646 Z" id="Fill-24" fill="#231B13"></path>
                    <path d="M85.8433707,30.459646 C85.8433707,32.6364346 86.3879478,35.5222178 87.4877963,34.3249103 C89.0388325,32.6364346 89.1315786,31.9087372 89.4581931,30.459646 C89.6292033,29.7009244 89.2098428,28.9490439 88.8658923,28.2829518 C88.629257,27.8251936 88.1899574,27.4391629 87.6556951,27.3414837 C87.1214325,27.2438045 86.5088067,27.4896242 86.2999655,27.9592771 C86.167558,28.2570001 85.8433707,29.404135 85.8433707,30.459646 Z" id="Fill-24" fill="#231B13"></path>
                    <path d="M71.4507198,139.817791 C70.683992,136.496787 70.7741283,132.784139 70.0942389,129.444158 C68.7349703,122.76317 66.7466595,116.428177 65.7301452,109.686154 C65.623386,108.976818 64.54915,109.277889 64.6559092,109.983634 C65.7791834,117.435506 67.4909638,124.051371 69.0336134,131.427334 C69.7676491,134.939136 70.1563241,139.245399 70.9904787,142.734119 C71.3684792,144.315379 71.3689898,147.293255 73.3289721,147.893857 C73.8556187,146.033582 71.9135144,141.820651 71.4507198,139.817791 Z" id="Fill-27" fill="#131211"></path>
                    <path d="M65.9768793,145.19836 C64.3434756,142.642894 60.9699074,141.398381 57.9248764,141.169923 C61.0575862,138.531658 62.2706475,134.273739 61.7476693,130.197258 C60.9647495,124.091736 56.4750824,119.256281 52.4423763,114.920165 C51.9508594,114.391183 51.1565934,115.181334 51.6470785,115.708271 C55.1526807,119.478096 58.9336974,123.49529 60.2896236,128.586802 C61.5243464,133.223442 60.2844658,138.674764 55.9175491,141.222565 C55.4549145,141.491911 55.6297563,142.292794 56.2012156,142.261107 C57.795421,142.172688 59.3684808,142.328571 60.8703664,142.890774 C61.5800481,143.156032 62.2835411,143.520441 62.9205012,143.929827 C63.4594677,144.268682 63.9504687,144.662735 64.3929885,145.111986 C65.0944185,145.648634 65.1614667,146.434185 64.5936181,147.468638 C63.8901251,147.300999 63.5899543,148.375828 64.2944788,148.543978 C66.5509169,149.08267 66.9521763,146.723975 65.9768793,145.19836" id="Fill-28" fill="#131211"></path>
                    <path d="M66.1872683,49.9469103 C70.8102928,51.0411063 79.4700929,51.5130611 84.0376329,50.2090401 C84.742184,50.0080235 84.2238256,49.6635447 83.7340374,49.1195073 C83.4075122,48.7568157 80.3261031,46.1045053 74.4898104,41.162576 L73.3446324,41.162576 C73.8987146,43.802348 73.9941461,45.4867469 73.630927,46.2157723 C72.7119095,48.0603526 68.0287925,48.611608 67.3324466,48.8134477 C66.4407238,49.0719185 65.9009737,48.8610366 66.1872683,49.9469103 Z" id="Fill-29" fill="#EAE7E4"></path>
                    <g id="Fill-30-+-Fill-31-Mask" transform="translate(84.016223, 137.694281)">
                        <mask id="mask-19" fill="white">
                            <use xlink:href="#path-18"></use>
                        </mask>
                        <use id="Mask" fill="#EAE7E4" xlink:href="#path-18"></use>
                        <path d="M1.19416464,1.61682463 C0.513463822,1.28257373 -0.0901454536,2.25937529 0.592195747,2.59466453 C1.82511126,3.19984539 2.65343396,4.32301174 2.75239544,5.64859697 C2.80597634,6.37107678 3.99897963,6.37678611 3.94485152,5.64859697 C3.81745985,3.93478221 2.81199064,2.41144911 1.19416464,1.61682463" id="Fill-30" fill="#131211" mask="url(#mask-19)"></path>
                        <path d="M5.51235111,3.52315067 C4.90968901,1.99434436 3.83378144,0.744614312 2.35810943,-0.0612515328 C1.68690111,-0.428037745 1.08314195,0.572916149 1.75435093,0.939702048 C2.94596517,1.59088019 3.86832865,2.58811264 4.35912248,3.83146357 C4.63111587,4.52144657 5.78818289,4.22163873 5.51235111,3.52315067" id="Fill-31" fill="#131211" mask="url(#mask-19)"></path>
                    </g>
                    <path d="M82.1043482,139.151363 C79.9648979,139.151363 73.5927447,141.076943 73.3339059,141.733041 C73.0176129,142.534774 72.4851534,143.45416 72.7680709,144.31472 C73.0509884,145.175279 72.9872172,146.609545 73.3339059,147.470104 C73.8296491,148.70065 75.2995072,148.569965 76.4459984,148.617516 C78.2844793,148.693769 79.5557673,147.852968 80.1239256,147.756957 C83.5189355,147.183251 85.7822754,144.888426 84.9335231,142.880454 C84.0847706,140.872482 84.2437982,139.151363 82.1043482,139.151363 Z" id="Fill-32" fill="#EAE7E4"></path>
                    <path d="M77.9164174,143.263603 C77.3105434,142.843051 76.7245784,143.790793 77.3239953,144.206338 C78.4001479,144.952815 78.9102439,146.141373 78.8080098,147.369482 C78.7493594,148.0704 79.9234419,148.066896 79.981554,147.369482 C80.1176873,145.733839 79.3154157,144.234374 77.9164174,143.263603" id="Fill-32" fill="#131211"></path>
                    <path d="M81.4253407,142.223919 C80.8458795,141.722071 79.9718826,142.528798 80.5536048,143.032217 C81.6520372,143.983526 82.1568755,145.231856 82.0319378,146.617435 C81.9652292,147.349775 83.1987751,147.346108 83.2649185,146.617435 C83.4147303,144.958931 82.7352058,143.358574 81.4253407,142.223919" id="Fill-33" fill="#131211"></path>
                    <path d="M73.053338,38.1624284 C75.3419525,35.6560306 74.3598937,32.2365442 75.907265,28.5285347 C76.096761,28.0744406 76.2839646,29.0856608 76.2509613,29.3948919 C76.1640779,30.2089634 75.6773866,30.9407309 75.5633004,31.7513838 C75.4458022,32.5862812 75.7207326,33.6323894 75.907265,34.4544189 C76.2209752,35.8369057 78.3716937,41.8248886 77.6606661,43.0486838 C77.0347805,44.125936 74.6349581,42.2169807 73.5347008,38.6129343 L73.053338,38.1624284 Z" id="Path" stroke="#EAE7E4" stroke-width="0.5" fill="#EAE7E4"></path>
                    <path d="M75.9216006,38.3214143 C76.255165,38.3811809 76.6555448,38.5325508 76.7033438,38.8956163 C76.7465174,39.229637 76.4556118,39.4910444 76.1976009,39.6781626 C75.3988969,40.257392 74.4043712,41.5437613 73.3574216,41.0533436 C72.7180473,40.7539541 72.3022484,40.0859135 71.922427,39.4519449 C71.7132424,39.1022847 71.4953207,38.679453 71.6366617,38.2912523 C71.9542928,37.4187776 75.253958,38.2018822 75.9216006,38.3214143" id="Fill-25" fill="#C15050"></path>
                    <path d="M77.0730626,40.1003489 C83.0353797,38.8192364 88.5843379,38.5631908 94.6136788,39.7004985 C90.1503808,39.1946045 86.9912335,38.994549 85.1362372,39.1003327 C83.0933186,39.2168327 80.4055936,39.6614001 77.0730626,40.4340349 L77.0730626,40.1003489 Z" id="Path-2" fill="#D8D8D8" opacity="0.8"></path>
                    <path d="M76.9959896,41.569283 C84.3738361,41.0809115 89.1550632,40.7618577 96.0753968,42.2553878 C92.4986816,41.8377588 89.4786394,41.5493957 87.0152702,41.3902992 C85.7105406,41.3060331 79.9093973,41.569283 77.3512831,41.7089818 C75.6458738,41.8021144 75.5274424,41.7555481 76.9959896,41.569283 Z" id="Path-3" fill="#D8D8D8"></path>
                    <path d="M56.6864941,42.1923317 C62.6405052,40.8367824 68.1816369,40.5654381 74.2023286,41.7677316 C69.7453987,41.233103 66.5907427,41.0218198 64.7383606,41.1338817 C62.6983212,41.257296 60.0143545,41.7277541 56.6864599,42.5452555 L56.6864941,42.1923317 Z" id="Path-2" fill="#D8D8D8" opacity="0.8" transform="translate(65.444394, 41.774232) scale(-1, 1) rotate(4.000000) translate(-65.444394, -41.774232) "></path>
                    <path d="M56.1929085,43.5342239 C63.5258183,42.9551196 68.2779248,42.5767991 75.1555581,44.3408275 C71.6008123,43.8479488 68.5993021,43.5077582 66.1510276,43.3202555 C64.8542928,43.2209441 59.088517,43.5335343 56.545992,43.6992932 C54.8509755,43.8097992 54.7332808,43.7547761 56.1929085,43.5342239 Z" id="Path-3" fill="#D8D8D8" transform="translate(65.167715, 43.696071) scale(-1, 1) rotate(10.000000) translate(-65.167715, -43.696071) "></path>
                    <path d="M66.3909513,50.2693406 C73.6910718,51.3101137 75.3757148,51.3101137 81.8335136,50.7897272 C82.1142875,51.0499205 82.3001864,51.43699 82.1142875,51.570307 C81.5016277,52.0096747 79.025775,52.0906936 78.4642273,52.0906936 C75.9914108,52.0906936 75.0949409,52.0906936 72.8487501,52.0906936 C71.242329,52.0906936 66.1101774,51.8305003 66.1101774,51.3101137 C66.1101774,50.9631894 66.2037687,50.616265 66.3909513,50.2693406 Z" id="Path-4" fill="#472CA8"></path>
                    <path d="M74.6257402,51.3263041 C74.5537097,51.0940745 74.7331087,50.8618448 74.8227688,51.0940745 C74.912429,51.3263041 74.8858836,51.7550297 74.8227688,51.9543072 C74.7596541,52.1535847 74.4032739,52.117851 74.5503184,51.9543072 C74.6973629,51.7907634 74.6977709,51.5585337 74.6257402,51.3263041 Z" id="Rectangle" fill="#D8D8D8"></path>
                    <path d="M74.8444757,54.6405877 C75.732489,54.6405877 76.3422035,54.1480527 76.3422035,53.6555178 C76.3422035,53.1629831 75.4651726,52.4549641 74.8444757,52.4549641 C74.2237791,52.4549641 73.4187675,53.2553333 73.4187675,53.6555178 C73.4187675,54.0557025 73.9564628,54.6405877 74.8444757,54.6405877 Z" id="Oval" fill="#992AEE"></path>
                </g>
            </g>
        </g>
    </g>
</svg>