<?xml version="1.0" encoding="UTF-8"?>
<svg width="1920px" height="1080px" viewBox="0 0 1920 1080" version="1.1" xmlns="http://www.w3.org/2000/svg" xmlns:xlink="http://www.w3.org/1999/xlink">
    <!-- Generator: Sketch 53.2 (72643) - https://sketchapp.com -->
    <title>Cover</title>
    <desc>Created with Sketch.</desc>
    <g id="Cover" stroke="none" stroke-width="1" fill="none" fill-rule="evenodd">
        <rect fill="#FFFFFF" x="0" y="0" width="1920" height="1080"></rect>
        <g id="BG" transform="translate(509.000000, -44.609375)">
            <path d="M104.578125,4.28125 C82.5016798,83.0146269 96.6605339,164.522439 147.054687,248.804688 C222.645918,375.22806 326.066373,293.718299 382.335937,468.820313 C438.605502,643.922326 305.264198,729.047988 366.875,853.140625 C428.485802,977.233262 512.640625,1045.64844 628.390625,1059.49219 C744.140625,1073.33594 908.78125,1008.94531 1099.78125,1059.49219 C1227.11458,1093.1901 1344.1875,1135.50521 1451,1186.4375 L1480.98438,364.671875 C1280.93229,281.515625 1135.57552,234.617188 1044.91406,223.976563 C908.921875,208.015625 857.324177,287.025698 813.523437,261.929688 C769.722698,236.833677 832.680918,155.462539 827.539062,99.4296875 C823.758633,58.2328385 804.964362,26.5166927 771.15625,4.28125 L104.578125,4.28125 Z" id="Path-1" fill="#A4ACE2" opacity="0.7"></path>
            <path d="M-1.13686838e-13,0 C3.30729167,65.3072917 48.0885417,117.539063 134.34375,156.695313 C187.367289,180.765777 243.702119,184.447934 298.804688,262.710938 C348.414063,333.171875 238.226563,454.441232 343.195313,511.417794 C501.261143,597.215212 311.195313,598.710938 407.898438,799.679688 C457.729757,903.239297 523.65625,989.640625 719.03125,989.640625 C849.855105,989.640625 909.423017,898.760246 1064.125,924.5625 C1218.82698,950.364754 1224.67388,1003.14897 1340.38281,1017.85938 C1433.87373,1029.74514 1512.418,1020.33889 1576.01563,989.640625 L1576.01563,182 C1488.6732,153.79341 1397.24612,153.79341 1301.73438,182 C1189.05667,215.276053 1151.71818,323.714642 1064.125,333.171875 C981.058027,342.140423 1017.3324,220.586072 906.132813,232.015625 C794.933221,243.445178 710.456244,219.332109 719.03125,144.65625 C725.895309,84.88026 696.778121,36.66151 631.679688,1.24203584e-14 L-1.13686838e-13,0 Z" id="Path-2" fill="#D8DAED"></path>
        </g>
    </g>
</svg>