<?xml version="1.0" encoding="UTF-8"?>
<svg width="800px" height="600px" viewBox="0 0 800 600" version="1.1" xmlns="http://www.w3.org/2000/svg" xmlns:xlink="http://www.w3.org/1999/xlink">
    <!-- Generator: Sketch 53.2 (72643) - https://sketchapp.com -->
    <title>CM_About</title>
    <desc>Created with Sketch.</desc>
    <defs>
        <path d="M136.033844,3.15711462 C138.141311,-5.4760646 174.793725,7.62351779 195.999259,31.2697628 C217.249259,22.6284585 238.963686,31.2697628 238.963686,31.2697628 C256.5625,16.8873518 273.872283,-3.00642292 278.096591,3.15711462 C290.894825,21.8305614 293.909482,45.7254889 287.140563,74.8418972 C301.059712,84.6488788 306.53402,93.9514151 303.563488,102.749506 C292.115136,136.657113 271.624101,144.965109 256.5625,168.740119 C242.32584,191.212945 262.810607,228.663825 230.277915,273.903162 C177.876729,346.771245 147.073864,332.15168 104.042737,387.880435 C97.8990695,394.451055 116.681316,381.33919 123.706769,387.880435 C132.308787,395.889585 137.557673,412.281093 129.171196,413.841403 C104.042737,415.934908 74.3496307,415.934908 34.5985672,396.958992 C19.0011207,389.513259 8.42717475,375.044385 2.87672925,353.552372 C-2.47824903,318.430411 0.101625804,289.682882 10.6163538,267.309783 C50.2853261,182.902668 84.2724802,162.611166 129.171196,153.858696 C147.568026,150.272453 156.362503,135.980992 147.755682,117.236907 C144.127964,109.336401 140.859684,94.3810913 147.755682,82.7527462 C132.135623,69.1559082 130.437825,26.0810496 136.033844,3.15711462 Z" id="path-1"></path>
        <path d="M0.516304348,2.35224396 C12.2541996,-2.07339833 20.3517304,0.540645656 25.9368824,3.69611748 C34.9624277,8.7953258 36.1814476,19.4971303 32.7711215,23.6040967 C30.1510212,26.759415 12.8940217,28.6343586 7.52285079,23.6040967 C2.11335365,18.5379412 -0.222161835,11.4539903 0.516304348,2.35224396 Z" id="path-3"></path>
        <path d="M1.94091744,22.2908336 C-0.275609237,18.4685757 -0.209186152,8.2830667 5.45899727,4.05960826 C13.0544626,-1.59990019 23.8220933,-0.587130867 28.4682149,2.52489977 C34.269092,6.41040019 28.6919968,20.6199471 22.6715252,24.265883 C16.6510535,27.9118188 4.15744412,26.1130915 1.94091744,22.2908336 Z" id="path-5"></path>
        <path d="M0.127768785,16.1993577 C-1.48062908,7.78087471 12.3630968,-5.74575746e-15 26.6112174,-7.10542736e-15 C40.859338,-7.10542736e-15 59.0865138,6.29484337 55.7391818,19.666502 C52.1235367,34.1099969 44.8844387,43.1126482 27.7346117,43.1126482 C10.5847846,43.1126482 2.94026878,30.9202075 0.127768785,16.1993577 Z" id="path-7"></path>
        <path d="M87.0528656,365.806461 C35.9406981,359.65891 7.4476151,333.721822 1.5736166,287.995197 C-9.96294466,198.187884 61.6046749,193.706895 74.1349282,166.641442 C89.0872406,134.34432 30.4740843,79.3066755 40.9881423,40.9695049 C53.2719859,-3.82079481 92.3937747,-3.82079481 119.730731,3.80300295 C135.747683,8.26985001 147.985826,23.4683019 156.445158,49.3983587 C157.66222,39.9624232 156.736248,30.5174298 153.667243,21.0633784 C171.086617,30.781606 176.918231,68.4365843 173.616601,90.7587187 C165.785949,143.701307 140.531126,164.898194 107.340662,198.127361 C67.816332,237.697778 57.2298039,242.461131 53.4659091,285.447025 C49.6862648,328.612786 67.9298419,341.428991 93.3349802,352.485068 C94.3658196,354.951433 92.2717814,359.391897 87.0528656,365.806461 Z" id="path-9"></path>
        <path d="M2.4158453e-13,34.0866784 C20.3713768,52.3706047 39.015975,88.833467 55.9337945,143.475265 C57.629598,148.952434 58.2710671,158.662579 57.8582016,172.6057 L86.7934783,172.6057 C89.5405138,168.872993 89.5405138,164.486876 86.7934783,159.44735 C84.345076,154.955677 77.4724649,156.56973 77.2171443,151.899178 C72.9829545,74.4436448 88.4410794,62.163922 81.2042984,10.3811448 C79.5944499,-1.13812394 62.2319664,-3.07076557 29.1168478,4.58321993 L2.4158453e-13,34.0866784 Z" id="path-11"></path>
        <path d="M10.3758316,0.0864223599 C8.55904795,-0.789898026 2.27373675e-13,5.23317807 2.27373675e-13,7.52899413 C2.27373675e-13,11.1065324 2.13029579,12.2404777 2.39442288,15.7158232 C2.53742968,17.6099813 11.8487711,16.6115757 12.7702536,14.9351149 C13.5683946,13.4830514 18.9713112,4.18592707 12.7702536,1.38093972 L10.3758316,0.0864223599 Z" id="path-13"></path>
    </defs>
    <g id="CM_About" stroke="none" stroke-width="1" fill="none" fill-rule="evenodd">
        <rect id="Bound" x="0" y="0" width="800" height="600"></rect>
        <g id="Chloe" transform="translate(561.672727, 361.127273) scale(-1, 1) translate(-561.672727, -361.127273) translate(356.363636, 132.254545)">
            <path d="M1.00094279,331.883537 C7.37024739,360.343726 89.470261,371.094001 89.470261,397.803409 C89.470261,452.91179 255.688337,469.327607 331.916896,449.095543 C361.623838,441.210929 463.662306,392.372667 335.485733,365.40681 C302.71636,358.512771 249.732748,366.487611 229.875637,349.979417 C208.734117,332.403431 174.141405,290.934734 137.436877,290.934734 C98.6704069,290.934734 -11.6263299,275.460647 1.00094279,331.883537 Z" id="shadow" fill="#BBBFE4" opacity="0.12"></path>
            <path d="M296.711862,322.46407 C301.376968,332.694637 306.68383,350.072766 312.632446,374.598457 C316.707248,391.398554 320.000668,394.413215 331.676042,404.610809 C342.674065,414.216788 348.411631,415.894159 371.232613,415.894159 C378.487133,415.894159 373.391704,392.207153 348.411631,392.372667 C341.049475,392.421447 333.471364,375.308003 335.485733,362.465305 C341.072586,326.846069 342.954726,293.097884 341.132153,261.22075 L296.711862,322.46407 Z" id="Path-143" fill="#959898"></path>
            <g id="Group-3" transform="translate(105.469273, 14.823260)">
                <mask id="mask-2" fill="white">
                    <use xlink:href="#path-1"></use>
                </mask>
                <use id="Mask" fill="#A1A5A7" xlink:href="#path-1"></use>
                <g mask="url(#mask-2)">
                    <g transform="translate(-5.059289, -5.691700)">
                        <path d="M183.16082,282.81949 C190.356475,260.224587 172.554679,240.162145 129.755435,222.632164 C126.386336,215.075656 153.301152,211.176009 163.458498,220.473073 C177.060277,232.922843 190.368906,246.071723 203.384387,259.919713 L183.16082,282.81949 Z" id="Path-158" stroke="none" fill="#777878"></path>
                        <path d="M282.276433,181.264822 C232.522212,154.11602 208.925786,154.11602 211.487154,181.264822 C215.562006,224.455545 197.906729,260.176418 169.235425,302.957016 C149.731143,332.059453 140.767869,356.315876 142.345603,375.726285 L228.044713,313.796937 L276.162302,248.379447 L282.276433,181.264822 Z" id="Path-144" stroke="none" fill="#F0F0F4"></path>
                        <path d="M282.276433,2.13162821e-14 C282.276433,20.3989625 267.965662,43.8969862 263.059536,52.541996 C261.773772,54.80762 271.487211,64.1381535 292.199852,80.5335968 C308.963686,70.1943347 317.345603,65.0247036 317.345603,65.0247036 C317.345603,65.0247036 297.826347,2.8338199 282.276433,2.13162821e-14 Z" id="Path-145" stroke="#979797" stroke-width="0.727272727" fill="#F0F0F4"></path>
                        <path d="M135.440958,20.2248024 C146.238883,4.07805325 199.520751,47.2233202 192.445652,55.0395257 C173.75985,75.6826396 157.497594,93.2184082 138.152174,88.4444458 C131.043345,88.2081989 129.467258,76.4194047 133.423913,53.0780632 C130.994031,36.8202316 131.666379,25.8691446 135.440958,20.2248024 Z" id="Path-146" stroke="none" fill="#F0F0F4"></path>
                        <path d="M146.742836,93.5633939 C146.742836,93.5633939 170.246747,110.056377 196.301877,110.056377 C186.128953,120.160632 168.756999,126.753335 144.186018,129.834486 C145.890563,105.653758 146.742836,93.5633939 146.742836,93.5633939 Z" id="Path-151" stroke="none" fill="#777878"></path>
                        <path d="M152.853261,129.834486 C152.853261,129.834486 167.913785,151.233943 218.60919,151.233943 C208.625659,162.18503 180.758399,162.990366 135.007411,153.649951 C146.904644,137.772974 152.853261,129.834486 152.853261,129.834486 Z" id="Path-152" stroke="none" fill="#777878"></path>
                        <path d="M109.750494,160.903221 C126.588439,197.179367 153.672596,214.649707 191.002964,213.31424 C194.716478,213.181392 195.153618,207.943353 191.002964,207.43083 C162.694335,203.935277 140.952734,186.840827 125.778162,156.14748 L109.750494,160.903221 Z" id="Path-153" stroke="none" fill="#777878"></path>
                        <path d="M82.388834,173.77167 C81.1956522,209.8203 99.7237319,236.114542 137.973073,252.654397 C139.937756,253.503969 140.066538,256.776186 137.973073,256.776186 C97.203969,256.776186 68.4362648,236.816123 51.6699605,196.895998 L82.388834,173.77167 Z" id="Path-154" stroke="none" fill="#777878"></path>
                        <path d="M38.3152174,222.928607 C43.3196846,251.512563 58.2760416,268.469497 83.1842885,273.799407 C103.502964,278.147233 120.439723,284.371294 87.7309783,282.46665 C65.9251482,281.196887 43.5424901,269.762846 20.583004,248.164526 L38.3152174,222.928607 Z" id="Path-155" stroke="none" fill="#777878"></path>
                        <path d="M5.22559026,280.037055 C53.5361651,296.880764 74.414114,325.357378 67.8594368,365.466897 C51.0552536,332.424242 28.4354414,318.185935 2.84217094e-14,322.751976 L5.22559026,280.037055 Z" id="Path-156" stroke="none" fill="#777878"></path>
                        <path d="M125.507658,383.075593 C124.041241,356.645257 115.061498,325.932971 98.5684289,290.938735 C119.634799,296.982872 136.485919,325.819335 149.121789,377.448123 L125.507658,383.075593 Z" id="Path-157" stroke="none" fill="#777878"></path>
                    </g>
                </g>
            </g>
            <g id="Path-148" transform="translate(294.575004, 83.979168)">
                <mask id="mask-4" fill="white">
                    <use xlink:href="#path-3"></use>
                </mask>
                <use id="Mask" fill="#F0F0F4" xlink:href="#path-3"></use>
                <path d="M-3.16205534,11.0423378 C6.19070438,5.99310226 14.0244083,5.42944943 20.3390563,9.35137934 C26.6537044,13.2733092 28.2876388,19.9140372 25.2408597,29.2735631 C13.9307477,30.1925355 8.2756917,30.6520216 8.2756917,30.6520216 C8.2756917,30.6520216 4.46310935,24.1154604 -3.16205534,11.0423378 Z" fill="#272424" mask="url(#mask-4)"></path>
            </g>
            <g id="Path-148" transform="translate(357.897797, 82.953004)">
                <mask id="mask-6" fill="white">
                    <use xlink:href="#path-5"></use>
                </mask>
                <use id="Mask" fill="#F0F0F4" xlink:href="#path-5"></use>
                <path d="M-9.48616601,11.8412823 C-0.142137486,7.48023609 7.74483005,6.69093961 14.1747366,9.47339285 C19.8013835,11.9082466 20.877401,18.4506919 17.402789,29.100729 C6.6955397,29.9707173 1.34191504,30.4057115 1.34191504,30.4057115 C1.34191504,30.4057115 -2.26744531,24.2175684 -9.48616601,11.8412823 Z" fill="#272424" mask="url(#mask-6)"></path>
            </g>
            <g id="Group" transform="translate(323.599903, 107.063873)">
                <mask id="mask-8" fill="white">
                    <use xlink:href="#path-7"></use>
                </mask>
                <g id="Mask"></g>
                <g mask="url(#mask-8)">
                    <g transform="translate(3.296618, 3.694770)">
                        <path d="M24.7741464,16.8585894 C20.7050368,16.8585894 12.2101997,6.12461368 14.677001,2.6000731 C17.1438022,-0.924467477 31.297698,-0.808429126 34.753582,2.6000731 C38.2094661,6.00857533 28.8432559,16.8585894 24.7741464,16.8585894 Z" id="Path-149" stroke="none" fill="#393434" fill-rule="evenodd"></path>
                        <path d="M24.7741464,15.6851704 C21.4773009,25.4327824 13.2192521,30.6997867 -8.24229573e-13,31.4861833" id="Path-150" stroke="#393434" stroke-width="1.8972332" fill="none" stroke-linecap="round"></path>
                        <path d="M50.0705891,15.6851704 C46.7737436,25.4327824 38.5156948,30.6997867 25.2964427,31.4861833" id="Path-150" stroke="#393434" stroke-width="1.8972332" fill="none" stroke-linecap="round" transform="translate(37.683516, 23.585677) scale(-1, 1) translate(-37.683516, -23.585677) "></path>
                    </g>
                </g>
            </g>
            <g id="Group-2" transform="translate(31.500646, 0.000000)">
                <mask id="mask-10" fill="white">
                    <use xlink:href="#path-9"></use>
                </mask>
                <use id="Mask" fill="#A1A5A7" xlink:href="#path-9"></use>
                <g mask="url(#mask-10)" fill="#777878">
                    <g transform="translate(-6.956522, 104.973952)">
                        <path d="M185.616354,12.0788043 C155.238389,16.5312088 123.141469,12.5049407 89.3255929,0 C102.39748,23.5597826 154.51334,57.4641798 154.51334,57.4641798 C154.51334,57.4641798 164.881011,42.3357213 185.616354,12.0788043 Z" id="Path-159"></path>
                        <path d="M79.3021245,38.395504 C90.7332839,48.9101614 108.740119,57.7986032 133.322628,65.0608293 C132.570834,69.2370234 78.9896245,63.6017787 76.2895257,60.3050889 C74.4894598,58.1072958 75.4936594,50.8041008 79.3021245,38.395504 Z" id="Path-160"></path>
                        <path d="M114.542984,107.614872 C103.444265,111.077075 72.4985217,86.0981359 75.8658597,81.6958992 C96.1375988,91.5485013 111.824358,94.8925395 122.926136,91.7280138 C124.736514,100.011117 121.94213,105.306736 114.542984,107.614872 Z" id="Path-161"></path>
                        <path d="M72.7136858,138.422678 C62.5268365,138.422678 47.1151106,130.758811 26.4785079,115.431077 C26.4785079,130.720932 38.934865,149.734694 63.8475791,172.472361 C70.8091919,178.826179 83.6845356,138.422678 72.7136858,138.422678 Z" id="Path-162"></path>
                        <path d="M1.59090909,156.246799 C1.59090909,156.246799 22.3925395,170.220731 51.7262463,175.20504 C45.1282811,183.053079 27.8861989,186.049621 -1.42108547e-14,184.194664 C1.06060606,165.562754 1.59090909,156.246799 1.59090909,156.246799 Z" id="Path-163"></path>
                        <path d="M64.5059289,192.768034 C55.9861405,206.125247 44.6101524,213.92169 30.3779644,216.157362 C41.6312582,226.009964 54.6648551,226.009964 69.4787549,216.157362 L64.5059289,192.768034 Z" id="Path-164"></path>
                    </g>
                </g>
            </g>
            <g id="Path-147" transform="translate(201.824263, 263.655307)">
                <mask id="mask-12" fill="white">
                    <use xlink:href="#path-11"></use>
                </mask>
                <use id="Mask" fill="#A1A5A7" xlink:href="#path-11"></use>
                <path d="M86.6440217,27.7255124 C72.4901186,48.2632265 57.5996377,58.5320836 41.9725791,58.5320836 C46.263587,78.4826765 84.229249,75.5849492 88.8537549,70.1563425 C91.9367589,66.5372713 91.2001812,52.3936613 86.6440217,27.7255124 Z" fill="#777878" mask="url(#mask-12)"></path>
            </g>
        </g>
        <g id="Matt" transform="translate(0.000000, 40.000000)">
            <path d="M0.321432992,321.059135 C9.22387951,344.293787 57.3534109,355.743353 57.3534109,377.758031 C57.3534109,423.179976 175.395789,447.807057 235.034069,431.131196 C258.275633,424.632466 332.415182,392.274266 251.786255,340.025052 C235.374769,329.390069 199.001419,339.607646 169.625998,332.664627 C137.387735,325.044962 111.596619,300.770416 82.8804145,300.770416 C52.5510259,300.770416 -4.80080364,307.690518 0.321432992,321.059135 Z" id="Path-46" fill="#BBBFE4" opacity="0.12"></path>
            <path d="M173.871832,28.8800058 C171.717196,23.8493702 166.30327,21.1915435 161.316906,18.9507134 C152.329676,14.9155352 142.239194,11.5964107 133.765039,6.58823856 C129.148763,3.86021049 124.640429,-2.53233283 118.790528,1.07742558 C110.979446,5.89886142 114.057899,23.1684155 114.55976,30.6224059 C115.284514,41.4025395 118.074185,52.5940536 126.13059,60.3035764 C136.319202,70.0545573 154.299269,58.2649263 162.636043,51.8007772 C169.894798,46.1734293 177.491397,37.3294517 173.871832,28.8800058" id="Fill-10" fill="#131211"></path>
            <path d="M144.154746,42.7488536 C144.801963,42.2097463 145.467712,41.684714 146.149143,41.1765749 C141.494601,44.6533227 123.567842,14.5379239 123.512245,9.84924016 C115.199645,21.5350562 125.629241,46.609874 133.720873,56.1406689 C136.388148,51.0480073 139.655593,46.4972674 144.154746,42.7488536" id="Fill-11" fill-opacity="0.7" fill="#C15050"></path>
            <path d="M233.044898,28.8800058 C235.199531,23.8493702 240.612046,21.1915435 245.599802,18.9507134 C254.587016,14.9155352 264.67748,11.5964107 273.151619,6.58823856 C277.766487,3.86021049 282.276215,-2.53233283 288.126105,1.07742558 C295.937173,5.89886142 292.858726,23.1684155 292.356867,30.6224059 C291.632113,41.4025395 288.842447,52.5940536 280.786057,60.3035764 C270.597463,70.0545573 252.617427,58.2649263 244.280669,51.8007772 C237.020525,46.1734293 229.425341,37.3294517 233.044898,28.8800058" id="Fill-12" fill="#131211"></path>
            <path d="M263.749983,42.7488536 C263.101335,42.2097463 262.435581,41.684714 261.75557,41.1765749 C266.410151,44.6533227 284.337058,14.5379239 284.392657,9.84924016 C292.705325,21.5350562 282.274217,46.609874 274.183942,56.1406689 C271.516646,51.0480073 268.249174,46.4972674 263.749983,42.7488536" id="Fill-13" fill-opacity="0.7" fill="#C15050"></path>
            <path d="M79.1416457,349.105772 C79.9611907,366.337456 85.2660083,385.899673 100.820693,393.166518 C117.165752,400.800826 137.611313,398.373888 155.120404,399.678874 C168.612336,400.683462 229.562864,408.137531 230.464362,387.968929 C234.335671,389.444374 238.658422,388.561343 240.779515,384.643589 C242.82421,380.869748 242.064395,376.106689 240.146104,372.26718 C238.226425,368.42767 235.285787,365.219695 232.781313,361.737869 C224.598366,350.36465 227.465383,330.949139 227.258414,317.568142 C226.990326,300.164601 227.379261,282.749883 228.425224,265.375683 C230.328235,233.768192 228.321044,203.753511 227.996004,172.074763 C227.81126,154.148669 223.478784,133.65871 210.302169,120.715037 C196.553261,107.212483 182.977987,116.223034 181.013855,135.18725 C179.031669,154.333101 174.565844,168.654416 162.226831,184.757162 C147.676436,203.746526 129.05332,219.258256 114.340406,238.119078 C89.9957547,269.325571 77.2594707,309.482537 79.1416457,349.105772" id="Fill-14" fill="#131211"></path>
            <path d="M214.428149,232.718303 C212.359933,245.923148 209.277458,260.323115 209.556686,273.728539 C209.778429,284.438671 206.924537,297.934635 208.560221,308.281217 C203.527244,276.497657 204.225318,244.422977 200.494045,212.537734 C204.362195,208.711393 211.434642,211.597515 213.793038,216.534011 C216.151433,221.471898 215.278156,227.297074 214.428149,232.718303" id="Fill-15" fill="#EAE7E4"></path>
            <path d="M175.658541,302.371673 C168.366724,309.350145 163.645514,321.680078 157.018123,329.877765 C164.5965,337.205578 166.801884,347.361523 165.527818,357.447879 C164.682185,364.136858 155.658369,378.074316 161.044003,383.333919 C163.016207,385.260167 167.700895,384.834276 170.177386,386.589332 C174.364808,389.555252 173.833831,395.970048 177.150336,398.661783 C180.934608,401.732087 192.65967,401.169801 197.529777,401.848998 C193.494064,384.696488 190.732416,368.373489 187.876654,351.148604 C186.415761,342.34131 184.135928,333.69129 181.858903,325.064929 C179.826296,317.359939 176.580026,310.310486 175.658541,302.371673" id="Fill-16" fill="#131211"></path>
            <path d="M156.030034,328.884297 C163.715457,336.209835 164.65993,345.910212 164.65993,356.445849 C164.65993,376.075948 154.651073,377.065879 160.112781,382.323848 C161.329502,383.495302 180.770528,384.666727 188.453286,376.075948 C193.399538,370.545099 188.458729,356.892698 187.324449,350.14853 C185.84292,341.343971 183.530884,332.696638 181.221696,324.072957 C179.160378,316.37036 175.868253,309.323096 174.933752,301.386749 C167.538936,308.363054 162.751038,320.689157 156.030034,328.884297 Z" id="Fill-16" fill="#EAE7E4"></path>
            <path d="M250.632218,127.584502 C227.743859,141.81189 193.083898,139.364792 167.523691,131.881247 C142.682504,124.608448 122.790529,104.029397 122.439412,77.3038458 C122.09529,51.0514241 141.941102,27.0027559 166.743121,18.2282228 C191.54374,9.45368974 219.809368,14.3524669 242.825026,27.0809136 C262.328113,37.8679922 280.529264,57.6810087 280.529264,79.9199091 C280.529264,99.3466578 268.264637,114.482162 258.524396,121.784343 L250.632218,127.584502 Z" id="Fill-18" fill="#131211"></path>
            <path d="M94.2134174,317.079725 C90.3852845,314.357514 83.1160314,304.486514 73.6420279,303.414219 C66.5608802,302.612754 48.6310023,310.246972 44.8324678,321.634894 C41.0339332,333.022816 62.0042183,335.446158 68.3833819,345.169933 C75.2207441,355.592141 91.2607255,368.964484 97.9487281,364.535195 C101.618448,362.106096 101.25731,359.510429 98.9488034,357.021643 C94.026211,351.712325 96.5955408,318.774542 94.2134174,317.079725 Z" id="Fill-20" fill="#131211"></path>
            <path d="M170.755789,98.4920235 C197.127666,98.3944484 177.529336,71.7901896 161.914134,69.1841085 C156.466906,68.2761131 150.283453,69.9389636 147.152062,74.3732335 C143.159191,80.0244865 145.558533,88.3346754 150.919473,92.7838513 C156.280415,97.2343827 163.710856,98.5177727 170.755789,98.4920235" id="Fill-21" fill="#F3B33C"></path>
            <path d="M229.244748,98.4920235 C202.871641,98.3944484 222.471243,71.7901896 238.08635,69.1841085 C243.532154,68.2761131 249.716959,69.9389636 252.848331,74.3732335 C256.841178,80.0244865 254.440459,88.3346754 249.079552,92.7838513 C243.718643,97.2343827 236.288247,98.5177727 229.244748,98.4920235" id="Fill-22" fill="#F3B33C"></path>
            <path d="M175.633906,87.2644487 C172.906707,92.3926657 168.506875,94.9645876 162.674831,93.8958892 C154.383078,92.3764589 153.869255,87.2644487 153.869255,83.3769622 C153.869255,81.1945121 154.056024,73.3023613 164.457262,73.3023613 C174.8585,73.3023613 177.554044,83.6538266 175.633906,87.2644487 Z" id="Fill-24" fill="#231B13"></path>
            <path d="M247.128513,87.2644487 C244.401314,92.3926657 240.001482,94.9645876 234.169438,93.8958892 C225.877685,92.3764589 225.363862,87.2644487 225.363862,83.3769622 C225.363862,81.1945121 225.550631,73.3023613 235.951869,73.3023613 C246.353107,73.3023613 249.048651,83.6538266 247.128513,87.2644487 Z" id="Fill-24" fill="#231B13"></path>
            <path d="M193.196439,378.042878 C191.123275,369.063463 191.366995,359.025112 189.528634,349.994387 C185.853292,331.930162 180.477075,314.801449 177.72851,296.572197 C177.439843,294.654277 174.535204,295.468319 174.823871,297.376531 C177.861105,317.525089 182.489608,335.413234 186.660797,355.356549 C188.645564,364.851847 189.696507,376.495229 191.951988,385.928121 C192.974068,390.20357 192.975448,398.255228 198.275067,399.87915 C199.699073,394.849291 194.447795,383.458262 193.196439,378.042878 Z" id="Fill-27" fill="#131211"></path>
            <path d="M178.395657,392.590998 C173.979078,385.681463 164.857247,382.316518 156.623752,381.698806 C165.094323,374.565399 168.374334,363.05273 166.960247,352.030638 C164.843301,335.522373 152.703637,322.448149 141.799556,310.724047 C140.470538,309.293773 138.322913,311.430202 139.649141,312.854948 C149.12798,323.047896 159.351515,333.909687 163.01782,347.676247 C166.356402,360.212911 163.003874,374.952334 151.196117,381.841142 C149.945194,382.569407 150.41795,384.734855 151.963126,384.649177 C156.273717,384.410107 160.527131,384.831589 164.588097,386.351687 C166.507014,387.068898 168.409197,388.054197 170.131481,389.161104 C171.588799,390.07731 172.916422,391.142759 174.112957,392.357457 C176.009561,393.808459 176.190854,395.932451 174.655441,398.729431 C172.753258,398.276164 171.941623,401.182316 173.846595,401.636964 C179.947804,403.093494 181.032775,396.715992 178.395657,392.590998" id="Fill-28" fill="#131211"></path>
            <path d="M178.964531,135.047719 C191.464781,138.006234 214.880116,139.282317 227.230341,135.756472 C229.135385,135.212958 227.733789,134.281548 226.409446,132.810566 C225.52655,131.829911 217.194692,124.658527 201.413872,111.296414 L198.317412,111.296414 C199.815601,118.433896 200.073639,122.988216 199.091527,124.959373 C196.606585,129.946797 183.94385,131.437295 182.060992,131.983034 C179.649852,132.681894 178.190415,132.111706 178.964531,135.047719 Z" id="Fill-29" fill="#EAE7E4"></path>
            <g id="Fill-30-+-Fill-31-Mask" transform="translate(227.172451, 372.301278)">
                <mask id="mask-14" fill="white">
                    <use xlink:href="#path-13"></use>
                </mask>
                <use id="Mask" fill="#EAE7E4" xlink:href="#path-13"></use>
                <path d="M3.22891577,4.37161132 C1.38836085,3.46785529 -0.243745349,6.10895605 1.60124502,7.01551956 C4.93493975,8.65182288 7.17465119,11.6886684 7.44223431,15.2728193 C7.58711232,17.2262785 10.8128879,17.2417155 10.6665303,15.2728193 C10.3220744,10.6389636 7.60337447,6.52013708 3.22891577,4.37161132" id="Fill-30" fill="#131211" mask="url(#mask-14)"></path>
                <path d="M14.9049108,9.52598385 C13.2753657,5.39235871 10.3662066,2.013307 6.37611975,-0.165613443 C4.56123168,-1.15733928 2.92872023,1.54906517 4.74361004,2.54079016 C7.96562975,4.30146207 10.4596192,6.99780439 11.7866824,10.3596081 C12.5221285,12.2252015 15.6507356,11.4145735 14.9049108,9.52598385" id="Fill-31" fill="#131211" mask="url(#mask-14)"></path>
            </g>
            <path d="M222.00291,376.240974 C216.218025,376.240974 198.988285,381.447405 198.288408,383.221381 C197.43318,385.389125 195.993456,387.874985 196.75844,390.201788 C197.523424,392.52859 197.350992,396.406593 198.288408,398.733396 C199.628854,402.060577 203.60322,401.707228 206.703231,401.835798 C211.674321,402.041971 215.111772,399.768592 216.648022,399.508997 C225.827829,397.957795 231.9477,391.752989 229.652749,386.323783 C227.357797,380.894578 227.787794,376.240974 222.00291,376.240974 Z" id="Fill-32" fill="#EAE7E4"></path>
            <path d="M210.679114,387.359751 C209.040885,386.222654 207.456487,388.785182 209.077257,389.908742 C211.987079,391.927087 213.366334,395.140739 213.089902,398.461331 C212.931316,400.356491 216.105932,400.347016 216.263062,398.461331 C216.631154,394.038838 214.461882,389.984548 210.679114,387.359751" id="Fill-32" fill="#131211"></path>
            <path d="M220.166934,384.548627 C218.600121,383.19172 216.236911,385.372967 217.809836,386.734124 C220.779901,389.306297 222.144939,392.681565 221.807118,396.427928 C221.626744,398.408048 224.962144,398.398133 225.140989,396.427928 C225.546067,391.943623 223.708693,387.616537 220.166934,384.548627" id="Fill-33" fill="#131211"></path>
            <path d="M197.529777,103.184539 C203.717989,96.4076772 201.062589,87.1619831 205.246544,77.1361734 C205.758924,75.9083822 206.265106,78.6425451 206.175868,79.4786519 C205.940943,81.6797589 204.624973,83.6583305 204.316494,85.8501944 C203.998789,88.107611 204.742177,90.9361047 205.246544,93.158729 C206.094788,96.8967317 211.910142,113.087191 209.987586,116.39612 C208.295246,119.308821 201.806338,114.14734 198.83134,104.402628 L197.529777,103.184539 Z" id="Path" stroke="#EAE7E4" stroke-width="1.23266564" fill="#EAE7E4"></path>
            <path d="M205.285306,103.614409 C206.187235,103.776007 207.269826,104.185285 207.399071,105.166951 C207.515808,106.070084 206.729225,106.776884 206.031586,107.282819 C203.871961,108.848954 201.182852,112.327072 198.351992,111.001068 C196.623181,110.191571 195.498897,108.385306 194.471894,106.671166 C193.906277,105.725746 193.317036,104.582483 193.699209,103.532856 C194.558056,101.173837 203.480059,103.291215 205.285306,103.614409" id="Fill-25" fill="#C15050"></path>
            <path d="M208.398758,108.424337 C224.520337,104.960433 239.52423,104.26813 255.827035,107.343212 C243.758672,105.975363 235.216616,105.434448 230.20087,105.720468 C224.676998,106.035464 217.409627,107.237496 208.398758,109.326566 L208.398758,108.424337 Z" id="Path-2" fill="#D8D8D8" opacity="0.8"></path>
            <path d="M208.190359,112.396078 C228.139405,111.075607 241.067421,110.212941 259.779392,114.251186 C250.10827,113.12199 241.942342,112.342307 235.281609,111.912137 C231.753736,111.684297 216.067956,112.396078 209.151041,112.7738 C204.539765,113.025614 204.219537,112.899707 208.190359,112.396078 Z" id="Path-3" fill="#D8D8D8"></path>
            <path d="M153.275284,114.080746 C169.374409,110.415541 184.35714,109.68184 200.636549,112.932596 C188.585409,111.48708 180.0555,110.915826 175.046823,111.218833 C169.530736,111.552536 162.273526,112.824589 153.275189,115.03499 L153.275284,114.080746 Z" id="Path-2" fill="#D8D8D8" opacity="0.8" transform="translate(176.955869, 112.950249) scale(-1, 1) rotate(4.000000) translate(-176.955869, -112.950249) "></path>
            <path d="M151.940687,117.709068 C171.768218,116.143161 184.617487,115.120177 203.213957,119.889705 C193.602254,118.557098 185.486449,117.637326 178.866539,117.130387 C175.360288,116.861885 159.770149,117.70716 152.895391,118.155382 C148.312218,118.454196 147.993983,118.305424 151.940687,117.709068 Z" id="Path-3" fill="#D8D8D8" transform="translate(176.207741, 118.146470) scale(-1, 1) rotate(10.000000) translate(-176.207741, -118.146470) "></path>
            <path d="M179.515272,135.919514 C199.254153,138.733583 203.809279,138.733583 221.270597,137.326548 C222.029785,138.030066 222.532439,139.076634 222.029785,139.4371 C220.373207,140.625073 213.67872,140.844134 212.160344,140.844134 C205.474067,140.844134 203.050091,140.844134 196.97659,140.844134 C192.632969,140.844134 178.756084,140.140617 178.756084,138.733583 C178.756084,137.79556 179.009146,136.857537 179.515272,135.919514 Z" id="Path-4" fill="#472CA8"></path>
            <path d="M201.781414,138.777359 C201.58665,138.14945 202.071729,137.521542 202.314162,138.14945 C202.556595,138.777359 202.484819,139.936558 202.314162,140.475369 C202.143505,141.014181 201.179885,140.917563 201.57748,140.475369 C201.975075,140.033175 201.976179,139.405267 201.781414,138.777359 Z" id="Rectangle" fill="#D8D8D8"></path>
            <path d="M202.372855,147.738602 C204.773965,147.738602 206.422579,146.406874 206.422579,145.075145 C206.422579,143.743418 204.051165,141.829058 202.372855,141.829058 C200.694547,141.829058 198.517866,143.993117 198.517866,145.075145 C198.517866,146.157175 199.971747,147.738602 202.372855,147.738602 Z" id="Oval" fill="#992AEE"></path>
        </g>
    </g>
</svg>