<?xml version="1.0" encoding="UTF-8"?>
<svg width="1440px" height="662px" viewBox="0 0 1440 662" version="1.1" xmlns="http://www.w3.org/2000/svg" xmlns:xlink="http://www.w3.org/1999/xlink">
    <!-- Generator: Sketch 53.2 (72643) - https://sketchapp.com -->
    <title>CM_Coinnovation</title>
    <desc>Created with Sketch.</desc>
    <defs>
        <path d="M22.5318533,0.292419826 C12.7272312,61.2036779 5.34470881,115.669093 0.384286231,163.688666 C2.55220401,166.439283 4.32354357,165.188736 5.65301867,163.688666 C15.54794,115.107471 24.8851035,60.6420552 33.664509,0.292419826 L22.5318533,0.292419826 Z" id="path-1"></path>
        <path d="M11.5169419,0.292419826 C21.321564,61.2036779 28.7040864,115.669093 33.664509,163.688666 C31.4965912,166.439283 29.7252516,165.188736 28.3957765,163.688666 C18.5008552,115.107471 9.16369173,60.6420552 0.384286231,0.292419826 L11.5169419,0.292419826 Z" id="path-3"></path>
        <path d="M0.0638638959,30.4737687 C1.98620158,32.3876915 9.87087071,24.7634977 15.428208,24.8267279 C21.5436859,24.8963085 24.7565051,23.2808429 27.7488266,20.9276551 C26.5285485,13.5912065 26.0911086,6.61532147 26.4365069,-2.84217094e-14 L6.09991086,1.52661265 C3.6749816,14.0843912 1.66296594,23.7334432 0.0638638959,30.4737687 Z" id="path-5"></path>
        <path d="M3.4665309,0.409725353 L30.7035594,3.94374291 C27.6555141,24.9406984 21.9714609,67.5210257 22.7800602,86.2350259 C22.9664839,90.5495647 22.9273829,107.465965 37.9403296,116.491595 C46.0553391,121.370256 69.8190662,130.22331 55.9597131,136.15293 C51.7994765,137.932856 36.2854093,138.521102 33.7706268,136.15293 C31.0311781,133.573188 25.090599,131.787697 18.3604678,129.528685 C9.44676175,129.133771 4.48211613,126.414295 3.4665309,121.370256 C1.94315306,113.804197 7.74407915,111.87028 6.41462973,95.7021093 C3.86712532,64.7204981 -4.67362648,-4.93270113 3.4665309,0.409725353 Z" id="path-7"></path>
        <path d="M3.50848384,0.41206509 L31.0751426,3.96626367 C27.990209,25.0831224 22.2373658,67.9066047 23.055751,86.7274713 C23.2444308,91.0666482 23.2444308,107.602718 38.3994942,117.156821 C45.4450914,121.598528 60.2056415,134.767955 51.759926,138.340885 C47.5485884,140.122477 32.509764,139.312127 29.9645469,136.930431 C27.1919446,134.335958 25.3942526,132.540271 18.5826714,130.268359 C10.458115,129.584362 5.9473239,126.509414 5.05029803,121.043515 C3.70475924,112.844666 7.83780019,112.509115 6.4922614,96.2486164 C3.91392637,65.0900847 -4.73018804,-4.96086933 3.50848384,0.41206509 Z" id="path-9"></path>
        <path d="M30.1653023,90.4161197 C17.510031,129.1178 -3.83458896,221.384469 0.847452879,245.318537 C44.6118293,242.297166 87.3280974,264.5473 114.548177,245.318537 C118.910805,210.622681 103.274124,142.990381 95.987806,126.712227 C85.6287956,103.569457 85.335274,100.226152 87.8143309,80.4773289 C90.2933878,60.7285062 95.3639629,61.5664728 90.0965268,41.1134904 C86.1259076,25.6959315 82.7975959,0.735857907 70.2001319,1.24772407 C65.4563746,1.44047468 65.4288114,36.5295035 60.9647562,47.9226919 C58.7613655,53.5461991 35.4703694,-0.720605805 30.1653023,0.298059656 C25.6856363,1.15823368 15.4189457,5.0233441 11.2296095,16.4332883 C8.43671864,24.0399178 19.7493101,41.0005732 45.1673837,67.3152547 C38.04174,73.9213837 33.0410462,81.621672 30.1653023,90.4161197 Z" id="path-11"></path>
        <linearGradient x1="31.9839146%" y1="0%" x2="72.9251304%" y2="110.138086%" id="linearGradient-13">
            <stop stop-color="#2D2D32" stop-opacity="0" offset="0%"></stop>
            <stop stop-color="#141416" offset="100%"></stop>
        </linearGradient>
        <path d="M22.5318533,0.292419826 C12.7272312,61.2036779 5.34470881,115.669093 0.384286231,163.688666 C2.55220401,166.439283 4.32354357,165.188736 5.65301867,163.688666 C15.54794,115.107471 24.8851035,60.6420552 33.664509,0.292419826 L22.5318533,0.292419826 Z" id="path-14"></path>
        <path d="M11.5169419,0.292419826 C21.321564,61.2036779 28.7040864,115.669093 33.664509,163.688666 C31.4965912,166.439283 29.7252516,165.188736 28.3957765,163.688666 C18.5008552,115.107471 9.16369173,60.6420552 0.384286231,0.292419826 L11.5169419,0.292419826 Z" id="path-16"></path>
        <path d="M42.0854704,0.976732337 C42.737468,-1.69415749 54.0768088,2.35852582 60.6372707,9.67408288 C67.2114895,7.00067935 73.9293903,9.67408288 73.9293903,9.67408288 C79.3740234,5.22452446 84.7292374,-0.930112092 86.0361328,0.976732337 C89.9955865,6.75382992 90.9282461,14.1463231 88.8341118,23.154212 C93.1403484,26.1882469 94.8339626,29.066219 93.9149541,31.7881284 C90.3731203,42.2782942 84.0337061,44.8485806 79.3740234,52.2039742 C74.9695567,59.1565048 81.3070316,70.7428708 71.24223,84.7387908 C55.0306131,107.282354 45.5009766,102.759426 32.1882218,120.00051 C30.2875246,122.033295 36.0982823,117.976812 38.2717816,120.00051 C40.9330309,122.47834 42.5569052,127.549463 39.9623387,128.032184 C32.1882218,128.679862 23.001917,128.679862 10.7039317,122.809188 C5.87847173,120.505664 2.60715719,116.029357 0.889988111,109.380265 C-0.766708294,98.5144085 0.0314404831,89.6206415 3.28443444,82.698964 C15.5570228,56.5855129 26.0717986,50.3078295 39.9623387,47.600034 C45.653858,46.49054 48.3746492,42.0691194 45.7119141,36.2701681 C44.589589,33.825949 43.5784647,29.1991501 45.7119141,25.6016308 C40.8794582,21.3951091 40.3542022,8.06882473 42.0854704,0.976732337 Z" id="path-18"></path>
        <path d="M0.159731658,0.727725475 C3.791143,-0.641457609 6.29631658,0.16726225 8.024223,1.14348634 C10.8165011,2.72105392 11.1936354,6.03192469 10.1385657,7.30251743 C9.32797218,8.27869401 3.98908798,8.85875469 2.32738196,7.30251743 C0.653818784,5.73517557 -0.0687313177,3.54357826 0.159731658,0.727725475 Z" id="path-20"></path>
        <path d="M0.600471334,6.89622663 C-0.0852666076,5.71371559 -0.0647169657,2.56257376 1.68887728,1.25594131 C4.03872436,-0.494969122 7.36996012,-0.181643612 8.80735398,0.781140865 C10.6020003,1.98321756 8.87658652,6.37929615 7.01400309,7.50725754 C5.15141966,8.63521894 1.28620928,8.07873767 0.600471334,6.89622663 Z" id="path-22"></path>
        <path d="M0.0395284678,5.01167629 C-0.458069622,2.40720811 3.82483308,-6.68477948e-15 8.23284538,-7.10542736e-15 C12.6408577,-7.10542736e-15 18.2798902,1.94746717 17.2443094,6.08432405 C16.1257192,10.5527803 13.8861232,13.3379755 8.58039549,13.3379755 C3.27466773,13.3379755 0.909645655,9.5659392 0.0395284678,5.01167629 Z" id="path-24"></path>
        <path d="M26.9319803,113.171374 C11.1191535,111.269475 2.30410592,103.245189 0.486837636,89.098514 C-3.08228601,61.3143767 19.0589463,59.9280708 22.9354934,51.554696 C27.5613651,41.5627739 9.42791985,24.5355027 12.6807065,12.6749406 C16.4810206,-1.18205839 28.584324,-1.18205839 37.041695,1.17655404 C41.9969395,2.55848485 45.7831148,7.26050591 48.4002208,15.2826172 C48.7767493,12.3633747 48.4902768,9.44132985 47.5408033,6.51648271 C52.9299221,9.52305935 54.7340778,21.1725683 53.7126359,28.0784786 C51.290028,44.4575919 43.4768173,51.0153789 33.2085173,61.2956522 C20.9806777,73.5377501 17.7054706,75.0114125 16.5410156,88.3101733 C15.3716882,101.664581 21.0157948,105.629594 28.8755095,109.050068 C29.1944254,109.813099 28.5465824,111.186868 26.9319803,113.171374 Z" id="path-26"></path>
        <path d="M2.4158453e-13,10.5455661 C6.3023947,16.2021558 12.0705673,27.4828538 17.3045177,44.3876602 C17.8291569,46.0821594 18.0276114,49.0862355 17.8998811,53.3998885 L26.8517323,53.3998885 C27.7015965,52.2450821 27.7015965,50.8881273 26.8517323,49.329024 C26.0942579,47.9394126 23.9680438,48.4387601 23.889054,46.9938083 C22.5791016,23.0310026 27.3614589,19.2319634 25.1225798,3.21166668 C24.6245329,-0.352107094 19.2530146,-0.950018099 9.0080248,1.41793367 L2.4158453e-13,10.5455661 Z" id="path-28"></path>
    </defs>
    <g id="CM_Coinnovation" stroke="none" stroke-width="1" fill="none" fill-rule="evenodd">
        <rect id="Rectangle" fill="#FFFFFF" x="0" y="0" width="1440" height="662"></rect>
        <g id="CTA-BG">
            <path d="M0,661.5 C60.8823129,602.784218 142.871798,460.755236 250.338867,471.349706 C559.30957,501.809088 419.465954,402.853988 578.926758,298.514454 C738.387562,194.17492 799.41773,334.682594 994.355543,137.665608 C1124.31409,6.32094991 1272.86224,-30.955434 1440,25.8364561 L1440,661.5 C575.083741,661.5 95.083741,661.5 0,661.5 Z" id="BG" fill="#BBBFE4" opacity="0.4"></path>
            <g id="Group-7" transform="translate(946.941649, 147.731531)">
                <rect id="Rectangle" fill="#BDBDD7" x="19.874197" y="60.2850642" width="95.3961456" height="74.8594754"></rect>
                <rect id="Rectangle" fill="#BDBDD7" x="204.041756" y="102.683351" width="78.8343148" height="35.7735546"></rect>
                <rect id="Rectangle" fill="#BDBDD7" x="174.23046" y="19.874197" width="45.7106531" height="35.7735546"></rect>
                <rect id="Rectangle" fill="#FFFFFF" x="0" y="131.832173" width="407.421039" height="13.2494647"></rect>
                <rect id="Rectangle" fill="#FFFFFF" x="0" y="50.3479657" width="407.421039" height="13.2494647"></rect>
                <circle id="Oval" fill="#8C95D0" cx="351.110814" cy="25.1739829" r="25.1739829"></circle>
            </g>
            <g id="Table" transform="translate(893.943790, 365.022752)">
                <polygon id="Rectangle" fill="#F9F9FD" points="24.0369379 6.62473233 476.954229 6.62473233 476.954229 212.653908 24.0369379 212.653908"></polygon>
                <rect id="Rectangle" fill="#BDBDD7" x="0" y="0" width="500.167291" height="16.5618308"></rect>
            </g>
            <g id="Chair" transform="translate(1259.629015, 430.607602)">
                <g id="Rectangle" transform="translate(0.000000, 7.287206)">
                    <mask id="mask-2" fill="white">
                        <use xlink:href="#path-1"></use>
                    </mask>
                    <use id="Mask" fill="#E38820" xlink:href="#path-1"></use>
                    <polygon fill="#E07A07" mask="url(#mask-2)" points="-1.32494647 -14.5744111 106.658191 -14.5744111 96.7055654 21.8908488 2.07411053 29.3985436"></polygon>
                </g>
                <g id="Rectangle" transform="translate(62.272484, 7.287206)">
                    <mask id="mask-4" fill="white">
                        <use xlink:href="#path-3"></use>
                    </mask>
                    <use id="Mask" fill="#E38820" xlink:href="#path-3"></use>
                    <polygon fill="#E07A07" mask="url(#mask-4)" points="-63.5974304 -14.5744111 44.3857066 -14.5744111 34.4330814 21.8908488 -60.1983734 29.3985436"></polygon>
                </g>
                <path d="M6.62408545,-2.66453526e-14 L94.0711991,-2.66453526e-14 C90.8839093,9.06932757 84.0215319,13.6039914 73.4840671,13.6039914 C57.6778698,13.6039914 56.2138927,13.6039914 31.5580511,13.6039914 C15.1208234,13.6039914 6.80950148,9.06932757 6.62408545,-2.66453526e-14 Z" id="Rectangle" fill="#E38820"></path>
            </g>
            <g id="Plant" transform="translate(772.096895, 492.548849) scale(-1, 1) translate(-772.096895, -492.548849) translate(695.250000, 386.221895)">
                <ellipse id="Oval" fill="#221603" cx="84.4653373" cy="135.14454" rx="32.7924251" ry="15.2368844"></ellipse>
                <g id="Group-2">
                    <path d="M91.5553379,138.74655 C91.5553379,147.477818 72.6770871,142.135261 67.0978322,141.935838 C52.2842311,141.406343 46.0764721,132.954434 33.3850418,122.189966 C28.4002566,117.962029 31.1579628,109.373823 41.6581606,96.425347 C38.7978176,88.6089468 30.2834651,82.1297978 16.1151031,76.9878998 C7.03598982,73.6929618 22.6306617,56.2653507 22.6306617,45.0547913 C22.6306617,33.8547277 19.7336093,37.6995379 3.85938004,28.6501849 C-2.13064011,25.23548 -0.367290497,12.2564451 3.85938004,6.64029874 C7.29869357,2.07034513 13.5557875,-0.140775305 22.6306617,0.00693745289 C33.2824051,8.95571731 39.6249048,18.5034664 41.6581606,28.6501849 C54.9831642,38.847449 59.430044,30.8299826 67.0978322,40.374785 C75.1491944,50.3970574 67.4233452,54.7190147 74.1303203,64.5436425 C86.5553537,82.7442957 103.345824,79.0394768 103.345824,96.425347 C103.345824,117.920842 91.5553379,112.984166 91.5553379,138.74655 Z" id="Path-17" fill="#383A87"></path>
                    <path d="M92.9698381,149.082231 C93.895073,151.931118 92.6325148,154.351602 89.1821637,156.343683 C71.331283,102.882623 48.3255747,59.1736364 20.1650389,25.2167231 C43.1025008,49.6289905 66.1401068,66.4709032 92.9698381,149.082231 Z" id="Path-18" fill="#6466A1"></path>
                </g>
                <g id="Group-3" transform="translate(80.821734, 35.111081)">
                    <path d="M8.31380462,98.2982623 C8.31380462,80.0462943 6.79469153e-16,83.543799 0,68.3148091 C0,55.9973797 11.8394345,58.622146 20.600676,45.7274644 C25.3299533,38.7669753 19.8822391,35.7049828 25.5594817,28.6044678 C30.9662554,21.8422276 34.1018758,27.5223906 43.4977117,20.2978985 C44.9314177,13.1092168 49.4036931,6.34488895 56.9145378,0.00491500196 C63.3134876,-0.0997355818 67.725541,1.46678479 70.150698,4.70447611 C73.1310426,8.68336735 74.3744301,17.8786704 70.150698,20.2978985 C58.9573312,26.7091259 56.9145378,23.9851795 56.9145378,31.9201285 C56.9145378,39.8625134 67.9107808,52.2095152 61.508842,54.5438917 C51.5183303,58.1867904 45.5146202,62.7770962 43.4977117,68.3148091 C50.9016973,77.4884619 52.8462337,83.5729791 49.331321,86.5683604 C40.3822356,94.1947018 36.0049696,100.182655 25.5594817,100.557788 C21.6253917,100.699075 8.31380462,104.484135 8.31380462,98.2982623 Z" id="Path-17" fill="#5F6BBF"></path>
                    <path d="M7.74529722,105.481155 C26.6524499,46.8698399 42.8872579,34.9207928 59.0514934,17.6007093 C39.2065108,41.6925547 22.9941814,72.7033283 10.4145054,110.63303 C7.98301198,109.219683 7.09327591,107.502391 7.74529722,105.481155 Z" id="Path-18" fill="#3240AB"></path>
                </g>
                <path d="M86.1308039,127.725602 C86.1308039,127.725602 91.722222,126.117607 93.5220801,128.499395 C96.574985,132.539366 94.2179857,136.397942 97.2708906,140.444325 C99.3061605,143.141915 97.3334952,146.837132 91.3528945,151.529978 L80.9653062,153.69379 C81.590108,149.544295 81.590108,147.469548 80.9653062,147.469548 C77.58086,147.469548 74.6622854,145.216264 72.2095824,140.709696 C81.4903968,132.053633 86.1308039,127.725602 86.1308039,127.725602 Z" id="Path-20" fill="#6466A1"></path>
                <path d="M51.6729122,131.832173 C51.6729122,140.201538 66.354581,146.986249 84.4653373,146.986249 C102.576094,146.986249 117.257762,140.201538 117.257762,131.832173 L117.257762,196.236993 L117.14552,196.236993 C117.219856,196.653393 117.257762,197.074567 117.257762,197.499833 C117.257762,205.869197 102.576094,212.653908 84.4653373,212.653908 C66.354581,212.653908 51.6729122,205.869197 51.6729122,197.499833 C51.6729122,197.074567 51.7108184,196.653393 51.7851546,196.236993 L51.6729122,196.236993 L51.6729122,131.832173 Z" id="Combined-Shape" fill="#3240AB"></path>
                <path d="M56.87991,127.49469 C60.9543019,126.179732 72.2472762,125.662937 90.758833,125.944305 C88.5631749,132.272031 86.449803,136.509708 84.4187175,138.657337 C82.3956167,140.796523 79.7494209,142.285856 76.4801303,143.125336 C76.6974927,147.690882 76.162021,151.562045 74.8737151,154.738826 C73.080684,159.160189 70.9853746,158.526563 68.7162995,162.533016 C64.6333439,169.742196 74.5297015,176.880353 65.0586346,176.880353 C55.5875676,176.880353 58.149033,163.857367 58.149033,161.498406 C54.5894319,155.773622 49.4680363,153.933497 51.4539052,149.819984 C53.707819,145.151245 58.4645332,144.167421 59.80372,138.657337 C57.2129249,135.449983 50.7683222,129.467127 56.87991,127.49469 Z" id="Path-19" fill="#BDBDD7"></path>
                <path d="M56.5409337,160.149761 C62.1304102,148.521875 67.964339,140.912596 80.6283502,127.509533 C65.0818981,146.154093 57.5242163,158.618233 57.9553047,164.901952 C56.3607564,163.089431 55.8892994,161.505367 56.5409337,160.149761 Z" id="Path-18" fill="#9091BD" transform="translate(68.442859, 146.205743) scale(-1, 1) rotate(131.000000) translate(-68.442859, -146.205743) "></path>
                <path d="M90.3409528,139.456392 C94.9678681,137.833525 100.177828,138.196929 105.970833,140.546604 C110.33052,135.845624 114.376948,135.209871 118.110119,138.639345 C123.505882,143.596159 129.382403,152.998914 121.040486,159.650436 C122.358764,161.964789 122.358764,163.829788 121.040486,165.245431 C123.378841,169.341282 123.378841,172.314663 121.040486,174.165574 C116.551525,177.718786 123.292057,182.874413 116.939478,184.626715 C110.586898,186.379017 108.539217,176.228404 107.255025,176.228404 C105.970833,176.228404 103.570125,171.237457 103.388647,169.106498 C102.928029,163.697841 107.255025,162.426803 105.970833,161.149172 C94.988386,159.101042 95.7393278,146.803689 88.1314145,146.803689 C83.3409448,142.93711 88.3616167,140.150634 90.3409528,139.456392 Z" id="Path-21" fill="#8C95D0"></path>
                <path d="M100.039523,171.316282 C95.5938636,153.533926 118.510362,144.725614 123.943354,141.337727 C104.535495,160.999323 102.03358,156.31754 103.737372,171.521964 C101.609256,171.059614 102.065959,171.566834 100.039523,171.316282 Z" id="Path-18" fill="#5F6BBF" transform="translate(111.707161, 156.429846) rotate(132.000000) translate(-111.707161, -156.429846) "></path>
            </g>
            <g id="Man" transform="translate(966.815846, 198.079497)">
                <g id="Group" transform="translate(15.899358, 0.000000)">
                    <g id="Path-91" transform="translate(29.772942, 66.578560) scale(-1, 1) translate(-29.772942, -66.578560) translate(15.861004, 51.010439)">
                        <mask id="mask-6" fill="white">
                            <use xlink:href="#path-5"></use>
                        </mask>
                        <use id="Mask" fill="#EFBC83" xlink:href="#path-5"></use>
                        <path d="M4.14378422,9.92298221 C9.99496691,11.7604335 18.8356856,8.96164361 30.6659404,1.52661265 L26.9963864,-3.43487846 L5.37253985,0.763306324 C5.37253985,3.91641741 4.96295464,6.9696427 4.14378422,9.92298221 Z" fill="#2A2A2D" opacity="0.1" mask="url(#mask-6)"></path>
                    </g>
                    <path d="M8.75224762,14.9941873 C2.71368404,26.2984714 6.54928551,40.4176995 10.8712172,48.2646664 C14.5049761,54.8621761 18.7236686,58.0068248 27.7036934,56.3732312 C31.8394146,55.6208849 35.7774599,53.2503546 39.5178292,49.2616401 L49.7781805,34.1790167 L49.7781805,21.3891304 L31.9128209,11.4556343 C19.30612,8.50997446 11.585929,9.6894921 8.75224762,14.9941873 Z" id="Path-53" fill="#EFBC83" transform="translate(27.703693, 33.338526) scale(-1, 1) translate(-27.703693, -33.338526) "></path>
                    <path d="M0.172591442,3.40107404 C14.2163131,4.71873468 17.299526,-1.39546923 29.8811704,0.299311187 C39.8434056,1.64125033 45.6609376,7.90417425 49.3403081,17.8975483 C54.0557048,30.7048271 45.7832851,40.0523216 43.6031624,42.4208592 C38.9798533,47.4437331 36.3701205,48.5573135 33.3709828,50.8721215 C35.0832018,47.3153204 36.0829144,43.4234437 36.3701205,39.1964914 C40.41946,37.9619548 42.8304739,36.261454 43.6031624,34.0949892 C44.946641,30.3281425 43.3085717,27.3942272 41.3811708,27.3146651 C38.7459598,27.2058849 36.9790564,31.8348811 34.4779386,33.7183045 C32.3617733,35.3118461 31.1875229,36.2773918 30.5995532,34.5669486 C29.5800079,30.5551097 29.340547,25.814793 29.8811704,20.3459986 C10.0754511,20.8482449 0.172591442,15.1999367 0.172591442,3.40107404 Z" id="Path-64" fill="#2A2A2D" transform="translate(25.471442, 25.436061) scale(-1, 1) translate(-25.471442, -25.436061) "></path>
                </g>
                <g id="Group-4" transform="translate(0.000000, 228.553266)">
                    <g id="Group-2" transform="translate(41.114745, 106.673161) rotate(30.000000) translate(-41.114745, -106.673161) translate(10.972213, 77.193102)">
                        <path d="M6.62224781,25.0791467 C2.26183872,31.8044675 2.26183872,36.0469065 3.14436386,39.7208276 C3.87800936,42.5303172 8.91365439,45.4396816 14.35643,43.3534334 C21.2088939,40.7268432 22.6234186,40.99018 25.4576163,42.7910338 C33.9260386,48.1718832 45.3200626,50.356536 49.4948126,48.5867482 C54.7994487,46.3379716 61.4414568,39.7208276 53.8997025,36.9635031 C49.1957441,35.243699 39.2577774,31.1120372 24.0858022,24.5685175 C16.3042384,24.3663666 10.4830535,24.5365764 6.62224781,25.0791467 Z" id="Path-42" fill="#3240AB" transform="translate(29.986511, 36.837891) rotate(22.000000) translate(-29.986511, -36.837891) "></path>
                        <path d="M17.9776514,2.4695938 L14.3054938,20.865939 C17.601148,22.3518492 21.4617822,23.5949988 25.8873963,24.595388 C29.5309551,25.4189973 31.1123738,25.0538981 30.6316521,23.5000903 L33.0446145,8.59962959 L17.9776514,2.4695938 Z" id="Path-41" fill="#EFBC83" transform="translate(23.675054, 13.746483) rotate(13.000000) translate(-23.675054, -13.746483) "></path>
                    </g>
                    <path d="M113.00603,3.98797068 C91.6498671,14.7223648 67.7167276,40.4893887 41.2066115,81.2890424 L49.6596146,98.1301416 L127.026655,38.1527272 C139.035734,4.64182874 134.362193,-6.74642343 113.00603,3.98797068 Z" id="Path-4" fill="#2A2A2D"></path>
                </g>
                <g id="Group-6" transform="translate(20.536670, 197.417024)">
                    <g id="Group-3" transform="translate(57.635171, 129.844754)">
                        <path d="M3.94059118,12.5172333 C-0.419817906,19.2400205 -0.419817906,23.4808613 0.462707234,27.1533984 C1.19635274,29.9618295 6.23199776,32.8700979 11.6747733,30.7846356 C18.5272372,28.159035 19.941762,28.4222725 22.7759597,30.222448 C31.244382,35.6012702 39.1213696,35.9786334 43.2961197,34.2095124 C48.6007558,31.961583 54.9201105,25.0374375 48.0790965,22.9606163 C43.0366483,21.4298106 34.144998,17.7785373 21.4041456,12.0067965 C13.6225817,11.8047218 7.80139692,11.9748674 3.94059118,12.5172333 Z" id="Path-42" fill="#3240AB"></path>
                        <path d="M12.2130563,0.126154571 C6.92904076,6.85011806 4.64186917,11.2560395 5.35154159,13.3439189 C6.41605022,16.4757379 12.7042391,20.1680482 19.1340902,17.6758727 C22.5140381,16.3658232 23.9656765,15.53656 23.4890053,15.1880831 L27.6026201,6.72851982 L12.2130563,0.126154571 Z" id="Path-41" fill="#EFBC83"></path>
                    </g>
                    <path d="M0.307946542,16.6434646 C4.69338133,33.2169698 12.5024571,42.9540172 23.7351738,45.8546068 C34.9678905,48.7551965 56.6388737,49.4628454 88.7481232,47.9775537 L68.089827,132.354799 L84.5209747,139.314757 C111.058816,86.5889106 125.496075,55.4355272 127.83275,45.8546068 C131.337763,31.4832263 121.314117,15.0317266 102.768748,8.95725052 C81.1277762,1.86881958 60.3996098,-0.822027633 40.5842489,0.884708882 L0.307946542,16.6434646 Z" id="Path-3" fill="#35353A"></path>
                </g>
                <g id="Group-5" transform="translate(119.907655, 71.547109)">
                    <path d="M0.658591554,28.0858449 L11.4638923,17.8171815 C9.78226263,7.16475806 9.78226263,1.48145708 11.4638923,0.767278569 C13.9863368,-0.303989204 14.8047241,4.17603977 16.3677469,7.43600327 C17.9307697,10.6959668 20.4163382,15.5993562 23.8477425,14.6131906 C27.2791468,13.6270251 33.8715318,2.50384844 39.2295429,2.50384844 C44.587554,2.50384844 44.7661112,15.5993562 39.2295429,16.9176514 C35.5384974,17.7965149 29.7909624,21.5192461 21.986938,28.0858449 L11.4638923,40.1042146 L0.658591554,28.0858449 Z" id="Path-7" fill="#EFBC83"></path>
                    <path d="M15.1277711,0.662473233 L37.340109,0.662473233 C39.8081465,15.2765967 39.1911371,23.9603512 35.4890808,26.7137367 C29.9359963,30.8438151 22.5318837,30.8438151 16.9787993,26.7137367 C13.276743,23.9603512 12.6597336,15.2765967 15.1277711,0.662473233 Z" id="Rectangle" fill="#352392"></path>
                </g>
                <path d="M60.4946749,94.4986224 C60.4946749,94.8006419 80.6781123,107.275378 98.6878095,124.601899 C104.342985,117.62056 111.506839,108.492193 120.179373,97.216798 L134.170238,109.550261 C122.922831,135.334579 111.095354,149.967574 98.6878095,153.449244 C86.2802647,156.930915 70.8803498,147.315133 52.4880648,124.601899 C57.8258049,104.331702 60.4946749,94.2972761 60.4946749,94.4986224 Z" id="Path-6" fill="#2D3A9E"></path>
                <path d="M30.0778375,68.8269639 C34.6012875,60.9744566 55.2531142,74.9570162 64.4141405,83.021881 C71.1140303,88.9200962 73.8420263,96.1648188 76.4768417,114.129891 C78.7696201,129.762838 74.3043953,151.916041 72.2199336,181.214895 C71.7544007,187.75835 83.8171018,199.944073 76.4768417,205.348666 C55.1112426,221.080038 21.5226167,229.716097 12.3243311,218.608324 C3.12604557,207.50055 19.534179,191.697806 19.680113,167.788167 C19.8125114,146.096196 15.2491756,122.392477 16.6743995,110.032664 C19.4758638,85.7378329 22.6948838,79.618414 30.0778375,68.8269639 Z" id="Path-92" fill="#3240AB"></path>
                <path d="M44.48566,94.7336724 C62.8524716,94.7336724 64.7286165,110.466816 62.5548762,133.39217 C61.105716,148.675739 60.2620978,160.879197 60.0240215,170.002545 C80.2162578,181.075823 96.0927566,186.964085 107.653518,187.66733 C111.880297,191.531312 109.547084,196.267087 102.085573,203.65943 C64.537688,201.124015 41.9152622,208.574511 34.2752265,198.301732 C23.9235917,184.382942 12.4712882,94.7336724 44.48566,94.7336724 Z" id="Path-90" fill="#1A2BA2"></path>
                <path d="M109.494404,192.566612 C114.553526,192.187808 120.705125,194.689634 127.9492,200.072092 C135.193276,205.45455 136.910272,210.531786 133.100189,215.303801 L100.891309,200.072092 L109.494404,192.566612 Z" id="Path-5" fill="#EFBC83"></path>
                <path d="M46.2890233,93.0082218 C64.6558349,93.0082218 66.5319798,108.741366 64.3582395,131.666719 C62.9090793,146.950288 62.0654611,159.153747 61.8273847,168.277095 C82.0196211,179.350373 97.8961199,185.238634 109.456881,185.941879 C113.68366,189.805861 112.066294,195.434023 104.604782,202.826366 C67.0568977,200.290951 44.4629375,193.886854 36.8229019,183.614075 C26.4712671,169.695285 14.2746515,93.0082218 46.2890233,93.0082218 Z" id="Path-90" fill="#3240AB"></path>
            </g>
            <g id="Woman" transform="translate(1100.635439, 194.767131)">
                <g id="Path-99" transform="translate(96.409598, 344.646681) scale(-1, 1) translate(-96.409598, -344.646681) translate(66.201257, 275.588865)">
                    <mask id="mask-8" fill="white">
                        <use xlink:href="#path-7"></use>
                    </mask>
                    <use id="Mask" fill="#EFBC83" xlink:href="#path-7"></use>
                    <path d="M6.07561771,107.411494 C7.05692759,110.834603 9.05601844,113.450321 12.0728903,115.258648 C22.4568573,121.482847 23.7141975,124.635378 35.7650427,126.298503 C39.2208001,126.775428 42.3791089,124.435152 45.2399693,119.277675 C58.1274976,121.952085 65.4377768,124.406247 67.1708068,126.640162 C68.9038368,128.874076 66.3200591,132.512481 59.4194735,137.555375 L35.7650427,142.818323 L7.8828758,132.079363 L0.517464853,117.971405 L6.07561771,107.411494 Z" fill="#E85720" mask="url(#mask-8)"></path>
                </g>
                <g id="Path-99" transform="translate(135.294803, 354.282655) scale(-1, 1) translate(-135.294803, -354.282655) translate(107.978750, 284.582441)">
                    <mask id="mask-10" fill="white">
                        <use xlink:href="#path-9"></use>
                    </mask>
                    <use id="Mask" fill="#EFBC83" xlink:href="#path-9"></use>
                    <path d="M6.14914656,108.024868 C7.14233253,111.467524 9.16561695,114.098179 12.2189998,115.916833 C22.7286365,122.176575 24.0011934,125.347109 36.1978814,127.019731 C39.6954613,127.49938 42.8919929,125.145739 45.7874762,119.95881 L60.1385848,138.340885 L36.1978814,143.633888 L7.9782766,132.833602 L0.523727359,118.645081 L6.14914656,108.024868 Z" fill="#E85720" mask="url(#mask-10)"></path>
                </g>
                <path d="M131.983915,65.203071 C142.270338,66.7704269 152.050831,66.42643 161.325394,64.1710804 C157.586976,53.1198674 155.462471,38.009025 154.951879,18.8385534 L138.817628,8.35117773 L111.192403,23.2364851 L114.823375,60.4833651 L131.983915,65.203071 Z" id="Path-50" fill="#2A2A2D" transform="translate(136.258899, 37.259101) scale(-1, 1) translate(-136.258899, -37.259101) "></path>
                <path d="M154.455673,51.0620716 C153.647202,56.4508016 155.189539,60.6104475 159.082684,63.5410092 C163.049779,66.5272367 169.367681,68.2843801 178.036391,68.8124393 L176.237703,87.8525995 L113.120595,91.862955 L114.335311,76.0804284 L134.626007,67.4586804 L137.961464,43.0406852 L154.455673,51.0620716 Z" id="Path-51" fill="#F5D7B5" transform="translate(145.578493, 67.451820) scale(-1, 1) translate(-145.578493, -67.451820) "></path>
                <path d="M158.90734,11.1486764 C162.713434,22.6003149 162.969862,32.1353056 159.676623,39.7536485 C154.213375,52.3919302 144.484643,53.3783137 138.453777,52.3919302 C134.514157,51.7475821 129.764001,49.3812435 124.203312,45.2929143 L118.26244,28.2418914 L131.112811,17.4278166 L153.444092,9.6359743 L158.90734,11.1486764 Z" id="Path-48" fill="#F5D7B5" transform="translate(140.115282, 31.156317) scale(-1, 1) translate(-140.115282, -31.156317) "></path>
                <polygon id="Path-56" fill="#5F6BBF" transform="translate(139.472552, 103.747323) scale(-1, 1) translate(-139.472552, -103.747323) " points="129.831592 89.8630032 149.113512 88.0085653 148.327636 119.486081 144.529849 119.486081"></polygon>
                <path d="M8.92262015,174.445612 C16.1074047,171.279869 20.4579961,167.083057 21.9743944,161.855177 C23.9317059,155.107219 36.8415985,147.115855 45.6753294,143.21178 C49.9505429,141.322346 54.5058441,142.883077 41.8692725,159.057151 C29.232701,175.231225 31.0610314,171.327751 28.5514033,173.058346 C25.6144434,175.08362 23.4469262,178.872883 22.0488516,184.426133 L10.8588623,180.98477 L8.92262015,174.445612 Z" id="Path-59" fill="#EFBC83" transform="translate(29.519965, 163.503529) scale(-1, 1) rotate(52.000000) translate(-29.519965, -163.503529) "></path>
                <path d="M46.30582,73.2334047 C47.9924714,81.3889831 48.8357972,88.6911437 48.8357972,95.1398866 C48.8357972,134.535164 49.8244478,142.948532 56.4606917,163.960856 C58.1654343,169.358578 115.261759,175.354498 124.590141,170.292007 C128.01591,168.43285 128.01591,163.095618 124.590141,154.280313 C99.9956592,150.510371 84.5927195,146.092997 78.3813219,141.028189 C74.5860963,127.371467 78.1896078,125.160687 73.2164842,112.389955 C69.5900992,103.07758 66.3054426,93.5202809 63.3625142,83.7180578 L46.30582,73.2334047 Z" id="Path-52" fill="#2F3179" transform="translate(86.732644, 122.718662) scale(-1, 1) translate(-86.732644, -122.718662) "></path>
                <g id="Path-63" transform="translate(136.258899, 193.040685) scale(-1, 1) translate(-136.258899, -193.040685) translate(78.413140, 66.167024)">
                    <mask id="mask-12" fill="white">
                        <use xlink:href="#path-11"></use>
                    </mask>
                    <use id="Mask" fill="#383A87" xlink:href="#path-11"></use>
                    <path d="M17.5002251,122.961402 C37.4293623,123.603589 66.1682894,112.568024 78.5970553,74.9914504 C79.8346353,70.7531279 62.2616929,77.3534403 25.8782282,94.7923875 C22.1101909,101.161491 19.3175232,110.551163 17.5002251,122.961402 Z" fill="#141416" opacity="0.1" mask="url(#mask-12)"></path>
                </g>
                <polygon id="Path-55" fill="#FFFFFF" transform="translate(152.327165, 91.862955) scale(-1, 1) translate(-152.327165, -91.862955) " points="170.966354 112.929581 147.650867 64.882227 133.687976 68.1314666 162.885741 118.843683"></polygon>
                <path d="M171.364684,16.3877859 C166.526228,21.1576071 159.330033,23.0397578 149.776099,22.0342383 C148.986547,27.128176 147.617753,31.2957071 145.669717,34.5368317 C144.009519,27.9716373 143.014967,26.4021152 140.069223,25.5867267 C137.310209,24.8230256 134.260202,28.3945197 135.148782,33.3714006 C135.747197,36.7230851 136.790222,37.1705781 140.069223,37.1705781 C140.827808,37.1705781 141.363384,37.1705781 141.675952,37.1705781 C142.380623,49.7239648 143.711877,60.4601104 145.669717,69.379015 C128.194866,67.3765618 118.979925,63.9799451 117.26991,51.558176 C114.455795,31.1160854 132.294883,-2.98786357 154.551841,0.209787591 C175.146914,3.16867613 176.55242,17.3657823 176.746291,23.5425176 C176.806889,25.4731595 176.273763,27.5173686 175.146914,29.6751448 C173.517906,26.2681297 172.257163,21.8390101 171.364684,16.3877859 Z" id="Path-49" fill="#2A2A2D" transform="translate(146.863954, 34.689507) scale(-1, 1) translate(-146.863954, -34.689507) "></path>
                <path d="M152.0058,46.8950749 C153.603166,46.8950749 154.898088,45.6227596 154.898088,44.0532791 C154.898088,42.4837986 153.451944,35.3319058 152.0058,35.3319058 C150.559656,35.3319058 149.113512,42.4837986 149.113512,44.0532791 C149.113512,45.6227596 150.408433,46.8950749 152.0058,46.8950749 Z" id="Oval" fill="#E85720" transform="translate(152.005800, 41.113490) scale(-1, 1) translate(-152.005800, -41.113490) "></path>
                <path d="M156.095099,145.824411 C147.195839,122.737898 138.65558,102.823551 130.474323,86.0813704 C141.444799,90.1769774 154.299412,107.025787 169.038162,136.627799 L156.095099,145.824411 Z" id="Path-62" fill="url(#linearGradient-13)" opacity="0.3" transform="translate(149.756242, 115.952891) scale(-1, 1) translate(-149.756242, -115.952891) "></path>
                <path d="M124.790948,73.2334047 C119.153148,78.4366649 116.334248,84.2626664 116.334248,90.7114093 C116.334248,130.106687 131.863979,156.879899 145.288955,173.484322 C155.855311,186.553116 178.451592,155.754554 184.273733,144.882966 C186.240968,141.209582 186.240968,137.615936 184.273733,134.102029 L178.436193,129.056365 C175.374394,128.387408 172.545451,128.819105 169.949365,130.351455 C166.011834,132.675599 162.068588,136.184617 158.119626,140.878511 C157.156366,130.399961 155.017028,120.903776 151.701612,112.389955 C148.075227,103.07758 143.272765,94.747569 137.294224,87.3999223 L124.790948,73.2334047 Z" id="Path-52" fill="#383A87" transform="translate(151.041704, 124.946467) scale(-1, 1) translate(-151.041704, -124.946467) "></path>
                <path d="M123.404285,112.357705 L125.718279,63.5974304 L133.045245,66.3005148 C130.186245,90.7320404 128.756745,107.389899 128.756745,116.27409 C126.964512,113.929261 125.180359,112.623799 123.404285,112.357705 Z" id="Path-54" fill="#FFFFFF" transform="translate(128.224765, 89.935760) scale(-1, 1) translate(-128.224765, -89.935760) "></path>
                <path d="M91.0188712,105.353319 L112.726746,105.353319 C114.690792,117.082393 113.863825,124.490229 110.245846,127.576827 C104.818877,132.206725 98.9267399,132.206725 93.4997712,127.576827 C89.8817921,124.490229 89.0548254,117.082393 91.0188712,105.353319 Z" id="Rectangle" fill="#E85720"></path>
                <path d="M88.6968302,131.765845 C94.2489562,124.826496 98.5745085,119.664097 101.673487,116.278648 C107.462023,109.955019 112.346789,107.953065 114.299102,107.373462 C116.466247,106.730079 126.79988,109.501779 125.156145,113.366545 C124.044809,115.979528 122.153146,118.439693 119.433549,122.376874 C117.539495,125.11891 110.317848,129.345822 106.885097,129.61562 C102.622472,129.950643 103.754389,131.83166 101.673487,133.296345 C99.4710421,134.84658 99.1517837,136.096442 94.8075377,137.473233 C92.8346388,137.053643 90.7977363,135.15118 88.6968302,131.765845 Z" id="Path-57" fill="#F5D7B5" transform="translate(107.014654, 122.376874) scale(-1, 1) translate(-107.014654, -122.376874) "></path>
            </g>
            <g id="Chair" transform="translate(968.140792, 443.857066)">
                <g id="Rectangle" transform="translate(0.000000, 7.287206)">
                    <mask id="mask-15" fill="white">
                        <use xlink:href="#path-14"></use>
                    </mask>
                    <use id="Mask" fill="#E38820" xlink:href="#path-14"></use>
                    <polygon fill="#E07A07" mask="url(#mask-15)" points="-1.32494647 -14.5744111 106.658191 -14.5744111 96.7055654 21.8908488 2.07411053 29.3985436"></polygon>
                </g>
                <g id="Rectangle" transform="translate(62.272484, 7.287206)">
                    <mask id="mask-17" fill="white">
                        <use xlink:href="#path-16"></use>
                    </mask>
                    <use id="Mask" fill="#E38820" xlink:href="#path-16"></use>
                    <polygon fill="#E07A07" mask="url(#mask-17)" points="-63.5974304 -14.5744111 44.3857066 -14.5744111 34.4330814 21.8908488 -60.1983734 29.3985436"></polygon>
                </g>
                <path d="M6.62408545,-2.66453526e-14 L94.0711991,-2.66453526e-14 C90.8839093,9.06932757 84.0215319,13.6039914 73.4840671,13.6039914 C57.6778698,13.6039914 56.2138927,13.6039914 31.5580511,13.6039914 C15.1208234,13.6039914 6.80950148,9.06932757 6.62408545,-2.66453526e-14 Z" id="Rectangle" fill="#E38820"></path>
            </g>
            <g id="Chloe" transform="translate(929.418750, 567.393750) scale(-1, 1) translate(-929.418750, -567.393750) translate(865.901250, 496.586250)">
                <path d="M0.309666675,102.676469 C2.28017029,111.48134 27.679862,114.807207 27.679862,123.07043 C27.679862,140.119585 79.1035792,145.198229 102.68679,138.938934 C111.877375,136.499631 143.445526,121.390294 103.790899,113.047732 C93.6528738,110.914889 77.2610688,113.382105 71.1177752,108.274882 C64.5771176,102.837312 53.8749971,90.0079333 42.5195338,90.0079333 C30.5261571,90.0079333 -3.59689583,85.2206377 0.309666675,102.676469 Z" id="shadow" fill="#BBBFE4" opacity="0.12"></path>
                <path d="M91.7952322,99.7623217 C93.2384995,102.927403 94.8803098,108.303762 96.7206631,115.891398 C97.9813049,121.088928 99.0002065,122.021588 102.612275,125.176469 C106.014789,128.148319 107.789848,128.667255 114.85009,128.667255 C117.094457,128.667255 115.518058,121.339088 107.789848,121.390294 C105.512181,121.405385 103.167703,116.110913 103.790899,112.137704 C105.519331,101.118003 106.101618,90.677158 105.53776,80.8151696 L91.7952322,99.7623217 Z" id="Path-143" fill="#959898"></path>
                <g id="Group-3" transform="translate(32.629556, 4.585946)">
                    <mask id="mask-19" fill="white">
                        <use xlink:href="#path-18"></use>
                    </mask>
                    <use id="Mask" fill="#A1A5A7" xlink:href="#path-18"></use>
                    <g mask="url(#mask-19)">
                        <g transform="translate(-1.565217, -1.760870)">
                            <path d="M56.6653787,87.4972798 C58.8915343,80.5069815 53.3841039,74.3001635 40.1430876,68.8768257 C39.1007727,66.5390311 47.4275439,65.3325776 50.5699728,68.208857 C54.7780231,72.0605044 58.8953804,76.1284392 62.9220448,80.4126613 L56.6653787,87.4972798 Z" id="Path-158" stroke="none" fill="#777878"></path>
                            <path d="M87.3292714,56.0788043 C71.9365594,47.6796437 64.636415,47.6796437 65.4288383,56.0788043 C66.6894956,69.4409342 61.2273943,80.4920795 52.3572096,93.7273268 C46.3230724,102.730893 43.5500594,110.235224 44.0381709,116.240319 L70.5513332,97.0809273 L85.4377123,76.8423913 L87.3292714,56.0788043 Z" id="Path-144" stroke="none" fill="#F0F0F4"></path>
                            <path d="M87.3292714,2.13162821e-14 C87.3292714,6.31092901 82.9018767,13.5806301 81.3840438,16.25518 C80.9862608,16.9561074 83.9913559,19.8427413 90.3993291,24.9150815 C95.5856403,21.7163723 98.1787959,20.1170177 98.1787959,20.1170177 C98.1787959,20.1170177 92.1400262,0.876713033 87.3292714,2.13162821e-14 Z" id="Path-145" stroke="#979797" stroke-width="0.5625" fill="#F0F0F4"></path>
                            <path d="M41.9020465,6.25704823 C45.2426546,1.26164772 61.7267323,14.6097147 59.5378736,17.0278533 C53.7569536,23.4143166 48.7258182,28.839445 42.7408288,27.3625004 C40.5415348,27.2894115 40.0539329,23.6422533 41.2780231,16.4210258 C40.5262783,11.3912591 40.7342861,8.00326662 41.9020465,6.25704823 Z" id="Path-146" stroke="none" fill="#F0F0F4"></path>
                            <path d="M45.3985649,28.946175 C45.3985649,28.946175 52.6700872,34.0486917 60.7308933,34.0486917 C57.5836447,37.1746955 52.2091967,39.214313 44.6075493,40.1675442 C45.134893,32.6866314 45.3985649,28.946175 45.3985649,28.946175 Z" id="Path-151" stroke="none" fill="#777878"></path>
                            <path d="M47.2889776,40.1675442 C47.2889776,40.1675442 51.9483271,46.788001 67.6322181,46.788001 C64.5435632,50.1759935 55.9221298,50.4251444 41.7679178,47.5354535 C45.4486243,42.6235139 47.2889776,40.1675442 47.2889776,40.1675442 Z" id="Path-152" stroke="none" fill="#777878"></path>
                            <path d="M33.9540591,49.7794339 C39.1632982,61.0023668 47.5424592,66.4072532 59.0915421,65.9940931 C60.2404104,65.9529932 60.3756506,64.3324749 59.0915421,64.173913 C50.3335598,63.0924762 43.607252,57.8038808 38.9126189,48.3081267 L33.9540591,49.7794339 Z" id="Path-153" stroke="none" fill="#777878"></path>
                            <path d="M25.4890455,53.7606105 C25.1199049,64.9131553 30.8520296,73.0479365 42.6854195,78.1649541 C43.2932433,78.4277905 43.3330851,79.4401325 42.6854195,79.4401325 C30.0724779,79.4401325 21.1724694,73.2649881 15.985394,60.9146994 L25.4890455,53.7606105 Z" id="Path-154" stroke="none" fill="#777878"></path>
                            <path d="M11.8537704,68.9685377 C13.4020274,77.8116992 18.0291504,83.0577505 25.7351393,84.7066916 C32.0212296,86.0518003 37.2610394,87.9773692 27.1417714,87.3881199 C20.3955927,86.995287 13.4709579,83.4578804 6.36786685,76.7759001 L11.8537704,68.9685377 Z" id="Path-155" stroke="none" fill="#777878"></path>
                            <path d="M1.61666699,86.636464 C16.5627511,91.8474864 23.0218665,100.657439 20.9940132,113.066321 C15.7952191,102.84375 8.79721467,98.4387738 2.84217094e-14,99.8513927 L1.61666699,86.636464 Z" id="Path-156" stroke="none" fill="#777878"></path>
                            <path d="M38.8289317,118.514012 C38.3752588,110.337126 35.5971508,100.835513 30.4946077,90.0091712 C37.012016,91.8790761 42.2253312,100.800357 46.1345533,116.773013 L38.8289317,118.514012 Z" id="Path-157" stroke="none" fill="#777878"></path>
                        </g>
                    </g>
                </g>
                <g id="Path-148" transform="translate(91.134142, 25.981055)">
                    <mask id="mask-21" fill="white">
                        <use xlink:href="#path-20"></use>
                    </mask>
                    <use id="Mask" fill="#F0F0F4" xlink:href="#path-20"></use>
                    <path d="M-0.97826087,3.41622327 C1.91524917,1.85411601 4.33880131,1.67973592 6.29239555,2.89308298 C8.24598979,4.10643005 8.75148827,6.16090525 7.80889096,9.05650859 C4.30982507,9.34081566 2.56029212,9.48296919 2.56029212,9.48296919 C2.56029212,9.48296919 1.38077446,7.46072055 -0.97826087,3.41622327 Z" fill="#272424" mask="url(#mask-21)"></path>
                </g>
                <g id="Path-148" transform="translate(110.724631, 25.663586)">
                    <mask id="mask-23" fill="white">
                        <use xlink:href="#path-22"></use>
                    </mask>
                    <use id="Mask" fill="#F0F0F4" xlink:href="#path-22"></use>
                    <path d="M-2.93478261,3.66339671 C-0.0439737849,2.31419804 2.3960568,2.07000944 4.38530914,2.93083091 C6.12605303,3.68411378 6.45894593,5.70818282 5.38398786,9.00303802 C2.0714326,9.27219068 0.415154965,9.406767 0.415154965,9.406767 C0.415154965,9.406767 -0.701490893,7.49231024 -2.93478261,3.66339671 Z" fill="#272424" mask="url(#mask-23)"></path>
                </g>
                <g id="Group" transform="translate(100.113720, 33.122886)">
                    <mask id="mask-25" fill="white">
                        <use xlink:href="#path-24"></use>
                    </mask>
                    <g id="Mask"></g>
                    <g mask="url(#mask-25)">
                        <g transform="translate(1.019891, 1.143070)">
                            <path d="M7.66450153,5.2156261 C6.40562076,5.2156261 3.77753054,1.89480236 4.54069718,0.804397616 C5.30386382,-0.286007126 9.68272531,-0.250107761 10.7518894,0.804397616 C11.8210536,1.85890299 8.9233823,5.2156261 7.66450153,5.2156261 Z" id="Path-149" stroke="none" fill="#393434" fill-rule="evenodd"></path>
                            <path d="M7.66450153,4.8525996 C6.64453997,7.86826706 4.08970613,9.49774651 -8.24229573e-13,9.74103795" id="Path-150" stroke="#393434" stroke-width="0.586956522" fill="none" stroke-linecap="round"></path>
                            <path d="M15.4905885,4.8525996 C14.4706269,7.86826706 11.9157931,9.49774651 7.82608696,9.74103795" id="Path-150" stroke="#393434" stroke-width="0.586956522" fill="none" stroke-linecap="round" transform="translate(11.658338, 7.296819) scale(-1, 1) translate(-11.658338, -7.296819) "></path>
                        </g>
                    </g>
                </g>
                <g id="Group-2" transform="translate(9.745512, 0.000000)">
                    <mask id="mask-27" fill="white">
                        <use xlink:href="#path-26"></use>
                    </mask>
                    <use id="Mask" fill="#A1A5A7" xlink:href="#path-26"></use>
                    <g mask="url(#mask-27)" fill="#777878">
                        <g transform="translate(-2.152174, 32.476316)">
                            <path d="M57.4250594,3.7368801 C48.0268767,5.11434273 38.096892,3.86871603 27.6351053,0 C31.6792204,7.28880774 47.8025645,17.7779806 47.8025645,17.7779806 C47.8025645,17.7779806 51.0100628,13.0976138 57.4250594,3.7368801 Z" id="Path-159"></path>
                            <path d="M24.5340948,11.878609 C28.0706097,15.1315812 33.6414742,17.8814429 41.2466882,20.1281941 C41.0141017,21.4202041 24.4374151,19.6768003 23.602072,18.6568869 C23.0451766,17.9769446 23.3558509,15.7175187 24.5340948,11.878609 Z" id="Path-160"></path>
                            <path d="M35.4367357,33.2933509 C32.0030696,34.3644701 22.4292302,26.6366108 23.4710003,25.2746688 C29.7425696,28.3228176 34.5956607,29.3573794 38.0302734,28.3783543 C38.5903591,30.9409392 37.7258465,32.5792714 35.4367357,33.2933509 Z" id="Path-161"></path>
                            <path d="M22.4957965,42.824516 C19.34424,42.824516 14.5762373,40.4535071 8.19178838,35.7114895 C8.19178838,40.4417884 12.0454738,46.3241708 19.7528448,53.3586368 C21.9065937,55.3243491 25.8899032,42.824516 22.4957965,42.824516 Z" id="Path-162"></path>
                            <path d="M0.4921875,48.3388534 C0.4921875,48.3388534 6.92769192,52.6620388 16.0028075,54.2040591 C13.9615619,56.6320463 8.6272928,57.5591014 -1.42108547e-14,56.9852242 C0.328125,51.220977 0.4921875,48.3388534 0.4921875,48.3388534 Z" id="Path-163"></path>
                            <path d="M19.9565217,59.6376104 C17.3207122,63.7699983 13.8012659,66.1820228 9.39818274,66.8736838 C12.8796705,69.9218325 16.9119395,69.9218325 21.4949898,66.8736838 L19.9565217,59.6376104 Z" id="Path-164"></path>
                        </g>
                    </g>
                </g>
                <g id="Path-147" transform="translate(62.439381, 81.568361)">
                    <mask id="mask-29" fill="white">
                        <use xlink:href="#path-28"></use>
                    </mask>
                    <use id="Mask" fill="#A1A5A7" xlink:href="#path-28"></use>
                    <path d="M26.8054942,8.57758041 C22.4266304,14.9314357 17.8198879,18.1083634 12.9852666,18.1083634 C14.3127972,24.280578 26.0584239,23.3840937 27.4891304,21.7046184 C28.4429348,20.5849683 28.215056,16.209289 26.8054942,8.57758041 Z" fill="#777878" mask="url(#mask-29)"></path>
                </g>
            </g>
            <path d="M1113.52778,268.380708 C1113.52778,251.632437 1103.7296,251.456533 1103.32098,244.671062 C1102.86738,237.138741 1106.79386,236.172495 1112.20183,235.850413 C1117.6098,235.528331 1120.46017,243.13387 1116.331,243.902466 C1112.20183,244.671062 1112.7441,245.377527 1112.20183,248.012158 C1111.65955,250.64679 1119.36683,259.188056 1113.52778,268.380708 Z" id="Path-9" fill="#FFFFFF" opacity="0.6"></path>
            <g id="Group-8" transform="translate(1094.010707, 38.836456)">
                <circle id="Oval" fill="#F4733B" cx="36.4360278" cy="81.0711991" r="13.2494647"></circle>
                <path d="M36.0280789,46.9538276 L36.4360278,0.662473233" id="Line" stroke="#383A87" stroke-width="2.64989293" stroke-linecap="round"></path>
                <path d="M36.4360278,36.6854925 C60.7267131,36.6854925 72.8720557,51.4807281 72.8720557,81.0711991 L-9.09494702e-13,81.0711991 C-9.09494702e-13,51.4807281 12.1453426,36.6854925 36.4360278,36.6854925 Z" id="Rectangle" fill="#FFFFFF"></path>
            </g>
            <g id="Group-8" transform="translate(1241.742238, 0.000000)">
                <circle id="Oval" fill="#F4733B" cx="36.4360278" cy="119.907655" r="13.2494647"></circle>
                <path d="M36.0280789,85.7902837 L36.4360278,0" id="Line" stroke="#383A87" stroke-width="2.64989293" stroke-linecap="round"></path>
                <path d="M36.4360278,75.5219486 C60.7267131,75.5219486 72.8720557,90.3171842 72.8720557,119.907655 L-9.09494702e-13,119.907655 C-9.09494702e-13,90.3171842 12.1453426,75.5219486 36.4360278,75.5219486 Z" id="Rectangle" fill="#FFFFFF"></path>
            </g>
        </g>
    </g>
</svg>