<?xml version="1.0" encoding="UTF-8"?>
<svg width="1024px" height="768px" viewBox="0 0 1024 768" version="1.1" xmlns="http://www.w3.org/2000/svg" xmlns:xlink="http://www.w3.org/1999/xlink">
    <!-- Generator: Sketch 53.2 (72643) - https://sketchapp.com -->
    <title>CM_Contact</title>
    <desc>Created with Sketch.</desc>
    <defs>
        <path d="M0.213059544,21.92501 C2.23330695,23.9427639 6.1963317,26.1069271 12.0367188,26.1735876 C18.4636741,26.246943 21.8401306,24.5438377 24.9848589,22.0629886 C23.7024289,14.3285348 23.242709,6.97420524 23.6056993,-2.84217094e-14 L2.23330695,1.60943198 C2.56702387,8.0471599 1.89360807,14.8190193 0.213059544,21.92501 Z" id="path-1"></path>
    </defs>
    <g id="CM_Contact" stroke="none" stroke-width="1" fill="none" fill-rule="evenodd">
        <g id="Contact-Us" transform="translate(92.430328, 34.000000)">
            <rect id="Bound" x="0" y="0" width="839.139344" height="699.282787"></rect>
            <g id="BG" transform="translate(26.922387, 32.866291)">
                <path d="M135.455175,244.454922 C116.448013,183.869718 80.7175938,149.324942 86.1830541,97.6418177 C93.3507026,29.8622616 181.261295,-23.8962941 218.6589,10.9088995 C320.087683,105.306613 361.015472,45.129347 483.790519,105.306613 C611.00497,167.659819 643.451565,167.165264 718.637898,255.969844 C751.57015,294.867003 727.137693,321.311794 700.027689,360.71009 C727.378066,348.416644 744.543673,326.695641 741.097391,336.83802 C718.637898,402.936117 674.336522,434.173982 608.03376,455.054911 C363.659408,532.016464 291.433189,613.727878 142.61736,538.463131 C110.706649,522.324043 119.922977,477.148372 170.266346,402.936117 C165.512175,356.101686 153.908451,303.27462 135.455175,244.454922 Z" id="Path-183" fill="#EAEAF6"></path>
                <path d="M76.8921933,190.75856 C53.5161555,188.616869 46.9613082,193.20978 30.8796193,223.057912 C23.9550212,235.910189 19.697864,264.12985 30.8796193,266.424371 C37.4818599,267.779166 39.3715476,249.473763 50.6225905,228.591466 C62.3778346,206.773354 97.8904149,192.682397 76.8921933,190.75856 Z" id="Path-184" fill="#EAEAF6"></path>
                <path d="M46.4304666,313.315658 C61.0798947,253.196727 98.4669396,240.331017 146.206648,186.132503 C169.474711,159.716455 140.063795,144.30854 175.994455,125.227977 C202.022252,111.406216 192.965053,130.008231 215.900011,130.008231 C249.649298,130.008231 282.357826,94.6644027 292.149151,119.286805 C298.320193,134.805226 245.476788,184.555156 202.138344,179.909979 C184.247904,177.992415 166.41073,202.422795 166.41073,212.922409 C166.41073,225.57096 188.870447,238.576577 194.376579,232.201854 C239.510366,179.948221 301.074566,126.97755 429.361545,125.227977 C478.006515,124.564559 410.382573,81.5979214 476.048445,78.7297693 C498.576092,77.7458074 504.202558,94.6644027 515.856666,94.6644027 C545.139469,94.6644027 555.947226,82.7524302 574.775488,90.3567114 C593.785056,98.0342175 570.307362,115.672571 591.532325,125.227977 C617.373055,136.861386 653.22491,104.204423 675.936577,133.11403 C690.99414,152.280753 633.731387,158.02106 667.13135,183.400098 C692.931061,203.004066 756.28854,249.917473 740.490485,287.120137 C736.609467,296.259503 700.631876,245.04725 653.22491,222.6113 C642.475313,217.523916 635.706595,241.972355 628.370324,235.067275 C556.752567,167.658872 512.441007,146.91087 494.963011,142.674537 C481.832362,139.491917 563.025724,206.102653 569.78627,222.6113 C579.966844,247.471349 601.908585,313.768063 552.385987,370.325228 C532.733537,392.769262 458.503814,355.853925 431.436175,380.613699 C403.124165,406.511747 362.140255,436.336437 362.140255,420.96177 C362.140255,381.475447 394.193078,371.736663 436.085313,324.955816 C469.4609,287.685467 497.869465,282.685148 512.675899,252.859378 C517.851031,242.434701 481.38298,251.965672 476.048445,240.331017 C465.349907,216.997435 502.465474,196.032059 483.790519,191.18728 C453.773616,183.400098 429.498541,223.349187 405.635098,222.6113 C388.81808,222.091297 414.866121,191.233235 402.429597,188.671501 C390.150845,186.142265 352.454098,200.608795 350.867052,219.405799 C349.646041,233.867483 413.868061,229.587739 399.04108,249.917473 C361.162792,301.853576 317.66068,297.75445 266.84522,350.853207 C236.759119,382.291172 202.890586,430.875415 178.78066,445.642901 C153.507516,461.122866 201.318559,401.30792 199.156832,370.325228 C198.772732,364.820164 172.677317,378.398316 173.689008,372.667389 C185.836314,303.856487 245.734256,290.859661 245.734256,252.859378 C245.734256,247.750742 221.297656,262.694803 222.267309,258.703579 C226.189904,242.557644 264.838483,199.938601 252.407489,212.922409 C200.926892,261.123753 178.78066,313.315658 98.4669396,388.009434 C90.0169406,395.868146 98.4399487,360.255387 90.2981694,367.33279 C50.7999431,401.667405 3.02549264,485.718617 0.275071074,472.165113 C-3.99367501,451.129623 42.3180828,369.01817 76.8921933,299.840184 C81.0056525,291.609724 43.047854,327.197364 46.4304666,313.315658 Z" id="Path-177" fill="#BBBFE4"></path>
                <path d="M292.143687,459.564365 C238.312571,506.171689 173.560241,546.942823 104.894332,527.569616 C44.6904543,510.583863 93.7086741,419.498089 138.397079,378.742572 C194.708465,327.386977 260.973703,268.698406 387.666809,215.460041 C440.253833,193.362175 514.932865,184.168099 536.100507,183.659064 C579.640468,182.612023 648.10799,182.612023 675.936577,227.544522 C707.601054,278.670511 605.144718,368.69606 584.361945,389.193571" id="Path-175" stroke="#43444A" stroke-width="5.73770492" stroke-linecap="round" stroke-linejoin="round" stroke-dasharray="28.68852459016393,28.68852459016393"></path>
                <path d="M675.936577,209.106401 C796.330674,275.336908 810.564448,362.454067 718.637898,470.45788" id="Path-176" stroke="#43444A" stroke-width="5.73770492" stroke-linecap="round" stroke-linejoin="round" stroke-dasharray="28.68852459016393,28.68852459016393"></path>
                <path d="M186.153177,448.785876 C215.848111,461.390422 297.733852,375.21611 285.824192,418.802461 C277.915511,447.746239 346.33301,389.430946 349.733449,401.731817 C358.691644,434.137514 319.619549,494.331926 270.961702,508.328413 C237.829413,517.858955 184.144105,487.841937 186.153177,448.785876 Z" id="Path-178" fill="#BBBFE4"></path>
                <path d="M302.299677,380.139771 C292.354291,378.013668 307.497032,347.581399 326.557415,328.414698 C346.060558,308.802766 386.729879,291.145111 382.424919,308.452161 C376.872904,330.772699 348.018021,389.913341 302.299677,380.139771 Z" id="Path-179" fill="#BBBFE4"></path>
                <path d="M667.538355,256.131803 C676.442596,257.806769 704.242846,287.513992 715.991003,322.910577 C720.487513,336.458324 706.520079,354.553238 700.027689,350.469421 C681.961269,339.105358 692.909814,324.085031 686.360261,307.071549 C678.786974,287.398758 652.675864,253.336038 667.538355,256.131803 Z" id="Path-180" fill="#BBBFE4"></path>
                <path d="M747.28664,332.02174 C740.955536,332.02174 733.731635,326.975955 731.41893,318.665712 C729.764708,312.721597 734.94585,303.513025 739.352785,303.513025 C744.482455,303.513025 748.058865,309.922223 750.492141,318.665712 C752.025792,324.17658 750.492141,332.02174 747.28664,332.02174 Z" id="Path-181" fill="#BBBFE4"></path>
                <path d="M686.058422,147.391964 C695.108397,136.314052 712.847119,134.039279 724.550389,142.929939 C757.481711,167.946982 766.623448,187.39449 771.525256,225.387944 C773.117204,237.726981 764.795904,248.499813 754.116939,242.200779 C737.466479,232.379432 745.696864,198.206058 692.37382,177.088264 C680.49743,172.384797 681.848657,152.545061 686.058422,147.391964 Z" id="Path-182" fill="#BBBFE4"></path>
            </g>
            <g id="Group" transform="translate(257.731326, 277.321213)">
                <path d="M30.1647649,363.33281 C30.1647649,363.33281 100.114897,297.026598 240.01516,164.414173 L288.728762,225.066028 C116.352764,317.243883 30.1647649,363.33281 30.1647649,363.33281 Z" id="Path-171" fill="#8C95D0"></path>
                <polygon id="Path-170" fill="#352392" points="-2.84217094e-14 388.572548 234.594351 98.2014818 275.234444 157.276896 76.6698018 332.599878 196.544152 261.716768 81.6958968 344.542317"></polygon>
                <path d="M222.072819,116.255168 C207.912343,96.4148814 199.857843,84.49679 197.909321,80.500894 C193.813152,72.1007529 198.934853,53.3482831 213.274421,24.2434845 C210.839727,18.6266127 210.126787,14.6851799 211.135599,12.4191862 C215.372343,2.90261493 219.904359,-0.816231225 225.49548,0.147592788 C227.072446,0.419437637 227.5902,5.42436297 227.04874,15.1623688 C232.684428,13.7599705 235.199632,13.7599705 234.594351,15.1623688 C233.014312,18.8232252 224.169224,19.8983195 221.190521,32.6724371 C217.908458,46.7475033 213.353017,62.4818721 218.296419,71.0483116 C225.509138,83.5472594 231.554565,94.5183963 236.4327,103.961722 L222.072819,116.255168 Z" id="Path-167" fill="#EFBC83"></path>
                <path d="M271.612634,94.3820921 C296.414082,90.441127 312.187612,103.008104 317.264598,113.530424 C328.423897,136.658656 314.017196,196.421407 317.264598,227.900592 C311.61009,235.210828 292.690025,242.788284 273.909062,244.087923 C255.1281,245.387562 236.995033,261.967153 218.54226,250.416395 C214.849977,234.760127 219.371207,188.383729 228.345877,158.481195 C231.073593,149.392772 206.011,91.5189143 196.544152,80.9554313 C192.933863,76.926928 205.693253,29.0600111 208.715425,26.6912766 C211.682167,24.3659871 227.04874,26.6912766 222.729762,35.6113802 C220.76828,39.6624826 220.005453,55.3852621 218.54226,63.9972394 C217.75281,68.6437405 238.647401,94.3612878 242.92565,96.3406325 C253.860138,101.399506 258.90767,96.4009186 271.612634,94.3820921 Z" id="Path-92" fill="#EC7D50"></path>
                <g id="Group-3" transform="translate(260.987724, 69.120978) rotate(-10.000000) translate(-260.987724, -69.120978) translate(233.733626, 28.239831)">
                    <g id="Path-91" transform="translate(9.383784, 54.152652)">
                        <mask id="mask-2" fill="white">
                            <use xlink:href="#path-1"></use>
                        </mask>
                        <use id="Mask" fill="#EFBC83" xlink:href="#path-1"></use>
                        <path d="M0.17754962,10.4613079 C6.32674844,12.3984416 15.6177483,9.44781627 28.0505491,1.60943198 L24.1940949,-3.62122195 L1.46888901,0.80471599 C1.46888901,4.12888458 1.03844255,7.34774854 0.17754962,10.4613079 Z" fill="#2A2A2D" opacity="0.1" mask="url(#mask-2)"></path>
                    </g>
                    <path d="M4.32474874,15.8076278 C-2.02137478,27.7251737 2.00958397,42.6103754 6.55164302,50.8830434 C10.3704789,57.8384706 14.8040404,61.1537177 24.2414415,59.4315009 C28.5878059,58.6383396 32.7264262,56.139207 36.6573024,51.9341033 L47.4402404,36.0332417 L47.4402404,22.5494991 L28.6649509,12.0771069 C15.4161577,8.97164389 7.30275693,10.2151508 4.32474874,15.8076278 Z" id="Path-53" fill="#EFBC83"></path>
                    <path d="M2.20268248e-13,3.58558363 C14.7590053,4.97472788 17.9992544,-1.47117398 31.2217151,0.315548936 C41.6913532,1.73028881 47.8051873,8.33297879 51.6719578,18.8684972 C56.6275222,32.370576 47.9337663,42.2251757 45.6426042,44.7222074 C40.7838179,50.0175742 38.0411645,51.1915666 34.8892728,53.6319539 C36.6886996,49.882195 37.7393302,45.7791825 38.0411645,41.3229164 C42.2967475,40.0214056 44.8305607,38.228652 45.6426042,35.9446556 C47.0545097,31.973456 45.3330092,28.8803747 43.3074407,28.7964963 C40.5380115,28.6818147 38.6811151,33.5619359 36.0526088,35.5475357 C33.8286616,37.2275275 32.5946035,38.2454544 31.976687,36.442219 C30.9052136,32.2127363 30.6535563,27.2152556 31.2217151,21.449777 C10.4072384,21.9792703 1.0074968e-13,16.0245392 2.20268248e-13,3.58558363 Z" id="Path-64" fill="#2A2A2D"></path>
                </g>
                <polygon id="Path-166" fill="#6466A1" points="0 388.572548 338.977331 278.902608 332.883191 236.101585"></polygon>
                <path d="M159.328087,290.246832 L205.276374,181.265249" id="Path-168" stroke="#22247A" stroke-width="5.73770492"></path>
                <path d="M179.385156,275.665694 L240.01516,201.18798" id="Path-169" stroke="#22247A" stroke-width="5.73770492" stroke-linecap="round"></path>
                <ellipse id="Oval" stroke="#22247A" stroke-width="5.73770492" transform="translate(218.953362, 216.935500) rotate(-17.000000) translate(-218.953362, -216.935500) " cx="218.953362" cy="216.9355" rx="26.2231045" ry="38.8101947"></ellipse>
                <path d="M310.482923,142.04805 C324.190049,157.276896 317.380526,182.690645 306.501655,197.364535 C298.472492,208.194616 281.98032,212.622699 257.025139,210.648784 C249.887373,202.210876 248.53952,195.95512 252.98158,191.881515 C265.15165,186.774789 272.439172,184.21075 274.844147,184.189398 C269.284384,168.811551 270.208546,154.764435 277.616632,142.04805 C288.728762,122.973473 294.453039,124.238581 310.482923,142.04805 Z" id="Path-90" fill="#E85720" opacity="0.4"></path>
                <path d="M227.05794,204.330954 C227.367117,198.199803 233.350347,194.803255 238.574254,192.369095 C242.037069,190.755543 245.213082,193.258685 249.939602,198.224114 C255.704973,204.280906 251.504156,201.067832 251.504156,210.344214 C251.504156,216.352309 243.12758,217.576996 237.36485,216.352309 C233.658581,215.564658 226.762415,210.19141 227.05794,204.330954 Z" id="Path-98" fill="#EFBC83"></path>
                <path d="M307.366198,101.432285 C333.13313,119.627296 324.373354,182.690645 313.494483,197.364535 C305.46532,208.194616 284.046143,214.523874 249.23695,216.352309 C244.794891,207.767397 244.794891,201.438139 249.23695,197.364535 C261.40702,192.257808 271.535239,189.012902 279.621607,187.629815 C277.154799,168.909663 277.154799,152.872596 279.621607,139.518613 C283.321819,119.487639 288.356353,88.0087107 307.366198,101.432285 Z" id="Path-90" fill="#EC7D50"></path>
                <polygon id="Path-165" fill="#352392" points="0 388.572548 469.188703 191.35295 347.210293 158.481195"></polygon>
            </g>
            <g id="Group-2" transform="translate(623.140727, 503.324171)">
                <polygon id="Path-174" fill="#9091BD" points="-1.42108547e-14 98.1399686 103.779302 31.4567991 94.4537103 7.25915627 75.1920206 10.0986268"></polygon>
                <polygon id="Path-173" fill="#6466A1" points="1.42108547e-14 98.1399686 122.419559 60.8389682 114.343662 37.8705334"></polygon>
                <polygon id="Path-172" fill="#352392" points="2.84217094e-14 98.1399686 159.119613 25.5484059 115.631599 13.6387459 21.9645816 77.6190236 94.4537103 7.25915627 69.7247765 0"></polygon>
            </g>
            <g id="Group-2" transform="translate(92.546889, 514.840019) scale(-1, 1) rotate(-276.000000) translate(-92.546889, -514.840019) translate(43.059184, 483.999855)">
                <polygon id="Path-174" fill="#9091BD" points="-1.42108547e-14 60.6918227 64.1793051 19.4535468 58.412163 4.48921506 46.5003285 6.24520342"></polygon>
                <polygon id="Path-173" fill="#6466A1" points="1.42108547e-14 60.6918227 75.7068323 37.6240988 70.7125278 23.4199351"></polygon>
                <polygon id="Path-172" fill="#352392" points="2.84217094e-14 60.6918227 98.4029185 15.7996721 71.509015 8.43448761 13.5833597 48.0012383 58.412163 4.48921506 43.1192697 0"></polygon>
            </g>
            <g id="Group-4" transform="translate(783.128288, 244.980459) rotate(10.000000) translate(-783.128288, -244.980459) translate(758.025829, 215.574721)">
                <path d="M29.0202357,48.9497951 L24.4748975,58.0404713 L19.9295594,48.9497951 L13.9856557,48.9497951 C6.26159136,48.9497951 0,42.6882037 0,34.9641393 L0,13.9856557 C0,6.26159136 6.26159136,0 13.9856557,0 L34.9641393,0 C42.6882037,0 48.9497951,6.26159136 48.9497951,13.9856557 L48.9497951,34.9641393 C48.9497951,42.6882037 42.6882037,48.9497951 34.9641393,48.9497951 L29.0202357,48.9497951 Z" id="Path" fill="#5D43E6"></path>
                <path d="M18.6814645,34.963671 L14.3321753,34.963671 L14.3321753,20.9577236 L18.6814645,20.9577236 L18.6814645,34.963671 Z M16.5044786,19.0471831 C15.1137175,19.0471831 13.9856557,17.8952396 13.9856557,16.5044785 C13.9856558,15.1133711 15.1133712,13.9856557 16.5044786,13.9856557 C17.895586,13.9856557 19.0233014,15.1133711 19.0233014,16.5044785 C19.0233014,17.8952396 17.8947714,19.0471831 16.5044786,19.0471831 Z M34.9594566,34.963671 L30.6195329,34.963671 L30.6195329,28.1456639 C30.6195329,26.5207679 30.586754,24.4369677 28.3582584,24.4369677 C26.0969839,24.4369677 25.7504643,26.2023445 25.7504643,28.0285964 L25.7504643,34.963671 L21.4058578,34.963671 L21.4058578,20.9577236 L25.5772045,20.9577236 L25.5772045,22.8682641 L25.6380795,22.8682641 C26.218734,21.7678302 27.637123,20.6065213 29.7532339,20.6065213 C34.1549693,20.6065213 34.9641393,23.5051109 34.9641393,27.2699995 L34.9641393,34.963671 L34.9594566,34.963671 Z" id="Shape" fill="#EAEAF6" fill-rule="nonzero"></path>
            </g>
            <g id="Group-5" transform="translate(321.756019, 248.571648) rotate(-10.000000) translate(-321.756019, -248.571648) translate(296.653560, 219.165910)">
                <path d="M29.0202357,48.9497951 L24.4748975,58.0404713 L19.9295594,48.9497951 L13.9856557,48.9497951 C6.26159136,48.9497951 0,42.6882037 0,34.9641393 L0,13.9856557 C0,6.26159136 6.26159136,0 13.9856557,0 L34.9641393,0 C42.6882037,0 48.9497951,6.26159136 48.9497951,13.9856557 L48.9497951,34.9641393 C48.9497951,42.6882037 42.6882037,48.9497951 34.9641393,48.9497951 L29.0202357,48.9497951 Z" id="Path" fill="#5D43E6"></path>
                <path d="M33.3002014,28.8299816 C32.5085914,27.9793696 31.0273958,26.6997641 31.0273958,22.5081647 C31.0273958,19.3245159 28.795154,16.775958 25.7852333,16.1507008 L25.7852333,15.296811 C25.7852333,14.5728074 25.1984913,13.9856557 24.4748975,13.9856557 C23.7513038,13.9856557 23.1645618,14.5728074 23.1645618,15.296811 L23.1645618,16.1507008 C20.1546411,16.775958 17.9223993,19.3245159 17.9223993,22.5081647 C17.9223993,26.6997641 16.4412036,27.9793696 15.6495937,28.8299816 C15.4037521,29.0942613 15.2947623,29.4101678 15.296811,29.7195184 C15.3013181,30.3914855 15.8286483,31.0306737 16.6120635,31.0306737 L32.3377315,31.0306737 C33.1211468,31.0306737 33.6488868,30.3914855 33.6529841,29.7195184 C33.6550328,29.4101678 33.546043,29.0938516 33.3002014,28.8299816 L33.3002014,28.8299816 Z M18.0637582,29.0639408 C18.933218,27.9179092 19.8838056,26.0183731 19.8883127,22.5319294 C19.8883127,22.5237347 19.8858543,22.5163594 19.8858543,22.5081647 C19.8858543,19.9735378 21.9402706,17.9191214 24.4748975,17.9191214 C27.0095245,17.9191214 29.0639408,19.9735378 29.0639408,22.5081647 C29.0639408,22.5163594 29.0614824,22.5237347 29.0614824,22.5319294 C29.0659895,26.0187828 30.016577,27.918319 30.8860369,29.0639408 L18.0637582,29.0639408 Z M24.4748975,34.9641393 C25.9220851,34.9641393 27.0959788,33.7902457 27.0959788,32.3418289 L21.8538163,32.3418289 C21.8538163,33.7902457 23.02771,34.9641393 24.4748975,34.9641393 Z" id="Shape" fill="#EAEAF6" fill-rule="nonzero"></path>
            </g>
            <g id="Group-6" transform="translate(574.190932, 153.621993)">
                <path d="M29.0202357,48.9497951 L24.4748975,58.0404713 L19.9295594,48.9497951 L13.9856557,48.9497951 C6.26159136,48.9497951 0,42.6882037 0,34.9641393 L0,13.9856557 C0,6.26159136 6.26159136,0 13.9856557,0 L34.9641393,0 C42.6882037,0 48.9497951,6.26159136 48.9497951,13.9856557 L48.9497951,34.9641393 C48.9497951,42.6882037 42.6882037,48.9497951 34.9641393,48.9497951 L29.0202357,48.9497951 Z" id="Path" fill="#5D43E6"></path>
                <path d="M24.4772376,19.0951392 C21.5007032,19.0951392 19.0998193,21.4960231 19.0998193,24.4725575 C19.0998193,27.4490919 21.5007032,29.8499758 24.4772376,29.8499758 C27.453772,29.8499758 29.8546559,27.4490919 29.8546559,24.4725575 C29.8546559,21.4960231 27.453772,19.0951392 24.4772376,19.0951392 Z M24.4772376,27.9685814 C22.5537224,27.9685814 20.9812137,26.4007528 20.9812137,24.4725575 C20.9812137,22.5443622 22.5490423,20.9765336 24.4772376,20.9765336 C26.4054328,20.9765336 27.9732615,22.5443622 27.9732615,24.4725575 C27.9732615,26.4007528 26.4007528,27.9685814 24.4772376,27.9685814 L24.4772376,27.9685814 Z M31.3288829,18.8751751 C31.3288829,19.5725079 30.7672726,20.1294381 30.0746199,20.1294381 C29.3772872,20.1294381 28.820357,19.5678278 28.820357,18.8751751 C28.820357,18.1825225 29.3819673,17.6209122 30.0746199,17.6209122 C30.7672726,17.6209122 31.3288829,18.1825225 31.3288829,18.8751751 Z M34.890428,20.1481584 C34.8108665,18.4680077 34.4270995,16.9797405 33.196237,15.7535581 C31.9700546,14.5273756 30.4817874,14.1436086 28.8016367,14.0593671 C27.070005,13.9610853 21.8797901,13.9610853 20.1481584,14.0593671 C18.4726878,14.1389285 16.9844206,14.5226956 15.7535581,15.748878 C14.5226956,16.9750604 14.1436086,18.4633276 14.0593671,20.1434783 C13.9610853,21.87511 13.9610853,27.0653249 14.0593671,28.7969566 C14.1389285,30.4771073 14.5226956,31.9653745 15.7535581,33.1915569 C16.9844206,34.4177394 18.4680077,34.8015064 20.1481584,34.8857479 C21.8797901,34.9840297 27.070005,34.9840297 28.8016367,34.8857479 C30.4817874,34.8061865 31.9700546,34.4224194 33.196237,33.1915569 C34.4224194,31.9653745 34.8061865,30.4771073 34.890428,28.7969566 C34.9887098,27.0653249 34.9887098,21.8797901 34.890428,20.1481584 Z M32.6533471,30.6549505 C32.2883004,31.5722473 31.5816075,32.2789402 30.6596306,32.648667 C29.2790054,33.196237 26.0029455,33.0698747 24.4772376,33.0698747 C22.9515297,33.0698747 19.6707897,33.1915569 18.2948445,32.648667 C17.3775478,32.2836203 16.6708548,31.5769274 16.3011281,30.6549505 C15.7535581,29.2743253 15.8799204,25.9982654 15.8799204,24.4725575 C15.8799204,22.9468496 15.7582382,19.6661096 16.3011281,18.2901644 C16.6661748,17.3728677 17.3728677,16.6661748 18.2948445,16.296448 C19.6754698,15.748878 22.9515297,15.8752403 24.4772376,15.8752403 C26.0029455,15.8752403 29.2836855,15.7535581 30.6596306,16.296448 C31.5769274,16.6614947 32.2836203,17.3681876 32.6533471,18.2901644 C33.2009171,19.6707897 33.0745548,22.9468496 33.0745548,24.4725575 C33.0745548,25.9982654 33.2009171,29.2790054 32.6533471,30.6549505 Z" id="Shape" fill="#EAEAF6" fill-rule="nonzero"></path>
            </g>
            <g id="Group-7" transform="translate(223.669035, 303.445134) rotate(-20.000000) translate(-223.669035, -303.445134) translate(198.566576, 274.039396)">
                <path d="M29.0202357,48.9497951 L24.4748975,58.0404713 L19.9295594,48.9497951 L13.9856557,48.9497951 C6.26159136,48.9497951 0,42.6882037 0,34.9641393 L0,13.9856557 C0,6.26159136 6.26159136,0 13.9856557,0 L34.9641393,0 C42.6882037,0 48.9497951,6.26159136 48.9497951,13.9856557 L48.9497951,34.9641393 C48.9497951,42.6882037 42.6882037,48.9497951 34.9641393,48.9497951 L29.0202357,48.9497951 Z" id="Path" fill="#5D43E6"></path>
                <path d="M34.2506251,20.7264686 C34.0581721,20.5673682 29.6729315,17.0408933 28.7089046,16.2744001 C27.8032241,15.5504785 26.2546678,13.9856557 24.4748975,13.9856557 C22.7046331,13.9856557 21.1709503,15.531057 20.2408905,16.2744001 C19.2385533,17.0713366 14.8704806,20.584618 14.7033084,20.7220435 C14.2489599,21.0956477 13.9856724,21.6529933 13.9856557,22.2412217 L13.9856557,32.9974065 C13.9856557,34.0836167 14.8661784,34.9641393 15.9523886,34.9641393 L32.9974065,34.9641393 C34.0836167,34.9641393 34.9641393,34.0836167 34.9641393,32.9974065 L34.9641393,22.2422051 C34.9641369,21.6558594 34.7025167,21.100093 34.2506251,20.7264686 Z M32.9974065,32.7515649 C32.9974065,32.8873395 32.8873395,32.9974065 32.7515649,32.9974065 L16.1982302,32.9974065 C16.0624556,32.9974065 15.9523886,32.8873395 15.9523886,32.7515649 L15.9523886,22.3584881 C15.9523886,22.284203 15.985823,22.2140152 16.0435958,22.1673463 C16.6938469,21.6423106 20.5012368,18.5799436 21.4670255,17.8121393 C22.211311,17.2176534 23.5078386,15.9523886 24.4748975,15.9523886 C25.4456851,15.9523886 26.76356,17.2376895 27.4827696,17.8121393 C28.4486403,18.5800256 32.256317,21.6428842 32.9062812,22.1682887 C32.9639707,22.2149303 32.9974679,22.2851629 32.9974065,22.3593486 L32.9974065,32.7515649 Z M31.68662,25.0606561 C31.8607169,25.2720389 31.8285936,25.5849134 31.6151211,25.7564289 C30.427911,26.7104172 29.1864519,27.7066493 28.7089046,28.0863107 C27.7788448,28.8296948 26.245162,30.3750961 24.4748975,30.3750961 C22.6945126,30.3750961 21.1442765,28.8083885 20.2408905,28.0863107 C19.7787493,27.7189004 18.5304885,26.7172598 17.3347559,25.7563469 C17.1212835,25.5847904 17.0892011,25.271957 17.263257,25.0605742 L17.8884322,24.3014153 C18.0596199,24.0935562 18.3660615,24.0620066 18.5759282,24.2306949 C19.7485107,25.1731287 20.9755881,26.1578882 21.4670255,26.5486125 C22.1862351,27.1230623 23.50411,28.4083632 24.4748975,28.4083632 C25.4419565,28.4083632 26.7385251,27.1430984 27.4827696,26.5486125 C27.9742069,26.1579292 29.2013663,25.1731287 30.3739898,24.2308178 C30.5838566,24.0621705 30.8902981,24.0937201 31.0614448,24.3015792 L31.68662,25.0606561 Z" id="Shape" fill="#EAEAF6" fill-rule="nonzero"></path>
            </g>
            <g id="Group-8" transform="translate(401.488570, 182.642228)">
                <path d="M29.0202357,48.9497951 L24.4748975,58.0404713 L19.9295594,48.9497951 L13.9856557,48.9497951 C6.26159136,48.9497951 0,42.6882037 0,34.9641393 L0,13.9856557 C0,6.26159136 6.26159136,0 13.9856557,0 L34.9641393,0 C42.6882037,0 48.9497951,6.26159136 48.9497951,13.9856557 L48.9497951,34.9641393 C48.9497951,42.6882037 42.6882037,48.9497951 34.9641393,48.9497951 L29.0202357,48.9497951 Z" id="Path" fill="#5D43E6"></path>
                <path d="M29.3564923,25.7860528 L29.9391369,21.9894389 L26.2961741,21.9894389 L26.2961741,19.5256963 C26.2961741,18.4870155 26.8050662,17.4745578 28.436635,17.4745578 L30.0927879,17.4745578 L30.0927879,14.2421505 C30.0927879,14.2421505 28.5898763,13.9856557 27.1529321,13.9856557 C24.152845,13.9856557 22.1918485,15.8040641 22.1918485,19.0958832 L22.1918485,21.9894389 L18.8570071,21.9894389 L18.8570071,25.7860528 L22.1918485,25.7860528 L22.1918485,34.9641393 L26.2961741,34.9641393 L26.2961741,25.7860528 L29.3564923,25.7860528 Z" id="Path" fill="#EAEAF6" fill-rule="nonzero"></path>
            </g>
        </g>
    </g>
</svg>