<?xml version="1.0" encoding="UTF-8"?>
<svg width="1440px" height="765px" viewBox="0 0 1440 765" version="1.1" xmlns="http://www.w3.org/2000/svg" xmlns:xlink="http://www.w3.org/1999/xlink">
    <!-- Generator: Sketch 53.2 (72643) - https://sketchapp.com -->
    <title>CM_Footer</title>
    <desc>Created with Sketch.</desc>
    <defs>
        <path d="M22.5,0 C30,-1.76941795e-15 37.5,20.625 45,61.875 L45,191.25 L0,191.25 L0,61.875 C7.5,20.625 15,3.90356167e-15 22.5,0 Z" id="path-1"></path>
        <path d="M22.5,0 C30,-1.76941795e-15 37.5,20.625 45,61.875 L45,191.25 L0,191.25 L0,61.875 C7.5,20.625 15,3.90356167e-15 22.5,0 Z" id="path-3"></path>
        <path d="M45,0 C67.5472412,0 90,51.4248047 90,95.625 C90,145.292811 90,201.542811 90,264.375 L-2.27373675e-13,264.375 C-1.9677052e-13,201.536189 -1.57586369e-13,145.286189 -1.09821223e-13,95.625 C-6.75015599e-14,51.0205078 22.4527588,8.11114449e-15 45,0 Z" id="path-5"></path>
        <path d="M115.391602,0.472412109 C130.485718,0.472412109 142.369629,62.3430176 160.391602,170.4375 C165.392423,200.432061 210.296997,215.4375 231.782959,259.56958 C168.204923,259.56958 55.1315918,259.56958 0,259.56958 C20.4532471,215.4375 65.10552,201.085559 70.3916016,170.4375 C89.0354004,62.3430176 100.297485,0.472412109 115.391602,0.472412109 Z" id="path-7"></path>
    </defs>
    <g id="CM_Footer" stroke="none" stroke-width="1" fill="none" fill-rule="evenodd">
        <g id="Footer-Top">
            <rect id="Rectangle" fill="#151223" x="2.80520233e-05" y="0" width="1440" height="765"></rect>
            <path d="M2.80520187e-05,648.371806 L2.80520187e-05,458.346944 C15.9965064,449.188323 34.5275192,443.953125 54.2812781,443.953125 C87.606907,443.953125 117.452422,458.853265 137.519277,482.355001 C150.048799,477.357554 163.719103,474.609375 178.031278,474.609375 C209.32204,474.609375 237.544705,487.745459 257.485482,508.803837 C267.471873,458.672278 311.714386,420.890625 364.781278,420.890625 C408.928471,420.890625 446.968452,447.038707 464.258747,484.692397 C476.654511,479.817781 490.155253,477.140625 504.281278,477.140625 C557.34817,477.140625 601.590683,514.922278 611.577074,565.053837 C631.517851,543.995459 659.740516,530.859375 691.031278,530.859375 C705.343453,530.859375 719.013757,533.607554 731.54328,538.605001 C751.610134,515.103265 781.455649,500.203125 814.781278,500.203125 C859.188658,500.203125 897.416627,526.66033 914.562289,564.671844 C924.69682,514.730473 968.849259,477.140625 1021.78128,477.140625 C1074.84817,477.140625 1119.09068,514.922278 1129.07707,565.053837 C1149.01785,543.995459 1177.24052,530.859375 1208.53128,530.859375 C1222.84345,530.859375 1236.51376,533.607554 1249.04328,538.605001 C1269.11013,515.103265 1298.95565,500.203125 1332.28128,500.203125 C1386.1378,500.203125 1430.90538,539.117522 1440.00003,590.362325 L1440.00003,628.856425 C1430.90538,680.101228 1386.1378,719.015625 1332.28128,719.015625 C1317.9691,719.015625 1304.2988,716.267446 1291.76927,711.270003 C1271.70242,734.771736 1241.85691,749.671875 1208.53128,749.671875 C1155.46439,749.671875 1111.22187,711.890223 1101.23548,661.758663 C1081.2947,682.817041 1053.07204,695.953125 1021.78128,695.953125 C977.373899,695.953125 939.14593,669.495921 922.000268,631.484409 C911.865743,681.425772 867.713301,719.015625 814.781278,719.015625 C800.469103,719.015625 786.798799,716.267446 774.269273,711.270003 C754.202418,734.771736 724.356905,749.671875 691.031278,749.671875 C637.964387,749.671875 593.721874,711.890223 583.735482,661.758663 C563.794705,682.817041 535.57204,695.953125 504.281278,695.953125 C460.134085,695.953125 422.094104,669.805043 404.80381,632.151353 C392.408046,637.025969 378.907303,639.703125 364.781278,639.703125 C333.490516,639.703125 305.267851,626.567041 285.327074,605.508663 C275.340682,655.640223 231.098169,693.421875 178.031278,693.421875 C144.705651,693.421875 114.860138,678.521736 94.7932828,655.020003 C82.2637572,660.017446 68.5934534,662.765625 54.2812781,662.765625 C34.5275192,662.765625 15.9965064,657.530427 0,648.37179 L2.80520187e-05,648.371806 Z" id="Path" fill="#1E1B45"></path>
            <path d="M2.80520187e-05,684.533392 L2.80520187e-05,578.907526 C14.234824,563.478236 34.6255371,553.814209 57.2734045,553.814209 C75.2428422,553.814209 91.7913403,559.897974 104.97153,570.118136 C119.203351,554.729995 139.56637,545.095459 162.179655,545.095459 C165.900119,545.095459 169.559671,545.356253 173.141029,545.860558 C187.471784,520.868684 214.41431,504.032959 245.28903,504.032959 C291.18907,504.032959 328.398405,541.242294 328.398405,587.142334 C328.398405,587.62679 328.394259,588.110277 328.386003,588.592763 C343.404115,567.059429 368.357494,552.970459 396.60153,552.970459 C398.402435,552.970459 400.189961,553.02774 401.962386,553.140578 C414.684732,517.626876 448.640188,492.220459 488.52963,492.220459 C539.300118,492.220459 580.457731,533.378072 580.457731,584.14856 C580.457731,585.903498 580.408555,587.64695 580.311506,589.377615 C591.762068,591.89245 602.268842,596.926057 611.22153,603.868136 C625.453351,588.479995 645.81637,578.845459 668.429655,578.845459 C672.150119,578.845459 675.809671,579.106253 679.391029,579.610558 C693.721784,554.618684 720.66431,537.782959 751.53903,537.782959 C797.43907,537.782959 834.648405,574.992294 834.648405,620.892334 C834.648405,621.37679 834.644259,621.860277 834.636003,622.342763 C849.654115,600.809429 874.607494,586.720459 902.85153,586.720459 C904.652435,586.720459 906.439961,586.77774 908.212386,586.890578 C920.934732,551.376876 954.890188,525.970459 994.77963,525.970459 C1035.01035,525.970459 1069.20511,551.813466 1081.66873,587.804302 C1107.20474,597.159545 1127.43418,617.519813 1136.6125,643.140578 C1138.38492,643.02774 1140.17245,642.970459 1141.97336,642.970459 C1170.21739,642.970459 1195.17077,657.059429 1210.18888,678.592763 C1210.18063,678.110277 1210.17648,677.62679 1210.17648,677.142334 C1210.17648,631.242294 1247.38582,594.032959 1293.28586,594.032959 C1324.16058,594.032959 1351.1031,610.868684 1365.43386,635.860558 C1369.01521,635.356253 1372.67477,635.095459 1376.39523,635.095459 C1399.00852,635.095459 1419.37153,644.729995 1433.60336,660.118136 C1435.65631,658.526235 1437.79099,657.034689 1440.00003,655.650857 L1440.00003,765.000012 L1318.38081,765 C1316.37636,762.765143 1314.49917,760.413805 1312.76062,757.957386 C1306.5139,759.457279 1299.99265,760.251709 1293.28586,760.251709 C1265.04182,760.251709 1240.08844,746.162739 1225.07033,724.629411 C1225.07859,725.111895 1225.08273,725.59538 1225.08273,726.079834 C1225.08273,740.142346 1221.59011,753.389112 1215.42499,765.000012 L1068.52129,765 C1068.39713,764.765359 1068.27363,764.530048 1068.15123,764.294076 C1066.83037,764.557909 1065.4993,764.793437 1064.15867,765.000001 L1035.93184,765 C1007.49895,760.619069 983.364265,743.209932 969.816647,719.061459 C954.685814,739.608024 930.325504,752.939209 902.85153,752.939209 C856.951489,752.939209 819.742155,715.729874 819.742155,669.829834 C819.742155,669.34538 819.7463,668.861895 819.754556,668.379411 C804.736444,689.912739 779.783065,704.001709 751.53903,704.001709 C744.832235,704.001709 738.310989,703.207279 732.064261,701.707386 C717.954438,721.643432 694.711899,734.657959 668.429655,734.657959 C650.460217,734.657959 633.911719,728.574194 620.73153,718.354032 C606.499708,733.742173 586.136689,743.376709 563.523405,743.376709 C524.08561,743.376709 491.49216,714.072586 486.329565,676.05085 C480.89794,675.923282 475.582875,675.324596 470.423654,674.294076 C456.588725,700.966064 428.723249,719.189209 396.60153,719.189209 C350.701489,719.189209 313.492155,681.979874 313.492155,636.079834 C313.492155,635.59538 313.4963,635.111895 313.504556,634.629411 C298.486444,656.162739 273.533065,670.251709 245.28903,670.251709 C238.582235,670.251709 232.060989,669.457279 225.814261,667.957386 C211.704438,687.893432 188.461899,700.907959 162.179655,700.907959 C144.210217,700.907959 127.661719,694.824194 114.48153,684.604032 C100.249708,699.992173 79.8866893,709.626709 57.2734045,709.626709 C34.6255371,709.626709 14.234824,699.962682 2.80520187e-05,684.533392 Z" id="Path" fill="#17152F"></path>
            <rect id="Rectangle" fill="#F7D768" x="223.875028" y="326.25" width="67.5" height="298.125"></rect>
            <path d="M2.80520187e-05,654.157597 C12.9962996,643.327593 29.7144349,636.8125 47.9542517,636.8125 C70.5838021,636.8125 90.8710949,646.840897 104.61443,662.695992 C113.980728,657.322392 124.835804,654.25 136.408475,654.25 C139.563746,654.25 142.665672,654.478393 145.698624,654.919548 C151.021608,646.175145 158.382642,638.807922 167.122052,633.477554 C168.877265,584.384769 209.228841,545.125 258.750028,545.125 C288.58469,545.125 315.091139,559.374771 331.834613,581.43955 C374.004474,588.992417 406.176445,625.377645 407.2237,669.468407 C422.371946,675.820336 434.559075,687.832979 441.139038,702.86028 C446.765907,701.241959 452.710861,700.375 458.858304,700.375 C459.195488,700.375 459.532063,700.377608 459.868009,700.382806 C465.238418,670.476799 491.389841,647.783447 522.841581,647.783447 C547.731976,647.783447 569.302845,661.996026 579.881424,682.748419 C588.541191,678.373141 598.33071,675.908447 608.69589,675.908447 C640.147629,675.908447 666.299052,698.601799 671.669462,728.507806 C672.005408,728.502608 672.341982,728.5 672.679166,728.5 C678.826609,728.5 684.771563,729.366959 690.398433,730.98528 C696.978395,715.957979 709.165525,703.945336 724.313771,697.593407 C725.361025,653.502645 757.532997,617.117417 799.702858,609.56455 C816.446332,587.499771 842.952781,573.25 872.787443,573.25 C922.308629,573.25 962.660205,612.509769 964.415419,661.602554 C973.154828,666.932922 980.515863,674.300145 985.838846,683.044548 C988.871798,682.603393 991.973725,682.375 995.128995,682.375 C1006.70167,682.375 1017.55674,685.447392 1026.92304,690.820992 C1040.66638,674.965897 1060.95367,664.9375 1083.58322,664.9375 C1087.49303,664.9375 1091.33293,665.236859 1095.08124,665.813906 C1098.82954,665.236859 1102.66944,664.9375 1106.57925,664.9375 C1129.2088,664.9375 1149.49609,674.965897 1163.23943,690.820992 C1172.60573,685.447392 1183.4608,682.375 1195.03348,682.375 C1198.18875,682.375 1201.29067,682.603393 1204.32362,683.044548 C1209.64661,674.300145 1217.00764,666.932922 1225.74705,661.602554 C1227.50227,612.509769 1267.85384,573.25 1317.37503,573.25 C1347.20969,573.25 1373.71614,587.499771 1390.45961,609.56455 C1409.73424,613.016748 1426.92017,622.492432 1440.00003,635.97423 L1440.00003,769 L2.80520187e-05,769 L2.80520187e-05,654.157597 Z" id="Path" fill="#F9F9F9"></path>
            <circle id="Oval" fill="#F9F9F9" cx="494.224943" cy="609.75" r="9.84375"></circle>
            <circle id="Oval" fill="#F9F9F9" cx="473.693693" cy="582.1875" r="3.375"></circle>
            <circle id="Oval" fill="#F9F9F9" cx="91.4749426" cy="556.03125" r="14.90625"></circle>
            <circle id="Oval" fill="#F9F9F9" cx="338.343778" cy="482.376709" r="9.84375"></circle>
            <circle id="Oval" fill="#F9F9F9" cx="60.8186926" cy="594.84375" r="5.0625"></circle>
            <g id="rocket" transform="translate(139.500028, 112.500000)">
                <g id="Group-2" transform="translate(157.500000, 84.375000)">
                    <g id="Rectangle-+-Rectangle-Mask">
                        <mask id="mask-2" fill="white">
                            <use xlink:href="#path-1"></use>
                        </mask>
                        <use id="Mask" fill="#7C7C7E" xlink:href="#path-1"></use>
                        <rect id="Rectangle" fill="#242121" mask="url(#mask-2)" x="-3.375" y="65.25" width="54" height="4.5"></rect>
                        <rect id="Rectangle" fill="#242121" mask="url(#mask-2)" x="-3.375" y="71.4375" width="54" height="4.5"></rect>
                    </g>
                    <rect id="Rectangle" fill="#242121" x="15.75" y="90" width="13.5" height="9"></rect>
                </g>
                <g id="Group-2" transform="translate(33.750000, 84.375000)">
                    <g id="Rectangle-+-Rectangle-Mask">
                        <mask id="mask-4" fill="white">
                            <use xlink:href="#path-3"></use>
                        </mask>
                        <use id="Mask" fill="#7C7C7E" xlink:href="#path-3"></use>
                        <rect id="Rectangle" fill="#242121" mask="url(#mask-4)" x="-3.375" y="65.25" width="54" height="4.5"></rect>
                        <rect id="Rectangle" fill="#242121" mask="url(#mask-4)" x="-3.375" y="71.4375" width="54" height="4.5"></rect>
                    </g>
                    <rect id="Rectangle" fill="#242121" x="15.75" y="90" width="13.5" height="9"></rect>
                </g>
                <g id="tank" transform="translate(73.125000, 0.000000)">
                    <mask id="mask-6" fill="white">
                        <use xlink:href="#path-5"></use>
                    </mask>
                    <use id="Mask" fill="#EF500B" xlink:href="#path-5"></use>
                    <rect id="Rectangle" fill="#242121" mask="url(#mask-6)" x="-3.9375" y="97.3125" width="96.75" height="3.9375"></rect>
                </g>
                <path d="M0,320.625 C39.375,331.875 78.75,337.5 118.125,337.5 C157.5,337.5 196.875,331.875 236.25,320.625 C235.447266,312.75 231.697266,305.25 225,298.125 C144.82595,298.125 79.3432617,298.125 11.25,298.125 C5.57226562,305.25 1.82226562,312.75 0,320.625 Z" id="Path-80" fill="#242121"></path>
                <g id="Group" transform="translate(2.733398, 48.937500)">
                    <g id="Rectangle">
                        <mask id="mask-8" fill="white">
                            <use xlink:href="#path-7"></use>
                        </mask>
                        <use id="Mask" fill="#FFFFFF" xlink:href="#path-7"></use>
                        <rect fill="#242121" mask="url(#mask-8)" x="76.0166016" y="-9.5625" width="84.375" height="50.625"></rect>
                        <rect fill="#EF500B" mask="url(#mask-8)" x="115.391602" y="85.1945801" width="2.25" height="174.375"></rect>
                    </g>
                    <rect id="Rectangle" fill="#EF500B" x="101.041479" y="57.9375" width="29.7" height="4.5"></rect>
                </g>
                <path d="M131.034485,339.979614 C135.445496,350.267761 157.699951,347.221802 159.898865,344.933899 C157.662048,309.51947 146.44147,302.448386 138.157296,301.026489 C132.00928,299.971243 125.769854,327.700502 131.034485,339.979614 Z" id="Path-81" fill="#EBEBEB"></path>
                <path d="M107.296284,339.979614 C102.885273,350.267761 80.6308174,347.221802 78.4319038,344.933899 C80.6687202,309.51947 91.8892982,302.448386 100.173472,301.026489 C106.321488,299.971243 112.560914,327.700502 107.296284,339.979614 Z" id="Path-81" fill="#EBEBEB"></path>
            </g>
        </g>
        <path d="M525.766352,231.40416 L524.04668,236.674707 L517.8863,234.664701 L511.789282,253.351185 L506.313389,251.564513 L512.410408,232.878029 L506.250028,230.868023 L507.9697,225.597476 L525.766352,231.40416 Z M538.343394,242.338577 C541.817944,243.410023 544.012669,246.799251 542.580537,251.443452 L539.323765,262.004708 L534.163542,260.413451 L537.18693,250.609028 C537.84465,248.476135 536.810635,247.064766 535.159363,246.555563 C533.267282,245.972102 531.620557,246.669832 530.867362,249.112337 L527.971274,258.503943 L522.811051,256.912686 L530.236917,232.831645 L535.39714,234.422902 L532.77687,242.920069 C534.098221,241.933641 536.072896,241.638424 538.343394,242.338577 Z M553.632599,245.858638 C551.940131,245.361398 550.940043,243.529193 551.437284,241.836725 C551.934524,240.144257 553.766729,239.144168 555.459197,239.641409 C557.151665,240.138649 558.151753,241.970854 557.654513,243.663322 C557.157273,245.35579 555.325067,246.355879 553.632599,245.858638 Z M545.521703,263.887405 L550.595586,246.617323 L555.77661,248.139488 L550.702728,265.409569 L545.521703,263.887405 Z M572.29476,252.286186 C575.797321,253.262181 578.083941,256.5901 576.779394,261.271741 L573.812757,271.918138 L568.610934,270.468641 L571.364978,260.585178 C571.964104,258.435091 570.891866,257.052536 569.227282,256.588697 C567.319947,256.057215 565.692926,256.799731 565.006831,259.261928 L562.368747,268.729245 L557.166924,267.279748 L561.99858,249.940339 L567.200403,251.389836 L566.746227,253.01974 C568.040098,251.997533 570.005958,251.648407 572.29476,252.286186 Z M596.809075,277.948666 L590.8838,276.417158 L587.29803,267.272882 L585.307071,274.97574 L580.078887,273.62441 L586.385093,249.226218 L591.613277,250.577548 L587.838562,265.181608 L595.039688,258.89979 L601.139236,260.476341 L592.543489,267.550368 L596.809075,277.948666 Z M621.159996,284.247525 C615.998188,283.080904 612.767358,278.106284 613.949851,272.874248 C615.132343,267.642211 620.188498,264.540533 625.350305,265.707153 C630.512113,266.873774 633.742943,271.848394 632.56045,277.08043 C631.377958,282.312467 626.321803,285.414145 621.159996,284.247525 Z M622.31868,279.120831 C624.601112,279.636684 626.72983,278.383119 627.2933,275.890001 C627.856769,273.396883 626.474053,271.349699 624.191621,270.833847 C621.909189,270.317994 619.780471,271.571559 619.217001,274.064677 C618.653532,276.557795 620.036248,278.604978 622.31868,279.120831 Z M649.60772,268.903551 C647.670044,268.318687 646.24165,268.648018 645.818457,270.692682 L649.096971,271.371249 L648.046286,276.447657 L644.767773,275.76909 L642.170247,288.319099 L636.882322,287.224636 L639.479848,274.674627 L637.117908,274.185767 L638.168593,269.109359 L640.530532,269.598219 C641.552031,264.662823 644.879399,262.263409 650.658405,263.827143 L649.60772,268.903551 Z M676.202539,276.391587 L681.522438,277.318236 L678.433609,295.051231 L673.11371,294.124583 L673.40406,292.457681 C672.217905,293.603126 670.296342,294.145427 667.955587,293.737702 C664.373521,293.113758 661.768237,290.028928 662.602221,285.241019 L664.498762,274.35296 L669.818661,275.279609 L668.058028,285.387416 C667.675014,287.586308 668.879035,288.85575 670.581403,289.152278 C672.532032,289.492049 674.077425,288.591888 674.516039,286.073803 L676.202539,276.391587 Z M691.842646,284.281048 C691.53883,286.310432 700.499768,286.268718 699.513697,292.855315 C698.900734,296.949686 695.079235,298.161233 691.234087,297.585581 C687.673764,297.052569 685.170463,295.294558 684.213676,292.202822 L689.236524,290.261098 C689.496822,291.683312 690.38178,292.580223 691.948322,292.814748 C693.230038,293.006632 693.929528,292.710939 694.03613,291.998874 C694.329286,290.040696 685.416319,289.761982 686.338428,283.602623 C686.919411,279.721871 690.488064,278.254064 694.1908,278.808396 C697.074662,279.240136 699.44621,280.90562 700.563107,283.657314 L695.638116,285.431682 C695.278254,284.431377 694.662131,283.683916 693.487225,283.508023 C692.561541,283.36944 691.938588,283.64019 691.842646,284.281048 Z M730.905914,283.990599 L736.274555,284.571717 L734.337495,302.467186 L728.968854,301.886068 L729.150938,300.203894 C727.82262,301.436103 725.97976,302.069463 723.581767,301.809897 C718.893154,301.302387 715.473257,296.768025 716.0505,291.435175 C716.627744,286.102325 720.938689,282.404772 725.627302,282.912282 C728.025295,283.171848 729.689946,284.184872 730.72383,285.672773 L730.905914,283.990599 Z M725.20562,296.843808 C727.675195,297.111122 729.646825,295.622654 729.937384,292.938333 C730.227943,290.254013 728.62048,288.378133 726.150905,288.110819 C723.681331,287.843505 721.7097,289.331973 721.419141,292.016293 C721.128582,294.700613 722.736045,296.576493 725.20562,296.843808 Z M746.957413,290.810359 C746.79588,292.855992 755.732086,292.189379 755.207813,298.828711 C754.881913,302.955864 751.154223,304.430999 747.278289,304.124937 C743.68946,303.841546 741.069639,302.262414 739.899543,299.24494 L744.774729,296.957615 C745.133588,298.358211 746.078948,299.191214 747.658033,299.315907 C748.950011,299.417927 749.627173,299.074167 749.683851,298.356401 C749.839716,296.382545 740.929015,296.726164 741.419281,290.51749 C741.728178,286.605667 745.185765,284.892531 748.918146,285.187258 C751.825097,285.416805 754.307033,286.912825 755.613133,289.579917 L750.823893,291.693468 C750.395139,290.720698 749.728384,290.018031 748.54407,289.924512 C747.610975,289.85083 747.008423,290.16437 746.957413,290.810359 Z M784.09243,287.628101 L789.849193,287.821175 L783.111399,305.065016 C780.904665,310.718224 777.626442,312.877552 772.597721,312.456754 L772.766661,307.419586 C775.285245,307.504056 776.499125,306.752323 777.364289,304.584104 L770.779915,287.181619 L776.716577,287.380726 L780.341079,298.52448 L784.09243,287.628101 Z M801.918941,306.371798 C796.626944,306.376879 792.374971,302.240959 792.369822,296.876961 C792.364672,291.512964 796.608696,287.368887 801.900693,287.363807 C807.192691,287.358727 811.444663,291.494646 811.449813,296.858644 C811.454962,302.222642 807.210939,306.366718 801.918941,306.371798 Z M801.913895,301.115801 C804.253894,301.113554 806.052269,299.419827 806.049815,296.863828 C806.047362,294.307829 804.245738,292.617558 801.905739,292.619804 C799.56574,292.622051 797.767365,294.315778 797.769819,296.871777 C797.772273,299.427776 799.573897,301.118047 801.913895,301.115801 Z M828.191624,287.322164 L833.587302,287.106152 L834.307342,305.091744 L828.911664,305.307756 L828.84398,303.617111 C827.926041,304.986927 826.162044,305.922239 823.787946,306.017284 C820.154856,306.162732 816.957648,303.696654 816.763237,298.840544 L816.321133,287.79739 L821.716811,287.581378 L822.127233,297.833166 C822.216518,300.063379 823.661157,301.05038 825.387774,300.981257 C827.366189,300.902052 828.687012,299.696251 828.584766,297.142297 L828.191624,287.322164 Z M845.31042,289.593254 C845.848416,287.134249 848.167722,285.805464 850.429398,285.636214 L850.886106,291.739149 C848.633464,291.546717 845.541461,292.680621 845.807426,296.234683 L846.414579,304.347997 L841.029636,304.750974 L839.686377,286.801165 L845.07132,286.398187 L845.31042,289.593254 Z M876.745031,282.509547 C880.348452,282.023895 883.762918,284.179144 884.412057,288.995597 L885.888246,299.948568 L880.536632,300.669833 L879.166228,290.501766 C878.868105,288.289765 877.337241,287.442649 875.624724,287.673454 C873.662465,287.937917 872.460593,289.262316 872.801992,291.795413 L874.114694,301.535351 L868.76308,302.256617 L865.397176,277.282416 L870.74879,276.561151 L871.936474,285.373476 C872.721852,283.923583 874.390321,282.826903 876.745031,282.509547 Z M891.648982,279.251716 C889.910348,279.54979 888.206164,278.344424 887.90809,276.60579 C887.610016,274.867156 888.815383,273.162972 890.554017,272.864898 C892.292651,272.566824 893.996835,273.77219 894.294909,275.510824 C894.592983,277.249458 893.387616,278.953642 891.648982,279.251716 Z M892.297038,299.010337 L889.255466,281.269174 L894.577815,280.356703 L897.619386,298.097865 L892.297038,299.010337 Z M911.787605,269.525461 L917.070366,268.406336 L922.292951,293.059218 L917.01019,294.178344 L916.659531,292.523079 C915.780836,294.107586 914.226733,295.28319 911.8671,295.783066 C907.253489,296.760435 902.591905,293.516089 901.480241,288.268547 C900.368576,283.021005 903.314168,278.165118 907.927779,277.187749 C910.287412,276.687873 912.184713,277.132315 913.630432,278.224407 L911.787605,269.525461 Z M911.864213,290.558228 C914.294283,290.04343 915.704544,288.015123 915.144981,285.373743 C914.585419,282.732363 912.473839,281.450139 910.043769,281.964937 C907.6137,282.479735 906.203439,284.508042 906.763001,287.149422 C907.322564,289.790802 909.434144,291.073025 911.864213,290.558228 Z M934.887731,263.816361 L940.100465,262.40661 L946.679304,286.732705 L941.466569,288.142456 L941.024847,286.509132 C940.235182,288.139837 938.748517,289.399642 936.420163,290.029331 C931.867708,291.260513 927.03373,288.279104 925.633377,283.101121 C924.233024,277.923138 926.905384,272.911687 931.457839,271.680505 C933.786194,271.050816 935.705182,271.389583 937.209121,272.399997 L934.887731,263.816361 Z M936.128145,284.812658 C938.526003,284.164173 939.821859,282.060932 939.116984,279.454565 C938.412108,276.848198 936.232808,275.684791 933.83495,276.333277 C931.437092,276.981762 930.141236,279.085003 930.846112,281.69137 C931.550987,284.297737 933.730287,285.461144 936.128145,284.812658 Z M955.563673,276.855109 C956.802632,278.416268 958.578454,278.509525 960.457615,277.885703 C961.858444,277.420672 962.872799,276.47703 963.306602,275.498521 L968.189202,276.494949 C967.286311,279.374044 965.154962,281.409198 961.909138,282.486707 C956.066655,284.426225 951.140645,281.699344 949.450656,276.608526 C947.760667,271.517708 950.146302,266.363594 955.544619,264.571525 C960.532938,262.915562 965.504597,265.551425 967.217271,270.710577 C967.455457,271.428075 967.613968,272.134091 967.692804,272.828624 L955.563673,276.855109 Z M954.190845,273.06248 L961.536657,270.623905 C960.332144,268.823719 958.556462,268.616621 957.018967,269.12702 C955.071472,269.773526 954.090725,271.161194 954.190845,273.06248 Z M978.522857,256.220776 C981.902808,254.880466 985.736254,256.148682 987.527757,260.666438 L991.601767,270.94015 L986.582038,272.930708 L982.799977,263.393224 C981.977213,261.318403 980.287242,260.865467 978.680929,261.502446 C976.840361,262.232317 975.993349,263.807468 976.935547,266.183473 L980.558364,275.319379 L975.538635,277.309938 L968.90344,260.577509 L973.923168,258.58695 L974.546877,260.159798 C974.959423,258.563298 976.314177,257.096622 978.522857,256.220776 Z M1013.60845,248.312143 L1010.16039,249.676022 L1012.50414,255.601324 C1013.07353,257.040804 1014.36512,256.684772 1016.52159,255.676925 L1018.32244,260.229699 C1012.02592,263.494568 1009.33652,262.274235 1007.4827,257.587556 L1005.13895,251.662254 L1002.46085,252.721577 L1000.55406,247.900992 L1003.23217,246.841669 L1001.97422,243.661422 L1006.39979,240.168758 L1008.25361,244.855437 L1011.70166,243.491558 L1013.60845,248.312143 Z M1025.54995,250.15926 C1026.84544,251.673841 1028.62349,251.701784 1030.47846,251.009336 C1031.86125,250.493147 1032.84025,249.512871 1033.23781,248.519083 L1038.15372,249.335432 C1037.35723,252.245759 1035.3021,254.357852 1032.09806,255.553899 C1026.33079,257.706783 1021.30791,255.162744 1019.432,250.13746 C1017.5561,245.112176 1019.75074,239.873885 1025.07956,237.884671 C1030.00367,236.046536 1035.06882,238.497941 1036.96991,243.590679 C1037.23429,244.29894 1037.41864,244.998655 1037.52294,245.689823 L1025.54995,250.15926 Z M1024.03869,246.419635 L1031.28994,243.712793 C1030.0201,241.958082 1028.23801,241.816369 1026.7203,242.382917 C1024.79788,243.100545 1023.86878,244.523312 1024.03869,246.419635 Z M1053.77326,247.742758 C1048.60149,249.530396 1043.40421,246.946516 1041.65185,241.876827 C1039.89949,236.807138 1042.3918,231.565324 1047.56357,229.777686 C1050.86397,228.636891 1054.3899,229.360727 1056.75854,231.47492 L1053.19512,235.601463 C1052.20507,234.61053 1050.7332,234.319398 1049.23611,234.836872 C1047.0245,235.601322 1045.94407,237.765003 1046.75556,240.112711 C1047.56706,242.460419 1049.753,243.495066 1051.96461,242.730616 C1053.4617,242.213142 1054.47364,241.063473 1054.60641,239.684434 L1059.94571,240.69563 C1059.39999,243.855274 1057.10768,246.590203 1053.77326,247.742758 Z M1070.46996,222.235 C1073.93785,221.142193 1077.66974,222.683844 1079.13042,227.319144 L1082.45212,237.860159 L1077.30179,239.48314 L1074.21812,229.697507 C1073.54729,227.568703 1071.89443,226.994947 1070.24632,227.514301 C1068.35787,228.109394 1067.39935,229.619287 1068.16756,232.057111 L1071.12139,241.430718 L1065.97106,243.053699 L1058.39714,219.01881 L1063.54748,217.395829 L1066.21999,225.876711 C1066.74671,224.314159 1068.20381,222.949112 1070.46996,222.235 Z M1093.81856,215.318679 C1097.32012,214.339126 1100.99995,216.001217 1102.30926,220.681529 L1105.28671,231.324906 L1100.08636,232.779688 L1097.32228,222.899029 C1096.72097,220.749553 1095.08762,220.122396 1093.42351,220.587926 C1091.51671,221.121346 1090.50965,222.599299 1091.19824,225.060796 L1093.84595,234.525427 L1088.6456,235.98021 L1083.79633,218.64572 L1088.99667,217.190938 L1089.4525,218.82038 C1090.02972,217.275767 1091.5304,215.958784 1093.81856,215.318679 Z M1109.40001,209.984247 C1107.68881,210.4126 1105.89857,209.339197 1105.47022,207.627996 C1105.04187,205.916795 1106.11527,204.126555 1107.82647,203.698202 C1109.53767,203.269848 1111.32791,204.343252 1111.75627,206.054453 C1112.18462,207.765654 1111.11122,209.555893 1109.40001,209.984247 Z M1111.53643,229.637715 L1107.16547,212.176479 L1112.40384,210.865193 L1116.7748,228.326429 L1111.53643,229.637715 Z M1131.86076,225.380543 C1126.51702,226.558322 1121.65328,223.390942 1120.49875,218.152665 C1119.34421,212.914388 1122.42578,207.995837 1127.76953,206.818057 C1131.17968,206.066448 1134.59829,207.193041 1136.70665,209.566882 L1132.69007,213.253815 C1131.82122,212.155072 1130.39288,211.695739 1128.846,212.036676 C1126.56085,212.540331 1125.23753,214.564604 1125.77218,216.990383 C1126.30683,219.416163 1128.35851,220.696575 1130.64367,220.192919 C1132.19054,219.851983 1133.3286,218.827006 1133.6199,217.472562 L1138.80651,219.094219 C1137.89918,222.169592 1135.30607,224.621186 1131.86076,225.380543 Z M1153.95703,202.271062 L1159.27696,201.344619 L1162.36511,219.077735 L1157.04517,220.004177 L1156.75489,218.337264 C1155.8192,219.888798 1154.22341,221.00716 1151.84717,221.420971 C1147.2011,222.230064 1142.66047,218.818486 1141.7402,213.534018 C1140.81994,208.249549 1143.94002,203.503894 1148.58609,202.694801 C1150.96233,202.28099 1152.84223,202.794075 1154.24732,203.937975 L1153.95703,202.271062 Z M1152.03413,216.199477 C1154.4813,215.773314 1155.96432,213.797587 1155.5011,211.137619 C1155.03788,208.477652 1152.97428,207.119553 1150.52711,207.545717 C1148.07994,207.971881 1146.59692,209.947608 1147.06014,212.607575 C1147.52336,215.267542 1149.58696,216.625641 1152.03413,216.199477 Z M1169.01025,218.011468 L1165.56021,191.958913 L1170.91347,191.25 L1174.36352,217.302555 L1169.01025,218.011468 Z M1202.42481,201.858025 L1198.72493,202.1033 L1199.14642,208.461344 C1199.24882,210.005954 1200.58743,210.06153 1202.9487,209.760679 L1203.27256,214.645956 C1196.27964,215.831116 1194.09163,213.847503 1193.75825,208.818542 L1193.33676,202.460497 L1190.46306,202.651002 L1190.12016,197.478356 L1192.99385,197.287851 L1192.76762,193.875341 L1198.04864,191.901692 L1198.38202,196.930654 L1202.0819,196.685378 L1202.42481,201.858025 Z M1213.50486,207.526307 C1214.20329,209.39297 1215.86425,210.028166 1217.84419,210.012879 C1219.32014,210.001483 1220.57566,209.415773 1221.28952,208.618237 L1225.62857,211.06881 C1223.88352,213.530357 1221.22933,214.810887 1217.80943,214.837291 C1211.65362,214.884819 1207.80577,210.774404 1207.76435,205.410564 C1207.72294,200.046724 1211.57886,195.87683 1217.26669,195.832915 C1222.52254,195.792336 1226.44183,199.830197 1226.4838,205.266035 C1226.48963,206.022012 1226.42319,206.742547 1226.28448,207.427638 L1213.50486,207.526307 Z M1213.36573,203.495261 L1221.1055,203.435504 C1220.5134,201.352013 1218.88761,200.608543 1217.26766,200.62105 C1215.21572,200.636893 1213.85554,201.655425 1213.36573,203.495261 Z M1246.59678,197.451761 L1251.98101,197.864213 L1250.60617,215.811631 L1245.22194,215.399179 L1245.35117,213.712122 C1244.06216,214.985386 1242.24007,215.676233 1239.83511,215.492004 C1235.13289,215.131796 1231.57246,210.706924 1231.98216,205.358594 C1232.39187,200.010263 1236.58472,196.179322 1241.28695,196.539531 C1243.6919,196.723759 1245.3875,197.684075 1246.46755,199.138818 L1246.59678,197.451761 Z M1241.30241,210.477428 C1243.77916,210.667156 1245.70313,209.117583 1245.90936,206.42547 C1246.11559,203.733357 1244.45008,201.908816 1241.97334,201.719088 C1239.49659,201.52936 1237.57262,203.078933 1237.36639,205.771046 C1237.16016,208.463158 1238.82567,210.2877 1241.30241,210.477428 Z M1280.70082,202.419183 C1284.75948,203.235787 1286.82416,206.66236 1285.93655,211.073952 L1283.75657,221.908821 L1278.46266,220.843684 L1280.55033,210.46762 C1280.90537,208.702984 1280.28558,207.403194 1278.59152,207.062351 C1276.82689,206.707305 1275.59016,207.743725 1275.17121,209.825997 L1273.16875,219.778548 L1267.87484,218.713411 L1269.96251,208.337347 C1270.31755,206.57271 1269.69776,205.272921 1268.0037,204.932077 C1266.23907,204.577032 1265.00234,205.613452 1264.58339,207.695723 L1262.58093,217.648274 L1257.28702,216.583138 L1260.83747,198.936771 L1266.13138,200.001907 L1265.80474,201.625373 C1266.85791,200.588741 1268.59541,199.98357 1270.96002,200.459331 C1273.04229,200.878285 1274.42475,202.037751 1275.11471,203.718871 C1276.38694,202.505987 1278.19503,201.915018 1280.70082,202.419183 Z" id="Thinkofusasyourhiddentechnicalteam" fill="#E9E7F2" fill-rule="nonzero"></path>
    </g>
</svg>