<?xml version="1.0" encoding="UTF-8"?>
<svg width="1440px" height="200px" viewBox="0 0 1440 200" version="1.1" xmlns="http://www.w3.org/2000/svg" xmlns:xlink="http://www.w3.org/1999/xlink">
    <!-- Generator: Sketch 53.2 (72643) - https://sketchapp.com -->
    <title>founder-top</title>
    <desc>Created with Sketch.</desc>
    <g id="founder-top" stroke="none" stroke-width="1" fill="none" fill-rule="evenodd">
        <rect id="Rectangle" fill="#FFFFFF" x="0" y="0" width="1440" height="116"></rect>
        <path d="M4.54747351e-13,75 C72,75 72,3 144,3 C216,3 216,75 288,75 C360,75 360,3 432,3 C504,3 504,75 576,75 C648,75 648,3 720,3 C792,3 792,75 864,75 C936,75 936,3 1008,3 C1080,3 1080,75 1152,75 C1224,75 1224,3 1296,3 C1368,3 1368,75 1440,75 C1440,131.671875 1440,173.338542 1440,200 L4.54747351e-13,200 C4.54747351e-13,189.211589 4.54747351e-13,147.544922 4.54747351e-13,75 Z" id="Path-85" fill="#352392"></path>
    </g>
</svg>