<?xml version="1.0" encoding="UTF-8"?>
<svg width="1771px" height="239px" viewBox="0 0 1771 239" version="1.1" xmlns="http://www.w3.org/2000/svg" xmlns:xlink="http://www.w3.org/1999/xlink">
    <!-- Generator: Sketch 53.2 (72643) - https://sketchapp.com -->
    <title>Logo</title>
    <desc>Created with Sketch.</desc>
    <g id="Main" stroke="none" stroke-width="1" fill="none" fill-rule="evenodd">
        <g id="CM_Long" transform="translate(0.000000, -30.000000)">
            <g id="Logo">
                <rect id="Bound" x="0" y="0" width="1800" height="300"></rect>
                <path d="M116.48,268.58 C48.96,268.58 0,218.02 0,152.1 C0,86.18 48.96,35.62 116.48,35.62 C157.12,35.62 192.96,55.78 212.48,87.46 L168.32,113.06 C158.4,95.78 139.2,85.54 116.48,85.54 C76.8,85.54 51.2,112.1 51.2,152.1 C51.2,192.1 76.8,218.66 116.48,218.66 C139.2,218.66 158.72,208.42 168.32,191.14 L212.48,216.74 C193.28,248.42 157.44,268.58 116.48,268.58 Z M326.84,99.62 C359.16,99.62 386.68,122.66 386.68,165.86 L386.68,264.1 L338.68,264.1 L338.68,172.9 C338.68,153.06 326.2,143.78 310.84,143.78 C293.24,143.78 281.08,154.02 281.08,176.74 L281.08,264.1 L233.08,264.1 L233.08,40.1 L281.08,40.1 L281.08,119.14 C289.72,107.3 305.72,99.62 326.84,99.62 Z M414.64,264.1 L414.64,30.5 L462.64,30.5 L462.64,264.1 L414.64,264.1 Z M569.64,268.58 C522.6,268.58 484.84,231.78 484.84,184.1 C484.84,136.42 522.6,99.62 569.64,99.62 C616.68,99.62 654.44,136.42 654.44,184.1 C654.44,231.78 616.68,268.58 569.64,268.58 Z M569.64,221.86 C590.44,221.86 606.44,206.82 606.44,184.1 C606.44,161.38 590.44,146.34 569.64,146.34 C548.84,146.34 532.84,161.38 532.84,184.1 C532.84,206.82 548.84,221.86 569.64,221.86 Z M723.04,38.5 L780.64,38.5 L806.24,83.3 L760.16,83.3 L723.04,38.5 Z M719.52,203.3 C725.6,219.94 740.32,225.7 757.92,225.7 C771.04,225.7 782.24,220.58 788.64,213.54 L827.04,235.62 C811.36,257.38 787.68,268.58 757.28,268.58 C702.56,268.58 668.64,231.78 668.64,184.1 C668.64,136.42 703.2,99.62 753.76,99.62 C800.48,99.62 835.04,135.78 835.04,184.1 C835.04,190.82 834.4,197.22 833.12,203.3 L719.52,203.3 Z M718.56,167.46 L787.36,167.46 C782.24,148.9 767.84,142.18 753.44,142.18 C735.2,142.18 723.04,151.14 718.56,167.46 Z" id="Chloé" fill="#EF500B" fill-rule="nonzero"></path>
                <path d="M1339.84,34.82 L1339.84,258.82 L1288.64,258.82 L1288.64,128.58 L1230.72,223.62 L1224.96,223.62 L1167.04,128.58 L1167.04,258.82 L1115.84,258.82 L1115.84,34.82 L1167.04,34.82 L1227.84,134.34 L1288.64,34.82 L1339.84,34.82 Z M1487.8,98.82 L1535.8,98.82 L1535.8,258.82 L1487.8,258.82 L1487.8,243.78 C1477.24,255.94 1461.56,263.3 1440.12,263.3 C1398.2,263.3 1363.64,226.5 1363.64,178.82 C1363.64,131.14 1398.2,94.34 1440.12,94.34 C1461.56,94.34 1477.24,101.7 1487.8,113.86 L1487.8,98.82 Z M1449.72,217.86 C1471.8,217.86 1487.8,202.82 1487.8,178.82 C1487.8,154.82 1471.8,139.78 1449.72,139.78 C1427.64,139.78 1411.64,154.82 1411.64,178.82 C1411.64,202.82 1427.64,217.86 1449.72,217.86 Z M1659.76,144.9 L1626.8,144.9 L1626.8,201.54 C1626.8,215.3 1638.64,216.58 1659.76,215.3 L1659.76,258.82 C1597.04,265.22 1578.8,246.34 1578.8,201.54 L1578.8,144.9 L1553.2,144.9 L1553.2,98.82 L1578.8,98.82 L1578.8,68.42 L1626.8,54.02 L1626.8,98.82 L1659.76,98.82 L1659.76,144.9 Z M1770.92,144.9 L1737.96,144.9 L1737.96,201.54 C1737.96,215.3 1749.8,216.58 1770.92,215.3 L1770.92,258.82 C1708.2,265.22 1689.96,246.34 1689.96,201.54 L1689.96,144.9 L1664.36,144.9 L1664.36,98.82 L1689.96,98.82 L1689.96,68.42 L1737.96,54.02 L1737.96,98.82 L1770.92,98.82 L1770.92,144.9 Z" id="Matt" fill="#EF500B" fill-rule="nonzero"></path>
                <path d="M1065.84,254.98 L1050.8,263.62 L1024.88,236.42 C1009.84,253.7 987.76,264.58 958,264.58 C913.84,264.58 885.04,240.26 885.04,201.54 C885.04,173.7 900.4,149.06 929.52,136.26 C919.28,124.42 911.6,111.3 911.6,92.42 C911.6,55.62 941.68,33.54 974.96,33.54 C1003.12,33.54 1027.76,49.22 1037.36,75.78 L1023.28,84.1 C1016.56,62.98 998,49.86 975.28,49.86 C948.72,49.86 928.88,67.14 928.88,91.78 C928.88,110.02 939.44,122.82 953.2,136.9 L1023.28,210.18 C1029.68,198.34 1034.48,183.3 1036.72,165.7 L1051.76,174.34 C1048.88,191.94 1043.44,208.58 1035.12,222.66 L1065.84,254.98 Z M957.36,248.26 C980.08,248.26 999.28,240.26 1013.36,224.26 L941.36,148.74 C913.2,159.3 902.32,180.74 902.32,201.22 C902.32,230.66 923.76,248.26 957.36,248.26 Z" id="&amp;" fill="#2A2A2D" fill-rule="nonzero"></path>
            </g>
        </g>
    </g>
</svg>