<?xml version="1.0" encoding="UTF-8"?>
<svg width="1440px" height="800px" viewBox="0 0 1440 800" version="1.1" xmlns="http://www.w3.org/2000/svg" xmlns:xlink="http://www.w3.org/1999/xlink">
    <!-- Generator: Sketch 53.2 (72643) - https://sketchapp.com -->
    <title>part-2</title>
    <desc>Created with Sketch.</desc>
    <g id="part-2" stroke="none" stroke-width="1" fill="none" fill-rule="evenodd">
        <path d="M701.464802,247.97545 C640.714802,358.151231 808.429646,310.680664 808.429646,444.799669 C808.429646,469.869981 784.68698,507.178575 731.847615,507.178575 C652.402302,507.178575 662.390583,410.737169 737.23824,432.584825 C856.95846,467.530558 817.596597,574.331858 744.246052,587.530137 C678.835896,599.299669 641.216841,636.202476 628.496052,682.264512 C613.953083,734.924669 710.217406,777.709825 710.636677,776.991075" id="Path-39" stroke="#BAB1EC" stroke-width="4" stroke-linecap="round" stroke-linejoin="bevel"></path>
        <path d="M1577.00579,82.2806525 C1539.77903,-61.3334146 1397.25691,0.418878214 1309.515,79.428222 C1221.77308,158.437566 1048.42123,190.931672 1240.18827,391.689844 C1310.17895,464.962083 1409.73206,572.988892 1501.03249,553.713613 C1503.00621,553.296924 1552.17369,496.915562 1597.62303,446.438951 C1716.95409,313.908383 1624.63997,266.044647 1577.00579,82.2806525 Z" id="blob" fill="#F2F1FA" transform="translate(1404.798778, 275.969262) rotate(157.000000) translate(-1404.798778, -275.969262) "></path>
        <path d="M224.189561,309.347281 C186.962801,165.733214 44.4406781,227.485507 -43.3012345,306.494851 C-131.043147,385.504194 -304.394997,417.998301 -112.627955,618.756473 C-42.6372767,692.028712 56.9158326,800.055521 148.216263,780.780242 C150.189979,780.363552 199.357458,723.98219 244.806803,673.505579 C364.137862,540.975011 271.823739,493.111276 224.189561,309.347281 Z" id="blob" fill="#F2F1FA" transform="translate(51.982548, 503.035891) rotate(-20.000000) translate(-51.982548, -503.035891) "></path>
    </g>
</svg>