<?xml version="1.0" encoding="UTF-8"?>
<svg width="1440px" height="1200px" viewBox="0 0 1440 1200" version="1.1" xmlns="http://www.w3.org/2000/svg" xmlns:xlink="http://www.w3.org/1999/xlink">
    <!-- Generator: Sketch 53.2 (72643) - https://sketchapp.com -->
    <title>part-1</title>
    <desc>Created with Sketch.</desc>
    <g id="part-1" stroke="none" stroke-width="1" fill="none" fill-rule="evenodd">
        <path d="M728.080184,290 C705.009871,361.09375 619.978621,437 728.080184,512 C839.516287,589.313477 854.978621,646.6875 780.541121,735 C744.891403,777.294754 648.61534,735.179688 663.80284,680 C678.99034,624.820313 730.931752,635.020073 803.548934,680 C904.728621,742.671875 849.408126,842.632812 716.218276,870 C642.814512,885.08264 475.388778,988.105469 689.252059,1180" id="Path-10" stroke="#FAA27B" stroke-width="4" stroke-linecap="round" stroke-linejoin="bevel"></path>
        <path d="M1578.21673,547.843153 C1540.98997,404.229085 1398.46785,465.981378 1310.72593,544.990722 C1222.98402,624.000066 1049.63217,656.494172 1241.39921,857.252344 C1311.38989,930.524583 1410.943,1038.55139 1502.24343,1019.27611 C1504.21715,1018.85942 1553.38463,962.478062 1598.83397,912.001451 C1718.16503,779.470883 1625.85091,731.607147 1578.21673,547.843153 Z" id="blob" fill="#F2F1FA" transform="translate(1406.009715, 741.531762) rotate(-20.000000) translate(-1406.009715, -741.531762) "></path>
        <path d="M295.00579,271.280653 C257.779031,127.666585 115.256908,189.418878 27.5149952,268.428222 C-60.2269174,347.437566 -233.578767,379.931672 -41.8117252,580.689844 C28.178953,653.962083 127.732062,761.988892 219.032493,742.713613 C221.006208,742.296924 270.173688,685.915562 315.623032,635.438951 C434.954092,502.908383 342.639968,455.044647 295.00579,271.280653 Z" id="blob" fill="#F2F1FA" transform="translate(122.798778, 464.969262) rotate(157.000000) translate(-122.798778, -464.969262) "></path>
    </g>
</svg>