<?xml version="1.0" encoding="UTF-8"?>
<svg width="950px" height="800px" viewBox="0 0 950 800" version="1.1" xmlns="http://www.w3.org/2000/svg" xmlns:xlink="http://www.w3.org/1999/xlink">
    <!-- Generator: Sketch 53.2 (72643) - https://sketchapp.com -->
    <title>Artboard Copy</title>
    <desc>Created with Sketch.</desc>
    <defs>
        <rect id="path-1" x="0" y="0" width="950" height="800"></rect>
        <rect id="path-3" x="0" y="0" width="544.22069" height="337.943548" rx="5"></rect>
        <path d="M6.51691934,10.0009715 L20.733529,15.503084 C20.3447267,14.4897509 20.3447267,13.4986723 20.733529,12.5298483 C21.6370641,10.2784042 24.228748,-2.63969445 30.6140196,0.540968642 C49.6052441,10.0009715 63.2113571,16.6310831 74.1663218,24.0819467 C77.921247,26.6358057 74.9538113,32.9640056 68.6580492,32.0010232 C51.3029557,29.3464361 44.7446288,27.6982284 39.0654171,27.6982284 C34.6443594,27.6982284 18.4125799,32.013166 2.58425899,30.6923594 C-0.285606273,22.575248 0.422569876,19.9057725 0.422569876,19.4655037 C0.422569876,19.1719911 2.4540197,16.0171471 6.51691934,10.0009715 Z" id="path-5"></path>
        <path d="M37.4084986,0.539743485 C38.3097424,12.6935191 38.0294713,18.9050738 36.5676856,19.1744077 C17.1256718,22.7565976 14.6682017,26.5448153 1.10942819,30.1905869 C-1.13326977,30.7936182 0.000529812889,37.8657273 5.52170992,37.8657273 C20.4356117,37.8657273 37.2241459,37.8657325 55.8873125,37.8657428 L55.8873125,0.483088168 L37.4084986,0.539743485 Z" id="path-7"></path>
        <path d="M56.6752402,2.61050915 C41.1725263,22.2269791 33.6114276,26.8889273 24.6740372,30.2465721 C20.3786643,31.86028 15.2404049,31.1689587 12.6912607,31.86028 C9.40654029,32.7510876 5.30069603,34.3011919 0.373727925,36.5105929 L3.08675283,45.4402043 L11.3512363,43.180611 C8.46600339,52.5463126 7.31450835,58.5486578 7.89675114,61.1876467 C8.97015767,66.0528128 9.66796495,80.0069263 12.6912607,83.3632433 C17.5382877,88.7441786 17.5382877,76.45345 21.829608,68.1615149 C28.7255877,54.8367075 26.447746,47.8444258 30.3788841,45.6118408 C56.3607648,30.8561247 78.6811821,18.7271333 97.3401361,9.22486668 L75.7733368,1.53747778 C65.0768787,-0.322936955 58.7108465,0.0347401673 56.6752402,2.61050915 Z" id="path-9"></path>
        <path d="M0.646899264,23.9785713 C-0.470003655,17.3526058 1.09479097,9.35974867 5.34128313,-2.25099939e-11 L26.9587912,2.25635875 C23.8152365,24.067024 22.6604274,44.6919752 23.4943638,64.1312123 C23.686629,68.6129554 27.4111795,68.28387 35.5540225,73.8665493 C42.7028329,78.7677264 63.4953823,87.3791095 54.8891781,91.0694304 C50.5978151,92.9095572 31.5274783,92.0137537 29.8052477,90.2354166 C27.116522,87.4590982 22.3016504,84.8976607 15.3606329,82.5511044 L15.3606329,91.0694304 L5.34128313,91.0694304 C4.1735061,84.8981937 3.58961758,80.1026142 3.58961758,76.6826919 C3.58961758,73.113082 4.59006075,68.6633165 5.34128313,64.1312123 C6.9043529,54.7012548 4.84044487,48.8565514 0.646899264,23.9785713 Z" id="path-11"></path>
    </defs>
    <g id="Artboard-Copy" stroke="none" stroke-width="1" fill="none" fill-rule="evenodd">
        <mask id="mask-2" fill="white">
            <use xlink:href="#path-1"></use>
        </mask>
        <g id="Mask"></g>
        <g id="Group-12" mask="url(#mask-2)">
            <g transform="translate(20.500000, -37.000000)">
                <path d="M697.104592,157.885024 C648.852879,-28.2613078 464.121878,51.7793388 350.394612,154.187827 C236.667347,256.596315 11.9761899,298.713768 260.536321,558.927813 C351.255206,653.900115 480.291633,793.919784 598.631295,768.936002 C601.18954,768.395908 664.918296,695.316829 723.827768,629.891233 C878.499517,458.110853 758.84595,396.071952 697.104592,157.885024 Z" id="blob" fill="#8C95D0" opacity="0.4" transform="translate(473.897323, 408.935808) rotate(-255.000000) translate(-473.897323, -408.935808) "></path>
                <g id="Leaves" stroke-width="1" fill="none" transform="translate(0.000000, 311.283784)">
                    <g id="Group-3" transform="translate(755.731848, 185.546740) rotate(47.000000) translate(-755.731848, -185.546740) translate(670.577805, 56.119720)">
                        <path d="M19.4300564,230.314702 C19.4300564,187.549993 1.58797621e-15,195.744713 0,160.062899 C0,131.202928 27.6697481,137.352805 48.1455019,107.14032 C59.1982184,90.8317619 46.4664549,83.6574551 59.7346454,67.0208131 C72.3707276,51.1767554 79.6989345,64.4854856 101.657788,47.558363 C105.008479,30.7151447 115.460561,14.8661957 133.014033,0.0115159433 C147.968913,-0.233682369 158.280251,3.4367047 163.948045,11.0226772 C170.91336,20.3452952 173.819261,41.8900655 163.948045,47.558363 C137.788212,62.579991 133.014033,56.1977327 133.014033,74.7894693 C133.014033,93.3986285 158.713172,122.327889 143.751306,127.797377 C120.402645,136.332759 106.371472,147.087933 101.657788,160.062899 C118.961522,181.556943 123.506066,195.813082 115.291421,202.831318 C94.3766605,220.699981 84.146624,234.72987 59.7346454,235.608814 C50.5403482,235.939852 19.4300564,244.808319 19.4300564,230.314702 Z" id="Path-17" fill="#5F6BBF"></path>
                        <path d="M17.7408245,246.804644 C62.0756021,109.722318 100.144084,81.7754422 138.047083,41.2665862 C91.5132179,97.6134911 53.4974454,170.142643 23.9997654,258.854041 C18.2982342,255.548452 16.2119206,251.531987 17.7408245,246.804644 Z" id="Path-18" fill="#3240AB"></path>
                    </g>
                    <g id="Group-4" transform="translate(137.147867, 257.147867) rotate(-315.000000) translate(-137.147867, -257.147867) translate(75.626884, 179.866805)">
                        <path d="M109.759247,9.5462627 C115.990171,11.7650864 131.79518,20.6707681 116.714845,33.0285021 C92.7652335,33.0285021 95.1291887,72.3313033 60.5565908,78.8772026 C56.5139707,82.9605597 70.1352961,87.0228457 68.6852788,104.309118 C68.1139861,111.119742 60.5565908,127.070995 56.5139707,127.070995 C52.4713505,127.070995 46.0252772,159.512738 26.0274407,153.912314 C6.02960417,148.31189 27.2487098,131.834313 13.11752,120.478116 C5.75640968,114.562533 5.75640968,105.059495 13.11752,91.9690013 C8.96759694,87.4445529 8.96759694,81.4839478 13.11752,74.087186 C-13.1427242,52.8286731 5.35648487,22.777113 22.3422775,6.93494999 C34.0942485,-4.02577741 46.832353,-1.99388641 60.5565908,13.030623 C78.7928931,5.52097223 95.1937786,4.3595188 109.759247,9.5462627 Z" id="Path-21" fill="#8C95D0"></path>
                        <path d="M52.4322007,5.25211098 C57.3268599,9.4996897 55.1605566,9.4996897 60.7707267,13.5372906 C21.2897907,41.8090622 37.6461418,37.7672937 32.4884464,125.300362 C28.9409802,105.290705 1.04763165,32.5316244 52.4322007,5.25211098 Z" id="Path-18" fill="#5F6BBF"></path>
                    </g>
                    <g id="Group-2" transform="translate(122.757614, 143.507563) rotate(-24.000000) translate(-122.757614, -143.507563) translate(42.757614, 23.007563)">
                        <path d="M141.134239,213.368976 C141.134239,226.793723 112.089603,218.579285 103.505787,218.272661 C80.7147107,217.458537 71.1639263,204.463319 51.6378601,187.912429 C43.9686499,181.411772 48.2114463,168.20699 64.3662494,148.298083 C59.9655439,136.27999 46.8660108,126.317986 25.0676501,118.412069 C11.0992191,113.345943 35.0919914,86.5501487 35.0919914,69.3133722 C35.0919914,52.0927334 30.6348075,58.0043148 6.21192969,44.0904974 C-3.00385825,38.8402238 -0.290903092,18.8843307 6.21192969,10.2492343 C11.5033951,3.22270985 21.1300823,-0.176994617 35.0919914,0.0501208838 C51.4799511,13.8093022 61.2380371,28.4894277 64.3662494,44.0904974 C84.8670832,59.7692836 91.7087132,47.4420417 103.505787,62.1176365 C115.892999,77.5273644 104.006596,84.1725826 114.325437,99.2784224 C133.441645,127.262806 159.274182,121.566468 159.274182,148.298083 C159.274182,181.348445 141.134239,173.758067 141.134239,213.368976 Z" id="Path-17" fill="#EF500B"></path>
                        <path d="M142.666817,229.346193 C144.084447,233.734881 142.149975,237.463616 136.863402,240.5324 C109.512567,158.176079 74.2635868,90.8427452 31.1164619,38.5324004 C66.260876,76.1392969 101.558729,102.084125 142.666817,229.346193 Z" id="Path-18" fill="#F4733B"></path>
                    </g>
                </g>
                <g id="iMac" stroke-width="1" fill="none" transform="translate(153.000000, 195.283784)">
                    <path d="M334.477241,468.964443 L345.746664,486.908382 C346.914198,488.767408 346.354918,491.221726 344.497479,492.390257 C343.86422,492.788646 343.131445,493 342.383474,493 L233.616526,493 C231.422623,493 229.644112,491.219971 229.644112,489.024194 C229.644112,488.275583 229.855286,487.542183 230.253336,486.908382 L243.111724,466.434384 L243.111724,385.653226 L334.477241,385.653226 L334.477241,468.964443 Z" id="Path" fill="#BDBDD7"></path>
                    <path d="M20,0 L556,0 C567.045695,-2.02906125e-15 576,8.954305 576,20 L576,369.75 L0,369.75 L0,20 C-1.3527075e-15,8.954305 8.954305,2.02906125e-15 20,0 Z" id="Rectangle" fill="#383A87"></path>
                    <rect id="Rectangle" fill="#FFFFFF" x="15.8896552" y="15.9032258" width="544.22069" height="337.943548" rx="5"></rect>
                    <path d="M0,369.75 L576,369.75 L576,413.362903 C576,424.408598 567.045695,433.362903 556,433.362903 L20,433.362903 C8.954305,433.362903 1.3527075e-15,424.408598 0,413.362903 L0,369.75 Z" id="Rectangle" fill="#9091BD"></path>
                    <ellipse id="Oval" fill="#383A87" cx="288.397241" cy="401.556452" rx="15.8896552" ry="15.9032258"></ellipse>
                    <g id="Group-8" transform="translate(15.889655, 15.903226)">
                        <g id="Group-5">
                            <mask id="mask-4" fill="white">
                                <use xlink:href="#path-3"></use>
                            </mask>
                            <use id="Mask" fill="#FFFFFF" xlink:href="#path-3"></use>
                            <g mask="url(#mask-4)" id="Rectangle">
                                <g transform="translate(-7.944828, 0.000000)">
                                    <rect fill="#D7DAEF" x="179.553103" y="19.083871" width="380.557241" height="326.81129"></rect>
                                    <rect fill="#8C95D0" x="0" y="0" width="560.110345" height="24.65"></rect>
                                </g>
                            </g>
                        </g>
                        <g id="Group-6" transform="translate(23.834483, 55.661290)">
                            <ellipse id="Oval" fill="#5D43E6" cx="7.94482759" cy="7.9516129" rx="7.94482759" ry="7.9516129"></ellipse>
                            <rect id="Rectangle" fill="#BAB1EC" x="24.6289655" y="3.97580645" width="99.3103448" height="7.9516129" rx="3.97580645"></rect>
                        </g>
                        <g id="Group-6" transform="translate(23.834483, 103.370968)">
                            <ellipse id="Oval" fill="#5D43E6" cx="7.94482759" cy="7.9516129" rx="7.94482759" ry="7.9516129"></ellipse>
                            <rect id="Rectangle" fill="#BAB1EC" x="24.6289655" y="3.97580645" width="99.3103448" height="7.9516129" rx="3.97580645"></rect>
                        </g>
                        <rect id="Rectangle" fill="#BAB1EC" opacity="0.2" x="0" y="151.080645" width="171.608276" height="55.6612903"></rect>
                        <g id="Group-6" transform="translate(23.834483, 170.959677)">
                            <ellipse id="Oval" fill="#EC7D50" cx="7.94482759" cy="7.9516129" rx="7.94482759" ry="7.9516129"></ellipse>
                            <rect id="Rectangle" fill="#F7C7B3" x="24.6289655" y="3.97580645" width="99.3103448" height="7.9516129" rx="3.97580645"></rect>
                        </g>
                        <rect id="Rectangle" fill="#BBBFE4" x="266.946207" y="56.4564516" width="63.5586207" height="23.8548387" rx="10"></rect>
                        <rect id="Rectangle" fill="#BBBFE4" x="330.504828" y="56.4564516" width="63.5586207" height="23.8548387" rx="10"></rect>
                        <rect id="Rectangle" fill="#BBBFE4" x="394.063448" y="56.4564516" width="63.5586207" height="23.8548387" rx="10"></rect>
                        <rect id="Rectangle" fill="#BBBFE4" x="457.622069" y="56.4564516" width="63.5586207" height="23.8548387" rx="10"></rect>
                        <path d="M265.395997,72.3596774 L521.18069,72.3596774 L521.18069,222.645161 L203.387586,222.645161 L203.387586,66.4564516 C203.387586,60.9336041 207.864739,56.4564516 213.387586,56.4564516 L255.395997,56.4564516 C260.918844,56.4564516 265.395997,60.9336041 265.395997,66.4564516 L265.395997,72.3596774 Z" id="Path" fill="#FFFFFF"></path>
                        <path d="M215.304828,64.8056452 L255.028966,64.8056452" id="Line" stroke="#9091BD" stroke-width="4" stroke-linecap="round"></path>
                        <path d="M223.249655,96.6120968 L282.835862,96.6120968" id="Line" stroke="#9091BD" stroke-width="12" opacity="0.6" stroke-linecap="round"></path>
                        <g id="Group-7" transform="translate(222.455172, 114.503226)" stroke-linecap="round">
                            <path d="M0.794482759,-2.13162821e-14 L0.794482759,87.4677419" id="Line-2" stroke="#9091BD"></path>
                            <path d="M0.794482759,87.4677419 L159.691034,87.4677419" id="Line-5" stroke="#9091BD"></path>
                            <path d="M9.6506288,80.7989478 C21.2275254,62.1696027 30.5855325,52.8549301 37.7246501,52.8549301 C48.4333266,52.8549301 48.2130171,58.2573196 65.3764326,52.8549301 C82.5398481,47.4525406 83.3047797,37.0262506 93.9935544,37.0262506 C104.682329,37.0262506 106.669674,58.7860257 116.273793,61.466589 C125.877913,64.1471522 128.196375,76.9620725 138.359255,76.403818 C145.134508,76.0316484 151.216437,70.3140971 156.60504,59.251164" id="Path-34" stroke="#5F6BBF" stroke-width="2"></path>
                        </g>
                        <path d="M402.008276,114.900806 L497.346207,114.900806" id="Line-6" stroke="#BBBFE4" stroke-width="4" stroke-linecap="round"></path>
                        <path d="M402.008276,124.442742 L497.346207,124.442742" id="Line-6" stroke="#BBBFE4" stroke-width="4" stroke-linecap="round"></path>
                        <path d="M402.008276,134.779839 L497.346207,134.779839" id="Line-6" stroke="#BBBFE4" stroke-width="4" stroke-linecap="round"></path>
                        <path d="M402.008276,144.321774 L497.346207,144.321774" id="Line-6" stroke="#BBBFE4" stroke-width="4" stroke-linecap="round"></path>
                    </g>
                </g>
                <g id="man" stroke-width="1" fill="none" transform="translate(424.000000, 412.283784)">
                    <path d="M144.937378,112.499296 C142.415224,109.287506 139.591069,106.662378 136.464914,104.62391 C133.971743,102.998192 135.355317,99.3356385 131.887589,94.615646 C130.414865,92.6110919 126.545829,86.1514579 122.668625,81.7531151 C120.98401,79.8420695 115.726133,81.3280418 116.631698,83.2464393 C118.687816,87.6022287 120.484416,91.5352909 122.021498,95.0456259 C114.156496,96.0660271 111.040019,98.2282395 112.672069,101.532263 C113.427361,103.061324 124.838584,105.625902 128.065951,111.532429 C132.160123,119.025332 135.685363,124.682131 138.64167,128.502826 L144.937378,112.499296 Z" id="Path-84" fill="#F5D7B5" transform="translate(128.594375, 104.683626) scale(-1, 1) rotate(104.000000) translate(-128.594375, -104.683626) "></path>
                    <polygon id="Path-38" fill="#E85720" points="164.369133 133.209296 132.159125 112.026643 136.927697 97.5832194 187.963801 116.789404"></polygon>
                    <polygon id="Path-76" fill="#FFFFFF" transform="translate(139.019703, 110.879506) rotate(-21.000000) translate(-139.019703, -110.879506) " points="128.513287 113.720817 141.494699 96.7559518 149.526119 102.688248 136.797263 125.003061"></polygon>
                    <g id="Group-11">
                        <path d="M87.0708426,134.2009 C84.5522635,130.994339 81.7299061,128.375206 78.6037704,126.343503 C76.1106153,124.723179 78.6037704,117.122225 75.1416482,112.409378 C73.6713044,110.407858 74.8539592,104.788343 73.7450776,100.304958 C73.0280482,97.405894 70.6836735,98.0499881 70.3193876,100.304958 C69.4851413,105.469035 68.7158395,110.178443 68.0114821,114.43318 C64.1567009,112.444993 62.2293103,110.993631 62.2293103,110.079096 C62.2293103,107.274313 64.5088796,103.049912 69.0680181,97.405894 C69.3355402,95.5732639 68.262636,95.2549389 65.8493057,96.4509189 C62.2293103,98.2448889 56.1422276,103.441763 54.7828698,105.871921 C53.2764744,108.564943 52.34244,118.353912 54.7828698,123.305139 C55.5358035,124.832716 66.9580259,127.371897 70.1767383,133.271994 C74.2599328,140.756739 77.7775249,146.406399 80.7295146,150.220973 L87.0708426,134.2009 Z" id="Path-84" fill="#F5D7B5"></path>
                        <g id="Group-10" transform="translate(70.462442, 63.690144) rotate(-19.000000) translate(-70.462442, -63.690144) translate(11.962442, 17.190144)">
                            <rect id="Rectangle" fill="#BDBDD7" x="0" y="0" width="116.051282" height="92.9343545" rx="5"></rect>
                            <g id="Group-9" transform="translate(31.000000, 29.389497)" fill="#9091BD">
                                <polygon id="Path-26" points="0 34.1553611 54.0512821 34.1553611 37.1414621 9.72429615 27.349551 22.0112327 14.1829865 0"></polygon>
                                <ellipse id="Oval" cx="27.025641" cy="6.35448578" rx="4.76923077" ry="4.76586433"></ellipse>
                            </g>
                        </g>
                        <path d="M87.0708426,134.2009 C84.5522635,130.994339 81.7299061,128.375206 78.6037704,126.343503 C76.1106153,124.723179 78.6037704,117.122225 75.1416482,112.409378 C73.6713044,110.407858 74.8539592,104.788343 73.7450776,100.304958 C73.0280482,97.405894 70.6836735,98.0499881 70.3193876,100.304958 C69.4851413,105.469035 68.7158395,110.178443 68.0114821,114.43318 C67.309178,123.058991 68.0309301,129.338596 70.1767383,133.271994 C74.2599328,140.756739 77.7775249,146.406399 80.7295146,150.220973 L87.0708426,134.2009 Z" id="Path-84" fill="#F5D7B5"></path>
                    </g>
                    <path d="M156.507933,108.538178 L156.507933,95.2064801 C147.111481,99.6852617 140.399502,101.261311 136.371996,99.9346277 C132.168499,98.5499717 129.194553,93.079479 127.450159,83.5231495 C124.853924,83.0374123 123.555807,82.3216333 123.555807,81.3758124 C123.555807,78.7925066 126.596064,77.5498106 126.596064,72.9444968 C126.596064,65.6413981 127.226114,58.1926883 128.486212,50.5983674 L161.610219,51.9742006 L169.483271,78.1020951 L184.433635,97.8885017 L156.507933,108.538178 Z" id="Path-71" fill="#F5D7B5"></path>
                    <path d="M153.688131,57.2270639 C147.73887,54.1459672 139.090151,53.6723358 127.741972,55.8061698 C122.29312,47.4354664 120.795461,41.738053 123.248996,38.7139294 C128.564725,32.1619866 137.93329,29.595186 156.137386,29.595186 C163.777013,29.595186 165.214978,31.6626119 169.196868,36.9842268 C169.968346,38.0152715 170.333398,41.0645217 170.292025,46.1319773 C179.841468,47.2219747 185.146582,50.7910819 186.207367,56.8392991 C187.819338,66.0301857 184.656386,77.1179718 175.055713,85.3622539 C168.778494,85.3622539 163.030396,85.3622539 157.934469,78.8173835 C160.555996,78.8173835 163.030396,76.2037694 163.030396,72.9530991 C163.030396,70.7862929 160.599474,67.9824303 157.934469,67.9824303 C154.598853,67.9824303 153.2043,71.9671519 150.967628,71.5119024 C149.364031,71.1855084 151.146058,68.4355347 150.253931,66.4191433 C149.650805,65.0559555 148.690827,64.0460931 147.373996,63.3895562 C147.300166,60.2746398 149.404877,58.2204757 153.688131,57.2270639 Z" id="Path-73" fill="#2A2A2D"></path>
                    <polygon id="Path-75" fill="#FFFFFF" points="152.545249 115.780655 155.448258 105.988394 181.5473 91.8804827 190.231523 101.672408"></polygon>
                    <g id="Group-4" transform="translate(183.708899, 230.936029)">
                        <g id="Path-83" transform="translate(110.895926, 97.915324)">
                            <mask id="mask-6" fill="white">
                                <use xlink:href="#path-5"></use>
                            </mask>
                            <use id="Mask" fill="#F5D7B5" xlink:href="#path-5"></use>
                            <path d="M20.8800482,15.503084 C29.509984,18.3469158 35.6043334,19.6677224 39.1630966,19.4655037 C39.3724836,19.4536057 38.9562733,20.3197855 39.1630966,20.3016 C39.1630966,22.3737525 39.1630966,25.688671 39.1630966,30.2463554 L74.8500781,34.1987849 L79.8943733,24.972127 L26.5592599,-3.42847659 L19.0602372,13.896003 L20.8800482,15.503084 Z" fill="#3240AB" mask="url(#mask-6)"></path>
                        </g>
                        <path d="M63.6434825,4.86606597 C65.5977797,16.3655306 64.2543331,30.6119222 59.6131427,47.6052405 C53.5323203,69.8696471 53.5323203,90.032309 54.8985158,96.4680575 C74.2606391,95.3659546 92.6620708,97.5662706 110.102811,103.069005 L110.102811,128.607684 C80.7103747,128.314171 53.7678291,128.167415 29.2751738,128.167415 C12.5181902,128.167415 2.84509148,98.8190041 0.255877739,40.1221827 L35.3567825,0.494763865 L63.6434825,4.86606597 Z" id="Path-81" fill="#2A2A2D"></path>
                        <path d="M98.2906714,108.165194 C97.1322263,111.28692 97.1322263,114.643931 98.2906714,118.236226 C104.239328,120.933652 113.696841,121.496174 126.66321,119.923791 C127.926162,113.827005 127.926162,110.209699 126.66321,109.071874 C118.671746,110.120513 109.214233,109.818286 98.2906714,108.165194 Z" id="Path-78" fill="#43444A" transform="translate(112.516131, 114.478772) rotate(-90.000000) translate(-112.516131, -114.478772) "></path>
                        <path d="M157.167327,125.455594 C154.838592,127.556987 154.838592,129.258139 157.167327,130.55905 C158.32718,131.206984 159.727607,129.505832 161.368606,125.455594 L165.569885,132.114109" id="Path-82" stroke="#3240AB" stroke-width="1.82358771" stroke-linecap="round"></path>
                    </g>
                    <g id="Group-3" transform="translate(57.604827, 219.348067)">
                        <g id="Path-80" transform="translate(0.000000, 103.630749)">
                            <mask id="mask-8" fill="white">
                                <use xlink:href="#path-7"></use>
                            </mask>
                            <use id="Mask" fill="#F5D7B5" xlink:href="#path-7"></use>
                            <path d="M32.154874,16.1923046 C32.154874,20.5684999 33.3819207,24.3666953 35.836014,27.5868906 C40.9879145,23.2154666 48.0941182,21.5941587 57.154625,22.7229671 L57.154625,40.0585116 L-0.548356339,40.0585116 L-4.08326793,30.1905869 L16.9916291,22.7229671 L32.154874,16.1923046 Z" fill="#3240AB" mask="url(#mask-8)"></path>
                        </g>
                        <path d="M117.445742,2.63079805 C79.7601116,1.00298633 52.7876907,3.48315124 36.5284794,10.0712928 C29.1216952,13.0724803 29.1216952,43.8991368 36.5284794,102.551262 C50.9856633,104.469266 59.6237326,103.28175 62.4426874,98.9887141 C67.0584173,80.956473 69.3662822,65.4742345 69.3662822,52.5419987 C97.547383,55.8536982 122.990057,57.5095479 145.694306,57.5095479 C164.918273,57.5095479 180.341171,43.7732252 191.962998,16.3005798 L122.900696,0.286385288 L117.445742,2.63079805 Z" id="Path-77" fill="#35353A"></path>
                        <path d="M34.4388974,95.0987295 C33.1938371,98.1982669 33.1938371,101.531416 34.4388974,105.098177 C40.8323261,107.776429 50.996963,108.334952 64.932808,106.773747 C66.2901886,100.720296 66.2901886,97.1287022 64.932808,95.9989651 C56.3438346,97.0401506 46.1791978,96.740072 34.4388974,95.0987295 Z" id="Path-78" fill="#43444A"></path>
                        <path d="M30.0705901,125.035901 C30.0478205,116.846351 27.9269795,113.404363 23.7080671,114.709937 C19.6694801,115.959707 20.9046505,119.840967 27.4135785,126.353716 L14.6514456,125.035901" id="Path-79" stroke="#3240AB" stroke-width="1.82358771" stroke-linecap="round"></path>
                    </g>
                    <path d="M154.390861,110.3889 C146.918376,113.196611 135.991281,129.829603 121.609576,160.287877 L86.8603954,134.269723 C84.1254373,138.379112 80.8962055,142.78166 77.1726998,147.477367 C93.2342982,173.641945 103.024953,180.409029 123.196418,192.132964 C131.729658,197.092601 144.930312,184.973387 156.488252,165.585472 C188.201736,188.338444 172.548789,217.895208 170.958763,222.493128 C183.293672,238.902753 198.352325,241.266362 216.161994,235.664036 C224.3513,233.087954 235.282287,234.167526 248.954955,238.902753 C251.737994,202.386091 246.280462,167.508414 232.582357,134.269723 C222.740753,110.3889 202.594762,93.2794635 185.379387,98.6729187 C171.805376,102.92556 166.176611,105.960525 154.390861,110.3889 Z" id="Path-74" fill="#E85720"></path>
                    <polygon id="Path-76" fill="#FFFFFF" points="73.5490196 149.435119 86.5658739 132.43835 94.566365 138.341251 81.7844814 160.684008"></polygon>
                </g>
                <g id="woman" stroke-width="1" fill="none" transform="translate(153.000000, 381.283784)">
                    <g id="Path-72" transform="translate(0.000000, 271.122951)">
                        <mask id="mask-10" fill="white">
                            <use xlink:href="#path-9"></use>
                        </mask>
                        <use id="Mask" fill="#EFBC83" xlink:href="#path-9"></use>
                        <path d="M19.0656202,28.2152808 C21.1760837,33.4289312 22.2313155,37.359598 22.2313155,40.0072809 C22.2313155,45.6118408 18.7143542,48.6645112 17.9619237,57.2291634 C17.7359071,59.8018304 19.1590377,63.6167784 22.2313155,68.6740075 L25.1806684,72.8725798 L16.602913,86.1817156 L9.53156099,86.1817156 L-7.40460942,35.4863681 L19.0656202,28.2152808 Z" fill="#261966" mask="url(#mask-10)"></path>
                    </g>
                    <g id="Path-72" transform="translate(138.239264, 295.770492)">
                        <mask id="mask-12" fill="white">
                            <use xlink:href="#path-11"></use>
                        </mask>
                        <use id="Mask" fill="#EFBC83" xlink:href="#path-11"></use>
                        <path d="M1.59771581,71.021663 C7.16173275,70.3292008 11.2180915,70.3255339 13.766792,71.0106624 C19.1618279,72.4609279 21.1917047,76.653014 29.2417671,79.5971185 C31.6598606,80.4814744 35.6998801,80.0919736 41.3618256,78.4286162 L46.1654549,76.6619808 L60.6733653,87.3791095 L57.6323901,94.791439 L1.59771581,94.3905913 L1.59771581,71.021663 Z" fill="#261966" mask="url(#mask-12)"></path>
                    </g>
                    <path d="M122.349693,75.5327869 C117.590476,78.7306112 113.929399,81.7789546 111.366463,84.677817 C93.5098217,104.874943 84.5391746,120.684872 81.9906593,127.800898 C81.0119584,130.533651 84.5409269,147.034444 92.5775648,177.303279 L103.148558,165.12089 C98.6359865,143.868546 97.1309121,132.374922 98.6333343,130.640016 C101.269572,127.595851 107.869356,121.969023 118.432687,113.759533 L122.349693,75.5327869 Z" id="Path-70" fill="#EFBC83"></path>
                    <path d="M131.740861,73.5749506 C129.111701,73.7480007 124.947836,73.5655282 122.136606,75.6189337 C119.456498,77.5765636 118.108368,81.6177401 116.391104,87.882832 C110.484971,109.430171 117.727588,110.366646 113.733631,137.471597 C111.710627,151.200693 102.319436,156.835226 86.9752141,177.359987 C75.9521712,192.104645 83.8999809,208.392854 88.6973152,238.102895 C89.3191181,241.95374 86.7567066,249.320364 82.8894646,253.296409 C75.4815821,260.912708 63.2180024,260.5994 54.8190184,275.353975 C75.4815821,276.690452 90.1231514,276.416704 105.737734,295.858108 C125.960947,321.037623 161.205151,303.699971 167.140713,300.405171 C162.694779,234.177033 157.662536,225.188869 148.001047,196.424569 C141.597545,177.359987 150.911529,151.814737 165.053439,135.830309 C170.998977,129.110139 180.191133,123.340962 177.472321,108.326655 C175.074417,95.0845183 172.630949,83.5006169 170.141918,73.5749506 C161.077244,73.3286396 154.716312,73.1925044 151.059123,73.1665452 C144.219825,73.1179988 138.457138,73.1328885 131.740861,73.5749506 Z" id="Path-67" fill="#383A87"></path>
                    <path d="M135.959325,61.4729938 C133.563403,66.9334858 131.472609,72.2233375 129.686944,77.3425488 C127.833494,82.6560871 128.313865,87.5809715 133.669866,88.6048137 C144.210591,90.6197573 148.380202,85.5038889 151.27313,78.8783122 C151.819225,77.6276099 150.67457,75.164288 151.27313,73.942623 C152.725161,70.9790167 155.26602,66.8224737 158.895706,61.4729938 L138.934329,58.8360656 L135.959325,61.4729938 Z" id="Path-68" fill="#EFBC83"></path>
                    <path d="M165.401616,19.5681448 C169.907442,28.0900033 174.359459,34.7573675 178.757669,39.5702375 L176.473674,41.9156205 C178.659368,51.6987085 178.02136,57.4785269 174.559651,59.2550756 C165.594121,63.8561848 155.613929,63.9927638 144.619073,59.6648127 C139.128664,52.0810031 136.383459,48.2890984 136.383459,48.2890984 C136.383459,48.2890984 134.353799,39.3992794 130.294479,21.6196415 C137.183893,16.2671851 143.112118,13.5909569 148.079154,13.5909569 C155.529708,13.5909569 161.60975,12.3965961 165.401616,19.5681448 Z" id="Path-65" fill="#EFBC83"></path>
                    <path d="M148.494471,24.2008359 C155.014891,29.6584544 164.043319,31.7088156 175.579755,30.3519196 C169.508416,15.7301261 159.881494,7.78597735 146.698988,6.51947354 C125.597314,4.4921388 119.455199,22.4601234 117.659679,27.0265901 C114.037705,36.2381984 113.134963,59.232179 116.50887,67.7710125 C119.882777,76.3098461 134.228635,79.0479994 159.395402,81.0983607 C154.785496,69.587104 151.774686,59.5061611 150.362974,50.8555322 C146.368899,51.6998378 143.539472,50.5037938 141.874691,47.2674 C139.305845,42.2734722 142.955982,35.3742034 149.480236,42.8618264 C151.75897,37.2539005 148.494471,33.4274615 148.494471,24.2008359 Z" id="Path-66" fill="#2A2A2D"></path>
                    <ellipse id="Oval" fill="#FFFFFF" cx="150.156442" cy="50.8852459" rx="2.38343558" ry="2.3852459"></ellipse>
                    <g id="Group-2" transform="translate(158.895706, 0.000000)">
                        <path d="M9.68603216,74.9665922 C25.3103701,71.9067312 31.1021444,73.3432298 49.6748831,70.785102 C60.0444216,69.3568472 72.7210536,45.8979136 79.2177278,38.6362222 C82.1182132,35.3941894 81.5526999,34.6560125 81.5526999,28.048725 C81.5526999,21.4414374 81.9831446,21.9723677 82.1724165,17.5805045 C82.2742385,15.2178276 84.6015629,12.7704535 89.1543897,10.2383822 C87.7063032,17.217058 87.3207572,20.4866701 87.9977518,20.0472186 C90.9811195,18.1106513 92.4552497,15.0572263 92.1457377,13.6129945 C91.1646654,9.03515568 88.9673526,6.2449749 89.8107656,6.2449749 C90.6541785,6.2449749 93.7924131,7.55129247 97.4012331,13.6129945 C98.3444969,15.197386 99.1326987,20.2486694 98.448392,28.048725 C98.2053527,30.8190035 91.307063,36.208354 88.4955201,45.3879367 C83.4509925,61.8581311 79.6025256,73.2015267 72.3125644,79.0464067 C63.4834847,86.1253074 48.2703066,97.4370513 3.91716774,100.804904 C3.13591901,100.864226 1.31449731,99.9012523 0.79827469,98.1745215 C-1.33295656,91.0456928 0.594030088,85.7930605 9.68603216,74.9665922 Z" id="Path-69" fill="#EFBC83"></path>
                        <g id="Group" transform="translate(88.973619, 13.415983) rotate(39.000000) translate(-88.973619, -13.415983) translate(85.973619, -1.084017)">
                            <polygon id="Rectangle" fill="#141416" points="0 5.09976817 2.58335755 0 5.10736196 5.09976817 5.10736196 25.4988409 0 25.4988409"></polygon>
                            <rect id="Rectangle" fill="#FAAB3F" x="0" y="24.9888641" width="5.10736196" height="3.0598609"></rect>
                        </g>
                        <path d="M9.68603216,74.9665922 C25.3103701,71.9067312 31.1021444,73.3432298 49.6748831,70.785102 C60.0444216,69.3568472 72.7210536,45.8979136 79.2177278,38.6362222 C82.1182132,35.3941894 81.6295099,29.694197 81.6295099,28.5587018 C81.6295099,27.4232065 86.9822599,20.7063959 87.9977518,20.0472186 C90.9811195,18.1106513 92.4552497,15.0572263 92.1457377,13.6129945 C91.1646654,9.03515568 88.9673526,6.2449749 89.8107656,6.2449749 C90.6541785,6.2449749 93.7924131,7.55129247 97.4012331,13.6129945 C98.3444969,15.197386 99.1326987,20.2486694 98.448392,28.048725 C98.2053527,30.8190035 91.307063,36.208354 88.4955201,45.3879367 C83.4509925,61.8581311 79.6025256,73.2015267 72.3125644,79.0464067 C63.4834847,86.1253074 48.2703066,97.4370513 3.91716774,100.804904 C3.13591901,100.864226 4.13611651,98.1584391 3.91716774,97.4180227 C1.80589204,90.2783473 0.594030088,85.7930605 9.68603216,74.9665922 Z" id="Path-69" fill="#EFBC83"></path>
                    </g>
                </g>
            </g>
        </g>
    </g>
</svg>