<?xml version="1.0" encoding="UTF-8"?>
<svg width="950px" height="800px" viewBox="0 0 950 800" version="1.1" xmlns="http://www.w3.org/2000/svg" xmlns:xlink="http://www.w3.org/1999/xlink">
    <!-- Generator: Sketch 53.2 (72643) - https://sketchapp.com -->
    <title>Artboard</title>
    <desc>Created with Sketch.</desc>
    <defs>
        <rect id="path-1" x="-5.68434189e-14" y="0" width="950" height="800"></rect>
        <path d="M16.903082,1.33740257 C14.9997056,8.18648354 12.9040813,13.4620963 10.616209,17.1642409 C7.18440071,22.7174578 2.21850079,22.7174578 0.326431647,28.8522132 C-1.5656375,34.9869687 7.18440071,38.1752166 9.54058208,44.5673744 C11.8967634,50.9595322 7.24594206,57.5319474 16.903082,61.9740365 C22.8790025,64.7228391 28.550195,65.8144157 33.9166596,65.2487661 C36.3107875,62.1672017 34.9467426,59.2477055 29.824525,56.4902774 C24.7023074,53.7328493 22.5680501,50.7032648 23.421753,47.4015238 C23.421753,34.1564263 23.421753,27.5338775 23.421753,27.5338775 C23.421753,27.5338775 26.4860754,20.5358936 32.6147202,6.53992579 L16.903082,1.33740257 Z" id="path-3"></path>
        <path d="M5.92379397,0.920073784 C7.98186825,9.23860096 7.9562708,15.1132742 5.84700163,18.5440934 C2.68309788,23.6903223 1.16206668,24.8177207 1.16206668,30.9903316 C1.16206668,36.4382033 9.49977984,38.4108555 11.533417,43.9565566 C13.7056627,49.8802415 11.826424,53.9649569 21.0653003,55.4846141 C28.068247,56.6364943 32.5160645,56.6364943 34.4087528,55.4846141 C38.4464878,52.8518653 38.572667,50.8240849 34.7872904,49.4012731 C25.0496508,45.7411804 20.3789386,39.9213527 20.7751536,31.9417899 L22.0671297,6.6847336 C25.1364792,5.50594617 24.5183552,4.08776202 20.2127577,2.43018117 C15.9071602,0.772600313 11.1441723,0.269231185 5.92379397,0.920073784 Z" id="path-5"></path>
        <path d="M49.5699048,0.0439629825 C37.9367075,4.2448702 31.4821466,8.683666 30.2062223,13.3603504 C25.9217459,29.0643721 36.674273,61.5745533 25.1907206,84.0982547 C15.7158198,102.682211 7.25982901,115.792634 0.419260642,152.038648 C7.25982901,160.435578 39.1389817,164.704847 46.2510687,157.400666 C53.3631557,150.096486 42.8307845,118.894955 46.2510687,104.968948 C49.6713529,91.0429405 63.820957,82.511191 63.820957,46.0321736 C63.820957,21.7128286 59.0706062,6.38342506 49.5699048,0.0439629825 Z" id="path-7"></path>
        <path d="M33.612729,20.5016973 C15.0940774,25.3629773 5.09984695,31.9353835 2.65051337,33.4822075 C0.201179794,35.0290315 0.0700994973,38.580448 4.98575423,38.580448 C8.26285738,38.580448 20.1882395,38.580448 40.7619005,38.580448 C48.8298373,38.4782975 53.0856345,36.778884 53.5292921,33.4822075 C53.9729497,30.185531 53.359215,25.579163 51.6880879,19.6631034 L51.6880879,0.745758727 L34.7372505,0.745758727 C34.8374621,7.6692446 34.4626216,14.2545574 33.612729,20.5016973 Z" id="path-9"></path>
        <path d="M0.511404891,0.36782362 C6.30579457,57.1699509 15.270184,109.060925 27.4045732,156.040745 C33.7971988,159.457157 41.6937415,160.1983 51.0942013,158.264173 L49.5669264,0.36782362 L0.511404891,0.36782362 Z" id="path-11"></path>
        <path d="M21.2743702,6.96571476 C25.3286174,11.7883562 27.0315175,15.4113212 26.3830706,17.8346097 C25.4104002,21.4695423 19.0596755,26.4858841 15.5555659,28.8332686 C12.0514563,31.1806532 0.0471840615,32.3963951 0.0471840615,35.4768813 C0.0471840615,38.5573675 5.01645839,42.0468931 18.9373412,40.1858296 C32.858224,38.3247661 40.7311283,32.7744035 43.6929539,31.1223478 C46.6547795,29.4702922 51.0854352,25.0136656 48.9437193,20.4186072 C47.5159087,17.355235 44.7547863,14.617367 40.6603522,12.2050032 L35.621915,0.250808815 L21.2743702,6.96571476 Z" id="path-13"></path>
    </defs>
    <g id="Artboard" stroke="none" stroke-width="1" fill="none" fill-rule="evenodd">
        <mask id="mask-2" fill="white">
            <use xlink:href="#path-1"></use>
        </mask>
        <g id="Mask"></g>
        <g id="Group-5" mask="url(#mask-2)">
            <g transform="translate(-10.000000, -69.000000)">
                <path d="M709.026618,236.885024 C660.774906,50.7386922 476.043904,130.779339 362.316639,233.187827 C248.589373,335.596315 23.8982163,377.713768 272.458347,637.927813 C363.177232,732.900115 492.213659,872.919784 610.553321,847.936002 C613.111566,847.395908 676.840323,774.316829 735.749794,708.891233 C890.421543,537.110853 770.767976,475.071952 709.026618,236.885024 Z" id="blob" fill="#8C95D0" opacity="0.4" transform="translate(485.819350, 487.935808) rotate(-42.000000) translate(-485.819350, -487.935808) "></path>
                <g id="Leaves" stroke-width="1" fill="none" transform="translate(171.824941, 455.401002)">
                    <g id="Group-3" transform="translate(580.217423, 207.751470) rotate(47.000000) translate(-580.217423, -207.751470) translate(495.063380, 78.324450)">
                        <path d="M19.4300564,230.314702 C19.4300564,187.549993 1.58797621e-15,195.744713 0,160.062899 C0,131.202928 27.6697481,137.352805 48.1455019,107.14032 C59.1982184,90.8317619 46.4664549,83.6574551 59.7346454,67.0208131 C72.3707276,51.1767554 79.6989345,64.4854856 101.657788,47.558363 C105.008479,30.7151447 115.460561,14.8661957 133.014033,0.0115159433 C147.968913,-0.233682369 158.280251,3.4367047 163.948045,11.0226772 C170.91336,20.3452952 173.819261,41.8900655 163.948045,47.558363 C137.788212,62.579991 133.014033,56.1977327 133.014033,74.7894693 C133.014033,93.3986285 158.713172,122.327889 143.751306,127.797377 C120.402645,136.332759 106.371472,147.087933 101.657788,160.062899 C118.961522,181.556943 123.506066,195.813082 115.291421,202.831318 C94.3766605,220.699981 84.146624,234.72987 59.7346454,235.608814 C50.5403482,235.939852 19.4300564,244.808319 19.4300564,230.314702 Z" id="Path-17" fill="#5F6BBF"></path>
                        <path d="M17.7408245,246.804644 C62.0756021,109.722318 100.144084,81.7754422 138.047083,41.2665862 C91.5132179,97.6134911 53.4974454,170.142643 23.9997654,258.854041 C18.2982342,255.548452 16.2119206,251.531987 17.7408245,246.804644 Z" id="Path-18" fill="#3240AB"></path>
                    </g>
                    <g id="Group-4" transform="translate(120.652216, 254.213242) rotate(-315.000000) translate(-120.652216, -254.213242) translate(59.131233, 176.932180)">
                        <path d="M109.759247,9.5462627 C115.990171,11.7650864 131.79518,20.6707681 116.714845,33.0285021 C92.7652335,33.0285021 95.1291887,72.3313033 60.5565908,78.8772026 C56.5139707,82.9605597 70.1352961,87.0228457 68.6852788,104.309118 C68.1139861,111.119742 60.5565908,127.070995 56.5139707,127.070995 C52.4713505,127.070995 46.0252772,159.512738 26.0274407,153.912314 C6.02960417,148.31189 27.2487098,131.834313 13.11752,120.478116 C5.75640968,114.562533 5.75640968,105.059495 13.11752,91.9690013 C8.96759694,87.4445529 8.96759694,81.4839478 13.11752,74.087186 C-13.1427242,52.8286731 5.35648487,22.777113 22.3422775,6.93494999 C34.0942485,-4.02577741 46.832353,-1.99388641 60.5565908,13.030623 C78.7928931,5.52097223 95.1937786,4.3595188 109.759247,9.5462627 Z" id="Path-21" fill="#8C95D0"></path>
                        <path d="M52.4322007,5.25211098 C57.3268599,9.4996897 55.1605566,9.4996897 60.7707267,13.5372906 C21.2897907,41.8090622 37.6461418,37.7672937 32.4884464,125.300362 C28.9409802,105.290705 1.04763165,32.5316244 52.4322007,5.25211098 Z" id="Path-18" fill="#5F6BBF"></path>
                    </g>
                    <g id="Group-2" transform="translate(143.052696, 167.668954) rotate(-24.000000) translate(-143.052696, -167.668954) translate(49.645839, 26.237108)">
                        <path d="M165.50057,250.593983 C165.50057,266.363768 131.375184,256.71443 121.289809,256.354245 C94.5119121,255.397909 83.2904183,240.132684 60.3486763,220.690679 C51.3378986,213.054486 56.3228833,197.543089 75.3036304,174.156488 C70.1331138,160.039071 54.7420921,148.336901 29.1305653,139.049977 C12.7186503,133.098898 40.9084549,101.622407 40.9084549,81.3747056 C40.9084549,61.1459607 35.6715802,68.0901789 6.97643207,51.7458919 C-3.8514647,45.578499 -0.663934928,22.1367048 6.97643207,11.9932274 C13.1935284,3.73930763 24.5042026,-0.254258175 40.9084549,0.0125299257 C60.1631444,16.1751689 71.6282029,33.4196229 75.3036304,51.7458919 C99.3906551,70.1634529 107.429085,55.6828848 121.289809,72.9220168 C135.843904,91.0235203 121.878225,98.829527 134.00213,116.574059 C156.462318,149.446763 186.813715,142.755387 186.813715,174.156488 C186.813715,212.980096 165.50057,204.063829 165.50057,250.593983 Z" id="Path-17" fill="#EF500B"></path>
                        <path d="M168.277454,269.734003 C169.948803,274.885177 167.668112,279.261739 161.435382,282.863691 C129.189471,186.198857 87.6318567,107.167092 36.7625384,45.7683957 C78.1968725,89.9090801 119.812107,120.361538 168.277454,269.734003 Z" id="Path-18" fill="#F4733B"></path>
                    </g>
                </g>
                <g id="iPhone" stroke-width="1" fill="none" transform="translate(379.645821, 192.045152)">
                    <rect id="Rectangle" stroke="#383A87" stroke-width="7.5" fill="#F9FAFC" x="3.75" y="3.75" width="288.851075" height="566.4807" rx="34.5"></rect>
                    <path d="M84.778915,551.096502 L212.322416,551.096502" id="Line-4" stroke="#7C7C7E" stroke-width="3" stroke-linecap="round"></path>
                    <path d="M81.0276356,3.75150784 L211.496393,3.75150784 L200.450982,16.2288115 C199.027459,17.8368752 196.982873,18.7575392 194.835249,18.7575392 L99.9463003,18.7575392 C98.0358307,18.7575392 96.1973738,18.0284656 94.8061496,16.7191187 L81.0276356,3.75150784 Z" id="Rectangle" fill="#383A87"></path>
                    <path d="M120.040942,11.6296743 L172.558854,11.6296743" id="Line-3" stroke="#151223" stroke-width="2.25" stroke-linecap="round"></path>
                    <ellipse id="Oval" fill="#151223" cx="108.787103" cy="11.2545235" rx="3.75127943" ry="3.75150784"></ellipse>
                    <ellipse id="Oval" fill="#151223" cx="183.812692" cy="11.2545235" rx="3.75127943" ry="3.75150784"></ellipse>
                    <rect id="Rectangle" fill="#BDBDD7" opacity="0.5" x="22.5076766" y="58.5235223" width="76.5261003" height="76.53076" rx="7.5"></rect>
                    <rect id="Rectangle" fill="#BDBDD7" opacity="0.5" x="108.787103" y="58.5235223" width="97.5332651" height="18.7575392" rx="3.75"></rect>
                    <polygon id="Star" fill="#BDBDD7" opacity="0.5" points="115.208925 93.4125452 111.240021 95.4992487 111.998014 91.0795399 108.787103 87.9494848 113.224473 87.3046579 115.208925 83.2834741 117.193377 87.3046579 121.630747 87.9494848 118.419836 91.0795399 119.177829 95.4992487"></polygon>
                    <polygon id="Star" fill="#BDBDD7" opacity="0.5" points="131.714555 93.4125452 127.74565 95.4992487 128.503644 91.0795399 125.292733 87.9494848 129.730103 87.3046579 131.714555 83.2834741 133.699007 87.3046579 138.136376 87.9494848 134.925465 91.0795399 135.683459 95.4992487"></polygon>
                    <polygon id="Star" fill="#BDBDD7" opacity="0.5" points="148.220184 93.4125452 144.25128 95.4992487 145.009273 91.0795399 141.798362 87.9494848 146.235732 87.3046579 148.220184 83.2834741 150.204636 87.3046579 154.642006 87.9494848 151.431095 91.0795399 152.189088 95.4992487"></polygon>
                    <polygon id="Star" fill="#BDBDD7" opacity="0.5" points="164.725814 93.4125452 160.756909 95.4992487 161.514903 91.0795399 158.303992 87.9494848 162.741361 87.3046579 164.725814 83.2834741 166.710266 87.3046579 171.147635 87.9494848 167.936724 91.0795399 168.694718 95.4992487"></polygon>
                    <polygon id="Star" fill="#BDBDD7" opacity="0.5" points="181.231443 93.4125452 177.262539 95.4992487 178.020532 91.0795399 174.809621 87.9494848 179.246991 87.3046579 181.231443 83.2834741 183.215895 87.3046579 187.653265 87.9494848 184.442354 91.0795399 185.200347 95.4992487"></polygon>
                    <rect id="Rectangle" fill="#BDBDD7" opacity="0.5" x="22.5076766" y="150.060314" width="123.792221" height="231.092883" rx="7.5"></rect>
                    <path d="M183.810133,150.060314 L288.848516,150.060314 L288.848516,381.153197 L183.810133,381.153197 C179.667997,381.153197 176.310133,377.795332 176.310133,373.653197 L176.310133,157.560314 C176.310133,153.418178 179.667997,150.060314 183.810133,150.060314 Z" id="Rectangle" fill="#BDBDD7" opacity="0.5"></path>
                    <rect id="Rectangle" fill="#BDBDD7" opacity="0.5" x="22.5076766" y="395.408926" width="251.335722" height="18.7575392" rx="3.75"></rect>
                    <rect id="Rectangle" fill="#BDBDD7" opacity="0.5" x="22.5076766" y="421.669481" width="251.335722" height="18.7575392" rx="3.75"></rect>
                    <rect id="Rectangle" fill="#BDBDD7" opacity="0.5" x="22.5076766" y="447.930036" width="251.335722" height="18.7575392" rx="3.75"></rect>
                    <rect id="Rectangle" fill="#BDBDD7" opacity="0.5" x="22.5076766" y="474.190591" width="127.543501" height="18.7575392" rx="3.75"></rect>
                </g>
                <g id="Woman" stroke-width="1" fill="none" transform="translate(286.365371, 283.581943)">
                    <path d="M27.4176549,149.214026 C21.6104168,152.988894 11.5452217,167.674815 17.2618761,180.520799 C22.9785305,193.366782 22.5115618,195.643332 36.149637,201.49334 C45.2416871,205.393345 53.0829414,206.645557 59.6734,205.249976 L96.9713275,185.592662 C98.2142118,161.510228 92.5996115,146.125382 80.1275269,139.438124 C80.1275269,133.638674 81.1880908,126.92919 76.5762237,120.590461 C73.2819435,116.062674 65.5922314,104.744438 46.6763201,109.863493 C27.4176549,115.075305 39.3480165,141.458956 27.4176549,149.214026 Z" id="hair" fill="#2A2A2D"></path>
                    <path d="M48.4255524,126.955568 C56.0490572,125.05246 63.3522902,122.282059 70.3352513,118.644366 C75.4067072,123.66787 78.8269914,139.970076 77.8562444,145.348215 C77.2090797,148.93364 74.7720103,151.788303 70.545036,153.912204 L72.6704799,164.673609 C65.6140632,169.843399 60.5439459,170.915119 57.4601279,167.888768 C59.6137465,151.249512 53.5168884,147.691442 50.9540026,143.361821 C46.4235483,140.628056 45.5739939,137.832442 45.5739939,136.095472 C45.5739939,134.937492 46.9785666,134.460982 49.7877121,134.665943 L48.4255524,126.955568 Z" id="Path-11" fill="#F5D7B5"></path>
                    <path d="M76.090764,160.435578 L98.8356539,195.097458 L70.3352513,239.290514 L92.5619935,315.991264 C119.774347,321.703521 132.740804,318.714038 131.461365,307.022816 C127.392785,269.845076 113.66421,256.197277 110.076445,231.258477 C107.684602,214.63261 108.213027,195.264718 111.66172,173.154801 C122.805552,170.904385 132.604033,164.923954 141.057162,155.213508 C153.997969,140.347888 160.003082,119.651732 171.090924,100.628336 C173.173867,97.0546341 170.853251,95.0765441 164.129077,94.6940662 C152.786949,109.836871 142.822455,125.383403 134.235595,141.333662 C110.452857,143.838086 91.0712468,150.205391 76.090764,160.435578 Z" id="Path-14" fill="#383A87"></path>
                    <g id="Path-25" transform="translate(0.000000, 456.933655)">
                        <mask id="mask-4" fill="white">
                            <use xlink:href="#path-3"></use>
                        </mask>
                        <use id="Mask" fill="#EFBC83" xlink:href="#path-3"></use>
                        <path d="M5.53150769,19.1614923 C8.99170443,27.2519717 11.5581247,33.4355292 13.2307684,37.7121648 C15.739734,44.1271181 15.5247367,50.6914987 19.1476849,53.9754975 C21.5629837,56.1648301 25.1219304,56.4728503 29.824525,54.8995583 L39.504748,61.5429898 C37.4216379,66.9847564 35.9586541,69.7056397 35.1157966,69.7056397 C34.2729391,69.7056397 24.7166819,66.9847564 6.44702502,61.5429898 L-0.908780541,39.5766292 L-3.41689767,22.1379621 L5.53150769,19.1614923 Z" fill="#EC7D50" mask="url(#mask-4)"></path>
                    </g>
                    <g id="Path-24" transform="translate(78.275333, 460.685163)">
                        <mask id="mask-6" fill="white">
                            <use xlink:href="#path-5"></use>
                        </mask>
                        <use id="Mask" fill="#EFBC83" xlink:href="#path-5"></use>
                        <path d="M2.43734245,19.6503275 C6.58068937,25.9688048 9.67088077,30.6297547 11.7079167,33.6331773 C14.7634705,38.1383112 15.5437891,43.4993382 20.2127577,45.8585472 C23.3254034,47.4313533 28.9722011,47.4313533 37.1531508,45.8585472 L46.3119226,53.843879 L34.4087528,60.9299616 L7.85110012,59.477911 L-5.52210398,35.4190544 L-3.07081495,19.6503275 L2.43734245,19.6503275 Z" fill="#EC7D50" mask="url(#mask-6)"></path>
                    </g>
                    <path d="M59.6734,267.075119 C66.6935243,280.425312 71.410059,306.904705 73.823004,346.513297 C78.7330619,427.112099 81.1880908,467.411499 81.1880908,467.411499 L104.593132,467.411499 C104.593132,466.428682 106.420903,426.129282 110.076445,346.513297 C111.133784,323.484956 109.306013,297.005564 104.593132,267.075119 L59.6734,267.075119 Z" id="Path-23" fill="#141416"></path>
                    <path d="M37.7835812,260.74738 C27.7433848,281.688627 39.8712403,358.361321 33.0255246,383.210664 C20.5310498,428.564503 17.2618761,434.556497 12.3083611,460.734988 C16.9788181,465.475174 23.8845393,469.212272 33.0255246,471.946281 C36.1975623,468.923093 45.0463714,441.012217 59.5719518,388.213652 C66.5105876,362.992628 74.7615814,322.021082 84.3249334,265.299014 C62.1176851,243.867691 46.603901,242.350479 37.7835812,260.74738 Z" id="Path-22" fill="#141416"></path>
                    <path d="M81.5632187,164.69266 C89.3084996,174.830523 95.8884748,185.091972 101.303145,195.477005 C109.425149,211.054556 91.6766021,211.924833 96.2433316,229.127738 C98.5614882,237.860251 107.270903,260.485068 105.96396,269.925385 C70.3352513,269.925385 59.6734,269.925385 46.6763201,263.889268 C53.0608505,246.40177 56.2531158,229.183424 56.2531158,212.234229 L65.8655031,169.311704 L81.5632187,164.69266 Z" id="Path-16" fill="#9091BD"></path>
                    <g id="Path-15" transform="translate(10.002047, 160.564536)">
                        <mask id="mask-8" fill="white">
                            <use xlink:href="#path-7"></use>
                        </mask>
                        <use id="Mask" fill="#383A87" xlink:href="#path-7"></use>
                        <path d="M34.2743851,23.981807 C47.466707,38.3904302 57.3155643,52.602197 63.820957,66.6171074 C70.8222432,38.4519784 69.7295872,19.5307992 60.5429889,9.85356981 C54.062868,-0.0180683741 44.9948383,14.0857396 34.2743851,23.981807 Z" fill="#22247A" opacity="0.5" mask="url(#mask-8)"></path>
                    </g>
                    <path d="M164.589274,96.3695688 C166.474672,89.071835 169.917682,88.6110548 173.910892,87.1192443 C177.904101,85.6274337 179.715343,84.3325042 183.487687,84.3325042 C187.260032,84.3325042 181.399706,87.8536453 183.118173,88.1342031 C187.311568,88.8188189 192.860068,81.9552059 194.680757,84.3325042 C196.632807,86.8813223 184.127446,97.6850138 178.727347,98.5664722 C176.351244,98.9543234 173.377646,99.2183456 169.806551,99.3585386 C165.977344,98.2377983 164.238252,97.2414751 164.589274,96.3695688 Z" id="Path-27" fill="#F5D7B5"></path>
                    <g id="Group-2" transform="translate(158.686586, 45.151975) rotate(7.000000) translate(-158.686586, -45.151975) translate(118.172768, 4.635691)">
                        <rect id="Rectangle" fill="#E85720" x="0.35239915" y="0.61538838" width="80.2773797" height="80.2822678" rx="7.5"></rect>
                        <polygon id="Path-26" fill="#F2A183" points="18.5497952 55.5133757 60.5641248 55.5133757 47.4200379 36.7294045 39.8087368 46.1762895 29.574301 29.2528208"></polygon>
                        <ellipse id="Oval" fill="#F2A183" cx="39.8119391" cy="32.1466502" rx="3.75127943" ry="3.75150784"></ellipse>
                    </g>
                    <path d="M117.825324,87.0280211 C119.710722,79.7302873 128.043013,76.482767 132.036222,74.9909565 C136.029432,73.4991459 140.79485,71.9085849 141.930588,72.6136582 C143.066326,73.3187315 134.635756,78.5120976 136.354223,78.7926554 C141.930588,79.7030555 149.844542,73.2205661 149.844542,76.0108977 C149.844542,78.8012293 140.425618,85.7083983 135.025518,86.5898567 C132.649416,86.9777079 129.242494,87.1237627 124.804752,87.0280211 C119.800778,87.8999274 117.474302,87.8999274 117.825324,87.0280211 Z" id="Path-27" fill="#F5D7B5"></path>
                    <path d="M53.5168884,163.288775 C72.6704799,153.781047 82.9313324,146.261912 100.480648,140.596549 C102.308419,131.246111 108.023076,112.937483 117.624619,85.670664 C121.300547,85.5885998 124.378851,86.2087221 126.85953,87.5310309 C122.688064,118.871508 124.333058,145.316708 101.303145,163.288775 C90.89953,171.40754 81.1880908,180.315638 53.5168884,189.075995 C46.5351591,191.286323 27.1606134,176.371872 53.5168884,163.288775 Z" id="Path-13" fill="#383A87"></path>
                    <ellipse id="Oval" stroke="#E13969" stroke-width="1.5" cx="52.7666325" cy="145.558504" rx="2.25076766" ry="3.00120627"></ellipse>
                </g>
                <g id="Man" stroke-width="1" fill="none" transform="translate(535.699046, 390.875067)">
                    <g id="Path-36" transform="translate(88.283521, 358.644150)">
                        <mask id="mask-10" fill="white">
                            <use xlink:href="#path-9"></use>
                        </mask>
                        <use id="Mask" fill="#E9A252" xlink:href="#path-9"></use>
                        <path d="M32.064253,20.2365272 C35.5942896,21.3967017 39.2395607,21.9200322 43.0000662,21.8065186 C46.7605716,21.693005 50.4103272,20.9494688 53.9493328,19.5759101 L56.592666,35.8379639 L43.0000662,44.1223483 L-0.50415144,42.3518125 L-8.75033984,32.9585351 L32.064253,20.2365272 Z" fill="#3240AB" mask="url(#mask-10)"></path>
                    </g>
                    <g id="Path-35" transform="translate(93.781986, 206.332931)">
                        <mask id="mask-12" fill="white">
                            <use xlink:href="#path-11"></use>
                        </mask>
                        <use id="Mask" fill="#BBBFE4" xlink:href="#path-11"></use>
                        <path d="M32.1200247,8.25331725 C29.4432542,29.8949895 29.4432542,46.1705741 32.1200247,57.0800711 C34.7967952,67.989568 40.6124291,79.7232881 49.5669264,92.2812312 L62.0524789,82.369044 L43.5091412,3.23274465 L32.1200247,8.25331725 Z" fill="#5F6BBF" opacity="0.5" mask="url(#mask-12)"></path>
                    </g>
                    <g id="Path-37" transform="translate(170.308086, 357.893848)">
                        <mask id="mask-14" fill="white">
                            <use xlink:href="#path-13"></use>
                        </mask>
                        <use id="Mask" fill="#E9A252" xlink:href="#path-13"></use>
                        <path d="M22.5719319,17.8935933 C26.1762548,18.4970497 30.0111565,18.0918575 34.076637,16.6780169 C38.1421174,15.2641762 41.2531883,12.8330233 43.4098495,9.38455806 L55.2443301,21.4100458 L46.8665949,41.4367963 L12.20067,47.4787755 L-6.696287,37.4715551 L-5.00464808,27.9597974 L22.5719319,17.8935933 Z" fill="#3240AB" mask="url(#mask-14)"></path>
                    </g>
                    <path d="M133.878948,189.796988 C128.413999,223.624032 128.249391,247.285886 133.385124,260.782551 C147.99879,299.187147 170.290658,323.976063 190.540996,366.332931 C195.811441,369.316552 202.573465,367.002211 210.827067,359.389908 C198.061351,317.733615 188.970538,289.72387 183.554629,275.360676 C175.89043,255.034935 178.619029,222.988363 191.740426,179.22096 L133.878948,189.796988 Z" id="Path-33" fill="#BBBFE4"></path>
                    <path d="M156.894698,83.223025 C158.560638,82.6946964 166.938632,95.1138726 182.028678,120.480554 L172.67147,123.448055 C160.487681,97.1596969 155.228757,83.7513536 156.894698,83.223025 Z" id="Path-31" fill="#141416" opacity="0.3"></path>
                    <path d="M105.438793,62.2471869 C111.958853,53.2428955 167.436047,46.9759122 174.582493,62.2471869 C187.961041,90.8358686 181.700165,97.5978638 155.799867,82.5331725 L116.113131,87.7764909 L97.2138202,135.924749 L76.6542748,130.529026 C80.9980612,105.510181 90.5929007,82.7495681 105.438793,62.2471869 Z" id="Path-29" fill="#22247A"></path>
                    <g id="Card-2" transform="translate(110.617026, 162.343445) rotate(-95.000000) translate(-110.617026, -162.343445) translate(53.972707, 56.926075)">
                        <rect id="Rectangle" fill="#E54506" x="0.681068329" y="0.0712290428" width="112.538383" height="210.084439" rx="7.5"></rect>
                        <g id="Group" transform="translate(30.722571, 84.139129)" fill="#F2A183">
                            <polygon id="Path-26" points="0 41.2665862 53.2681679 41.2665862 36.6033434 17.2405765 26.953301 29.3238016 13.9774984 7.67750442"></polygon>
                            <ellipse id="Oval" cx="26.6340839" cy="4.79844026" rx="4.75608642" ry="4.79844026"></ellipse>
                        </g>
                    </g>
                    <path d="M160.884933,66.4647024 L189.901557,129.989747 C191.659983,162.605395 191.642098,178.913219 189.847901,178.913219 C188.053704,178.913219 160.967239,178.067176 108.588506,176.37509 C102.580032,150.213299 99.6105275,129.611757 99.6799934,114.570463 C99.7494592,99.52917 102.877796,85.7389594 109.065005,73.1998313 L160.884933,66.4647024 Z" id="Path-30" fill="#22247A"></path>
                    <g id="Card-1" transform="translate(191.824691, 168.181207) rotate(-98.000000) translate(-191.824691, -168.181207) translate(137.806267, 67.265646)">
                        <rect id="Rectangle" fill="#E85720" x="0.506363642" y="0.257955654" width="107.286592" height="201.08082" rx="7.5"></rect>
                        <g id="Group" transform="translate(29.436122, 81.023447)" fill="#F2A183">
                            <polygon id="Path-26" points="0 39.0156815 51.0174002 39.0156815 35.0567232 16.3001814 25.8144291 27.7243215 13.3868999 7.25873145"></polygon>
                            <ellipse id="Oval" cx="25.5087001" cy="4.53670716" rx="4.55512502" ry="4.53670716"></ellipse>
                        </g>
                    </g>
                    <path d="M188.070614,200.605654 C184.042657,212.232641 182.709201,218.439482 184.070247,219.226175 C186.111816,220.406215 186.210011,214.94418 188.862998,214.177026 C191.515985,213.409872 190.615008,216.96721 186.486211,222.403966 C182.357414,227.840721 191.56164,225.070669 194.046285,222.994169 C196.53093,220.917669 197.326809,218.726182 197.515895,212.754563 C197.641953,208.773484 196.728785,204.500735 194.776392,199.936317 L188.070614,200.605654 Z" id="Path-32" fill="#E9A252"></path>
                    <path d="M174.582493,62.2471869 C194.650315,105.130209 208.058266,124.056209 208.058266,135.924749 C208.058266,143.837109 204.544142,165.528445 197.515895,200.998756 L185.80849,200.998756 C182.8823,179.665963 182.8823,157.974627 185.80849,135.924749 C175.290254,120.188932 165.28738,102.39174 155.799867,82.5331725 C163.55732,58.8283323 169.818196,52.0663371 174.582493,62.2471869 Z" id="Path-29" fill="#22247A"></path>
                    <path d="M116.003457,19.044764 C115.653957,19.044764 115.346744,36.1316338 118.747789,43.3899983 C121.015152,48.228908 124.173818,50.5567479 128.223786,50.3735181 C128.223786,52.6437176 128.223786,56.5886626 128.223786,62.208353 C128.223786,70.6378885 143.348912,67.6667236 143.348912,61.3569365 C143.348912,55.0471495 142.538362,49.9382845 143.348912,43.3899983 C143.889279,39.0244741 144.602465,35.7401951 145.488472,33.5371612 C148.033537,28.2613591 148.87031,24.9205388 147.99879,23.5147003 C146.691511,21.4059425 142.350797,20.8135414 141.263512,19.044764 C140.538655,17.8655791 139.744928,14.8873313 138.882329,10.1100205 C127.403392,12.3087848 120.674017,13.7922912 118.694203,14.5605398 C117.638664,14.9701323 116.01757,19.044764 116.003457,19.044764 Z" id="Path-28" fill="#E9A252"></path>
                    <path d="M112.974864,8.38997032 C129.468666,4.41999628 132.598994,3.53936006 141.246931,6.32470318 C146.704413,8.0824587 150.747683,12.069894 151.312221,20.6360919 C151.959342,30.4554108 147.849634,36.3971092 146.311347,38.0762108 C143.049157,41.6370221 140.017156,44.2017134 137.900986,45.8427349 C139.109141,43.3212685 140.211434,39.9705272 141.207867,35.790511 C144.065029,34.9152912 145.766221,33.7097641 146.311442,32.1739297 C147.259422,29.5035643 146.10366,27.4237051 144.743718,27.3673248 C142.884357,27.2902396 141.637606,30.571795 139.872836,31.9069986 C138.379686,33.036698 137.551143,33.7211951 137.1363,32.5086538 C136.416972,29.6646382 136.248066,26.3041896 136.629584,22.4273079 C120.859636,21.4333983 112.974729,16.7542858 112.974864,8.38997032 Z" id="Path-64" fill="#2A2A2D" transform="translate(132.177810, 25.273563) rotate(-16.000000) translate(-132.177810, -25.273563) "></path>
                </g>
            </g>
        </g>
    </g>
</svg>