<?xml version="1.0" encoding="UTF-8"?>
<svg width="200px" height="200px" viewBox="0 0 200 200" version="1.1" xmlns="http://www.w3.org/2000/svg" xmlns:xlink="http://www.w3.org/1999/xlink">
    <!-- Generator: Sketch 53.2 (72643) - https://sketchapp.com -->
    <title>playbook-DS</title>
    <desc>Created with Sketch.</desc>
    <g id="ComPro" stroke="none" stroke-width="1" fill="none" fill-rule="evenodd">
        <g id="Timeframe-Playbook" transform="translate(-665.000000, -690.000000)">
            <g id="DS" transform="translate(665.000000, 690.000000)">
                <circle id="Oval" fill="#3240AB" cx="100" cy="100" r="100"></circle>
                <g id="Group" transform="translate(40.495868, 40.000000)" fill="#FFFFFF" fill-rule="nonzero">
                    <path d="M92.6602291,59.1720783 L92.6602291,28.8811355 C92.6602291,25.2494098 89.7058946,22.2969726 86.0760668,22.2969726 L55.7832266,22.2969726 C52.1533983,22.2969726 49.1990638,25.2494098 49.1990638,28.8811355 L49.1990638,37.8864481 C47.6773066,37.9965006 46.1859081,38.6264551 45.0246668,39.7876964 L23.6043178,61.2080454 C21.0370637,63.7752995 21.0370637,67.9534917 23.6043178,70.5207457 L45.0246668,91.9391974 C46.3092425,93.2237731 47.9941809,93.8651125 49.6810172,93.8651125 C51.3659556,93.8651125 53.0527914,93.2237731 54.3373671,91.9391974 L75.7558187,70.5207457 C77.066959,69.2096055 77.7045033,67.4791281 77.6760414,65.758138 L86.0760668,65.758138 C89.7058946,65.7562406 92.6602291,62.8038035 92.6602291,59.1720783 Z M56.4852841,52.2406819 L62.714623,58.4700204 L56.4852841,58.4700204 L56.4852841,52.2406819 Z M70.108998,65.8643953 L49.6810172,86.2904794 L29.2530358,65.8643953 L49.1990638,45.9183673 L49.1990638,59.1720783 C49.1990638,62.8038035 52.1533983,65.7562406 55.7832266,65.7562406 L70.0027406,65.7562406 L70.108998,65.8643953 Z M85.3740089,58.4700204 L73.019691,58.4700204 L56.4852841,41.9375108 L56.4852841,29.5812956 L85.3740089,29.5812956 L85.3740089,58.4700204 Z" id="Shape"></path>
                    <path d="M81.7878226,90.0056925 C81.9908497,91.8727864 83.5695308,93.2541324 85.4043681,93.2541324 C85.5352928,93.2541324 85.6700116,93.2484399 85.8028335,93.2332602 C87.8046463,93.0150535 89.2486085,91.2162679 89.0304013,89.216352 L88.514294,84.4916937 L93.2389522,85.007801 C95.2426628,85.2317002 97.0357565,83.782046 97.255861,81.7821306 C97.4740678,79.7822147 96.030106,77.983429 94.0282928,77.7652218 L84.7971831,76.7576745 C83.6985581,76.6400322 82.605625,77.0214201 81.8257716,77.8031713 C81.0440209,78.5830242 80.6607351,79.6759573 80.7802748,80.7745828 L81.7878226,90.0056925 Z" id="Path"></path>
                    <path d="M118.951341,10.8420478 L118.951341,5.98456762 C118.951341,2.68489639 116.266444,8.52651283e-14 112.966773,8.52651283e-14 L108.109293,8.52651283e-14 C105.225164,8.52651283e-14 102.811604,2.05114727 102.249958,4.77019758 L67.7637459,4.77019758 C67.2002024,2.05114727 64.7885393,8.52651283e-14 61.9044104,8.52651283e-14 L57.0469302,8.52651283e-14 C54.1628014,8.52651283e-14 51.7492409,2.05114727 51.1875948,4.77019758 L16.7013828,4.77019758 C16.1378393,2.05114727 13.7261762,8.52651283e-14 10.8420473,8.52651283e-14 L5.98456714,8.52651283e-14 C2.68489639,8.52651283e-14 -8.52651283e-14,2.68489639 -8.52651283e-14,5.98456762 L-8.52651283e-14,10.8420478 C-8.52651283e-14,13.6863303 1.99612076,16.0676342 4.66014505,16.6729214 L4.66014505,51.3261092 C1.99612076,51.9313969 -8.52651283e-14,54.3127003 -8.52651283e-14,57.1569827 L-8.52651283e-14,62.0144629 C-8.52651283e-14,64.8587454 1.99612076,67.2400493 4.66014505,67.845337 L4.66014505,102.498524 C1.99612076,103.103812 -8.52651283e-14,105.487013 -8.52651283e-14,108.329398 L-8.52651283e-14,113.186879 C-8.52651283e-14,116.486549 2.68489639,119.171446 5.98456714,119.171446 L10.8420473,119.171446 C13.7261762,119.171446 16.1397366,117.120299 16.7013828,114.401249 L51.1875948,114.401249 C51.7492409,117.120299 54.1628014,119.171446 57.0469302,119.171446 L61.9044104,119.171446 C65.2040816,119.171446 67.8870802,116.486549 67.8870802,113.186879 L67.8870802,108.329398 C67.8870802,105.029727 65.2040816,102.346728 61.9044104,102.346728 L57.0469302,102.346728 C54.1628014,102.346728 51.7492409,104.395978 51.1875948,107.115028 L16.7013828,107.115028 C16.2118401,104.752699 14.3238741,102.898887 11.944468,102.452985 L11.944468,67.8927732 C14.7185443,67.3728708 16.8247171,64.9365409 16.8247171,62.0144629 L16.8247171,57.1569827 C16.8247171,54.2349048 14.7185443,51.8004727 11.944468,51.2805703 L11.944468,16.7203581 C14.3238741,16.2744564 16.2118401,14.4206443 16.7013828,12.0564179 L51.1856974,12.0564179 C51.7492409,14.7754682 54.1628014,16.8266154 57.0450329,16.8266154 L61.9025131,16.8266154 C64.7866419,16.8266154 67.2002024,14.7754682 67.7637459,12.0564179 L102.248061,12.0564179 C102.737603,14.4206443 104.625569,16.2744564 107.004975,16.7203581 L107.004975,51.2805703 C104.230899,51.8004727 102.124726,54.2349048 102.124726,57.1569827 L102.124726,62.0144629 C102.124726,65.3141342 104.807725,67.9990306 108.107396,67.9990306 L112.964876,67.9990306 C116.264547,67.9990306 118.949443,65.3141342 118.949443,62.0144629 L118.949443,57.1569827 C118.949443,54.3127003 116.953323,51.9313969 114.289298,51.3261092 L114.289298,16.6729214 C116.95522,16.0676342 118.951341,13.6863303 118.951341,10.8420478 L118.951341,10.8420478 Z M109.410946,7.28622027 L111.66512,7.28622027 L111.66512,9.53849734 L109.410946,9.53849734 L109.410946,7.28622027 Z M7.28622027,7.28622027 L9.54039467,7.28622027 L9.54039467,9.53849734 L7.28622027,9.53849734 L7.28622027,7.28622027 Z M7.28622027,58.4586359 L9.54039467,58.4586359 L9.54039467,60.7109129 L7.28622027,60.7109129 L7.28622027,58.4586359 Z M9.54039467,111.885225 L7.28622027,111.885225 L7.28622027,109.631051 L9.54039467,109.631051 L9.54039467,111.885225 Z M58.3485834,109.631051 L60.6027573,109.631051 L60.6027573,111.885225 L58.3485834,111.885225 L58.3485834,109.631051 Z M60.6027573,9.53849734 L58.3485834,9.53849734 L58.3485834,7.28622027 L60.6027573,7.28622027 L60.6027573,9.53849734 Z M111.66512,60.7109129 L109.410946,60.7109129 L109.410946,58.4586359 L111.66512,58.4586359 L111.66512,60.7109129 Z" id="Shape"></path>
                    <path d="M91.6773486,114.401249 L108.306628,114.401249 C111.606299,114.401249 114.291196,111.716352 114.291196,108.416681 L114.291196,91.7874012 C114.291196,89.3586611 112.841541,87.1898719 110.596855,86.2601201 C108.354065,85.3303678 105.7944,85.8388853 104.075308,87.5560803 L87.4460278,104.187258 C85.7288327,105.904453 85.2203153,108.464117 86.1500671,110.708804 C87.0798194,112.951594 89.2486085,114.401249 91.6773486,114.401249 Z M107.004975,94.931481 L107.004975,107.115028 L94.8233258,107.115028 L107.004975,94.931481 Z" id="Shape"></path>
                </g>
            </g>
        </g>
    </g>
</svg>