<?xml version="1.0" encoding="UTF-8"?>
<svg width="200px" height="200px" viewBox="0 0 200 200" version="1.1" xmlns="http://www.w3.org/2000/svg" xmlns:xlink="http://www.w3.org/1999/xlink">
    <!-- Generator: Sketch 53.2 (72643) - https://sketchapp.com -->
    <title>playbook-CI</title>
    <desc>Created with Sketch.</desc>
    <g id="ComPro" stroke="none" stroke-width="1" fill="none" fill-rule="evenodd">
        <g id="Timeframe-Playbook" transform="translate(-235.000000, -690.000000)">
            <g id="CI" transform="translate(235.000000, 690.000000)">
                <circle id="Oval" fill="#3240AB" cx="100" cy="100" r="100"></circle>
                <g id="Group-2" transform="translate(49.166667, 40.000000)" fill="#FFFFFF" fill-rule="nonzero">
                    <path d="M100.408529,113.427734 C100.11556,109.760742 98.2910158,102.775065 89.3733725,97.1761067 C87.9052738,96.2548829 86.131185,96.0481771 84.5068363,96.6113283 C84.3603517,96.6617838 84.1927083,96.71875 84.0055342,96.7822267 L72.7978517,80.1611329 L78.9925133,43.9225258 C79.5491538,40.5175783 79.6158858,37.0996092 79.2008467,33.7418621 C80.4101567,32.7034504 81.1800133,31.16862 81.1800133,29.4547525 L81.1800133,24.6191408 C81.1800133,11.0449217 70.1350913,7.10542736e-15 56.559245,7.10542736e-15 L5.65266958,7.10542736e-15 C2.5358075,7.10542736e-15 7.10542736e-14,2.5358075 7.10542736e-14,5.65266917 L7.10542736e-14,18.2861329 C7.10542736e-14,25.69987 4.82421917,32.0052083 11.4957683,34.2382813 C4.915365,45.6347658 4.6858725,60.7893879 4.9169925,67.0052083 C5.02929708,70.0569663 7.51139333,72.4479167 10.5647788,72.4479167 L16.0677083,72.4479167 L16.0677083,87.7425129 C16.0677083,90.8268229 18.5774742,93.36263 21.6634117,93.3951825 L34.0380863,93.51888 L41.5673829,106.621094 C39.1894533,107.294922 37.4641929,109.475912 37.4641929,112.052409 L37.4641929,113.888346 C37.4641929,117.005208 40,119.541016 43.1168621,119.541016 L94.7753908,119.541016 C96.3476567,119.541016 97.8597008,118.878581 98.9257817,117.724609 C99.99349,116.567383 100.533854,115.001628 100.408529,113.427734 L100.408529,113.427734 Z M72.8287763,42.89388 L67.0393883,76.7464192 L51.3769533,71.4941408 L51.3769533,40 C51.3769533,38.2747396 49.9788413,36.875 48.2519533,36.875 L40.3580733,36.875 L40.3580733,35.1074217 L73.0631513,35.1074217 C73.3268233,37.6839192 73.2519533,40.2978517 72.8287763,42.89388 L72.8287763,42.89388 Z M6.2483725,18.2861329 L6.2483725,6.25 L56.559245,6.25 C66.6894533,6.25 74.9300133,14.49056 74.9300133,24.6191408 L74.9300133,28.8574217 L16.8196617,28.8574217 C10.9912113,28.8574217 6.2483725,24.1162108 6.2483725,18.2861329 Z M35.8886721,87.2884117 L22.3177083,87.1516925 L22.3177083,82.9703775 C23.1201175,82.9427083 24.02181,82.8841146 24.9772138,82.7783204 C29.6500654,82.2526042 33.2666017,80.8414712 35.7242842,78.5823567 C38.0387371,76.4550783 39.2626954,73.5839842 39.2626954,70.2783204 C39.2626954,68.5514325 37.8629558,67.1533204 36.1376954,67.1533204 C34.4108075,67.1533204 33.0126954,68.5514325 33.0126954,70.2783204 C33.0126954,71.8489583 32.5325525,73.0240883 31.5006513,73.9746092 C29.3408204,75.9667967 25.2962242,76.5950521 22.3177083,76.7236329 L22.3177083,69.3245442 C22.3177083,67.5976562 20.9179692,66.1979167 19.1927083,66.1979167 L11.1425783,66.1979167 C10.9602867,59.9137371 11.3541667,45.6103517 17.8157554,35.8902996 C17.9833988,35.6380208 18.1705733,35.3776042 18.3772788,35.1074217 L34.1080733,35.1074217 L34.1080733,37.4739583 C34.1080733,39.1796875 34.8649092,40.7747396 36.1735029,41.8408204 C37.1793621,42.6692708 38.4521488,43.1266275 39.759115,43.1266275 L45.1269533,43.1266275 L45.1269533,71.9238283 C45.1269533,74.3554687 46.6764325,76.5087892 48.984375,77.2851562 L65.9391279,82.96875 C66.3981121,83.1233725 66.8701175,83.2112629 67.3453779,83.2389325 C67.3763025,83.2893879 67.4023442,83.3398437 67.4365238,83.3902996 L77.8287763,98.8020833 C70.3336592,101.152344 58.4554038,104.536133 48.3512371,105.883789 L38.5660808,88.8557942 C38.0143233,87.8955079 36.9954429,87.2998046 35.8886721,87.2884117 L35.8886721,87.2884117 Z M43.7141929,113.291016 L43.7141929,112.620442 C58.7516279,111.71875 79.7070317,104.871419 86.2760417,102.612305 C91.94987,106.25 93.7011721,110.314127 94.1097008,113.291016 L43.7141929,113.291016 Z" id="Shape"></path>
                    <path d="M29.3929038,47.0442708 L29.3603517,47.0442708 C27.6350913,47.0442708 26.2516279,48.4440104 26.2516279,50.1692708 C26.2516279,51.8961587 27.6676433,53.2942708 29.3929038,53.2942708 C31.1181642,53.2942708 32.5179038,51.8961587 32.5179038,50.1692708 C32.5179038,48.4440104 31.1181642,47.0442708 29.3929038,47.0442708 Z" id="Path"></path>
                </g>
            </g>
        </g>
    </g>
</svg>