<?xml version="1.0" encoding="UTF-8"?>
<svg width="200px" height="200px" viewBox="0 0 200 200" version="1.1" xmlns="http://www.w3.org/2000/svg" xmlns:xlink="http://www.w3.org/1999/xlink">
    <!-- Generator: Sketch 53.2 (72643) - https://sketchapp.com -->
    <title>playbook-PT</title>
    <desc>Created with Sketch.</desc>
    <g id="ComPro" stroke="none" stroke-width="1" fill="none" fill-rule="evenodd">
        <g id="Timeframe-Playbook" transform="translate(-1525.000000, -690.000000)">
            <g id="PT" transform="translate(1525.000000, 690.000000)">
                <circle id="Oval" fill="#3240AB" cx="100" cy="100" r="100"></circle>
                <g id="Group-3" transform="translate(23.537906, 40.000000)" fill="#FFFFFF" fill-rule="nonzero">
                    <path d="M150.782708,64.9768626 C153.417593,62.0706903 153.417593,57.6876939 150.784404,54.7798258 C130.236035,32.1018459 103.812585,19.6124257 76.3819791,19.6124257 C48.9547641,19.6124257 22.5296192,32.1018459 1.97616323,54.7798258 C-0.658721077,57.6876939 -0.658721077,62.0706903 1.97616323,64.978558 C5.39778312,68.7511569 9.06695308,72.3219847 12.8836356,75.5910049 C14.2485535,76.7609345 16.30356,76.6015526 17.4734892,75.2366351 C18.6417234,73.8700221 18.4840369,71.8150152 17.1191194,70.645086 C13.5109892,67.5540984 10.0385031,64.176563 6.80000299,60.6040398 C6.42528614,60.1903251 6.42528614,59.5663628 6.80000299,59.1526491 C26.1038384,37.8531511 50.8147822,26.1233372 76.3819791,26.1233372 C101.950871,26.1233372 126.66012,37.8531511 145.958869,59.1509532 C146.335281,59.5663628 146.335281,60.1903251 145.958869,60.6040398 C126.658424,81.8984505 101.949176,93.6265689 76.3819791,93.6265689 C59.4366533,93.6265689 43.2373699,88.6959103 28.233449,78.9719316 C26.7244094,77.9952948 24.7100961,78.4242689 23.731764,79.9350039 C22.7534318,81.4423477 23.1841012,83.4583564 24.6931408,84.436689 C40.5414453,94.70833 58.4159325,100.137481 76.3819791,100.137481 C103.809194,100.137481 130.232644,87.6497557 150.782708,64.9768626 L150.782708,64.9768626 Z" id="Path" stroke="#FFFFFF" stroke-width="3"></path>
                    <path d="M99.2888578,55.2342332 C99.6432281,56.9959096 101.36082,58.13871 103.122496,57.7826447 C104.885868,57.426579 106.025278,55.7106826 105.670908,53.9490061 C102.876642,40.0675395 90.5567761,29.9925819 76.3802836,29.9925819 C59.9029296,29.9925819 46.4979124,43.3975991 46.4979124,59.8749531 C46.4979124,76.3523071 59.9029296,89.7573243 76.3802836,89.7573243 C89.0104346,89.7573243 100.329926,81.7594156 104.548454,69.8549599 C105.148678,68.1611055 104.261906,66.2993915 102.566356,65.6991671 C100.870806,65.0989422 99.0107881,65.9857149 98.4105632,67.6795693 C95.1127188,76.9898339 86.2585571,83.2464127 76.3802836,83.2464127 C63.4924086,83.2464127 53.008824,72.7611322 53.008824,59.8749531 C53.008824,46.9870785 63.4924086,36.5034934 76.3802836,36.5034934 C87.4691799,36.5034934 97.1032941,44.3810184 99.2888578,55.2342332 L99.2888578,55.2342332 Z" id="Path"></path>
                    <path d="M82.0518979,43.3484282 C78.8591774,43.3484282 76.0598248,45.0405872 74.4812678,47.5686522 C68.5129322,48.4842487 63.9281653,53.6539807 63.9281653,59.8749531 C63.9281653,66.7419299 69.5133064,72.3270715 76.3802836,72.3270715 C83.245565,72.3270715 88.8307061,66.7419299 88.8307061,59.8749531 C88.8307061,59.313726 88.7900129,58.7541947 88.7154092,58.1997498 C90.1193241,56.6228882 90.9806638,54.5509264 90.9806638,52.2771941 C90.9806638,47.3533173 86.9757748,43.3484282 82.0518979,43.3484282 L82.0518979,43.3484282 Z M82.0518979,49.8593398 C83.3846003,49.8593398 84.4697523,50.9444917 84.4697523,52.2771941 C84.4697523,53.6098961 83.3846003,54.6950481 82.0518979,54.6950481 C80.7191955,54.6950481 79.6357394,53.6098961 79.6357394,52.2771941 C79.6357394,50.9444917 80.7191955,49.8593398 82.0518979,49.8593398 Z M76.3802836,65.8161599 C73.1044813,65.8161599 70.4390768,63.1507555 70.4390768,59.8749531 C70.4390768,57.6571738 71.6615682,55.7225515 73.4673287,54.7018303 C74.5270477,58.4489957 77.9707092,61.2042642 82.0518979,61.2042642 C82.0908957,61.2042642 82.1281975,61.1991774 82.1654999,61.1991774 C81.5618841,63.8391485 79.1999828,65.8161599 76.3802836,65.8161599 L76.3802836,65.8161599 Z" id="Shape"></path>
                    <path d="M76.3836745,10.1088682 L76.3921522,10.1088682 C78.1894355,10.1054773 79.6425216,8.64391311 79.6391303,6.84493479 L79.6289572,3.24697771 C79.6255659,1.4513907 78.1690884,1.36779477e-13 76.3735014,1.36779477e-13 C76.371806,1.36779477e-13 76.3684147,1.36779477e-13 76.3667192,1.36779477e-13 C74.5677409,0.00508632412 73.1146543,1.4649551 73.1180457,3.26393343 L73.1282187,6.86189051 C73.1333055,8.65747751 74.589783,10.1088682 76.3836745,10.1088682 Z" id="Path"></path>
                    <path d="M67.78215,11.6891207 C68.336595,11.6891207 68.8995175,11.5466945 69.4132693,11.2482777 C70.9680884,10.3462452 71.4971,8.35397441 70.5950674,6.79915483 L68.787611,3.68612524 C67.8855785,2.1313061 65.8933073,1.60398998 64.3384881,2.50602252 C62.783669,3.40805506 62.2546574,5.40032628 63.1566899,6.95514542 L64.9641463,10.068175 C65.5677617,11.1075474 66.6596962,11.6891207 67.78215,11.6891207 Z" id="Path"></path>
                    <path d="M84.9919812,11.6467321 C86.1195222,11.6467321 87.2165426,11.0600716 87.818463,10.0105265 L89.6106595,6.89071474 C90.5059099,5.33250429 89.9667248,3.3419285 88.4068189,2.44667816 C86.8486084,1.55142782 84.8580331,2.0906129 83.9627827,3.6505188 L82.1722821,6.77033059 C81.2770317,8.32854105 81.8162164,10.3191164 83.3744268,11.2143667 C83.8847872,11.5076968 84.4426235,11.6467321 84.9919812,11.6467321 L84.9919812,11.6467321 Z" id="Path"></path>
                    <path d="M76.3751969,109.641038 C76.3735014,109.641038 76.3701101,109.641038 76.3667192,109.641038 C74.5694364,109.644429 73.1163502,111.105993 73.1197411,112.904971 L73.1299146,116.502928 C73.1333055,118.298515 74.589783,119.749906 76.3853704,119.749906 L76.3921522,119.749906 C78.1911309,119.74482 79.6442171,118.284951 79.6408262,116.485973 L79.6306527,112.888016 C79.6255659,111.092429 78.1707843,109.641038 76.3751969,109.641038 Z" id="Path"></path>
                    <path d="M87.7947255,109.681731 C86.8926929,108.126912 84.9004217,107.599596 83.3456026,108.501628 C81.790783,109.403661 81.2617714,111.395932 82.1638044,112.950751 L83.9712604,116.063781 C84.5748761,117.103153 85.6668103,117.684727 86.7892645,117.684727 C87.343709,117.684727 87.9066316,117.5423 88.4203833,117.243884 C89.9752024,116.341851 90.504214,114.34958 89.6021814,112.794761 L87.7947255,109.681731 Z" id="Path"></path>
                    <path d="M64.9404084,109.737684 L63.1482123,112.859191 C62.2546574,114.417402 62.7921466,116.407978 64.3520525,117.303228 C64.8624129,117.596558 65.4202492,117.735593 65.9696073,117.735593 C67.0971479,117.735593 68.1941688,117.147237 68.7960887,116.099387 L70.5865893,112.979576 C71.4818397,111.41967 70.9443505,109.43079 69.3844446,108.535539 C67.8262346,107.640289 65.8356588,108.179474 64.9404084,109.737684 L64.9404084,109.737684 Z" id="Path"></path>
                </g>
            </g>
        </g>
    </g>
</svg>