<?xml version="1.0" encoding="UTF-8"?>
<svg width="200px" height="200px" viewBox="0 0 200 200" version="1.1" xmlns="http://www.w3.org/2000/svg" xmlns:xlink="http://www.w3.org/1999/xlink">
    <!-- Generator: Sketch 53.2 (72643) - https://sketchapp.com -->
    <title>playbook-AD</title>
    <desc>Created with Sketch.</desc>
    <g id="ComPro" stroke="none" stroke-width="1" fill="none" fill-rule="evenodd">
        <g id="Timeframe-Playbook" transform="translate(-1095.000000, -690.000000)">
            <g id="AD" transform="translate(1095.000000, 690.000000)">
                <circle id="Oval" fill="#3240AB" cx="100" cy="100" r="100"></circle>
                <path d="M42.4852375,123.031579 C42.4852375,129.372015 47.646727,134.531451 53.987163,134.531451 C56.8749682,134.531451 59.5142492,133.461361 61.5353018,131.697047 L88.6387678,146.713222 C88.5483956,147.29448 88.4991016,147.892169 88.4991016,148.498074 C88.4991016,154.840565 93.6585368,160 100.001027,160 C106.341464,160 111.500899,154.840565 111.500899,148.498074 C111.500899,147.892169 111.453659,147.29448 111.363286,146.713222 L138.464699,131.697047 C140.485751,133.459307 143.127086,134.531451 146.012837,134.531451 C152.355327,134.531451 157.514763,129.372015 157.514763,123.029525 C157.514763,118.073427 154.362003,113.838254 149.956354,112.225931 L149.956354,87.7987164 C154.362003,86.1843387 157.514763,81.9512194 157.514763,76.9930677 C157.514763,70.6505773 152.355327,65.4911421 146.012837,65.4911421 C143.133248,65.4911421 140.500129,66.5571243 138.48113,68.3111682 L111.361233,53.2867778 C111.453659,52.7055196 111.500899,52.1098845 111.500899,51.5019256 C111.500899,45.1594352 106.341464,40 99.9989734,40 C93.6585368,40 88.4991016,45.1594352 88.4991016,51.5019256 C88.4991016,52.1078302 88.5463418,52.7055196 88.6387678,53.2867778 L61.5188705,68.3111682 C59.4998717,66.5571243 56.8667525,65.4911421 53.987163,65.4911421 C47.6446727,65.4911421 42.4852375,70.6505773 42.4852375,76.9930677 C42.4852375,81.9491656 45.6379976,86.1843387 50.0436457,87.796662 L50.0436457,112.225931 C45.6379976,113.838254 42.4852375,118.073427 42.4852375,123.031579 Z M100.001027,63.0038511 C102.880616,63.0038511 105.513736,61.937869 107.532735,60.1817713 L134.652632,75.2082154 C134.56226,75.7894736 134.512966,76.3851088 134.512966,76.9930677 C134.512966,77.6010266 134.56226,78.1987161 134.652632,78.7799742 L107.532735,93.8043641 C105.513736,92.0503207 102.880616,90.9843386 100.001027,90.9843386 C97.1214382,90.9843386 94.4883185,92.0503207 92.4693197,93.8043641 L65.3494224,78.7799742 C65.4418489,78.1987161 65.4890886,77.6010266 65.4890886,76.9930677 C65.4890886,76.3851088 65.4397946,75.7894736 65.3494224,75.2082154 L92.4693197,60.183825 C94.4883185,61.937869 97.1214382,63.0038511 100.001027,63.0038511 L100.001027,63.0038511 Z M134.512966,123.031579 C134.512966,123.631322 134.560205,124.220796 134.648524,124.795892 L107.532735,139.818228 C106.485238,138.90629 105.273428,138.179204 103.944544,137.69448 L103.944544,113.289858 C108.350193,111.677535 111.502953,107.442362 111.502953,102.48421 C111.502953,101.876251 111.453659,101.280616 111.363286,100.699358 L138.483184,85.6749677 C139.530681,86.5848523 140.742491,87.311938 142.071374,87.7987164 L142.071374,112.225931 C137.665725,113.838254 134.512966,118.073427 134.512966,123.031579 Z M103.615918,102.48421 C103.615918,104.478562 101.993325,106.099101 100.001027,106.099101 C98.0087296,106.099101 96.3861363,104.478562 96.3861363,102.48421 C96.3861363,100.491912 98.0087296,98.8713732 100.001027,98.8713732 C101.993325,98.8713732 103.615918,100.491912 103.615918,102.48421 Z M61.5188705,85.6749677 L88.6387678,100.699358 C88.5483956,101.28267 88.4991016,101.878305 88.4991016,102.486264 C88.4991016,107.442362 91.6518617,111.677535 96.0575098,113.289858 L96.0575098,137.69448 C94.7286265,138.181258 93.5168168,138.908344 92.4693197,139.818228 L65.3535305,124.795892 C65.4418489,124.220796 65.4890886,123.631322 65.4890886,123.031579 C65.4890886,118.073427 62.336329,113.838254 57.9306804,112.225931 L57.9306804,87.7987164 C59.2595637,87.311938 60.4713734,86.5848523 61.5188705,85.6749677 Z M53.987163,126.644416 C51.9948655,126.644416 50.3722722,125.023876 50.3722722,123.031579 C50.3722722,121.037227 51.9948655,119.416688 53.987163,119.416688 C55.9815149,119.416688 57.6020539,121.037227 57.6020539,123.031579 C57.6020539,125.023876 55.9815149,126.644416 53.987163,126.644416 Z M100.001027,152.112965 C98.0087296,152.112965 96.3861363,150.490372 96.3861363,148.498074 C96.3861363,146.505776 98.0087296,144.883184 100.001027,144.883184 C101.993325,144.883184 103.615918,146.505776 103.615918,148.498074 C103.615918,150.490372 101.993325,152.112965 100.001027,152.112965 Z M146.014891,126.644416 C144.022593,126.644416 142.4,125.023876 142.4,123.031579 C142.4,121.037227 144.022593,119.416688 146.014891,119.416688 C148.007189,119.416688 149.629782,121.037227 149.629782,123.031579 C149.629782,125.023876 148.007189,126.644416 146.014891,126.644416 Z M146.014891,73.3781768 C148.007189,73.3781768 149.629782,75.0007701 149.629782,76.9930677 C149.629782,78.9853658 148.007189,80.6079586 146.014891,80.6079586 C144.022593,80.6079586 142.4,78.9853658 142.4,76.9930677 C142.4,75.0007701 144.022593,73.3781768 146.014891,73.3781768 Z M100.001027,47.8870347 C101.993325,47.8870347 103.615918,49.5096275 103.615918,51.5019256 C103.615918,53.4942231 101.993325,55.1168164 100.001027,55.1168164 C98.0087296,55.1168164 96.3861363,53.4942231 96.3861363,51.5019256 C96.3861363,49.5096275 98.0087296,47.8870347 100.001027,47.8870347 L100.001027,47.8870347 Z M53.987163,73.3781768 C55.9815149,73.3781768 57.6020539,75.0007701 57.6020539,76.9930677 C57.6020539,78.9853658 55.9815149,80.6079586 53.987163,80.6079586 C51.9948655,80.6079586 50.3722722,78.9853658 50.3722722,76.9930677 C50.3722722,75.0007701 51.9948655,73.3781768 53.987163,73.3781768 Z" id="Shape" fill="#FFFFFF" fill-rule="nonzero"></path>
            </g>
        </g>
    </g>
</svg>